ISO-10303-21;
HEADER;
/* Generated by software containing ST-Developer
 * from STEP Tools, Inc. (www.steptools.com) 
 */

FILE_DESCRIPTION(
/* description */ (''),
/* implementation_level */ '2;1');

FILE_NAME(
/* name */ 'SW_Toggle.step',
/* time_stamp */ '2026-07-25T11:42:14+09:00',
/* author */ (''),
/* organization */ (''),
/* preprocessor_version */ 'ST-DEVELOPER v20.1',
/* originating_system */ 'Autodesk Translation Framework v15.8.0.0',
/* authorisation */ '');

FILE_SCHEMA (('AUTOMOTIVE_DESIGN { 1 0 10303 214 3 1 1 }'));
ENDSEC;

DATA;
#10=MECHANICAL_DESIGN_GEOMETRIC_PRESENTATION_REPRESENTATION('',(#38,#39,
#40,#41,#42,#43),#1258);
#11=SHAPE_REPRESENTATION_RELATIONSHIP('SRR','None',#1265,#12);
#12=ADVANCED_BREP_SHAPE_REPRESENTATION('',(#33,#34,#35,#36,#37),#1257);
#13=SPHERICAL_SURFACE('',#816,1.27);
#14=FACE_BOUND('',#112,.T.);
#15=CYLINDRICAL_SURFACE('',#804,2.54);
#16=CYLINDRICAL_SURFACE('',#806,2.04);
#17=CYLINDRICAL_SURFACE('',#809,3.);
#18=CYLINDRICAL_SURFACE('',#820,1.27);
#19=CIRCLE('',#799,2.04);
#20=CIRCLE('',#800,0.5);
#21=CIRCLE('',#801,2.54);
#22=CIRCLE('',#802,2.54);
#23=CIRCLE('',#803,2.04);
#24=CIRCLE('',#805,2.54);
#25=CIRCLE('',#807,2.04);
#26=CIRCLE('',#810,3.);
#27=CIRCLE('',#811,3.);
#28=CIRCLE('',#815,1.27);
#29=CIRCLE('',#817,1.27);
#30=CIRCLE('',#818,1.27);
#31=CIRCLE('',#819,1.27);
#32=TOROIDAL_SURFACE('',#798,2.04,0.5);
#33=MANIFOLD_SOLID_BREP('\X2\30DC30C730A3\X0\1',#762);
#34=MANIFOLD_SOLID_BREP('\X2\30DC30C730A3\X0\4',#763);
#35=MANIFOLD_SOLID_BREP('\X2\30DC30C730A3\X0\3',#764);
#36=MANIFOLD_SOLID_BREP('\X2\30DC30C730A3\X0\5',#765);
#37=MANIFOLD_SOLID_BREP('\X2\30DC30C730A3\X0\6',#766);
#38=STYLED_ITEM('',(#1276),#724);
#39=STYLED_ITEM('',(#1275),#33);
#40=STYLED_ITEM('',(#1276),#34);
#41=STYLED_ITEM('',(#1276),#35);
#42=STYLED_ITEM('',(#1276),#36);
#43=STYLED_ITEM('',(#1276),#37);
#44=FACE_OUTER_BOUND('',#88,.T.);
#45=FACE_OUTER_BOUND('',#89,.T.);
#46=FACE_OUTER_BOUND('',#90,.T.);
#47=FACE_OUTER_BOUND('',#91,.T.);
#48=FACE_OUTER_BOUND('',#92,.T.);
#49=FACE_OUTER_BOUND('',#93,.T.);
#50=FACE_OUTER_BOUND('',#94,.T.);
#51=FACE_OUTER_BOUND('',#95,.T.);
#52=FACE_OUTER_BOUND('',#96,.T.);
#53=FACE_OUTER_BOUND('',#97,.T.);
#54=FACE_OUTER_BOUND('',#98,.T.);
#55=FACE_OUTER_BOUND('',#99,.T.);
#56=FACE_OUTER_BOUND('',#100,.T.);
#57=FACE_OUTER_BOUND('',#101,.T.);
#58=FACE_OUTER_BOUND('',#102,.T.);
#59=FACE_OUTER_BOUND('',#103,.T.);
#60=FACE_OUTER_BOUND('',#104,.T.);
#61=FACE_OUTER_BOUND('',#105,.T.);
#62=FACE_OUTER_BOUND('',#106,.T.);
#63=FACE_OUTER_BOUND('',#107,.T.);
#64=FACE_OUTER_BOUND('',#108,.T.);
#65=FACE_OUTER_BOUND('',#109,.T.);
#66=FACE_OUTER_BOUND('',#110,.T.);
#67=FACE_OUTER_BOUND('',#111,.T.);
#68=FACE_OUTER_BOUND('',#113,.T.);
#69=FACE_OUTER_BOUND('',#114,.T.);
#70=FACE_OUTER_BOUND('',#115,.T.);
#71=FACE_OUTER_BOUND('',#116,.T.);
#72=FACE_OUTER_BOUND('',#117,.T.);
#73=FACE_OUTER_BOUND('',#118,.T.);
#74=FACE_OUTER_BOUND('',#119,.T.);
#75=FACE_OUTER_BOUND('',#120,.T.);
#76=FACE_OUTER_BOUND('',#121,.T.);
#77=FACE_OUTER_BOUND('',#122,.T.);
#78=FACE_OUTER_BOUND('',#123,.T.);
#79=FACE_OUTER_BOUND('',#124,.T.);
#80=FACE_OUTER_BOUND('',#125,.T.);
#81=FACE_OUTER_BOUND('',#126,.T.);
#82=FACE_OUTER_BOUND('',#127,.T.);
#83=FACE_OUTER_BOUND('',#128,.T.);
#84=FACE_OUTER_BOUND('',#129,.T.);
#85=FACE_OUTER_BOUND('',#130,.T.);
#86=FACE_OUTER_BOUND('',#131,.T.);
#87=FACE_OUTER_BOUND('',#132,.T.);
#88=EDGE_LOOP('',(#478,#479,#480,#481));
#89=EDGE_LOOP('',(#482,#483,#484,#485));
#90=EDGE_LOOP('',(#486,#487,#488,#489));
#91=EDGE_LOOP('',(#490,#491,#492,#493));
#92=EDGE_LOOP('',(#494,#495,#496,#497));
#93=EDGE_LOOP('',(#498,#499,#500,#501,#502,#503));
#94=EDGE_LOOP('',(#504,#505,#506,#507,#508,#509,#510,#511,#512,#513,#514,
#515));
#95=EDGE_LOOP('',(#516,#517,#518,#519));
#96=EDGE_LOOP('',(#520,#521,#522,#523));
#97=EDGE_LOOP('',(#524,#525,#526,#527));
#98=EDGE_LOOP('',(#528,#529,#530,#531));
#99=EDGE_LOOP('',(#532,#533,#534,#535));
#100=EDGE_LOOP('',(#536,#537,#538,#539,#540,#541));
#101=EDGE_LOOP('',(#542,#543,#544,#545,#546,#547,#548,#549,#550,#551));
#102=EDGE_LOOP('',(#552,#553,#554,#555));
#103=EDGE_LOOP('',(#556,#557,#558,#559,#560,#561,#562,#563,#564,#565));
#104=EDGE_LOOP('',(#566,#567,#568,#569));
#105=EDGE_LOOP('',(#570,#571,#572,#573));
#106=EDGE_LOOP('',(#574,#575,#576,#577,#578,#579));
#107=EDGE_LOOP('',(#580,#581,#582,#583,#584));
#108=EDGE_LOOP('',(#585,#586,#587,#588,#589));
#109=EDGE_LOOP('',(#590));
#110=EDGE_LOOP('',(#591,#592,#593,#594));
#111=EDGE_LOOP('',(#595));
#112=EDGE_LOOP('',(#596));
#113=EDGE_LOOP('',(#597));
#114=EDGE_LOOP('',(#598));
#115=EDGE_LOOP('',(#599,#600,#601,#602));
#116=EDGE_LOOP('',(#603,#604,#605,#606,#607));
#117=EDGE_LOOP('',(#608,#609,#610,#611));
#118=EDGE_LOOP('',(#612,#613,#614,#615));
#119=EDGE_LOOP('',(#616,#617,#618,#619));
#120=EDGE_LOOP('',(#620,#621,#622,#623));
#121=EDGE_LOOP('',(#624,#625,#626,#627));
#122=EDGE_LOOP('',(#628,#629,#630,#631));
#123=EDGE_LOOP('',(#632,#633,#634,#635,#636,#637));
#124=EDGE_LOOP('',(#638,#639,#640,#641,#642,#643));
#125=EDGE_LOOP('',(#644,#645,#646,#647));
#126=EDGE_LOOP('',(#648,#649,#650,#651));
#127=EDGE_LOOP('',(#652,#653,#654,#655));
#128=EDGE_LOOP('',(#656,#657,#658,#659));
#129=EDGE_LOOP('',(#660,#661,#662,#663));
#130=EDGE_LOOP('',(#664,#665,#666,#667));
#131=EDGE_LOOP('',(#668,#669,#670,#671,#672,#673));
#132=EDGE_LOOP('',(#674,#675,#676,#677,#678,#679));
#133=LINE('',#1045,#221);
#134=LINE('',#1047,#222);
#135=LINE('',#1049,#223);
#136=LINE('',#1050,#224);
#137=LINE('',#1053,#225);
#138=LINE('',#1055,#226);
#139=LINE('',#1056,#227);
#140=LINE('',#1059,#228);
#141=LINE('',#1061,#229);
#142=LINE('',#1062,#230);
#143=LINE('',#1066,#231);
#144=LINE('',#1068,#232);
#145=LINE('',#1070,#233);
#146=LINE('',#1071,#234);
#147=LINE('',#1073,#235);
#148=LINE('',#1074,#236);
#149=LINE('',#1076,#237);
#150=LINE('',#1079,#238);
#151=LINE('',#1081,#239);
#152=LINE('',#1083,#240);
#153=LINE('',#1085,#241);
#154=LINE('',#1087,#242);
#155=LINE('',#1089,#243);
#156=LINE('',#1091,#244);
#157=LINE('',#1093,#245);
#158=LINE('',#1094,#246);
#159=LINE('',#1098,#247);
#160=LINE('',#1100,#248);
#161=LINE('',#1102,#249);
#162=LINE('',#1103,#250);
#163=LINE('',#1106,#251);
#164=LINE('',#1108,#252);
#165=LINE('',#1109,#253);
#166=LINE('',#1112,#254);
#167=LINE('',#1114,#255);
#168=LINE('',#1115,#256);
#169=LINE('',#1117,#257);
#170=LINE('',#1118,#258);
#171=LINE('',#1120,#259);
#172=LINE('',#1121,#260);
#173=LINE('',#1125,#261);
#174=LINE('',#1127,#262);
#175=LINE('',#1128,#263);
#176=LINE('',#1131,#264);
#177=LINE('',#1132,#265);
#178=LINE('',#1135,#266);
#179=LINE('',#1136,#267);
#180=LINE('',#1138,#268);
#181=LINE('',#1152,#269);
#182=LINE('',#1156,#270);
#183=LINE('',#1163,#271);
#184=LINE('',#1178,#272);
#185=LINE('',#1182,#273);
#186=LINE('',#1184,#274);
#187=LINE('',#1186,#275);
#188=LINE('',#1187,#276);
#189=LINE('',#1190,#277);
#190=LINE('',#1192,#278);
#191=LINE('',#1193,#279);
#192=LINE('',#1196,#280);
#193=LINE('',#1198,#281);
#194=LINE('',#1199,#282);
#195=LINE('',#1202,#283);
#196=LINE('',#1204,#284);
#197=LINE('',#1205,#285);
#198=LINE('',#1208,#286);
#199=LINE('',#1210,#287);
#200=LINE('',#1211,#288);
#201=LINE('',#1213,#289);
#202=LINE('',#1214,#290);
#203=LINE('',#1220,#291);
#204=LINE('',#1222,#292);
#205=LINE('',#1224,#293);
#206=LINE('',#1225,#294);
#207=LINE('',#1228,#295);
#208=LINE('',#1230,#296);
#209=LINE('',#1231,#297);
#210=LINE('',#1234,#298);
#211=LINE('',#1236,#299);
#212=LINE('',#1237,#300);
#213=LINE('',#1240,#301);
#214=LINE('',#1242,#302);
#215=LINE('',#1243,#303);
#216=LINE('',#1246,#304);
#217=LINE('',#1248,#305);
#218=LINE('',#1249,#306);
#219=LINE('',#1251,#307);
#220=LINE('',#1252,#308);
#221=VECTOR('',#841,10.);
#222=VECTOR('',#842,10.);
#223=VECTOR('',#843,10.);
#224=VECTOR('',#844,10.);
#225=VECTOR('',#847,10.);
#226=VECTOR('',#848,10.);
#227=VECTOR('',#849,10.);
#228=VECTOR('',#852,10.);
#229=VECTOR('',#853,10.);
#230=VECTOR('',#854,10.);
#231=VECTOR('',#857,10.);
#232=VECTOR('',#858,10.);
#233=VECTOR('',#859,10.);
#234=VECTOR('',#860,10.);
#235=VECTOR('',#863,10.);
#236=VECTOR('',#864,10.);
#237=VECTOR('',#867,10.);
#238=VECTOR('',#870,10.);
#239=VECTOR('',#871,10.);
#240=VECTOR('',#872,10.);
#241=VECTOR('',#873,10.);
#242=VECTOR('',#874,10.);
#243=VECTOR('',#875,10.);
#244=VECTOR('',#876,10.);
#245=VECTOR('',#877,10.);
#246=VECTOR('',#878,10.);
#247=VECTOR('',#881,10.);
#248=VECTOR('',#882,10.);
#249=VECTOR('',#883,10.);
#250=VECTOR('',#884,10.);
#251=VECTOR('',#887,10.);
#252=VECTOR('',#888,10.);
#253=VECTOR('',#889,10.);
#254=VECTOR('',#892,10.);
#255=VECTOR('',#893,10.);
#256=VECTOR('',#894,10.);
#257=VECTOR('',#897,10.);
#258=VECTOR('',#898,10.);
#259=VECTOR('',#901,10.);
#260=VECTOR('',#902,10.);
#261=VECTOR('',#907,10.);
#262=VECTOR('',#908,10.);
#263=VECTOR('',#909,10.);
#264=VECTOR('',#912,10.);
#265=VECTOR('',#913,10.);
#266=VECTOR('',#916,10.);
#267=VECTOR('',#917,10.);
#268=VECTOR('',#920,10.);
#269=VECTOR('',#937,2.54);
#270=VECTOR('',#942,2.04);
#271=VECTOR('',#951,3.);
#272=VECTOR('',#972,1.27);
#273=VECTOR('',#975,10.);
#274=VECTOR('',#976,10.);
#275=VECTOR('',#977,10.);
#276=VECTOR('',#978,10.);
#277=VECTOR('',#981,10.);
#278=VECTOR('',#982,10.);
#279=VECTOR('',#983,10.);
#280=VECTOR('',#986,10.);
#281=VECTOR('',#987,10.);
#282=VECTOR('',#988,10.);
#283=VECTOR('',#991,10.);
#284=VECTOR('',#992,10.);
#285=VECTOR('',#993,10.);
#286=VECTOR('',#996,10.);
#287=VECTOR('',#997,10.);
#288=VECTOR('',#998,10.);
#289=VECTOR('',#1001,10.);
#290=VECTOR('',#1002,10.);
#291=VECTOR('',#1009,10.);
#292=VECTOR('',#1010,10.);
#293=VECTOR('',#1011,10.);
#294=VECTOR('',#1012,10.);
#295=VECTOR('',#1015,10.);
#296=VECTOR('',#1016,10.);
#297=VECTOR('',#1017,10.);
#298=VECTOR('',#1020,10.);
#299=VECTOR('',#1021,10.);
#300=VECTOR('',#1022,10.);
#301=VECTOR('',#1025,10.);
#302=VECTOR('',#1026,10.);
#303=VECTOR('',#1027,10.);
#304=VECTOR('',#1030,10.);
#305=VECTOR('',#1031,10.);
#306=VECTOR('',#1032,10.);
#307=VECTOR('',#1035,10.);
#308=VECTOR('',#1036,10.);
#309=VERTEX_POINT('',#1043);
#310=VERTEX_POINT('',#1044);
#311=VERTEX_POINT('',#1046);
#312=VERTEX_POINT('',#1048);
#313=VERTEX_POINT('',#1052);
#314=VERTEX_POINT('',#1054);
#315=VERTEX_POINT('',#1058);
#316=VERTEX_POINT('',#1060);
#317=VERTEX_POINT('',#1064);
#318=VERTEX_POINT('',#1065);
#319=VERTEX_POINT('',#1067);
#320=VERTEX_POINT('',#1069);
#321=VERTEX_POINT('',#1078);
#322=VERTEX_POINT('',#1080);
#323=VERTEX_POINT('',#1082);
#324=VERTEX_POINT('',#1084);
#325=VERTEX_POINT('',#1086);
#326=VERTEX_POINT('',#1088);
#327=VERTEX_POINT('',#1090);
#328=VERTEX_POINT('',#1092);
#329=VERTEX_POINT('',#1096);
#330=VERTEX_POINT('',#1097);
#331=VERTEX_POINT('',#1099);
#332=VERTEX_POINT('',#1101);
#333=VERTEX_POINT('',#1105);
#334=VERTEX_POINT('',#1107);
#335=VERTEX_POINT('',#1111);
#336=VERTEX_POINT('',#1113);
#337=VERTEX_POINT('',#1124);
#338=VERTEX_POINT('',#1126);
#339=VERTEX_POINT('',#1130);
#340=VERTEX_POINT('',#1134);
#341=VERTEX_POINT('',#1141);
#342=VERTEX_POINT('',#1142);
#343=VERTEX_POINT('',#1144);
#344=VERTEX_POINT('',#1146);
#345=VERTEX_POINT('',#1151);
#346=VERTEX_POINT('',#1155);
#347=VERTEX_POINT('',#1160);
#348=VERTEX_POINT('',#1162);
#349=VERTEX_POINT('',#1168);
#350=VERTEX_POINT('',#1171);
#351=VERTEX_POINT('',#1172);
#352=VERTEX_POINT('',#1174);
#353=VERTEX_POINT('',#1180);
#354=VERTEX_POINT('',#1181);
#355=VERTEX_POINT('',#1183);
#356=VERTEX_POINT('',#1185);
#357=VERTEX_POINT('',#1189);
#358=VERTEX_POINT('',#1191);
#359=VERTEX_POINT('',#1195);
#360=VERTEX_POINT('',#1197);
#361=VERTEX_POINT('',#1201);
#362=VERTEX_POINT('',#1203);
#363=VERTEX_POINT('',#1207);
#364=VERTEX_POINT('',#1209);
#365=VERTEX_POINT('',#1218);
#366=VERTEX_POINT('',#1219);
#367=VERTEX_POINT('',#1221);
#368=VERTEX_POINT('',#1223);
#369=VERTEX_POINT('',#1227);
#370=VERTEX_POINT('',#1229);
#371=VERTEX_POINT('',#1233);
#372=VERTEX_POINT('',#1235);
#373=VERTEX_POINT('',#1239);
#374=VERTEX_POINT('',#1241);
#375=VERTEX_POINT('',#1245);
#376=VERTEX_POINT('',#1247);
#377=EDGE_CURVE('',#309,#310,#133,.T.);
#378=EDGE_CURVE('',#309,#311,#134,.T.);
#379=EDGE_CURVE('',#311,#312,#135,.T.);
#380=EDGE_CURVE('',#310,#312,#136,.T.);
#381=EDGE_CURVE('',#313,#309,#137,.T.);
#382=EDGE_CURVE('',#313,#314,#138,.T.);
#383=EDGE_CURVE('',#314,#311,#139,.T.);
#384=EDGE_CURVE('',#315,#313,#140,.T.);
#385=EDGE_CURVE('',#316,#315,#141,.T.);
#386=EDGE_CURVE('',#316,#314,#142,.T.);
#387=EDGE_CURVE('',#317,#318,#143,.T.);
#388=EDGE_CURVE('',#317,#319,#144,.T.);
#389=EDGE_CURVE('',#319,#320,#145,.T.);
#390=EDGE_CURVE('',#318,#320,#146,.T.);
#391=EDGE_CURVE('',#310,#317,#147,.T.);
#392=EDGE_CURVE('',#312,#319,#148,.T.);
#393=EDGE_CURVE('',#320,#316,#149,.T.);
#394=EDGE_CURVE('',#315,#321,#150,.T.);
#395=EDGE_CURVE('',#321,#322,#151,.T.);
#396=EDGE_CURVE('',#322,#323,#152,.T.);
#397=EDGE_CURVE('',#323,#324,#153,.T.);
#398=EDGE_CURVE('',#324,#325,#154,.T.);
#399=EDGE_CURVE('',#325,#326,#155,.T.);
#400=EDGE_CURVE('',#326,#327,#156,.T.);
#401=EDGE_CURVE('',#327,#328,#157,.T.);
#402=EDGE_CURVE('',#328,#318,#158,.T.);
#403=EDGE_CURVE('',#329,#330,#159,.T.);
#404=EDGE_CURVE('',#329,#331,#160,.T.);
#405=EDGE_CURVE('',#331,#332,#161,.T.);
#406=EDGE_CURVE('',#330,#332,#162,.T.);
#407=EDGE_CURVE('',#333,#329,#163,.T.);
#408=EDGE_CURVE('',#333,#334,#164,.T.);
#409=EDGE_CURVE('',#334,#331,#165,.T.);
#410=EDGE_CURVE('',#335,#333,#166,.T.);
#411=EDGE_CURVE('',#335,#336,#167,.T.);
#412=EDGE_CURVE('',#336,#334,#168,.T.);
#413=EDGE_CURVE('',#326,#335,#169,.T.);
#414=EDGE_CURVE('',#325,#336,#170,.T.);
#415=EDGE_CURVE('',#330,#323,#171,.T.);
#416=EDGE_CURVE('',#332,#324,#172,.T.);
#417=EDGE_CURVE('',#337,#322,#173,.T.);
#418=EDGE_CURVE('',#338,#337,#174,.T.);
#419=EDGE_CURVE('',#338,#327,#175,.T.);
#420=EDGE_CURVE('',#337,#339,#176,.T.);
#421=EDGE_CURVE('',#339,#321,#177,.T.);
#422=EDGE_CURVE('',#340,#328,#178,.T.);
#423=EDGE_CURVE('',#339,#340,#179,.T.);
#424=EDGE_CURVE('',#340,#338,#180,.T.);
#425=EDGE_CURVE('',#341,#342,#19,.T.);
#426=EDGE_CURVE('',#342,#343,#20,.T.);
#427=EDGE_CURVE('',#343,#344,#21,.T.);
#428=EDGE_CURVE('',#344,#343,#22,.T.);
#429=EDGE_CURVE('',#342,#341,#23,.T.);
#430=EDGE_CURVE('',#344,#345,#181,.T.);
#431=EDGE_CURVE('',#345,#345,#24,.T.);
#432=EDGE_CURVE('',#341,#346,#182,.T.);
#433=EDGE_CURVE('',#346,#346,#25,.T.);
#434=EDGE_CURVE('',#347,#347,#26,.T.);
#435=EDGE_CURVE('',#347,#348,#183,.T.);
#436=EDGE_CURVE('',#348,#348,#27,.T.);
#437=EDGE_CURVE('',#349,#349,#28,.T.);
#438=EDGE_CURVE('',#350,#351,#29,.T.);
#439=EDGE_CURVE('',#352,#351,#30,.T.);
#440=EDGE_CURVE('',#351,#350,#31,.T.);
#441=EDGE_CURVE('',#350,#349,#184,.T.);
#442=EDGE_CURVE('',#353,#354,#185,.T.);
#443=EDGE_CURVE('',#354,#355,#186,.T.);
#444=EDGE_CURVE('',#356,#355,#187,.T.);
#445=EDGE_CURVE('',#353,#356,#188,.T.);
#446=EDGE_CURVE('',#357,#353,#189,.T.);
#447=EDGE_CURVE('',#358,#356,#190,.T.);
#448=EDGE_CURVE('',#357,#358,#191,.T.);
#449=EDGE_CURVE('',#359,#357,#192,.T.);
#450=EDGE_CURVE('',#360,#358,#193,.T.);
#451=EDGE_CURVE('',#359,#360,#194,.T.);
#452=EDGE_CURVE('',#361,#359,#195,.T.);
#453=EDGE_CURVE('',#362,#360,#196,.T.);
#454=EDGE_CURVE('',#361,#362,#197,.T.);
#455=EDGE_CURVE('',#363,#361,#198,.T.);
#456=EDGE_CURVE('',#364,#362,#199,.T.);
#457=EDGE_CURVE('',#363,#364,#200,.T.);
#458=EDGE_CURVE('',#363,#354,#201,.T.);
#459=EDGE_CURVE('',#355,#364,#202,.T.);
#460=EDGE_CURVE('',#365,#366,#203,.T.);
#461=EDGE_CURVE('',#365,#367,#204,.T.);
#462=EDGE_CURVE('',#368,#367,#205,.T.);
#463=EDGE_CURVE('',#366,#368,#206,.T.);
#464=EDGE_CURVE('',#369,#366,#207,.T.);
#465=EDGE_CURVE('',#370,#368,#208,.T.);
#466=EDGE_CURVE('',#369,#370,#209,.T.);
#467=EDGE_CURVE('',#371,#369,#210,.T.);
#468=EDGE_CURVE('',#372,#370,#211,.T.);
#469=EDGE_CURVE('',#371,#372,#212,.T.);
#470=EDGE_CURVE('',#373,#371,#213,.T.);
#471=EDGE_CURVE('',#374,#372,#214,.T.);
#472=EDGE_CURVE('',#373,#374,#215,.T.);
#473=EDGE_CURVE('',#375,#373,#216,.T.);
#474=EDGE_CURVE('',#376,#374,#217,.T.);
#475=EDGE_CURVE('',#375,#376,#218,.T.);
#476=EDGE_CURVE('',#365,#375,#219,.T.);
#477=EDGE_CURVE('',#367,#376,#220,.T.);
#478=ORIENTED_EDGE('',*,*,#377,.F.);
#479=ORIENTED_EDGE('',*,*,#378,.T.);
#480=ORIENTED_EDGE('',*,*,#379,.T.);
#481=ORIENTED_EDGE('',*,*,#380,.F.);
#482=ORIENTED_EDGE('',*,*,#381,.F.);
#483=ORIENTED_EDGE('',*,*,#382,.T.);
#484=ORIENTED_EDGE('',*,*,#383,.T.);
#485=ORIENTED_EDGE('',*,*,#378,.F.);
#486=ORIENTED_EDGE('',*,*,#384,.F.);
#487=ORIENTED_EDGE('',*,*,#385,.F.);
#488=ORIENTED_EDGE('',*,*,#386,.T.);
#489=ORIENTED_EDGE('',*,*,#382,.F.);
#490=ORIENTED_EDGE('',*,*,#387,.F.);
#491=ORIENTED_EDGE('',*,*,#388,.T.);
#492=ORIENTED_EDGE('',*,*,#389,.T.);
#493=ORIENTED_EDGE('',*,*,#390,.F.);
#494=ORIENTED_EDGE('',*,*,#391,.F.);
#495=ORIENTED_EDGE('',*,*,#380,.T.);
#496=ORIENTED_EDGE('',*,*,#392,.T.);
#497=ORIENTED_EDGE('',*,*,#388,.F.);
#498=ORIENTED_EDGE('',*,*,#392,.F.);
#499=ORIENTED_EDGE('',*,*,#379,.F.);
#500=ORIENTED_EDGE('',*,*,#383,.F.);
#501=ORIENTED_EDGE('',*,*,#386,.F.);
#502=ORIENTED_EDGE('',*,*,#393,.F.);
#503=ORIENTED_EDGE('',*,*,#389,.F.);
#504=ORIENTED_EDGE('',*,*,#390,.T.);
#505=ORIENTED_EDGE('',*,*,#393,.T.);
#506=ORIENTED_EDGE('',*,*,#385,.T.);
#507=ORIENTED_EDGE('',*,*,#394,.T.);
#508=ORIENTED_EDGE('',*,*,#395,.T.);
#509=ORIENTED_EDGE('',*,*,#396,.T.);
#510=ORIENTED_EDGE('',*,*,#397,.T.);
#511=ORIENTED_EDGE('',*,*,#398,.T.);
#512=ORIENTED_EDGE('',*,*,#399,.T.);
#513=ORIENTED_EDGE('',*,*,#400,.T.);
#514=ORIENTED_EDGE('',*,*,#401,.T.);
#515=ORIENTED_EDGE('',*,*,#402,.T.);
#516=ORIENTED_EDGE('',*,*,#403,.F.);
#517=ORIENTED_EDGE('',*,*,#404,.T.);
#518=ORIENTED_EDGE('',*,*,#405,.T.);
#519=ORIENTED_EDGE('',*,*,#406,.F.);
#520=ORIENTED_EDGE('',*,*,#407,.F.);
#521=ORIENTED_EDGE('',*,*,#408,.T.);
#522=ORIENTED_EDGE('',*,*,#409,.T.);
#523=ORIENTED_EDGE('',*,*,#404,.F.);
#524=ORIENTED_EDGE('',*,*,#410,.F.);
#525=ORIENTED_EDGE('',*,*,#411,.T.);
#526=ORIENTED_EDGE('',*,*,#412,.T.);
#527=ORIENTED_EDGE('',*,*,#408,.F.);
#528=ORIENTED_EDGE('',*,*,#413,.F.);
#529=ORIENTED_EDGE('',*,*,#399,.F.);
#530=ORIENTED_EDGE('',*,*,#414,.T.);
#531=ORIENTED_EDGE('',*,*,#411,.F.);
#532=ORIENTED_EDGE('',*,*,#415,.F.);
#533=ORIENTED_EDGE('',*,*,#406,.T.);
#534=ORIENTED_EDGE('',*,*,#416,.T.);
#535=ORIENTED_EDGE('',*,*,#397,.F.);
#536=ORIENTED_EDGE('',*,*,#416,.F.);
#537=ORIENTED_EDGE('',*,*,#405,.F.);
#538=ORIENTED_EDGE('',*,*,#409,.F.);
#539=ORIENTED_EDGE('',*,*,#412,.F.);
#540=ORIENTED_EDGE('',*,*,#414,.F.);
#541=ORIENTED_EDGE('',*,*,#398,.F.);
#542=ORIENTED_EDGE('',*,*,#413,.T.);
#543=ORIENTED_EDGE('',*,*,#410,.T.);
#544=ORIENTED_EDGE('',*,*,#407,.T.);
#545=ORIENTED_EDGE('',*,*,#403,.T.);
#546=ORIENTED_EDGE('',*,*,#415,.T.);
#547=ORIENTED_EDGE('',*,*,#396,.F.);
#548=ORIENTED_EDGE('',*,*,#417,.F.);
#549=ORIENTED_EDGE('',*,*,#418,.F.);
#550=ORIENTED_EDGE('',*,*,#419,.T.);
#551=ORIENTED_EDGE('',*,*,#400,.F.);
#552=ORIENTED_EDGE('',*,*,#420,.F.);
#553=ORIENTED_EDGE('',*,*,#417,.T.);
#554=ORIENTED_EDGE('',*,*,#395,.F.);
#555=ORIENTED_EDGE('',*,*,#421,.F.);
#556=ORIENTED_EDGE('',*,*,#387,.T.);
#557=ORIENTED_EDGE('',*,*,#402,.F.);
#558=ORIENTED_EDGE('',*,*,#422,.F.);
#559=ORIENTED_EDGE('',*,*,#423,.F.);
#560=ORIENTED_EDGE('',*,*,#421,.T.);
#561=ORIENTED_EDGE('',*,*,#394,.F.);
#562=ORIENTED_EDGE('',*,*,#384,.T.);
#563=ORIENTED_EDGE('',*,*,#381,.T.);
#564=ORIENTED_EDGE('',*,*,#377,.T.);
#565=ORIENTED_EDGE('',*,*,#391,.T.);
#566=ORIENTED_EDGE('',*,*,#424,.F.);
#567=ORIENTED_EDGE('',*,*,#422,.T.);
#568=ORIENTED_EDGE('',*,*,#401,.F.);
#569=ORIENTED_EDGE('',*,*,#419,.F.);
#570=ORIENTED_EDGE('',*,*,#424,.T.);
#571=ORIENTED_EDGE('',*,*,#418,.T.);
#572=ORIENTED_EDGE('',*,*,#420,.T.);
#573=ORIENTED_EDGE('',*,*,#423,.T.);
#574=ORIENTED_EDGE('',*,*,#425,.T.);
#575=ORIENTED_EDGE('',*,*,#426,.T.);
#576=ORIENTED_EDGE('',*,*,#427,.T.);
#577=ORIENTED_EDGE('',*,*,#428,.T.);
#578=ORIENTED_EDGE('',*,*,#426,.F.);
#579=ORIENTED_EDGE('',*,*,#429,.T.);
#580=ORIENTED_EDGE('',*,*,#428,.F.);
#581=ORIENTED_EDGE('',*,*,#430,.T.);
#582=ORIENTED_EDGE('',*,*,#431,.F.);
#583=ORIENTED_EDGE('',*,*,#430,.F.);
#584=ORIENTED_EDGE('',*,*,#427,.F.);
#585=ORIENTED_EDGE('',*,*,#425,.F.);
#586=ORIENTED_EDGE('',*,*,#432,.T.);
#587=ORIENTED_EDGE('',*,*,#433,.T.);
#588=ORIENTED_EDGE('',*,*,#432,.F.);
#589=ORIENTED_EDGE('',*,*,#429,.F.);
#590=ORIENTED_EDGE('',*,*,#433,.F.);
#591=ORIENTED_EDGE('',*,*,#434,.F.);
#592=ORIENTED_EDGE('',*,*,#435,.T.);
#593=ORIENTED_EDGE('',*,*,#436,.T.);
#594=ORIENTED_EDGE('',*,*,#435,.F.);
#595=ORIENTED_EDGE('',*,*,#434,.T.);
#596=ORIENTED_EDGE('',*,*,#431,.T.);
#597=ORIENTED_EDGE('',*,*,#436,.F.);
#598=ORIENTED_EDGE('',*,*,#437,.T.);
#599=ORIENTED_EDGE('',*,*,#438,.T.);
#600=ORIENTED_EDGE('',*,*,#439,.F.);
#601=ORIENTED_EDGE('',*,*,#439,.T.);
#602=ORIENTED_EDGE('',*,*,#440,.T.);
#603=ORIENTED_EDGE('',*,*,#438,.F.);
#604=ORIENTED_EDGE('',*,*,#441,.T.);
#605=ORIENTED_EDGE('',*,*,#437,.F.);
#606=ORIENTED_EDGE('',*,*,#441,.F.);
#607=ORIENTED_EDGE('',*,*,#440,.F.);
#608=ORIENTED_EDGE('',*,*,#442,.T.);
#609=ORIENTED_EDGE('',*,*,#443,.T.);
#610=ORIENTED_EDGE('',*,*,#444,.F.);
#611=ORIENTED_EDGE('',*,*,#445,.F.);
#612=ORIENTED_EDGE('',*,*,#446,.T.);
#613=ORIENTED_EDGE('',*,*,#445,.T.);
#614=ORIENTED_EDGE('',*,*,#447,.F.);
#615=ORIENTED_EDGE('',*,*,#448,.F.);
#616=ORIENTED_EDGE('',*,*,#449,.T.);
#617=ORIENTED_EDGE('',*,*,#448,.T.);
#618=ORIENTED_EDGE('',*,*,#450,.F.);
#619=ORIENTED_EDGE('',*,*,#451,.F.);
#620=ORIENTED_EDGE('',*,*,#452,.T.);
#621=ORIENTED_EDGE('',*,*,#451,.T.);
#622=ORIENTED_EDGE('',*,*,#453,.F.);
#623=ORIENTED_EDGE('',*,*,#454,.F.);
#624=ORIENTED_EDGE('',*,*,#455,.T.);
#625=ORIENTED_EDGE('',*,*,#454,.T.);
#626=ORIENTED_EDGE('',*,*,#456,.F.);
#627=ORIENTED_EDGE('',*,*,#457,.F.);
#628=ORIENTED_EDGE('',*,*,#458,.F.);
#629=ORIENTED_EDGE('',*,*,#457,.T.);
#630=ORIENTED_EDGE('',*,*,#459,.F.);
#631=ORIENTED_EDGE('',*,*,#443,.F.);
#632=ORIENTED_EDGE('',*,*,#458,.T.);
#633=ORIENTED_EDGE('',*,*,#442,.F.);
#634=ORIENTED_EDGE('',*,*,#446,.F.);
#635=ORIENTED_EDGE('',*,*,#449,.F.);
#636=ORIENTED_EDGE('',*,*,#452,.F.);
#637=ORIENTED_EDGE('',*,*,#455,.F.);
#638=ORIENTED_EDGE('',*,*,#459,.T.);
#639=ORIENTED_EDGE('',*,*,#456,.T.);
#640=ORIENTED_EDGE('',*,*,#453,.T.);
#641=ORIENTED_EDGE('',*,*,#450,.T.);
#642=ORIENTED_EDGE('',*,*,#447,.T.);
#643=ORIENTED_EDGE('',*,*,#444,.T.);
#644=ORIENTED_EDGE('',*,*,#460,.F.);
#645=ORIENTED_EDGE('',*,*,#461,.T.);
#646=ORIENTED_EDGE('',*,*,#462,.F.);
#647=ORIENTED_EDGE('',*,*,#463,.F.);
#648=ORIENTED_EDGE('',*,*,#464,.T.);
#649=ORIENTED_EDGE('',*,*,#463,.T.);
#650=ORIENTED_EDGE('',*,*,#465,.F.);
#651=ORIENTED_EDGE('',*,*,#466,.F.);
#652=ORIENTED_EDGE('',*,*,#467,.T.);
#653=ORIENTED_EDGE('',*,*,#466,.T.);
#654=ORIENTED_EDGE('',*,*,#468,.F.);
#655=ORIENTED_EDGE('',*,*,#469,.F.);
#656=ORIENTED_EDGE('',*,*,#470,.T.);
#657=ORIENTED_EDGE('',*,*,#469,.T.);
#658=ORIENTED_EDGE('',*,*,#471,.F.);
#659=ORIENTED_EDGE('',*,*,#472,.F.);
#660=ORIENTED_EDGE('',*,*,#473,.T.);
#661=ORIENTED_EDGE('',*,*,#472,.T.);
#662=ORIENTED_EDGE('',*,*,#474,.F.);
#663=ORIENTED_EDGE('',*,*,#475,.F.);
#664=ORIENTED_EDGE('',*,*,#476,.T.);
#665=ORIENTED_EDGE('',*,*,#475,.T.);
#666=ORIENTED_EDGE('',*,*,#477,.F.);
#667=ORIENTED_EDGE('',*,*,#461,.F.);
#668=ORIENTED_EDGE('',*,*,#476,.F.);
#669=ORIENTED_EDGE('',*,*,#460,.T.);
#670=ORIENTED_EDGE('',*,*,#464,.F.);
#671=ORIENTED_EDGE('',*,*,#467,.F.);
#672=ORIENTED_EDGE('',*,*,#470,.F.);
#673=ORIENTED_EDGE('',*,*,#473,.F.);
#674=ORIENTED_EDGE('',*,*,#477,.T.);
#675=ORIENTED_EDGE('',*,*,#474,.T.);
#676=ORIENTED_EDGE('',*,*,#471,.T.);
#677=ORIENTED_EDGE('',*,*,#468,.T.);
#678=ORIENTED_EDGE('',*,*,#465,.T.);
#679=ORIENTED_EDGE('',*,*,#462,.T.);
#680=PLANE('',#780);
#681=PLANE('',#781);
#682=PLANE('',#782);
#683=PLANE('',#783);
#684=PLANE('',#784);
#685=PLANE('',#785);
#686=PLANE('',#786);
#687=PLANE('',#787);
#688=PLANE('',#788);
#689=PLANE('',#789);
#690=PLANE('',#790);
#691=PLANE('',#791);
#692=PLANE('',#792);
#693=PLANE('',#793);
#694=PLANE('',#794);
#695=PLANE('',#795);
#696=PLANE('',#796);
#697=PLANE('',#797);
#698=PLANE('',#808);
#699=PLANE('',#812);
#700=PLANE('',#813);
#701=PLANE('',#814);
#702=PLANE('',#821);
#703=PLANE('',#822);
#704=PLANE('',#823);
#705=PLANE('',#824);
#706=PLANE('',#825);
#707=PLANE('',#826);
#708=PLANE('',#827);
#709=PLANE('',#828);
#710=PLANE('',#829);
#711=PLANE('',#830);
#712=PLANE('',#831);
#713=PLANE('',#832);
#714=PLANE('',#833);
#715=PLANE('',#834);
#716=PLANE('',#835);
#717=PLANE('',#836);
#718=ADVANCED_FACE('',(#44),#680,.F.);
#719=ADVANCED_FACE('',(#45),#681,.F.);
#720=ADVANCED_FACE('',(#46),#682,.F.);
#721=ADVANCED_FACE('',(#47),#683,.F.);
#722=ADVANCED_FACE('',(#48),#684,.F.);
#723=ADVANCED_FACE('',(#49),#685,.F.);
#724=ADVANCED_FACE('',(#50),#686,.T.);
#725=ADVANCED_FACE('',(#51),#687,.F.);
#726=ADVANCED_FACE('',(#52),#688,.F.);
#727=ADVANCED_FACE('',(#53),#689,.F.);
#728=ADVANCED_FACE('',(#54),#690,.F.);
#729=ADVANCED_FACE('',(#55),#691,.F.);
#730=ADVANCED_FACE('',(#56),#692,.F.);
#731=ADVANCED_FACE('',(#57),#693,.T.);
#732=ADVANCED_FACE('',(#58),#694,.T.);
#733=ADVANCED_FACE('',(#59),#695,.T.);
#734=ADVANCED_FACE('',(#60),#696,.T.);
#735=ADVANCED_FACE('',(#61),#697,.F.);
#736=ADVANCED_FACE('',(#62),#32,.T.);
#737=ADVANCED_FACE('',(#63),#15,.T.);
#738=ADVANCED_FACE('',(#64),#16,.F.);
#739=ADVANCED_FACE('',(#65),#698,.T.);
#740=ADVANCED_FACE('',(#66),#17,.T.);
#741=ADVANCED_FACE('',(#67,#14),#699,.T.);
#742=ADVANCED_FACE('',(#68),#700,.F.);
#743=ADVANCED_FACE('',(#69),#701,.F.);
#744=ADVANCED_FACE('',(#70),#13,.T.);
#745=ADVANCED_FACE('',(#71),#18,.T.);
#746=ADVANCED_FACE('',(#72),#702,.T.);
#747=ADVANCED_FACE('',(#73),#703,.T.);
#748=ADVANCED_FACE('',(#74),#704,.T.);
#749=ADVANCED_FACE('',(#75),#705,.T.);
#750=ADVANCED_FACE('',(#76),#706,.T.);
#751=ADVANCED_FACE('',(#77),#707,.T.);
#752=ADVANCED_FACE('',(#78),#708,.T.);
#753=ADVANCED_FACE('',(#79),#709,.T.);
#754=ADVANCED_FACE('',(#80),#710,.T.);
#755=ADVANCED_FACE('',(#81),#711,.T.);
#756=ADVANCED_FACE('',(#82),#712,.T.);
#757=ADVANCED_FACE('',(#83),#713,.T.);
#758=ADVANCED_FACE('',(#84),#714,.T.);
#759=ADVANCED_FACE('',(#85),#715,.T.);
#760=ADVANCED_FACE('',(#86),#716,.T.);
#761=ADVANCED_FACE('',(#87),#717,.T.);
#762=CLOSED_SHELL('',(#718,#719,#720,#721,#722,#723,#724,#725,#726,#727,
#728,#729,#730,#731,#732,#733,#734,#735));
#763=CLOSED_SHELL('',(#736,#737,#738,#739,#740,#741,#742));
#764=CLOSED_SHELL('',(#743,#744,#745));
#765=CLOSED_SHELL('',(#746,#747,#748,#749,#750,#751,#752,#753));
#766=CLOSED_SHELL('',(#754,#755,#756,#757,#758,#759,#760,#761));
#767=DERIVED_UNIT_ELEMENT(#769,1.);
#768=DERIVED_UNIT_ELEMENT(#1260,-3.);
#769=(
MASS_UNIT()
NAMED_UNIT(*)
SI_UNIT(.KILO.,.GRAM.)
);
#770=DERIVED_UNIT((#767,#768));
#771=MEASURE_REPRESENTATION_ITEM('density measure',
POSITIVE_RATIO_MEASURE(7850.),#770);
#772=PROPERTY_DEFINITION_REPRESENTATION(#777,#774);
#773=PROPERTY_DEFINITION_REPRESENTATION(#778,#775);
#774=REPRESENTATION('material name',(#776),#1257);
#775=REPRESENTATION('density',(#771),#1257);
#776=DESCRIPTIVE_REPRESENTATION_ITEM('\X2\92FC\X0\','\X2\92FC\X0\');
#777=PROPERTY_DEFINITION('material property','material name',#1267);
#778=PROPERTY_DEFINITION('material property','density of part',#1267);
#779=AXIS2_PLACEMENT_3D('',#1041,#837,#838);
#780=AXIS2_PLACEMENT_3D('',#1042,#839,#840);
#781=AXIS2_PLACEMENT_3D('',#1051,#845,#846);
#782=AXIS2_PLACEMENT_3D('',#1057,#850,#851);
#783=AXIS2_PLACEMENT_3D('',#1063,#855,#856);
#784=AXIS2_PLACEMENT_3D('',#1072,#861,#862);
#785=AXIS2_PLACEMENT_3D('',#1075,#865,#866);
#786=AXIS2_PLACEMENT_3D('',#1077,#868,#869);
#787=AXIS2_PLACEMENT_3D('',#1095,#879,#880);
#788=AXIS2_PLACEMENT_3D('',#1104,#885,#886);
#789=AXIS2_PLACEMENT_3D('',#1110,#890,#891);
#790=AXIS2_PLACEMENT_3D('',#1116,#895,#896);
#791=AXIS2_PLACEMENT_3D('',#1119,#899,#900);
#792=AXIS2_PLACEMENT_3D('',#1122,#903,#904);
#793=AXIS2_PLACEMENT_3D('',#1123,#905,#906);
#794=AXIS2_PLACEMENT_3D('',#1129,#910,#911);
#795=AXIS2_PLACEMENT_3D('',#1133,#914,#915);
#796=AXIS2_PLACEMENT_3D('',#1137,#918,#919);
#797=AXIS2_PLACEMENT_3D('',#1139,#921,#922);
#798=AXIS2_PLACEMENT_3D('',#1140,#923,#924);
#799=AXIS2_PLACEMENT_3D('',#1143,#925,#926);
#800=AXIS2_PLACEMENT_3D('',#1145,#927,#928);
#801=AXIS2_PLACEMENT_3D('',#1147,#929,#930);
#802=AXIS2_PLACEMENT_3D('',#1148,#931,#932);
#803=AXIS2_PLACEMENT_3D('',#1149,#933,#934);
#804=AXIS2_PLACEMENT_3D('',#1150,#935,#936);
#805=AXIS2_PLACEMENT_3D('',#1153,#938,#939);
#806=AXIS2_PLACEMENT_3D('',#1154,#940,#941);
#807=AXIS2_PLACEMENT_3D('',#1157,#943,#944);
#808=AXIS2_PLACEMENT_3D('',#1158,#945,#946);
#809=AXIS2_PLACEMENT_3D('',#1159,#947,#948);
#810=AXIS2_PLACEMENT_3D('',#1161,#949,#950);
#811=AXIS2_PLACEMENT_3D('',#1164,#952,#953);
#812=AXIS2_PLACEMENT_3D('',#1165,#954,#955);
#813=AXIS2_PLACEMENT_3D('',#1166,#956,#957);
#814=AXIS2_PLACEMENT_3D('',#1167,#958,#959);
#815=AXIS2_PLACEMENT_3D('',#1169,#960,#961);
#816=AXIS2_PLACEMENT_3D('',#1170,#962,#963);
#817=AXIS2_PLACEMENT_3D('',#1173,#964,#965);
#818=AXIS2_PLACEMENT_3D('',#1175,#966,#967);
#819=AXIS2_PLACEMENT_3D('',#1176,#968,#969);
#820=AXIS2_PLACEMENT_3D('',#1177,#970,#971);
#821=AXIS2_PLACEMENT_3D('',#1179,#973,#974);
#822=AXIS2_PLACEMENT_3D('',#1188,#979,#980);
#823=AXIS2_PLACEMENT_3D('',#1194,#984,#985);
#824=AXIS2_PLACEMENT_3D('',#1200,#989,#990);
#825=AXIS2_PLACEMENT_3D('',#1206,#994,#995);
#826=AXIS2_PLACEMENT_3D('',#1212,#999,#1000);
#827=AXIS2_PLACEMENT_3D('',#1215,#1003,#1004);
#828=AXIS2_PLACEMENT_3D('',#1216,#1005,#1006);
#829=AXIS2_PLACEMENT_3D('',#1217,#1007,#1008);
#830=AXIS2_PLACEMENT_3D('',#1226,#1013,#1014);
#831=AXIS2_PLACEMENT_3D('',#1232,#1018,#1019);
#832=AXIS2_PLACEMENT_3D('',#1238,#1023,#1024);
#833=AXIS2_PLACEMENT_3D('',#1244,#1028,#1029);
#834=AXIS2_PLACEMENT_3D('',#1250,#1033,#1034);
#835=AXIS2_PLACEMENT_3D('',#1253,#1037,#1038);
#836=AXIS2_PLACEMENT_3D('',#1254,#1039,#1040);
#837=DIRECTION('axis',(0.,0.,1.));
#838=DIRECTION('refdir',(1.,0.,0.));
#839=DIRECTION('center_axis',(0.,-1.,0.));
#840=DIRECTION('ref_axis',(0.,0.,-1.));
#841=DIRECTION('',(0.,0.,-1.));
#842=DIRECTION('',(1.,0.,0.));
#843=DIRECTION('',(0.,0.,-1.));
#844=DIRECTION('',(1.,0.,0.));
#845=DIRECTION('center_axis',(0.,-0.707106781186548,0.707106781186548));
#846=DIRECTION('ref_axis',(0.,-0.707106781186548,-0.707106781186548));
#847=DIRECTION('',(0.,-0.707106781186548,-0.707106781186548));
#848=DIRECTION('',(1.,0.,0.));
#849=DIRECTION('',(0.,-0.707106781186548,-0.707106781186548));
#850=DIRECTION('center_axis',(0.,0.,1.));
#851=DIRECTION('ref_axis',(0.,-1.,0.));
#852=DIRECTION('',(0.,-1.,0.));
#853=DIRECTION('',(-1.,0.,0.));
#854=DIRECTION('',(0.,-1.,0.));
#855=DIRECTION('center_axis',(0.,0.,-1.));
#856=DIRECTION('ref_axis',(0.,1.,0.));
#857=DIRECTION('',(0.,1.,0.));
#858=DIRECTION('',(1.,0.,0.));
#859=DIRECTION('',(0.,1.,0.));
#860=DIRECTION('',(1.,0.,0.));
#861=DIRECTION('center_axis',(0.,-0.707106781186548,-0.707106781186548));
#862=DIRECTION('ref_axis',(0.,0.707106781186548,-0.707106781186548));
#863=DIRECTION('',(0.,0.707106781186548,-0.707106781186548));
#864=DIRECTION('',(0.,0.707106781186548,-0.707106781186548));
#865=DIRECTION('center_axis',(1.,0.,0.));
#866=DIRECTION('ref_axis',(0.,0.,-1.));
#867=DIRECTION('',(0.,0.,1.));
#868=DIRECTION('center_axis',(0.,1.,0.));
#869=DIRECTION('ref_axis',(0.,0.,1.));
#870=DIRECTION('',(0.,0.,1.));
#871=DIRECTION('',(1.,0.,0.));
#872=DIRECTION('',(0.,0.,-1.));
#873=DIRECTION('',(-1.,0.,0.));
#874=DIRECTION('',(0.,0.,-1.));
#875=DIRECTION('',(1.,0.,0.));
#876=DIRECTION('',(0.,0.,-1.));
#877=DIRECTION('',(-1.,0.,0.));
#878=DIRECTION('',(0.,0.,1.));
#879=DIRECTION('center_axis',(0.,-0.707106781186548,0.707106781186548));
#880=DIRECTION('ref_axis',(0.,0.707106781186548,0.707106781186548));
#881=DIRECTION('',(0.,0.707106781186548,0.707106781186548));
#882=DIRECTION('',(-1.,0.,0.));
#883=DIRECTION('',(0.,0.707106781186548,0.707106781186548));
#884=DIRECTION('',(-1.,0.,0.));
#885=DIRECTION('center_axis',(0.,-1.,0.));
#886=DIRECTION('ref_axis',(0.,0.,1.));
#887=DIRECTION('',(0.,0.,1.));
#888=DIRECTION('',(-1.,0.,0.));
#889=DIRECTION('',(0.,0.,1.));
#890=DIRECTION('center_axis',(0.,-0.707106781186548,-0.707106781186548));
#891=DIRECTION('ref_axis',(0.,-0.707106781186548,0.707106781186548));
#892=DIRECTION('',(0.,-0.707106781186548,0.707106781186548));
#893=DIRECTION('',(-1.,0.,0.));
#894=DIRECTION('',(0.,-0.707106781186548,0.707106781186548));
#895=DIRECTION('center_axis',(0.,0.,-1.));
#896=DIRECTION('ref_axis',(0.,-1.,0.));
#897=DIRECTION('',(0.,-1.,0.));
#898=DIRECTION('',(0.,-1.,0.));
#899=DIRECTION('center_axis',(0.,0.,1.));
#900=DIRECTION('ref_axis',(0.,1.,0.));
#901=DIRECTION('',(0.,1.,0.));
#902=DIRECTION('',(0.,1.,0.));
#903=DIRECTION('center_axis',(-1.,0.,0.));
#904=DIRECTION('ref_axis',(0.,0.,1.));
#905=DIRECTION('center_axis',(1.,0.,0.));
#906=DIRECTION('ref_axis',(0.,0.,-1.));
#907=DIRECTION('',(0.,1.,0.));
#908=DIRECTION('',(0.,0.,1.));
#909=DIRECTION('',(0.,1.,0.));
#910=DIRECTION('center_axis',(0.,0.,1.));
#911=DIRECTION('ref_axis',(1.,0.,0.));
#912=DIRECTION('',(-1.,0.,0.));
#913=DIRECTION('',(0.,1.,0.));
#914=DIRECTION('center_axis',(-1.,0.,0.));
#915=DIRECTION('ref_axis',(0.,0.,1.));
#916=DIRECTION('',(0.,1.,0.));
#917=DIRECTION('',(0.,0.,-1.));
#918=DIRECTION('center_axis',(0.,0.,-1.));
#919=DIRECTION('ref_axis',(-1.,0.,0.));
#920=DIRECTION('',(1.,0.,0.));
#921=DIRECTION('center_axis',(0.,1.,0.));
#922=DIRECTION('ref_axis',(1.,0.,0.));
#923=DIRECTION('center_axis',(0.,1.,0.));
#924=DIRECTION('ref_axis',(0.,0.,1.));
#925=DIRECTION('center_axis',(0.,-1.,0.));
#926=DIRECTION('ref_axis',(-1.,0.,0.));
#927=DIRECTION('center_axis',(-1.,0.,1.22464679914735E-16));
#928=DIRECTION('ref_axis',(-1.22464679914735E-16,0.,-1.));
#929=DIRECTION('center_axis',(0.,1.,0.));
#930=DIRECTION('ref_axis',(-1.,0.,0.));
#931=DIRECTION('center_axis',(0.,1.,0.));
#932=DIRECTION('ref_axis',(-1.,0.,0.));
#933=DIRECTION('center_axis',(0.,-1.,0.));
#934=DIRECTION('ref_axis',(-1.,0.,0.));
#935=DIRECTION('center_axis',(0.,1.,0.));
#936=DIRECTION('ref_axis',(-1.,0.,0.));
#937=DIRECTION('',(0.,-1.,0.));
#938=DIRECTION('center_axis',(0.,-1.,0.));
#939=DIRECTION('ref_axis',(-1.,0.,0.));
#940=DIRECTION('center_axis',(0.,-1.,0.));
#941=DIRECTION('ref_axis',(-1.,0.,0.));
#942=DIRECTION('',(0.,-1.,0.));
#943=DIRECTION('center_axis',(0.,-1.,0.));
#944=DIRECTION('ref_axis',(-1.,0.,0.));
#945=DIRECTION('center_axis',(0.,1.,0.));
#946=DIRECTION('ref_axis',(-1.,0.,0.));
#947=DIRECTION('center_axis',(0.,1.,0.));
#948=DIRECTION('ref_axis',(-1.,0.,0.));
#949=DIRECTION('center_axis',(0.,1.,0.));
#950=DIRECTION('ref_axis',(-1.,0.,0.));
#951=DIRECTION('',(0.,-1.,0.));
#952=DIRECTION('center_axis',(0.,1.,0.));
#953=DIRECTION('ref_axis',(-1.,0.,0.));
#954=DIRECTION('center_axis',(0.,1.,0.));
#955=DIRECTION('ref_axis',(-1.,0.,0.));
#956=DIRECTION('center_axis',(0.,1.,0.));
#957=DIRECTION('ref_axis',(-1.,0.,0.));
#958=DIRECTION('center_axis',(0.,0.984807753012208,0.17364817766693));
#959=DIRECTION('ref_axis',(-1.,0.,0.));
#960=DIRECTION('center_axis',(0.,-0.984807753012208,-0.17364817766693));
#961=DIRECTION('ref_axis',(-1.,0.,0.));
#962=DIRECTION('center_axis',(0.,0.984807753012208,0.17364817766693));
#963=DIRECTION('ref_axis',(0.,0.173648177666931,-0.984807753012208));
#964=DIRECTION('center_axis',(0.,0.984807753012208,0.17364817766693));
#965=DIRECTION('ref_axis',(-1.,0.,0.));
#966=DIRECTION('center_axis',(1.,2.12657684957577E-17,-1.2060416625019E-16));
#967=DIRECTION('ref_axis',(1.22464679914735E-16,-0.173648177666929,0.984807753012208));
#968=DIRECTION('center_axis',(0.,0.984807753012208,0.17364817766693));
#969=DIRECTION('ref_axis',(-1.,0.,0.));
#970=DIRECTION('center_axis',(0.,0.984807753012208,0.17364817766693));
#971=DIRECTION('ref_axis',(-1.,0.,0.));
#972=DIRECTION('',(0.,-0.984807753012208,-0.17364817766693));
#973=DIRECTION('center_axis',(0.,-1.,0.));
#974=DIRECTION('ref_axis',(0.,0.,-1.));
#975=DIRECTION('',(0.,0.,-1.));
#976=DIRECTION('',(1.,0.,0.));
#977=DIRECTION('',(0.,0.,-1.));
#978=DIRECTION('',(1.,0.,0.));
#979=DIRECTION('center_axis',(0.,-0.707106781186548,0.707106781186548));
#980=DIRECTION('ref_axis',(0.,-0.707106781186548,-0.707106781186548));
#981=DIRECTION('',(0.,-0.707106781186548,-0.707106781186548));
#982=DIRECTION('',(0.,-0.707106781186548,-0.707106781186548));
#983=DIRECTION('',(1.,0.,0.));
#984=DIRECTION('center_axis',(0.,0.,1.));
#985=DIRECTION('ref_axis',(0.,-1.,0.));
#986=DIRECTION('',(0.,-1.,0.));
#987=DIRECTION('',(0.,-1.,0.));
#988=DIRECTION('',(1.,0.,0.));
#989=DIRECTION('center_axis',(0.,1.,0.));
#990=DIRECTION('ref_axis',(0.,0.,1.));
#991=DIRECTION('',(0.,0.,1.));
#992=DIRECTION('',(0.,0.,1.));
#993=DIRECTION('',(1.,0.,0.));
#994=DIRECTION('center_axis',(0.,0.,-1.));
#995=DIRECTION('ref_axis',(0.,1.,0.));
#996=DIRECTION('',(0.,1.,0.));
#997=DIRECTION('',(0.,1.,0.));
#998=DIRECTION('',(1.,0.,0.));
#999=DIRECTION('center_axis',(0.,-0.707106781186548,-0.707106781186548));
#1000=DIRECTION('ref_axis',(0.,0.707106781186548,-0.707106781186548));
#1001=DIRECTION('',(0.,-0.707106781186548,0.707106781186548));
#1002=DIRECTION('',(0.,0.707106781186548,-0.707106781186548));
#1003=DIRECTION('center_axis',(-1.,0.,0.));
#1004=DIRECTION('ref_axis',(0.,0.,1.));
#1005=DIRECTION('center_axis',(1.,0.,0.));
#1006=DIRECTION('ref_axis',(0.,0.,-1.));
#1007=DIRECTION('center_axis',(0.,-0.707106781186548,0.707106781186548));
#1008=DIRECTION('ref_axis',(0.,0.707106781186548,0.707106781186548));
#1009=DIRECTION('',(0.,-0.707106781186548,-0.707106781186548));
#1010=DIRECTION('',(-1.,0.,0.));
#1011=DIRECTION('',(0.,0.707106781186548,0.707106781186548));
#1012=DIRECTION('',(-1.,0.,0.));
#1013=DIRECTION('center_axis',(0.,-1.,0.));
#1014=DIRECTION('ref_axis',(0.,0.,1.));
#1015=DIRECTION('',(0.,0.,1.));
#1016=DIRECTION('',(0.,0.,1.));
#1017=DIRECTION('',(-1.,0.,0.));
#1018=DIRECTION('center_axis',(0.,-0.707106781186548,-0.707106781186548));
#1019=DIRECTION('ref_axis',(0.,-0.707106781186548,0.707106781186548));
#1020=DIRECTION('',(0.,-0.707106781186548,0.707106781186548));
#1021=DIRECTION('',(0.,-0.707106781186548,0.707106781186548));
#1022=DIRECTION('',(-1.,0.,0.));
#1023=DIRECTION('center_axis',(0.,0.,-1.));
#1024=DIRECTION('ref_axis',(0.,-1.,0.));
#1025=DIRECTION('',(0.,-1.,0.));
#1026=DIRECTION('',(0.,-1.,0.));
#1027=DIRECTION('',(-1.,0.,0.));
#1028=DIRECTION('center_axis',(0.,1.,0.));
#1029=DIRECTION('ref_axis',(0.,0.,-1.));
#1030=DIRECTION('',(0.,0.,-1.));
#1031=DIRECTION('',(0.,0.,-1.));
#1032=DIRECTION('',(-1.,0.,0.));
#1033=DIRECTION('center_axis',(0.,0.,1.));
#1034=DIRECTION('ref_axis',(0.,1.,0.));
#1035=DIRECTION('',(0.,1.,0.));
#1036=DIRECTION('',(0.,1.,0.));
#1037=DIRECTION('center_axis',(1.,0.,0.));
#1038=DIRECTION('ref_axis',(0.,0.,-1.));
#1039=DIRECTION('center_axis',(-1.,0.,0.));
#1040=DIRECTION('ref_axis',(0.,0.,1.));
#1041=CARTESIAN_POINT('',(0.,0.,0.));
#1042=CARTESIAN_POINT('Origin',(-2.54,2.,2.065));
#1043=CARTESIAN_POINT('',(-2.54,2.,2.065));
#1044=CARTESIAN_POINT('',(-2.54,2.,-2.065));
#1045=CARTESIAN_POINT('',(-2.54,2.,-1.));
#1046=CARTESIAN_POINT('',(-1.54,2.,2.065));
#1047=CARTESIAN_POINT('',(-2.54,2.,2.065));
#1048=CARTESIAN_POINT('',(-1.54,2.,-2.065));
#1049=CARTESIAN_POINT('',(-1.54,2.,3.565));
#1050=CARTESIAN_POINT('',(-2.54,2.,-2.065));
#1051=CARTESIAN_POINT('Origin',(-2.54,3.5,3.565));
#1052=CARTESIAN_POINT('',(-2.54,3.5,3.565));
#1053=CARTESIAN_POINT('',(-2.54,0.7175,0.782499999999999));
#1054=CARTESIAN_POINT('',(-1.54,3.5,3.565));
#1055=CARTESIAN_POINT('',(-2.54,3.5,3.565));
#1056=CARTESIAN_POINT('',(-1.54,3.5,3.565));
#1057=CARTESIAN_POINT('Origin',(-2.54,8.64,3.565));
#1058=CARTESIAN_POINT('',(-2.54,8.64,3.565));
#1059=CARTESIAN_POINT('',(-2.54,4.32,3.565));
#1060=CARTESIAN_POINT('',(-1.54,8.64,3.565));
#1061=CARTESIAN_POINT('',(-1.27,8.64,3.565));
#1062=CARTESIAN_POINT('',(-1.54,8.64,3.565));
#1063=CARTESIAN_POINT('Origin',(-2.54,3.5,-3.565));
#1064=CARTESIAN_POINT('',(-2.54,3.5,-3.565));
#1065=CARTESIAN_POINT('',(-2.54,8.64,-3.565));
#1066=CARTESIAN_POINT('',(-2.54,1.75,-3.565));
#1067=CARTESIAN_POINT('',(-1.54,3.5,-3.565));
#1068=CARTESIAN_POINT('',(-2.54,3.5,-3.565));
#1069=CARTESIAN_POINT('',(-1.54,8.64,-3.565));
#1070=CARTESIAN_POINT('',(-1.54,2.,-3.565));
#1071=CARTESIAN_POINT('',(-1.27,8.64,-3.565));
#1072=CARTESIAN_POINT('Origin',(-2.54,2.,-2.065));
#1073=CARTESIAN_POINT('',(-2.54,2.,-2.065));
#1074=CARTESIAN_POINT('',(-1.54,3.5,-3.565));
#1075=CARTESIAN_POINT('Origin',(-1.54,5.32,-1.66533453693773E-15));
#1076=CARTESIAN_POINT('',(-1.54,8.64,-8.32667268468867E-16));
#1077=CARTESIAN_POINT('Origin',(0.,8.64,0.));
#1078=CARTESIAN_POINT('',(-2.54,8.64,4.065));
#1079=CARTESIAN_POINT('',(-2.54,8.64,4.065));
#1080=CARTESIAN_POINT('',(2.54,8.64,4.065));
#1081=CARTESIAN_POINT('',(2.54,8.64,4.065));
#1082=CARTESIAN_POINT('',(2.54,8.64,3.565));
#1083=CARTESIAN_POINT('',(2.54,8.64,-4.065));
#1084=CARTESIAN_POINT('',(1.54,8.64,3.565));
#1085=CARTESIAN_POINT('',(1.27,8.64,3.565));
#1086=CARTESIAN_POINT('',(1.54,8.64,-3.565));
#1087=CARTESIAN_POINT('',(1.54,8.64,8.32667268468867E-16));
#1088=CARTESIAN_POINT('',(2.54,8.64,-3.565));
#1089=CARTESIAN_POINT('',(1.27,8.64,-3.565));
#1090=CARTESIAN_POINT('',(2.54,8.64,-4.065));
#1091=CARTESIAN_POINT('',(2.54,8.64,-4.065));
#1092=CARTESIAN_POINT('',(-2.54,8.64,-4.065));
#1093=CARTESIAN_POINT('',(-2.54,8.64,-4.065));
#1094=CARTESIAN_POINT('',(-2.54,8.64,4.065));
#1095=CARTESIAN_POINT('Origin',(2.54,2.,2.065));
#1096=CARTESIAN_POINT('',(2.54,2.,2.065));
#1097=CARTESIAN_POINT('',(2.54,3.5,3.565));
#1098=CARTESIAN_POINT('',(2.54,2.,2.065));
#1099=CARTESIAN_POINT('',(1.54,2.,2.065));
#1100=CARTESIAN_POINT('',(2.54,2.,2.065));
#1101=CARTESIAN_POINT('',(1.54,3.5,3.565));
#1102=CARTESIAN_POINT('',(1.54,3.5,3.565));
#1103=CARTESIAN_POINT('',(2.54,3.5,3.565));
#1104=CARTESIAN_POINT('Origin',(2.54,2.,-2.065));
#1105=CARTESIAN_POINT('',(2.54,2.,-2.065));
#1106=CARTESIAN_POINT('',(2.54,2.,1.));
#1107=CARTESIAN_POINT('',(1.54,2.,-2.065));
#1108=CARTESIAN_POINT('',(2.54,2.,-2.065));
#1109=CARTESIAN_POINT('',(1.54,2.,-3.565));
#1110=CARTESIAN_POINT('Origin',(2.54,3.5,-3.565));
#1111=CARTESIAN_POINT('',(2.54,3.5,-3.565));
#1112=CARTESIAN_POINT('',(2.54,0.7175,-0.782499999999999));
#1113=CARTESIAN_POINT('',(1.54,3.5,-3.565));
#1114=CARTESIAN_POINT('',(2.54,3.5,-3.565));
#1115=CARTESIAN_POINT('',(1.54,3.5,-3.565));
#1116=CARTESIAN_POINT('Origin',(2.54,8.64,-3.565));
#1117=CARTESIAN_POINT('',(2.54,4.32,-3.565));
#1118=CARTESIAN_POINT('',(1.54,8.64,-3.565));
#1119=CARTESIAN_POINT('Origin',(2.54,3.5,3.565));
#1120=CARTESIAN_POINT('',(2.54,1.75,3.565));
#1121=CARTESIAN_POINT('',(1.54,2.,3.565));
#1122=CARTESIAN_POINT('Origin',(1.54,5.32,1.66533453693773E-15));
#1123=CARTESIAN_POINT('Origin',(2.54,0.,4.065));
#1124=CARTESIAN_POINT('',(2.54,0.,4.065));
#1125=CARTESIAN_POINT('',(2.54,0.,4.065));
#1126=CARTESIAN_POINT('',(2.54,0.,-4.065));
#1127=CARTESIAN_POINT('',(2.54,0.,-4.065));
#1128=CARTESIAN_POINT('',(2.54,0.,-4.065));
#1129=CARTESIAN_POINT('Origin',(-2.54,0.,4.065));
#1130=CARTESIAN_POINT('',(-2.54,0.,4.065));
#1131=CARTESIAN_POINT('',(2.54,0.,4.065));
#1132=CARTESIAN_POINT('',(-2.54,0.,4.065));
#1133=CARTESIAN_POINT('Origin',(-2.54,0.,-4.065));
#1134=CARTESIAN_POINT('',(-2.54,0.,-4.065));
#1135=CARTESIAN_POINT('',(-2.54,0.,-4.065));
#1136=CARTESIAN_POINT('',(-2.54,0.,4.065));
#1137=CARTESIAN_POINT('Origin',(2.54,0.,-4.065));
#1138=CARTESIAN_POINT('',(-2.54,0.,-4.065));
#1139=CARTESIAN_POINT('Origin',(0.,0.,0.));
#1140=CARTESIAN_POINT('Origin',(0.,14.23,0.));
#1141=CARTESIAN_POINT('',(2.04,14.73,-2.4982794702606E-16));
#1142=CARTESIAN_POINT('',(-2.4982794702606E-16,14.73,-2.04));
#1143=CARTESIAN_POINT('Origin',(0.,14.73,0.));
#1144=CARTESIAN_POINT('',(-3.11060286983428E-16,14.23,-2.54));
#1145=CARTESIAN_POINT('Origin',(-2.4982794702606E-16,14.23,-2.04));
#1146=CARTESIAN_POINT('',(2.54,14.23,-3.11060286983428E-16));
#1147=CARTESIAN_POINT('Origin',(0.,14.23,0.));
#1148=CARTESIAN_POINT('Origin',(0.,14.23,0.));
#1149=CARTESIAN_POINT('Origin',(0.,14.73,0.));
#1150=CARTESIAN_POINT('Origin',(0.,9.14,0.));
#1151=CARTESIAN_POINT('',(2.54,9.14,-3.11060286983428E-16));
#1152=CARTESIAN_POINT('',(2.54,9.14,-3.11060286983428E-16));
#1153=CARTESIAN_POINT('Origin',(0.,9.14,0.));
#1154=CARTESIAN_POINT('Origin',(0.,14.73,0.));
#1155=CARTESIAN_POINT('',(2.04,9.23,-2.4982794702606E-16));
#1156=CARTESIAN_POINT('',(2.04,14.73,2.4982794702606E-16));
#1157=CARTESIAN_POINT('Origin',(0.,9.23,0.));
#1158=CARTESIAN_POINT('Origin',(0.,9.23,0.));
#1159=CARTESIAN_POINT('Origin',(0.,8.64,0.));
#1160=CARTESIAN_POINT('',(3.,9.14,-3.67394039744206E-16));
#1161=CARTESIAN_POINT('Origin',(0.,9.14,0.));
#1162=CARTESIAN_POINT('',(3.,8.64,-3.67394039744206E-16));
#1163=CARTESIAN_POINT('',(3.,8.64,-3.67394039744206E-16));
#1164=CARTESIAN_POINT('Origin',(0.,8.64,0.));
#1165=CARTESIAN_POINT('Origin',(0.,9.14,0.));
#1166=CARTESIAN_POINT('Origin',(0.,8.64,0.));
#1167=CARTESIAN_POINT('Origin',(0.,13.7451922469878,-0.17364817766693));
#1168=CARTESIAN_POINT('',(1.27,13.7451922469878,-0.17364817766693));
#1169=CARTESIAN_POINT('Origin',(0.,13.7451922469878,-0.17364817766693));
#1170=CARTESIAN_POINT('Origin',(0.,22.7364870319893,1.41175968443214));
#1171=CARTESIAN_POINT('',(1.27,22.7364870319893,1.41175968443214));
#1172=CARTESIAN_POINT('',(1.55530143491714E-16,22.5159538463523,2.66246553075765));
#1173=CARTESIAN_POINT('Origin',(0.,22.7364870319893,1.41175968443214));
#1174=CARTESIAN_POINT('',(-2.17736258817791E-31,23.9871928783148,1.63229287006914));
#1175=CARTESIAN_POINT('Origin',(0.,22.7364870319893,1.41175968443214));
#1176=CARTESIAN_POINT('Origin',(0.,22.7364870319893,1.41175968443214));
#1177=CARTESIAN_POINT('Origin',(0.,14.73,5.55111512312578E-16));
#1178=CARTESIAN_POINT('',(1.27,14.73,4.01944221174837E-16));
#1179=CARTESIAN_POINT('Origin',(-2.54,2.,2.065));
#1180=CARTESIAN_POINT('',(-2.54,2.,2.065));
#1181=CARTESIAN_POINT('',(-2.54,2.,-2.065));
#1182=CARTESIAN_POINT('',(-2.54,2.,3.565));
#1183=CARTESIAN_POINT('',(-1.54,2.,-2.065));
#1184=CARTESIAN_POINT('',(-2.54,2.,-2.065));
#1185=CARTESIAN_POINT('',(-1.54,2.,2.065));
#1186=CARTESIAN_POINT('',(-1.54,2.,3.565));
#1187=CARTESIAN_POINT('',(-2.54,2.,2.065));
#1188=CARTESIAN_POINT('Origin',(-2.54,3.5,3.565));
#1189=CARTESIAN_POINT('',(-2.54,3.5,3.565));
#1190=CARTESIAN_POINT('',(-2.54,3.5,3.565));
#1191=CARTESIAN_POINT('',(-1.54,3.5,3.565));
#1192=CARTESIAN_POINT('',(-1.54,3.5,3.565));
#1193=CARTESIAN_POINT('',(-2.54,3.5,3.565));
#1194=CARTESIAN_POINT('Origin',(-2.54,8.64,3.565));
#1195=CARTESIAN_POINT('',(-2.54,8.64,3.565));
#1196=CARTESIAN_POINT('',(-2.54,8.64,3.565));
#1197=CARTESIAN_POINT('',(-1.54,8.64,3.565));
#1198=CARTESIAN_POINT('',(-1.54,8.64,3.565));
#1199=CARTESIAN_POINT('',(-2.54,8.64,3.565));
#1200=CARTESIAN_POINT('Origin',(-2.54,8.64,-3.565));
#1201=CARTESIAN_POINT('',(-2.54,8.64,-3.565));
#1202=CARTESIAN_POINT('',(-2.54,8.64,-3.565));
#1203=CARTESIAN_POINT('',(-1.54,8.64,-3.565));
#1204=CARTESIAN_POINT('',(-1.54,8.64,-3.565));
#1205=CARTESIAN_POINT('',(-2.54,8.64,-3.565));
#1206=CARTESIAN_POINT('Origin',(-2.54,3.5,-3.565));
#1207=CARTESIAN_POINT('',(-2.54,3.5,-3.565));
#1208=CARTESIAN_POINT('',(-2.54,2.,-3.565));
#1209=CARTESIAN_POINT('',(-1.54,3.5,-3.565));
#1210=CARTESIAN_POINT('',(-1.54,2.,-3.565));
#1211=CARTESIAN_POINT('',(-2.54,3.5,-3.565));
#1212=CARTESIAN_POINT('Origin',(-2.54,2.,-2.065));
#1213=CARTESIAN_POINT('',(-2.54,3.5,-3.565));
#1214=CARTESIAN_POINT('',(-1.54,3.5,-3.565));
#1215=CARTESIAN_POINT('Origin',(-2.54,5.32,-1.66533453693773E-15));
#1216=CARTESIAN_POINT('Origin',(-1.54,5.32,-1.66533453693773E-15));
#1217=CARTESIAN_POINT('Origin',(2.54,2.,2.065));
#1218=CARTESIAN_POINT('',(2.54,3.5,3.565));
#1219=CARTESIAN_POINT('',(2.54,2.,2.065));
#1220=CARTESIAN_POINT('',(2.54,3.5,3.565));
#1221=CARTESIAN_POINT('',(1.54,3.5,3.565));
#1222=CARTESIAN_POINT('',(2.54,3.5,3.565));
#1223=CARTESIAN_POINT('',(1.54,2.,2.065));
#1224=CARTESIAN_POINT('',(1.54,3.5,3.565));
#1225=CARTESIAN_POINT('',(2.54,2.,2.065));
#1226=CARTESIAN_POINT('Origin',(2.54,2.,-2.065));
#1227=CARTESIAN_POINT('',(2.54,2.,-2.065));
#1228=CARTESIAN_POINT('',(2.54,2.,-3.565));
#1229=CARTESIAN_POINT('',(1.54,2.,-2.065));
#1230=CARTESIAN_POINT('',(1.54,2.,-3.565));
#1231=CARTESIAN_POINT('',(2.54,2.,-2.065));
#1232=CARTESIAN_POINT('Origin',(2.54,3.5,-3.565));
#1233=CARTESIAN_POINT('',(2.54,3.5,-3.565));
#1234=CARTESIAN_POINT('',(2.54,3.5,-3.565));
#1235=CARTESIAN_POINT('',(1.54,3.5,-3.565));
#1236=CARTESIAN_POINT('',(1.54,3.5,-3.565));
#1237=CARTESIAN_POINT('',(2.54,3.5,-3.565));
#1238=CARTESIAN_POINT('Origin',(2.54,8.64,-3.565));
#1239=CARTESIAN_POINT('',(2.54,8.64,-3.565));
#1240=CARTESIAN_POINT('',(2.54,8.64,-3.565));
#1241=CARTESIAN_POINT('',(1.54,8.64,-3.565));
#1242=CARTESIAN_POINT('',(1.54,8.64,-3.565));
#1243=CARTESIAN_POINT('',(2.54,8.64,-3.565));
#1244=CARTESIAN_POINT('Origin',(2.54,8.64,3.565));
#1245=CARTESIAN_POINT('',(2.54,8.64,3.565));
#1246=CARTESIAN_POINT('',(2.54,8.64,3.565));
#1247=CARTESIAN_POINT('',(1.54,8.64,3.565));
#1248=CARTESIAN_POINT('',(1.54,8.64,3.565));
#1249=CARTESIAN_POINT('',(2.54,8.64,3.565));
#1250=CARTESIAN_POINT('Origin',(2.54,3.5,3.565));
#1251=CARTESIAN_POINT('',(2.54,2.,3.565));
#1252=CARTESIAN_POINT('',(1.54,2.,3.565));
#1253=CARTESIAN_POINT('Origin',(2.54,5.32,1.66533453693773E-15));
#1254=CARTESIAN_POINT('Origin',(1.54,5.32,1.66533453693773E-15));
#1255=UNCERTAINTY_MEASURE_WITH_UNIT(LENGTH_MEASURE(0.01),#1259,
'DISTANCE_ACCURACY_VALUE',
'Maximum model space distance between geometric entities at asserted c
onnectivities');
#1256=UNCERTAINTY_MEASURE_WITH_UNIT(LENGTH_MEASURE(0.01),#1259,
'DISTANCE_ACCURACY_VALUE',
'Maximum model space distance between geometric entities at asserted c
onnectivities');
#1257=(
GEOMETRIC_REPRESENTATION_CONTEXT(3)
GLOBAL_UNCERTAINTY_ASSIGNED_CONTEXT((#1255))
GLOBAL_UNIT_ASSIGNED_CONTEXT((#1259,#1261,#1262))
REPRESENTATION_CONTEXT('','3D')
);
#1258=(
GEOMETRIC_REPRESENTATION_CONTEXT(3)
GLOBAL_UNCERTAINTY_ASSIGNED_CONTEXT((#1256))
GLOBAL_UNIT_ASSIGNED_CONTEXT((#1259,#1261,#1262))
REPRESENTATION_CONTEXT('','3D')
);
#1259=(
LENGTH_UNIT()
NAMED_UNIT(*)
SI_UNIT(.MILLI.,.METRE.)
);
#1260=(
LENGTH_UNIT()
NAMED_UNIT(*)
SI_UNIT($,.METRE.)
);
#1261=(
NAMED_UNIT(*)
PLANE_ANGLE_UNIT()
SI_UNIT($,.RADIAN.)
);
#1262=(
NAMED_UNIT(*)
SI_UNIT($,.STERADIAN.)
SOLID_ANGLE_UNIT()
);
#1263=SHAPE_DEFINITION_REPRESENTATION(#1264,#1265);
#1264=PRODUCT_DEFINITION_SHAPE('',$,#1267);
#1265=SHAPE_REPRESENTATION('',(#779),#1257);
#1266=PRODUCT_DEFINITION_CONTEXT('part definition',#1271,'design');
#1267=PRODUCT_DEFINITION('# SW toggle','# SW toggle v1',#1268,#1266);
#1268=PRODUCT_DEFINITION_FORMATION('',$,#1273);
#1269=PRODUCT_RELATED_PRODUCT_CATEGORY('# SW toggle v1',
'# SW toggle v1',(#1273));
#1270=APPLICATION_PROTOCOL_DEFINITION('international standard',
'automotive_design',2009,#1271);
#1271=APPLICATION_CONTEXT(
'Core Data for Automotive Mechanical Design Process');
#1272=PRODUCT_CONTEXT('part definition',#1271,'mechanical');
#1273=PRODUCT('# SW toggle','# SW toggle v1',$,(#1272));
#1274=PRESENTATION_STYLE_ASSIGNMENT((#1277));
#1275=PRESENTATION_STYLE_ASSIGNMENT((#1278));
#1276=PRESENTATION_STYLE_ASSIGNMENT((#1279));
#1277=SURFACE_STYLE_USAGE(.BOTH.,#1280);
#1278=SURFACE_STYLE_USAGE(.BOTH.,#1281);
#1279=SURFACE_STYLE_USAGE(.BOTH.,#1282);
#1280=SURFACE_SIDE_STYLE('',(#1283));
#1281=SURFACE_SIDE_STYLE('',(#1284));
#1282=SURFACE_SIDE_STYLE('',(#1285));
#1283=SURFACE_STYLE_FILL_AREA(#1286);
#1284=SURFACE_STYLE_FILL_AREA(#1287);
#1285=SURFACE_STYLE_FILL_AREA(#1288);
#1286=FILL_AREA_STYLE('\X2\92FC\X0\ - \X2\30B530C630F3\X0\',(#1289));
#1287=FILL_AREA_STYLE('\X2\30D730E930B930C130C330AF\X0\ - \X2\30DE30C330C8\X0\(
\X2\8D64\X0\)',(#1290));
#1288=FILL_AREA_STYLE('\X2\30A230EB30DF30CB30A630E0\X0\ - \X2\3064308451FA3057\X0\',
(#1291));
#1289=FILL_AREA_STYLE_COLOUR('\X2\92FC\X0\ - \X2\30B530C630F3\X0\',#1292);
#1290=FILL_AREA_STYLE_COLOUR('\X2\30D730E930B930C130C330AF\X0\ - \X2\30DE30C330C8\X0\(
\X2\8D64\X0\)',#1293);
#1291=FILL_AREA_STYLE_COLOUR('\X2\30A230EB30DF30CB30A630E0\X0\ - \X2\3064308451FA3057\X0\',
#1294);
#1292=COLOUR_RGB('\X2\92FC\X0\ - \X2\30B530C630F3\X0\',0.627450980392157,
0.627450980392157,0.627450980392157);
#1293=COLOUR_RGB('\X2\30D730E930B930C130C330AF\X0\ - \X2\30DE30C330C8\X0\(
\X2\8D64\X0\)',0.768627450980392,0.207843137254902,0.152941176470588);
#1294=COLOUR_RGB('\X2\30A230EB30DF30CB30A630E0\X0\ - \X2\3064308451FA3057\X0\',
0.96078431372549,0.96078431372549,0.964705882352941);
ENDSEC;
END-ISO-10303-21;
