ISO-10303-21;
HEADER;
/* Generated by software containing ST-Developer
 * from STEP Tools, Inc. (www.steptools.com) 
 */

FILE_DESCRIPTION(
/* description */ (''),
/* implementation_level */ '2;1');

FILE_NAME(
/* name */ '001_motor-mount.step',
/* time_stamp */ '2026-08-31T13:54:28+09:00',
/* author */ (''),
/* organization */ (''),
/* preprocessor_version */ 'ST-DEVELOPER v20.1',
/* originating_system */ 'Autodesk Translation Framework v15.8.0.0',
/* authorisation */ '');

FILE_SCHEMA (('AUTOMOTIVE_DESIGN { 1 0 10303 214 3 1 1 }'));
ENDSEC;

DATA;
#10=MECHANICAL_DESIGN_GEOMETRIC_PRESENTATION_REPRESENTATION('',(#17),#1572);
#11=ITEM_DEFINED_TRANSFORMATION($,$,#894,#983);
#12=(
REPRESENTATION_RELATIONSHIP($,$,#1583,#1582)
REPRESENTATION_RELATIONSHIP_WITH_TRANSFORMATION(#11)
SHAPE_REPRESENTATION_RELATIONSHIP()
);
#13=CONTEXT_DEPENDENT_SHAPE_REPRESENTATION(#12,#1581);
#14=NEXT_ASSEMBLY_USAGE_OCCURRENCE('\X2\30B330F330DD30FC30CD30F330C8\X0\1
:1','\X2\30B330F330DD30FC30CD30F330C8\X0\1:1',
'\X2\30B330F330DD30FC30CD30F330C8\X0\1:1',#1585,#1586,
'\X2\30B330F330DD30FC30CD30F330C8\X0\1:1');
#15=SHAPE_REPRESENTATION_RELATIONSHIP('SRR','None',#1583,#16);
#16=ADVANCED_BREP_SHAPE_REPRESENTATION('',(#18),#1571);
#17=STYLED_ITEM('',(#1600),#18);
#18=MANIFOLD_SOLID_BREP('\X2\30DC30C730A3\X0\1',#880);
#19=B_SPLINE_CURVE_WITH_KNOTS('',3,(#1279,#1280,#1281,#1282),
 .UNSPECIFIED.,.F.,.F.,(4,4),(1.01823197697493,1.03461946316839),
 .UNSPECIFIED.);
#20=B_SPLINE_CURVE_WITH_KNOTS('',3,(#1285,#1286,#1287,#1288),
 .UNSPECIFIED.,.F.,.F.,(4,4),(0.391624231689544,0.408011717883003),
 .UNSPECIFIED.);
#21=B_SPLINE_CURVE_WITH_KNOTS('',3,(#1303,#1304,#1305,#1306),
 .UNSPECIFIED.,.F.,.F.,(4,4),(1.01823197697493,1.03461946316838),
 .UNSPECIFIED.);
#22=B_SPLINE_CURVE_WITH_KNOTS('',3,(#1309,#1310,#1311,#1312),
 .UNSPECIFIED.,.F.,.F.,(4,4),(0.391624231689542,0.408011717883003),
 .UNSPECIFIED.);
#23=B_SPLINE_CURVE_WITH_KNOTS('',3,(#1331,#1332,#1333,#1334,#1335,#1336,
#1337,#1338,#1339,#1340,#1341,#1342,#1343,#1344),.UNSPECIFIED.,.F.,.F.,
(4,2,2,2,2,2,4),(0.775394504309675,0.797173350168001,0.859273759079301,
0.921374167990601,0.983474576901902,1.0455749858132,1.04632305702509),
 .UNSPECIFIED.);
#24=B_SPLINE_CURVE_WITH_KNOTS('',3,(#1346,#1347,#1348,#1349),
 .UNSPECIFIED.,.F.,.F.,(4,4),(1.04632305702509,1.06735532305837),
 .UNSPECIFIED.);
#25=B_SPLINE_CURVE_WITH_KNOTS('',3,(#1360,#1361,#1362,#1363),
 .UNSPECIFIED.,.F.,.F.,(4,4),(0.391467024426828,0.407810311554049),
 .UNSPECIFIED.);
#26=B_SPLINE_CURVE_WITH_KNOTS('',3,(#1367,#1368,#1369,#1370),
 .UNSPECIFIED.,.F.,.F.,(4,4),(0.775394504309675,0.796425344727724),
 .UNSPECIFIED.);
#27=B_SPLINE_CURVE_WITH_KNOTS('',3,(#1372,#1373,#1374,#1375,#1376,#1377,
#1378,#1379,#1380,#1381,#1382,#1383,#1384,#1385),.UNSPECIFIED.,.F.,.F.,
(4,2,2,2,2,2,4),(0.796425344727724,0.797173350168002,0.859273759079302,
0.921374167990603,0.983474576901903,1.0455749858132,1.06735383167153),
 .UNSPECIFIED.);
#28=B_SPLINE_CURVE_WITH_KNOTS('',3,(#1388,#1389,#1390,#1391),
 .UNSPECIFIED.,.F.,.F.,(4,4),(1.01823197697492,1.03457526410152),
 .UNSPECIFIED.);
#29=B_SPLINE_CURVE_WITH_KNOTS('',3,(#1404,#1405,#1406,#1407),
 .UNSPECIFIED.,.F.,.F.,(4,4),(0.391624231689543,0.408011717883003),
 .UNSPECIFIED.);
#30=B_SPLINE_CURVE_WITH_KNOTS('',3,(#1411,#1412,#1413,#1414,#1415,#1416,
#1417,#1418,#1419,#1420,#1421,#1422,#1423,#1424),.UNSPECIFIED.,.F.,.F.,
(4,2,2,2,2,2,4),(0.775394504309677,0.797173350168004,0.859273759079305,
0.921374167990605,0.983474576901906,1.04557498581321,1.06735383167153),
 .UNSPECIFIED.);
#31=B_SPLINE_CURVE_WITH_KNOTS('',3,(#1427,#1428,#1429,#1430),
 .UNSPECIFIED.,.F.,.F.,(4,4),(1.01823197697493,1.03461946316839),
 .UNSPECIFIED.);
#32=B_SPLINE_CURVE_WITH_KNOTS('',3,(#1443,#1444,#1445,#1446,#1447,#1448,
#1449,#1450,#1451,#1452,#1453,#1454,#1455,#1456),.UNSPECIFIED.,.F.,.F.,
(4,2,2,2,2,2,4),(0.775394504309678,0.797173350168005,0.859273759079306,
0.921374167990607,0.983474576901907,1.04557498581321,1.06735383167153),
 .UNSPECIFIED.);
#33=CYLINDRICAL_SURFACE('',#905,3.);
#34=CYLINDRICAL_SURFACE('',#911,3.);
#35=CYLINDRICAL_SURFACE('',#917,2.);
#36=CYLINDRICAL_SURFACE('',#918,2.);
#37=CYLINDRICAL_SURFACE('',#924,2.);
#38=CYLINDRICAL_SURFACE('',#931,2.);
#39=CYLINDRICAL_SURFACE('',#936,1.65);
#40=CYLINDRICAL_SURFACE('',#938,3.);
#41=CYLINDRICAL_SURFACE('',#943,1.65);
#42=CYLINDRICAL_SURFACE('',#945,3.);
#43=CYLINDRICAL_SURFACE('',#953,1.65);
#44=CYLINDRICAL_SURFACE('',#954,1.65);
#45=CYLINDRICAL_SURFACE('',#955,8.20000000000001);
#46=CYLINDRICAL_SURFACE('',#959,3.25);
#47=CYLINDRICAL_SURFACE('',#962,1.25);
#48=CYLINDRICAL_SURFACE('',#965,1.25);
#49=CYLINDRICAL_SURFACE('',#968,1.25);
#50=CYLINDRICAL_SURFACE('',#971,1.25);
#51=CYLINDRICAL_SURFACE('',#974,1.25);
#52=CYLINDRICAL_SURFACE('',#977,1.25);
#53=ELLIPSE('',#904,2.16666666666666,2.);
#54=ELLIPSE('',#908,2.16666666666667,2.);
#55=ELLIPSE('',#910,2.16666666666667,2.);
#56=ELLIPSE('',#919,2.16666666666666,2.);
#57=ELLIPSE('',#920,2.16666666666667,2.);
#58=ELLIPSE('',#925,2.16666666666667,2.);
#59=ELLIPSE('',#926,2.16666666666667,2.);
#60=ELLIPSE('',#932,2.16666666666667,2.);
#61=FACE_BOUND('',#162,.T.);
#62=FACE_BOUND('',#165,.T.);
#63=FACE_BOUND('',#196,.T.);
#64=FACE_BOUND('',#205,.T.);
#65=FACE_BOUND('',#206,.T.);
#66=FACE_BOUND('',#208,.T.);
#67=FACE_BOUND('',#209,.T.);
#68=FACE_BOUND('',#210,.T.);
#69=FACE_BOUND('',#211,.T.);
#70=FACE_BOUND('',#212,.T.);
#71=FACE_BOUND('',#213,.T.);
#72=FACE_BOUND('',#214,.T.);
#73=FACE_BOUND('',#216,.T.);
#74=FACE_BOUND('',#217,.T.);
#75=FACE_BOUND('',#218,.T.);
#76=FACE_BOUND('',#219,.T.);
#77=FACE_BOUND('',#220,.T.);
#78=FACE_BOUND('',#221,.T.);
#79=FACE_BOUND('',#222,.T.);
#80=CIRCLE('',#897,3.);
#81=CIRCLE('',#898,1.65);
#82=CIRCLE('',#901,3.);
#83=CIRCLE('',#902,1.65);
#84=CIRCLE('',#906,3.);
#85=CIRCLE('',#912,3.);
#86=CIRCLE('',#914,4.6);
#87=CIRCLE('',#915,4.59999999999999);
#88=CIRCLE('',#922,1.65);
#89=CIRCLE('',#923,3.);
#90=CIRCLE('',#928,1.65);
#91=CIRCLE('',#929,1.65);
#92=CIRCLE('',#930,3.);
#93=CIRCLE('',#934,1.65);
#94=CIRCLE('',#935,1.65);
#95=CIRCLE('',#937,1.65);
#96=CIRCLE('',#939,3.);
#97=CIRCLE('',#944,1.65);
#98=CIRCLE('',#946,3.);
#99=CIRCLE('',#950,1.65);
#100=CIRCLE('',#956,8.20000000000001);
#101=CIRCLE('',#957,8.20000000000001);
#102=CIRCLE('',#960,3.25);
#103=CIRCLE('',#961,3.25);
#104=CIRCLE('',#963,1.25);
#105=CIRCLE('',#964,1.25);
#106=CIRCLE('',#966,1.25);
#107=CIRCLE('',#967,1.25);
#108=CIRCLE('',#969,1.25);
#109=CIRCLE('',#970,1.25);
#110=CIRCLE('',#972,1.25);
#111=CIRCLE('',#973,1.25);
#112=CIRCLE('',#975,1.25);
#113=CIRCLE('',#976,1.25);
#114=CIRCLE('',#978,1.25);
#115=CIRCLE('',#979,1.25);
#116=FACE_OUTER_BOUND('',#160,.T.);
#117=FACE_OUTER_BOUND('',#161,.T.);
#118=FACE_OUTER_BOUND('',#163,.T.);
#119=FACE_OUTER_BOUND('',#164,.T.);
#120=FACE_OUTER_BOUND('',#166,.T.);
#121=FACE_OUTER_BOUND('',#167,.T.);
#122=FACE_OUTER_BOUND('',#168,.T.);
#123=FACE_OUTER_BOUND('',#169,.T.);
#124=FACE_OUTER_BOUND('',#170,.T.);
#125=FACE_OUTER_BOUND('',#171,.T.);
#126=FACE_OUTER_BOUND('',#172,.T.);
#127=FACE_OUTER_BOUND('',#173,.T.);
#128=FACE_OUTER_BOUND('',#174,.T.);
#129=FACE_OUTER_BOUND('',#175,.T.);
#130=FACE_OUTER_BOUND('',#176,.T.);
#131=FACE_OUTER_BOUND('',#177,.T.);
#132=FACE_OUTER_BOUND('',#178,.T.);
#133=FACE_OUTER_BOUND('',#179,.T.);
#134=FACE_OUTER_BOUND('',#180,.T.);
#135=FACE_OUTER_BOUND('',#181,.T.);
#136=FACE_OUTER_BOUND('',#182,.T.);
#137=FACE_OUTER_BOUND('',#183,.T.);
#138=FACE_OUTER_BOUND('',#184,.T.);
#139=FACE_OUTER_BOUND('',#185,.T.);
#140=FACE_OUTER_BOUND('',#186,.T.);
#141=FACE_OUTER_BOUND('',#187,.T.);
#142=FACE_OUTER_BOUND('',#188,.T.);
#143=FACE_OUTER_BOUND('',#189,.T.);
#144=FACE_OUTER_BOUND('',#190,.T.);
#145=FACE_OUTER_BOUND('',#191,.T.);
#146=FACE_OUTER_BOUND('',#192,.T.);
#147=FACE_OUTER_BOUND('',#193,.T.);
#148=FACE_OUTER_BOUND('',#194,.T.);
#149=FACE_OUTER_BOUND('',#195,.T.);
#150=FACE_OUTER_BOUND('',#197,.T.);
#151=FACE_OUTER_BOUND('',#198,.T.);
#152=FACE_OUTER_BOUND('',#199,.T.);
#153=FACE_OUTER_BOUND('',#200,.T.);
#154=FACE_OUTER_BOUND('',#201,.T.);
#155=FACE_OUTER_BOUND('',#202,.T.);
#156=FACE_OUTER_BOUND('',#203,.T.);
#157=FACE_OUTER_BOUND('',#204,.T.);
#158=FACE_OUTER_BOUND('',#207,.T.);
#159=FACE_OUTER_BOUND('',#215,.T.);
#160=EDGE_LOOP('',(#562,#563,#564,#565));
#161=EDGE_LOOP('',(#566,#567,#568,#569));
#162=EDGE_LOOP('',(#570));
#163=EDGE_LOOP('',(#571,#572,#573,#574));
#164=EDGE_LOOP('',(#575,#576,#577,#578));
#165=EDGE_LOOP('',(#579));
#166=EDGE_LOOP('',(#580,#581,#582,#583));
#167=EDGE_LOOP('',(#584,#585,#586,#587,#588,#589));
#168=EDGE_LOOP('',(#590,#591,#592,#593));
#169=EDGE_LOOP('',(#594,#595,#596,#597));
#170=EDGE_LOOP('',(#598,#599,#600,#601,#602,#603));
#171=EDGE_LOOP('',(#604,#605,#606,#607));
#172=EDGE_LOOP('',(#608,#609,#610,#611,#612,#613,#614,#615));
#173=EDGE_LOOP('',(#616,#617,#618,#619,#620,#621,#622,#623,#624));
#174=EDGE_LOOP('',(#625,#626,#627,#628,#629,#630,#631,#632,#633));
#175=EDGE_LOOP('',(#634,#635,#636,#637));
#176=EDGE_LOOP('',(#638,#639,#640,#641,#642,#643,#644,#645));
#177=EDGE_LOOP('',(#646,#647,#648,#649,#650));
#178=EDGE_LOOP('',(#651,#652,#653,#654,#655,#656,#657,#658));
#179=EDGE_LOOP('',(#659,#660,#661,#662,#663));
#180=EDGE_LOOP('',(#664,#665,#666,#667,#668,#669));
#181=EDGE_LOOP('',(#670,#671,#672,#673,#674,#675));
#182=EDGE_LOOP('',(#676,#677,#678,#679));
#183=EDGE_LOOP('',(#680,#681,#682,#683));
#184=EDGE_LOOP('',(#684,#685,#686,#687));
#185=EDGE_LOOP('',(#688,#689,#690,#691,#692,#693));
#186=EDGE_LOOP('',(#694,#695,#696,#697,#698,#699));
#187=EDGE_LOOP('',(#700,#701,#702,#703));
#188=EDGE_LOOP('',(#704,#705,#706,#707));
#189=EDGE_LOOP('',(#708,#709,#710,#711));
#190=EDGE_LOOP('',(#712,#713,#714,#715));
#191=EDGE_LOOP('',(#716,#717,#718,#719));
#192=EDGE_LOOP('',(#720,#721,#722,#723,#724,#725));
#193=EDGE_LOOP('',(#726,#727,#728,#729,#730,#731));
#194=EDGE_LOOP('',(#732,#733,#734,#735));
#195=EDGE_LOOP('',(#736,#737,#738,#739,#740,#741,#742,#743,#744,#745,#746,
#747));
#196=EDGE_LOOP('',(#748));
#197=EDGE_LOOP('',(#749,#750,#751,#752));
#198=EDGE_LOOP('',(#753,#754,#755,#756));
#199=EDGE_LOOP('',(#757,#758,#759,#760));
#200=EDGE_LOOP('',(#761,#762,#763,#764));
#201=EDGE_LOOP('',(#765,#766,#767,#768));
#202=EDGE_LOOP('',(#769,#770,#771,#772));
#203=EDGE_LOOP('',(#773,#774,#775,#776));
#204=EDGE_LOOP('',(#777,#778,#779,#780,#781,#782,#783,#784));
#205=EDGE_LOOP('',(#785));
#206=EDGE_LOOP('',(#786));
#207=EDGE_LOOP('',(#787,#788,#789,#790,#791,#792,#793,#794,#795,#796));
#208=EDGE_LOOP('',(#797));
#209=EDGE_LOOP('',(#798));
#210=EDGE_LOOP('',(#799));
#211=EDGE_LOOP('',(#800));
#212=EDGE_LOOP('',(#801));
#213=EDGE_LOOP('',(#802));
#214=EDGE_LOOP('',(#803));
#215=EDGE_LOOP('',(#804));
#216=EDGE_LOOP('',(#805));
#217=EDGE_LOOP('',(#806));
#218=EDGE_LOOP('',(#807));
#219=EDGE_LOOP('',(#808));
#220=EDGE_LOOP('',(#809));
#221=EDGE_LOOP('',(#810));
#222=EDGE_LOOP('',(#811));
#223=LINE('',#1238,#290);
#224=LINE('',#1240,#291);
#225=LINE('',#1242,#292);
#226=LINE('',#1243,#293);
#227=LINE('',#1246,#294);
#228=LINE('',#1249,#295);
#229=LINE('',#1255,#296);
#230=LINE('',#1257,#297);
#231=LINE('',#1259,#298);
#232=LINE('',#1260,#299);
#233=LINE('',#1263,#300);
#234=LINE('',#1266,#301);
#235=LINE('',#1271,#302);
#236=LINE('',#1274,#303);
#237=LINE('',#1277,#304);
#238=LINE('',#1291,#305);
#239=LINE('',#1295,#306);
#240=LINE('',#1298,#307);
#241=LINE('',#1301,#308);
#242=LINE('',#1316,#309);
#243=LINE('',#1320,#310);
#244=LINE('',#1323,#311);
#245=LINE('',#1324,#312);
#246=LINE('',#1325,#313);
#247=LINE('',#1327,#314);
#248=LINE('',#1329,#315);
#249=LINE('',#1350,#316);
#250=LINE('',#1356,#317);
#251=LINE('',#1365,#318);
#252=LINE('',#1387,#319);
#253=LINE('',#1400,#320);
#254=LINE('',#1409,#321);
#255=LINE('',#1426,#322);
#256=LINE('',#1439,#323);
#257=LINE('',#1441,#324);
#258=LINE('',#1457,#325);
#259=LINE('',#1464,#326);
#260=LINE('',#1470,#327);
#261=LINE('',#1471,#328);
#262=LINE('',#1474,#329);
#263=LINE('',#1475,#330);
#264=LINE('',#1478,#331);
#265=LINE('',#1479,#332);
#266=LINE('',#1481,#333);
#267=LINE('',#1482,#334);
#268=LINE('',#1485,#335);
#269=LINE('',#1491,#336);
#270=LINE('',#1492,#337);
#271=LINE('',#1495,#338);
#272=LINE('',#1496,#339);
#273=LINE('',#1499,#340);
#274=LINE('',#1500,#341);
#275=LINE('',#1504,#342);
#276=LINE('',#1505,#343);
#277=LINE('',#1507,#344);
#278=LINE('',#1509,#345);
#279=LINE('',#1511,#346);
#280=LINE('',#1516,#347);
#281=LINE('',#1519,#348);
#282=LINE('',#1524,#349);
#283=LINE('',#1530,#350);
#284=LINE('',#1536,#351);
#285=LINE('',#1542,#352);
#286=LINE('',#1548,#353);
#287=LINE('',#1554,#354);
#288=LINE('',#1560,#355);
#289=LINE('',#1563,#356);
#290=VECTOR('',#990,10.);
#291=VECTOR('',#991,10.);
#292=VECTOR('',#992,10.);
#293=VECTOR('',#993,10.);
#294=VECTOR('',#996,10.);
#295=VECTOR('',#999,10.);
#296=VECTOR('',#1004,10.);
#297=VECTOR('',#1005,10.);
#298=VECTOR('',#1006,10.);
#299=VECTOR('',#1007,10.);
#300=VECTOR('',#1010,10.);
#301=VECTOR('',#1013,10.);
#302=VECTOR('',#1018,10.);
#303=VECTOR('',#1021,10.);
#304=VECTOR('',#1024,10.);
#305=VECTOR('',#1029,10.);
#306=VECTOR('',#1034,10.);
#307=VECTOR('',#1037,10.);
#308=VECTOR('',#1040,10.);
#309=VECTOR('',#1045,10.);
#310=VECTOR('',#1048,10.);
#311=VECTOR('',#1053,10.);
#312=VECTOR('',#1054,10.);
#313=VECTOR('',#1055,10.);
#314=VECTOR('',#1058,10.);
#315=VECTOR('',#1059,10.);
#316=VECTOR('',#1060,10.);
#317=VECTOR('',#1065,10.);
#318=VECTOR('',#1068,10.);
#319=VECTOR('',#1069,10.);
#320=VECTOR('',#1080,10.);
#321=VECTOR('',#1083,10.);
#322=VECTOR('',#1084,10.);
#323=VECTOR('',#1097,10.);
#324=VECTOR('',#1098,10.);
#325=VECTOR('',#1099,10.);
#326=VECTOR('',#1108,1.65);
#327=VECTOR('',#1115,10.);
#328=VECTOR('',#1116,10.);
#329=VECTOR('',#1119,10.);
#330=VECTOR('',#1120,10.);
#331=VECTOR('',#1123,10.);
#332=VECTOR('',#1124,10.);
#333=VECTOR('',#1127,10.);
#334=VECTOR('',#1128,10.);
#335=VECTOR('',#1131,1.65);
#336=VECTOR('',#1138,10.);
#337=VECTOR('',#1139,10.);
#338=VECTOR('',#1142,10.);
#339=VECTOR('',#1143,10.);
#340=VECTOR('',#1146,10.);
#341=VECTOR('',#1147,10.);
#342=VECTOR('',#1154,10.);
#343=VECTOR('',#1155,10.);
#344=VECTOR('',#1158,10.);
#345=VECTOR('',#1161,1.65);
#346=VECTOR('',#1164,1.65);
#347=VECTOR('',#1169,8.20000000000001);
#348=VECTOR('',#1174,10.);
#349=VECTOR('',#1179,3.25);
#350=VECTOR('',#1186,1.25);
#351=VECTOR('',#1193,1.25);
#352=VECTOR('',#1200,1.25);
#353=VECTOR('',#1207,1.25);
#354=VECTOR('',#1214,1.25);
#355=VECTOR('',#1221,1.25);
#356=VECTOR('',#1226,10.);
#357=VERTEX_POINT('',#1236);
#358=VERTEX_POINT('',#1237);
#359=VERTEX_POINT('',#1239);
#360=VERTEX_POINT('',#1241);
#361=VERTEX_POINT('',#1245);
#362=VERTEX_POINT('',#1247);
#363=VERTEX_POINT('',#1250);
#364=VERTEX_POINT('',#1253);
#365=VERTEX_POINT('',#1254);
#366=VERTEX_POINT('',#1256);
#367=VERTEX_POINT('',#1258);
#368=VERTEX_POINT('',#1262);
#369=VERTEX_POINT('',#1264);
#370=VERTEX_POINT('',#1267);
#371=VERTEX_POINT('',#1270);
#372=VERTEX_POINT('',#1272);
#373=VERTEX_POINT('',#1276);
#374=VERTEX_POINT('',#1278);
#375=VERTEX_POINT('',#1283);
#376=VERTEX_POINT('',#1290);
#377=VERTEX_POINT('',#1294);
#378=VERTEX_POINT('',#1296);
#379=VERTEX_POINT('',#1300);
#380=VERTEX_POINT('',#1302);
#381=VERTEX_POINT('',#1307);
#382=VERTEX_POINT('',#1314);
#383=VERTEX_POINT('',#1315);
#384=VERTEX_POINT('',#1317);
#385=VERTEX_POINT('',#1319);
#386=VERTEX_POINT('',#1328);
#387=VERTEX_POINT('',#1330);
#388=VERTEX_POINT('',#1345);
#389=VERTEX_POINT('',#1352);
#390=VERTEX_POINT('',#1353);
#391=VERTEX_POINT('',#1355);
#392=VERTEX_POINT('',#1357);
#393=VERTEX_POINT('',#1359);
#394=VERTEX_POINT('',#1364);
#395=VERTEX_POINT('',#1366);
#396=VERTEX_POINT('',#1371);
#397=VERTEX_POINT('',#1386);
#398=VERTEX_POINT('',#1396);
#399=VERTEX_POINT('',#1397);
#400=VERTEX_POINT('',#1399);
#401=VERTEX_POINT('',#1401);
#402=VERTEX_POINT('',#1403);
#403=VERTEX_POINT('',#1408);
#404=VERTEX_POINT('',#1410);
#405=VERTEX_POINT('',#1425);
#406=VERTEX_POINT('',#1432);
#407=VERTEX_POINT('',#1437);
#408=VERTEX_POINT('',#1440);
#409=VERTEX_POINT('',#1442);
#410=VERTEX_POINT('',#1459);
#411=VERTEX_POINT('',#1463);
#412=VERTEX_POINT('',#1467);
#413=VERTEX_POINT('',#1468);
#414=VERTEX_POINT('',#1473);
#415=VERTEX_POINT('',#1477);
#416=VERTEX_POINT('',#1484);
#417=VERTEX_POINT('',#1488);
#418=VERTEX_POINT('',#1489);
#419=VERTEX_POINT('',#1494);
#420=VERTEX_POINT('',#1498);
#421=VERTEX_POINT('',#1513);
#422=VERTEX_POINT('',#1515);
#423=VERTEX_POINT('',#1521);
#424=VERTEX_POINT('',#1523);
#425=VERTEX_POINT('',#1527);
#426=VERTEX_POINT('',#1529);
#427=VERTEX_POINT('',#1533);
#428=VERTEX_POINT('',#1535);
#429=VERTEX_POINT('',#1539);
#430=VERTEX_POINT('',#1541);
#431=VERTEX_POINT('',#1545);
#432=VERTEX_POINT('',#1547);
#433=VERTEX_POINT('',#1551);
#434=VERTEX_POINT('',#1553);
#435=VERTEX_POINT('',#1557);
#436=VERTEX_POINT('',#1559);
#437=EDGE_CURVE('',#357,#358,#223,.T.);
#438=EDGE_CURVE('',#359,#357,#224,.T.);
#439=EDGE_CURVE('',#359,#360,#225,.T.);
#440=EDGE_CURVE('',#358,#360,#226,.T.);
#441=EDGE_CURVE('',#361,#359,#227,.T.);
#442=EDGE_CURVE('',#362,#361,#80,.T.);
#443=EDGE_CURVE('',#360,#362,#228,.T.);
#444=EDGE_CURVE('',#363,#363,#81,.T.);
#445=EDGE_CURVE('',#364,#365,#229,.T.);
#446=EDGE_CURVE('',#366,#364,#230,.T.);
#447=EDGE_CURVE('',#366,#367,#231,.T.);
#448=EDGE_CURVE('',#365,#367,#232,.T.);
#449=EDGE_CURVE('',#368,#366,#233,.T.);
#450=EDGE_CURVE('',#369,#368,#82,.T.);
#451=EDGE_CURVE('',#367,#369,#234,.T.);
#452=EDGE_CURVE('',#370,#370,#83,.T.);
#453=EDGE_CURVE('',#371,#362,#235,.T.);
#454=EDGE_CURVE('',#372,#371,#53,.T.);
#455=EDGE_CURVE('',#360,#372,#236,.T.);
#456=EDGE_CURVE('',#373,#361,#237,.T.);
#457=EDGE_CURVE('',#374,#373,#19,.T.);
#458=EDGE_CURVE('',#374,#375,#84,.T.);
#459=EDGE_CURVE('',#375,#371,#20,.F.);
#460=EDGE_CURVE('',#376,#359,#238,.T.);
#461=EDGE_CURVE('',#376,#373,#54,.F.);
#462=EDGE_CURVE('',#377,#369,#239,.T.);
#463=EDGE_CURVE('',#378,#377,#55,.T.);
#464=EDGE_CURVE('',#367,#378,#240,.T.);
#465=EDGE_CURVE('',#379,#368,#241,.T.);
#466=EDGE_CURVE('',#380,#379,#21,.T.);
#467=EDGE_CURVE('',#380,#381,#85,.T.);
#468=EDGE_CURVE('',#381,#377,#22,.F.);
#469=EDGE_CURVE('',#382,#383,#242,.T.);
#470=EDGE_CURVE('',#384,#382,#86,.T.);
#471=EDGE_CURVE('',#385,#384,#243,.T.);
#472=EDGE_CURVE('',#385,#383,#87,.T.);
#473=EDGE_CURVE('',#383,#358,#244,.T.);
#474=EDGE_CURVE('',#364,#382,#245,.T.);
#475=EDGE_CURVE('',#357,#365,#246,.T.);
#476=EDGE_CURVE('',#376,#372,#247,.T.);
#477=EDGE_CURVE('',#375,#386,#248,.T.);
#478=EDGE_CURVE('',#387,#386,#23,.F.);
#479=EDGE_CURVE('',#388,#387,#24,.F.);
#480=EDGE_CURVE('',#388,#374,#249,.T.);
#481=EDGE_CURVE('',#389,#390,#56,.F.);
#482=EDGE_CURVE('',#389,#391,#250,.T.);
#483=EDGE_CURVE('',#391,#392,#57,.T.);
#484=EDGE_CURVE('',#393,#392,#25,.F.);
#485=EDGE_CURVE('',#393,#394,#251,.T.);
#486=EDGE_CURVE('',#395,#394,#26,.F.);
#487=EDGE_CURVE('',#396,#395,#27,.F.);
#488=EDGE_CURVE('',#396,#397,#252,.T.);
#489=EDGE_CURVE('',#397,#390,#28,.T.);
#490=EDGE_CURVE('',#396,#394,#88,.T.);
#491=EDGE_CURVE('',#393,#397,#89,.T.);
#492=EDGE_CURVE('',#398,#399,#58,.F.);
#493=EDGE_CURVE('',#398,#400,#253,.T.);
#494=EDGE_CURVE('',#400,#401,#59,.T.);
#495=EDGE_CURVE('',#402,#401,#29,.F.);
#496=EDGE_CURVE('',#402,#403,#254,.T.);
#497=EDGE_CURVE('',#404,#403,#30,.F.);
#498=EDGE_CURVE('',#404,#405,#255,.T.);
#499=EDGE_CURVE('',#405,#399,#31,.T.);
#500=EDGE_CURVE('',#404,#406,#90,.T.);
#501=EDGE_CURVE('',#406,#403,#91,.T.);
#502=EDGE_CURVE('',#402,#405,#92,.T.);
#503=EDGE_CURVE('',#407,#379,#60,.F.);
#504=EDGE_CURVE('',#407,#378,#256,.T.);
#505=EDGE_CURVE('',#381,#408,#257,.T.);
#506=EDGE_CURVE('',#409,#408,#32,.F.);
#507=EDGE_CURVE('',#409,#380,#258,.T.);
#508=EDGE_CURVE('',#410,#409,#93,.T.);
#509=EDGE_CURVE('',#408,#410,#94,.T.);
#510=EDGE_CURVE('',#395,#411,#259,.T.);
#511=EDGE_CURVE('',#411,#411,#95,.T.);
#512=EDGE_CURVE('',#412,#413,#96,.T.);
#513=EDGE_CURVE('',#412,#390,#260,.T.);
#514=EDGE_CURVE('',#413,#392,#261,.T.);
#515=EDGE_CURVE('',#414,#413,#262,.T.);
#516=EDGE_CURVE('',#414,#391,#263,.T.);
#517=EDGE_CURVE('',#415,#412,#264,.T.);
#518=EDGE_CURVE('',#389,#415,#265,.T.);
#519=EDGE_CURVE('',#391,#376,#266,.T.);
#520=EDGE_CURVE('',#372,#389,#267,.T.);
#521=EDGE_CURVE('',#406,#416,#268,.T.);
#522=EDGE_CURVE('',#416,#416,#97,.T.);
#523=EDGE_CURVE('',#417,#418,#98,.T.);
#524=EDGE_CURVE('',#417,#399,#269,.T.);
#525=EDGE_CURVE('',#418,#401,#270,.T.);
#526=EDGE_CURVE('',#419,#418,#271,.T.);
#527=EDGE_CURVE('',#419,#400,#272,.T.);
#528=EDGE_CURVE('',#420,#417,#273,.T.);
#529=EDGE_CURVE('',#398,#420,#274,.T.);
#530=EDGE_CURVE('',#386,#388,#99,.T.);
#531=EDGE_CURVE('',#378,#398,#275,.T.);
#532=EDGE_CURVE('',#400,#407,#276,.T.);
#533=EDGE_CURVE('',#407,#366,#277,.T.);
#534=EDGE_CURVE('',#363,#387,#278,.T.);
#535=EDGE_CURVE('',#370,#410,#279,.T.);
#536=EDGE_CURVE('',#421,#421,#100,.T.);
#537=EDGE_CURVE('',#421,#422,#280,.T.);
#538=EDGE_CURVE('',#422,#422,#101,.T.);
#539=EDGE_CURVE('',#415,#419,#281,.T.);
#540=EDGE_CURVE('',#423,#423,#102,.T.);
#541=EDGE_CURVE('',#423,#424,#282,.T.);
#542=EDGE_CURVE('',#424,#424,#103,.T.);
#543=EDGE_CURVE('',#425,#425,#104,.T.);
#544=EDGE_CURVE('',#425,#426,#283,.T.);
#545=EDGE_CURVE('',#426,#426,#105,.T.);
#546=EDGE_CURVE('',#427,#427,#106,.T.);
#547=EDGE_CURVE('',#427,#428,#284,.T.);
#548=EDGE_CURVE('',#428,#428,#107,.T.);
#549=EDGE_CURVE('',#429,#429,#108,.T.);
#550=EDGE_CURVE('',#429,#430,#285,.T.);
#551=EDGE_CURVE('',#430,#430,#109,.T.);
#552=EDGE_CURVE('',#431,#431,#110,.T.);
#553=EDGE_CURVE('',#431,#432,#286,.T.);
#554=EDGE_CURVE('',#432,#432,#111,.T.);
#555=EDGE_CURVE('',#433,#433,#112,.T.);
#556=EDGE_CURVE('',#433,#434,#287,.T.);
#557=EDGE_CURVE('',#434,#434,#113,.T.);
#558=EDGE_CURVE('',#435,#435,#114,.T.);
#559=EDGE_CURVE('',#435,#436,#288,.T.);
#560=EDGE_CURVE('',#436,#436,#115,.T.);
#561=EDGE_CURVE('',#420,#414,#289,.T.);
#562=ORIENTED_EDGE('',*,*,#437,.F.);
#563=ORIENTED_EDGE('',*,*,#438,.F.);
#564=ORIENTED_EDGE('',*,*,#439,.T.);
#565=ORIENTED_EDGE('',*,*,#440,.F.);
#566=ORIENTED_EDGE('',*,*,#439,.F.);
#567=ORIENTED_EDGE('',*,*,#441,.F.);
#568=ORIENTED_EDGE('',*,*,#442,.F.);
#569=ORIENTED_EDGE('',*,*,#443,.F.);
#570=ORIENTED_EDGE('',*,*,#444,.F.);
#571=ORIENTED_EDGE('',*,*,#445,.F.);
#572=ORIENTED_EDGE('',*,*,#446,.F.);
#573=ORIENTED_EDGE('',*,*,#447,.T.);
#574=ORIENTED_EDGE('',*,*,#448,.F.);
#575=ORIENTED_EDGE('',*,*,#447,.F.);
#576=ORIENTED_EDGE('',*,*,#449,.F.);
#577=ORIENTED_EDGE('',*,*,#450,.F.);
#578=ORIENTED_EDGE('',*,*,#451,.F.);
#579=ORIENTED_EDGE('',*,*,#452,.F.);
#580=ORIENTED_EDGE('',*,*,#443,.T.);
#581=ORIENTED_EDGE('',*,*,#453,.F.);
#582=ORIENTED_EDGE('',*,*,#454,.F.);
#583=ORIENTED_EDGE('',*,*,#455,.F.);
#584=ORIENTED_EDGE('',*,*,#442,.T.);
#585=ORIENTED_EDGE('',*,*,#456,.F.);
#586=ORIENTED_EDGE('',*,*,#457,.F.);
#587=ORIENTED_EDGE('',*,*,#458,.T.);
#588=ORIENTED_EDGE('',*,*,#459,.T.);
#589=ORIENTED_EDGE('',*,*,#453,.T.);
#590=ORIENTED_EDGE('',*,*,#441,.T.);
#591=ORIENTED_EDGE('',*,*,#460,.F.);
#592=ORIENTED_EDGE('',*,*,#461,.T.);
#593=ORIENTED_EDGE('',*,*,#456,.T.);
#594=ORIENTED_EDGE('',*,*,#451,.T.);
#595=ORIENTED_EDGE('',*,*,#462,.F.);
#596=ORIENTED_EDGE('',*,*,#463,.F.);
#597=ORIENTED_EDGE('',*,*,#464,.F.);
#598=ORIENTED_EDGE('',*,*,#450,.T.);
#599=ORIENTED_EDGE('',*,*,#465,.F.);
#600=ORIENTED_EDGE('',*,*,#466,.F.);
#601=ORIENTED_EDGE('',*,*,#467,.T.);
#602=ORIENTED_EDGE('',*,*,#468,.T.);
#603=ORIENTED_EDGE('',*,*,#462,.T.);
#604=ORIENTED_EDGE('',*,*,#469,.F.);
#605=ORIENTED_EDGE('',*,*,#470,.F.);
#606=ORIENTED_EDGE('',*,*,#471,.F.);
#607=ORIENTED_EDGE('',*,*,#472,.T.);
#608=ORIENTED_EDGE('',*,*,#437,.T.);
#609=ORIENTED_EDGE('',*,*,#473,.F.);
#610=ORIENTED_EDGE('',*,*,#472,.F.);
#611=ORIENTED_EDGE('',*,*,#471,.T.);
#612=ORIENTED_EDGE('',*,*,#470,.T.);
#613=ORIENTED_EDGE('',*,*,#474,.F.);
#614=ORIENTED_EDGE('',*,*,#445,.T.);
#615=ORIENTED_EDGE('',*,*,#475,.F.);
#616=ORIENTED_EDGE('',*,*,#461,.F.);
#617=ORIENTED_EDGE('',*,*,#476,.T.);
#618=ORIENTED_EDGE('',*,*,#454,.T.);
#619=ORIENTED_EDGE('',*,*,#459,.F.);
#620=ORIENTED_EDGE('',*,*,#477,.T.);
#621=ORIENTED_EDGE('',*,*,#478,.F.);
#622=ORIENTED_EDGE('',*,*,#479,.F.);
#623=ORIENTED_EDGE('',*,*,#480,.T.);
#624=ORIENTED_EDGE('',*,*,#457,.T.);
#625=ORIENTED_EDGE('',*,*,#481,.F.);
#626=ORIENTED_EDGE('',*,*,#482,.T.);
#627=ORIENTED_EDGE('',*,*,#483,.T.);
#628=ORIENTED_EDGE('',*,*,#484,.F.);
#629=ORIENTED_EDGE('',*,*,#485,.T.);
#630=ORIENTED_EDGE('',*,*,#486,.F.);
#631=ORIENTED_EDGE('',*,*,#487,.F.);
#632=ORIENTED_EDGE('',*,*,#488,.T.);
#633=ORIENTED_EDGE('',*,*,#489,.T.);
#634=ORIENTED_EDGE('',*,*,#488,.F.);
#635=ORIENTED_EDGE('',*,*,#490,.T.);
#636=ORIENTED_EDGE('',*,*,#485,.F.);
#637=ORIENTED_EDGE('',*,*,#491,.T.);
#638=ORIENTED_EDGE('',*,*,#492,.F.);
#639=ORIENTED_EDGE('',*,*,#493,.T.);
#640=ORIENTED_EDGE('',*,*,#494,.T.);
#641=ORIENTED_EDGE('',*,*,#495,.F.);
#642=ORIENTED_EDGE('',*,*,#496,.T.);
#643=ORIENTED_EDGE('',*,*,#497,.F.);
#644=ORIENTED_EDGE('',*,*,#498,.T.);
#645=ORIENTED_EDGE('',*,*,#499,.T.);
#646=ORIENTED_EDGE('',*,*,#498,.F.);
#647=ORIENTED_EDGE('',*,*,#500,.T.);
#648=ORIENTED_EDGE('',*,*,#501,.T.);
#649=ORIENTED_EDGE('',*,*,#496,.F.);
#650=ORIENTED_EDGE('',*,*,#502,.T.);
#651=ORIENTED_EDGE('',*,*,#503,.F.);
#652=ORIENTED_EDGE('',*,*,#504,.T.);
#653=ORIENTED_EDGE('',*,*,#463,.T.);
#654=ORIENTED_EDGE('',*,*,#468,.F.);
#655=ORIENTED_EDGE('',*,*,#505,.T.);
#656=ORIENTED_EDGE('',*,*,#506,.F.);
#657=ORIENTED_EDGE('',*,*,#507,.T.);
#658=ORIENTED_EDGE('',*,*,#466,.T.);
#659=ORIENTED_EDGE('',*,*,#507,.F.);
#660=ORIENTED_EDGE('',*,*,#508,.F.);
#661=ORIENTED_EDGE('',*,*,#509,.F.);
#662=ORIENTED_EDGE('',*,*,#505,.F.);
#663=ORIENTED_EDGE('',*,*,#467,.F.);
#664=ORIENTED_EDGE('',*,*,#487,.T.);
#665=ORIENTED_EDGE('',*,*,#510,.T.);
#666=ORIENTED_EDGE('',*,*,#511,.F.);
#667=ORIENTED_EDGE('',*,*,#510,.F.);
#668=ORIENTED_EDGE('',*,*,#486,.T.);
#669=ORIENTED_EDGE('',*,*,#490,.F.);
#670=ORIENTED_EDGE('',*,*,#512,.F.);
#671=ORIENTED_EDGE('',*,*,#513,.T.);
#672=ORIENTED_EDGE('',*,*,#489,.F.);
#673=ORIENTED_EDGE('',*,*,#491,.F.);
#674=ORIENTED_EDGE('',*,*,#484,.T.);
#675=ORIENTED_EDGE('',*,*,#514,.F.);
#676=ORIENTED_EDGE('',*,*,#515,.T.);
#677=ORIENTED_EDGE('',*,*,#514,.T.);
#678=ORIENTED_EDGE('',*,*,#483,.F.);
#679=ORIENTED_EDGE('',*,*,#516,.F.);
#680=ORIENTED_EDGE('',*,*,#517,.F.);
#681=ORIENTED_EDGE('',*,*,#518,.F.);
#682=ORIENTED_EDGE('',*,*,#481,.T.);
#683=ORIENTED_EDGE('',*,*,#513,.F.);
#684=ORIENTED_EDGE('',*,*,#476,.F.);
#685=ORIENTED_EDGE('',*,*,#519,.F.);
#686=ORIENTED_EDGE('',*,*,#482,.F.);
#687=ORIENTED_EDGE('',*,*,#520,.F.);
#688=ORIENTED_EDGE('',*,*,#500,.F.);
#689=ORIENTED_EDGE('',*,*,#497,.T.);
#690=ORIENTED_EDGE('',*,*,#501,.F.);
#691=ORIENTED_EDGE('',*,*,#521,.T.);
#692=ORIENTED_EDGE('',*,*,#522,.F.);
#693=ORIENTED_EDGE('',*,*,#521,.F.);
#694=ORIENTED_EDGE('',*,*,#523,.F.);
#695=ORIENTED_EDGE('',*,*,#524,.T.);
#696=ORIENTED_EDGE('',*,*,#499,.F.);
#697=ORIENTED_EDGE('',*,*,#502,.F.);
#698=ORIENTED_EDGE('',*,*,#495,.T.);
#699=ORIENTED_EDGE('',*,*,#525,.F.);
#700=ORIENTED_EDGE('',*,*,#526,.T.);
#701=ORIENTED_EDGE('',*,*,#525,.T.);
#702=ORIENTED_EDGE('',*,*,#494,.F.);
#703=ORIENTED_EDGE('',*,*,#527,.F.);
#704=ORIENTED_EDGE('',*,*,#528,.F.);
#705=ORIENTED_EDGE('',*,*,#529,.F.);
#706=ORIENTED_EDGE('',*,*,#492,.T.);
#707=ORIENTED_EDGE('',*,*,#524,.F.);
#708=ORIENTED_EDGE('',*,*,#480,.F.);
#709=ORIENTED_EDGE('',*,*,#530,.F.);
#710=ORIENTED_EDGE('',*,*,#477,.F.);
#711=ORIENTED_EDGE('',*,*,#458,.F.);
#712=ORIENTED_EDGE('',*,*,#493,.F.);
#713=ORIENTED_EDGE('',*,*,#531,.F.);
#714=ORIENTED_EDGE('',*,*,#504,.F.);
#715=ORIENTED_EDGE('',*,*,#532,.F.);
#716=ORIENTED_EDGE('',*,*,#449,.T.);
#717=ORIENTED_EDGE('',*,*,#533,.F.);
#718=ORIENTED_EDGE('',*,*,#503,.T.);
#719=ORIENTED_EDGE('',*,*,#465,.T.);
#720=ORIENTED_EDGE('',*,*,#444,.T.);
#721=ORIENTED_EDGE('',*,*,#534,.T.);
#722=ORIENTED_EDGE('',*,*,#478,.T.);
#723=ORIENTED_EDGE('',*,*,#530,.T.);
#724=ORIENTED_EDGE('',*,*,#479,.T.);
#725=ORIENTED_EDGE('',*,*,#534,.F.);
#726=ORIENTED_EDGE('',*,*,#452,.T.);
#727=ORIENTED_EDGE('',*,*,#535,.T.);
#728=ORIENTED_EDGE('',*,*,#508,.T.);
#729=ORIENTED_EDGE('',*,*,#506,.T.);
#730=ORIENTED_EDGE('',*,*,#509,.T.);
#731=ORIENTED_EDGE('',*,*,#535,.F.);
#732=ORIENTED_EDGE('',*,*,#536,.F.);
#733=ORIENTED_EDGE('',*,*,#537,.T.);
#734=ORIENTED_EDGE('',*,*,#538,.F.);
#735=ORIENTED_EDGE('',*,*,#537,.F.);
#736=ORIENTED_EDGE('',*,*,#473,.T.);
#737=ORIENTED_EDGE('',*,*,#440,.T.);
#738=ORIENTED_EDGE('',*,*,#455,.T.);
#739=ORIENTED_EDGE('',*,*,#520,.T.);
#740=ORIENTED_EDGE('',*,*,#518,.T.);
#741=ORIENTED_EDGE('',*,*,#539,.T.);
#742=ORIENTED_EDGE('',*,*,#527,.T.);
#743=ORIENTED_EDGE('',*,*,#532,.T.);
#744=ORIENTED_EDGE('',*,*,#533,.T.);
#745=ORIENTED_EDGE('',*,*,#446,.T.);
#746=ORIENTED_EDGE('',*,*,#474,.T.);
#747=ORIENTED_EDGE('',*,*,#469,.T.);
#748=ORIENTED_EDGE('',*,*,#536,.T.);
#749=ORIENTED_EDGE('',*,*,#540,.F.);
#750=ORIENTED_EDGE('',*,*,#541,.T.);
#751=ORIENTED_EDGE('',*,*,#542,.F.);
#752=ORIENTED_EDGE('',*,*,#541,.F.);
#753=ORIENTED_EDGE('',*,*,#543,.F.);
#754=ORIENTED_EDGE('',*,*,#544,.T.);
#755=ORIENTED_EDGE('',*,*,#545,.T.);
#756=ORIENTED_EDGE('',*,*,#544,.F.);
#757=ORIENTED_EDGE('',*,*,#546,.F.);
#758=ORIENTED_EDGE('',*,*,#547,.T.);
#759=ORIENTED_EDGE('',*,*,#548,.T.);
#760=ORIENTED_EDGE('',*,*,#547,.F.);
#761=ORIENTED_EDGE('',*,*,#549,.F.);
#762=ORIENTED_EDGE('',*,*,#550,.T.);
#763=ORIENTED_EDGE('',*,*,#551,.T.);
#764=ORIENTED_EDGE('',*,*,#550,.F.);
#765=ORIENTED_EDGE('',*,*,#552,.F.);
#766=ORIENTED_EDGE('',*,*,#553,.T.);
#767=ORIENTED_EDGE('',*,*,#554,.T.);
#768=ORIENTED_EDGE('',*,*,#553,.F.);
#769=ORIENTED_EDGE('',*,*,#555,.F.);
#770=ORIENTED_EDGE('',*,*,#556,.T.);
#771=ORIENTED_EDGE('',*,*,#557,.T.);
#772=ORIENTED_EDGE('',*,*,#556,.F.);
#773=ORIENTED_EDGE('',*,*,#558,.F.);
#774=ORIENTED_EDGE('',*,*,#559,.T.);
#775=ORIENTED_EDGE('',*,*,#560,.T.);
#776=ORIENTED_EDGE('',*,*,#559,.F.);
#777=ORIENTED_EDGE('',*,*,#561,.F.);
#778=ORIENTED_EDGE('',*,*,#528,.T.);
#779=ORIENTED_EDGE('',*,*,#523,.T.);
#780=ORIENTED_EDGE('',*,*,#526,.F.);
#781=ORIENTED_EDGE('',*,*,#539,.F.);
#782=ORIENTED_EDGE('',*,*,#517,.T.);
#783=ORIENTED_EDGE('',*,*,#512,.T.);
#784=ORIENTED_EDGE('',*,*,#515,.F.);
#785=ORIENTED_EDGE('',*,*,#511,.T.);
#786=ORIENTED_EDGE('',*,*,#522,.T.);
#787=ORIENTED_EDGE('',*,*,#448,.T.);
#788=ORIENTED_EDGE('',*,*,#464,.T.);
#789=ORIENTED_EDGE('',*,*,#531,.T.);
#790=ORIENTED_EDGE('',*,*,#529,.T.);
#791=ORIENTED_EDGE('',*,*,#561,.T.);
#792=ORIENTED_EDGE('',*,*,#516,.T.);
#793=ORIENTED_EDGE('',*,*,#519,.T.);
#794=ORIENTED_EDGE('',*,*,#460,.T.);
#795=ORIENTED_EDGE('',*,*,#438,.T.);
#796=ORIENTED_EDGE('',*,*,#475,.T.);
#797=ORIENTED_EDGE('',*,*,#542,.T.);
#798=ORIENTED_EDGE('',*,*,#558,.T.);
#799=ORIENTED_EDGE('',*,*,#555,.T.);
#800=ORIENTED_EDGE('',*,*,#552,.T.);
#801=ORIENTED_EDGE('',*,*,#549,.T.);
#802=ORIENTED_EDGE('',*,*,#546,.T.);
#803=ORIENTED_EDGE('',*,*,#543,.T.);
#804=ORIENTED_EDGE('',*,*,#538,.T.);
#805=ORIENTED_EDGE('',*,*,#540,.T.);
#806=ORIENTED_EDGE('',*,*,#560,.F.);
#807=ORIENTED_EDGE('',*,*,#557,.F.);
#808=ORIENTED_EDGE('',*,*,#554,.F.);
#809=ORIENTED_EDGE('',*,*,#551,.F.);
#810=ORIENTED_EDGE('',*,*,#548,.F.);
#811=ORIENTED_EDGE('',*,*,#545,.F.);
#812=PLANE('',#895);
#813=PLANE('',#896);
#814=PLANE('',#899);
#815=PLANE('',#900);
#816=PLANE('',#903);
#817=PLANE('',#907);
#818=PLANE('',#909);
#819=PLANE('',#913);
#820=PLANE('',#916);
#821=PLANE('',#921);
#822=PLANE('',#927);
#823=PLANE('',#933);
#824=PLANE('',#940);
#825=PLANE('',#941);
#826=PLANE('',#942);
#827=PLANE('',#947);
#828=PLANE('',#948);
#829=PLANE('',#949);
#830=PLANE('',#951);
#831=PLANE('',#952);
#832=PLANE('',#958);
#833=PLANE('',#980);
#834=PLANE('',#981);
#835=PLANE('',#982);
#836=ADVANCED_FACE('',(#116),#812,.F.);
#837=ADVANCED_FACE('',(#117,#61),#813,.T.);
#838=ADVANCED_FACE('',(#118),#814,.F.);
#839=ADVANCED_FACE('',(#119,#62),#815,.T.);
#840=ADVANCED_FACE('',(#120),#816,.T.);
#841=ADVANCED_FACE('',(#121),#33,.T.);
#842=ADVANCED_FACE('',(#122),#817,.T.);
#843=ADVANCED_FACE('',(#123),#818,.T.);
#844=ADVANCED_FACE('',(#124),#34,.T.);
#845=ADVANCED_FACE('',(#125),#819,.F.);
#846=ADVANCED_FACE('',(#126),#820,.T.);
#847=ADVANCED_FACE('',(#127),#35,.F.);
#848=ADVANCED_FACE('',(#128),#36,.F.);
#849=ADVANCED_FACE('',(#129),#821,.F.);
#850=ADVANCED_FACE('',(#130),#37,.F.);
#851=ADVANCED_FACE('',(#131),#822,.F.);
#852=ADVANCED_FACE('',(#132),#38,.F.);
#853=ADVANCED_FACE('',(#133),#823,.T.);
#854=ADVANCED_FACE('',(#134),#39,.F.);
#855=ADVANCED_FACE('',(#135),#40,.T.);
#856=ADVANCED_FACE('',(#136),#824,.T.);
#857=ADVANCED_FACE('',(#137),#825,.T.);
#858=ADVANCED_FACE('',(#138),#826,.F.);
#859=ADVANCED_FACE('',(#139),#41,.F.);
#860=ADVANCED_FACE('',(#140),#42,.T.);
#861=ADVANCED_FACE('',(#141),#827,.T.);
#862=ADVANCED_FACE('',(#142),#828,.T.);
#863=ADVANCED_FACE('',(#143),#829,.T.);
#864=ADVANCED_FACE('',(#144),#830,.F.);
#865=ADVANCED_FACE('',(#145),#831,.T.);
#866=ADVANCED_FACE('',(#146),#43,.F.);
#867=ADVANCED_FACE('',(#147),#44,.F.);
#868=ADVANCED_FACE('',(#148),#45,.F.);
#869=ADVANCED_FACE('',(#149,#63),#832,.F.);
#870=ADVANCED_FACE('',(#150),#46,.F.);
#871=ADVANCED_FACE('',(#151),#47,.F.);
#872=ADVANCED_FACE('',(#152),#48,.F.);
#873=ADVANCED_FACE('',(#153),#49,.F.);
#874=ADVANCED_FACE('',(#154),#50,.F.);
#875=ADVANCED_FACE('',(#155),#51,.F.);
#876=ADVANCED_FACE('',(#156),#52,.F.);
#877=ADVANCED_FACE('',(#157,#64,#65),#833,.T.);
#878=ADVANCED_FACE('',(#158,#66,#67,#68,#69,#70,#71,#72),#834,.T.);
#879=ADVANCED_FACE('',(#159,#73,#74,#75,#76,#77,#78,#79),#835,.F.);
#880=CLOSED_SHELL('',(#836,#837,#838,#839,#840,#841,#842,#843,#844,#845,
#846,#847,#848,#849,#850,#851,#852,#853,#854,#855,#856,#857,#858,#859,#860,
#861,#862,#863,#864,#865,#866,#867,#868,#869,#870,#871,#872,#873,#874,#875,
#876,#877,#878,#879));
#881=DERIVED_UNIT_ELEMENT(#883,1.);
#882=DERIVED_UNIT_ELEMENT(#1574,-3.);
#883=(
MASS_UNIT()
NAMED_UNIT(*)
SI_UNIT(.KILO.,.GRAM.)
);
#884=DERIVED_UNIT((#881,#882));
#885=MEASURE_REPRESENTATION_ITEM('density measure',
POSITIVE_RATIO_MEASURE(7850.),#884);
#886=PROPERTY_DEFINITION_REPRESENTATION(#891,#888);
#887=PROPERTY_DEFINITION_REPRESENTATION(#892,#889);
#888=REPRESENTATION('material name',(#890),#1571);
#889=REPRESENTATION('density',(#885),#1571);
#890=DESCRIPTIVE_REPRESENTATION_ITEM('\X2\92FC\X0\','\X2\92FC\X0\');
#891=PROPERTY_DEFINITION('material property','material name',#1586);
#892=PROPERTY_DEFINITION('material property','density of part',#1586);
#893=AXIS2_PLACEMENT_3D('',#1233,#984,#985);
#894=AXIS2_PLACEMENT_3D('',#1234,#986,#987);
#895=AXIS2_PLACEMENT_3D('',#1235,#988,#989);
#896=AXIS2_PLACEMENT_3D('',#1244,#994,#995);
#897=AXIS2_PLACEMENT_3D('',#1248,#997,#998);
#898=AXIS2_PLACEMENT_3D('',#1251,#1000,#1001);
#899=AXIS2_PLACEMENT_3D('',#1252,#1002,#1003);
#900=AXIS2_PLACEMENT_3D('',#1261,#1008,#1009);
#901=AXIS2_PLACEMENT_3D('',#1265,#1011,#1012);
#902=AXIS2_PLACEMENT_3D('',#1268,#1014,#1015);
#903=AXIS2_PLACEMENT_3D('',#1269,#1016,#1017);
#904=AXIS2_PLACEMENT_3D('',#1273,#1019,#1020);
#905=AXIS2_PLACEMENT_3D('',#1275,#1022,#1023);
#906=AXIS2_PLACEMENT_3D('',#1284,#1025,#1026);
#907=AXIS2_PLACEMENT_3D('',#1289,#1027,#1028);
#908=AXIS2_PLACEMENT_3D('',#1292,#1030,#1031);
#909=AXIS2_PLACEMENT_3D('',#1293,#1032,#1033);
#910=AXIS2_PLACEMENT_3D('',#1297,#1035,#1036);
#911=AXIS2_PLACEMENT_3D('',#1299,#1038,#1039);
#912=AXIS2_PLACEMENT_3D('',#1308,#1041,#1042);
#913=AXIS2_PLACEMENT_3D('',#1313,#1043,#1044);
#914=AXIS2_PLACEMENT_3D('',#1318,#1046,#1047);
#915=AXIS2_PLACEMENT_3D('',#1321,#1049,#1050);
#916=AXIS2_PLACEMENT_3D('',#1322,#1051,#1052);
#917=AXIS2_PLACEMENT_3D('',#1326,#1056,#1057);
#918=AXIS2_PLACEMENT_3D('',#1351,#1061,#1062);
#919=AXIS2_PLACEMENT_3D('',#1354,#1063,#1064);
#920=AXIS2_PLACEMENT_3D('',#1358,#1066,#1067);
#921=AXIS2_PLACEMENT_3D('',#1392,#1070,#1071);
#922=AXIS2_PLACEMENT_3D('',#1393,#1072,#1073);
#923=AXIS2_PLACEMENT_3D('',#1394,#1074,#1075);
#924=AXIS2_PLACEMENT_3D('',#1395,#1076,#1077);
#925=AXIS2_PLACEMENT_3D('',#1398,#1078,#1079);
#926=AXIS2_PLACEMENT_3D('',#1402,#1081,#1082);
#927=AXIS2_PLACEMENT_3D('',#1431,#1085,#1086);
#928=AXIS2_PLACEMENT_3D('',#1433,#1087,#1088);
#929=AXIS2_PLACEMENT_3D('',#1434,#1089,#1090);
#930=AXIS2_PLACEMENT_3D('',#1435,#1091,#1092);
#931=AXIS2_PLACEMENT_3D('',#1436,#1093,#1094);
#932=AXIS2_PLACEMENT_3D('',#1438,#1095,#1096);
#933=AXIS2_PLACEMENT_3D('',#1458,#1100,#1101);
#934=AXIS2_PLACEMENT_3D('',#1460,#1102,#1103);
#935=AXIS2_PLACEMENT_3D('',#1461,#1104,#1105);
#936=AXIS2_PLACEMENT_3D('',#1462,#1106,#1107);
#937=AXIS2_PLACEMENT_3D('',#1465,#1109,#1110);
#938=AXIS2_PLACEMENT_3D('',#1466,#1111,#1112);
#939=AXIS2_PLACEMENT_3D('',#1469,#1113,#1114);
#940=AXIS2_PLACEMENT_3D('',#1472,#1117,#1118);
#941=AXIS2_PLACEMENT_3D('',#1476,#1121,#1122);
#942=AXIS2_PLACEMENT_3D('',#1480,#1125,#1126);
#943=AXIS2_PLACEMENT_3D('',#1483,#1129,#1130);
#944=AXIS2_PLACEMENT_3D('',#1486,#1132,#1133);
#945=AXIS2_PLACEMENT_3D('',#1487,#1134,#1135);
#946=AXIS2_PLACEMENT_3D('',#1490,#1136,#1137);
#947=AXIS2_PLACEMENT_3D('',#1493,#1140,#1141);
#948=AXIS2_PLACEMENT_3D('',#1497,#1144,#1145);
#949=AXIS2_PLACEMENT_3D('',#1501,#1148,#1149);
#950=AXIS2_PLACEMENT_3D('',#1502,#1150,#1151);
#951=AXIS2_PLACEMENT_3D('',#1503,#1152,#1153);
#952=AXIS2_PLACEMENT_3D('',#1506,#1156,#1157);
#953=AXIS2_PLACEMENT_3D('',#1508,#1159,#1160);
#954=AXIS2_PLACEMENT_3D('',#1510,#1162,#1163);
#955=AXIS2_PLACEMENT_3D('',#1512,#1165,#1166);
#956=AXIS2_PLACEMENT_3D('',#1514,#1167,#1168);
#957=AXIS2_PLACEMENT_3D('',#1517,#1170,#1171);
#958=AXIS2_PLACEMENT_3D('',#1518,#1172,#1173);
#959=AXIS2_PLACEMENT_3D('',#1520,#1175,#1176);
#960=AXIS2_PLACEMENT_3D('',#1522,#1177,#1178);
#961=AXIS2_PLACEMENT_3D('',#1525,#1180,#1181);
#962=AXIS2_PLACEMENT_3D('',#1526,#1182,#1183);
#963=AXIS2_PLACEMENT_3D('',#1528,#1184,#1185);
#964=AXIS2_PLACEMENT_3D('',#1531,#1187,#1188);
#965=AXIS2_PLACEMENT_3D('',#1532,#1189,#1190);
#966=AXIS2_PLACEMENT_3D('',#1534,#1191,#1192);
#967=AXIS2_PLACEMENT_3D('',#1537,#1194,#1195);
#968=AXIS2_PLACEMENT_3D('',#1538,#1196,#1197);
#969=AXIS2_PLACEMENT_3D('',#1540,#1198,#1199);
#970=AXIS2_PLACEMENT_3D('',#1543,#1201,#1202);
#971=AXIS2_PLACEMENT_3D('',#1544,#1203,#1204);
#972=AXIS2_PLACEMENT_3D('',#1546,#1205,#1206);
#973=AXIS2_PLACEMENT_3D('',#1549,#1208,#1209);
#974=AXIS2_PLACEMENT_3D('',#1550,#1210,#1211);
#975=AXIS2_PLACEMENT_3D('',#1552,#1212,#1213);
#976=AXIS2_PLACEMENT_3D('',#1555,#1215,#1216);
#977=AXIS2_PLACEMENT_3D('',#1556,#1217,#1218);
#978=AXIS2_PLACEMENT_3D('',#1558,#1219,#1220);
#979=AXIS2_PLACEMENT_3D('',#1561,#1222,#1223);
#980=AXIS2_PLACEMENT_3D('',#1562,#1224,#1225);
#981=AXIS2_PLACEMENT_3D('',#1564,#1227,#1228);
#982=AXIS2_PLACEMENT_3D('',#1565,#1229,#1230);
#983=AXIS2_PLACEMENT_3D('',#1566,#1231,#1232);
#984=DIRECTION('axis',(0.,0.,1.));
#985=DIRECTION('refdir',(1.,0.,0.));
#986=DIRECTION('axis',(0.,0.,1.));
#987=DIRECTION('refdir',(1.,0.,0.));
#988=DIRECTION('center_axis',(0.707106781186544,-0.707106781186551,4.35788199605261E-32));
#989=DIRECTION('ref_axis',(0.707106781186551,0.707106781186544,-1.14936450902496E-15));
#990=DIRECTION('',(0.707106781186551,0.707106781186544,-6.97938956252706E-32));
#991=DIRECTION('',(-3.46999041946177E-16,-3.46958728899022E-16,-1.));
#992=DIRECTION('',(0.707106781186551,0.707106781186544,-1.14936450902496E-15));
#993=DIRECTION('',(3.46999041946177E-16,3.46958728899022E-16,1.));
#994=DIRECTION('center_axis',(-1.61823548450227E-17,-3.91720363736034E-17,
-1.));
#995=DIRECTION('ref_axis',(1.,1.60982338570648E-15,-1.61823548450228E-17));
#996=DIRECTION('',(0.924678098474718,-0.380749805254289,-4.87238862753307E-20));
#997=DIRECTION('center_axis',(1.61823548450227E-17,3.91720363736034E-17,
1.));
#998=DIRECTION('ref_axis',(0.924678098474694,0.380749805254349,-6.10238364508689E-16));
#999=DIRECTION('',(-0.380749805254296,0.924678098474716,-3.00600956515277E-17));
#1000=DIRECTION('center_axis',(-1.61823548450227E-17,-3.91720363736034E-17,
-1.));
#1001=DIRECTION('ref_axis',(1.83697019872103E-16,1.,-4.67462326157961E-16));
#1002=DIRECTION('center_axis',(-0.707106781186544,0.707106781186551,-4.35788199605261E-32));
#1003=DIRECTION('ref_axis',(-0.707106781186551,-0.707106781186544,1.14936450902495E-15));
#1004=DIRECTION('',(-0.707106781186551,-0.707106781186544,6.97938956252706E-32));
#1005=DIRECTION('',(-3.46999041946177E-16,-3.46958728899022E-16,-1.));
#1006=DIRECTION('',(-0.707106781186551,-0.707106781186544,1.14936450902495E-15));
#1007=DIRECTION('',(3.46999041946177E-16,3.46958728899022E-16,1.));
#1008=DIRECTION('center_axis',(-1.61823548450227E-17,-3.91720363736034E-17,
-1.));
#1009=DIRECTION('ref_axis',(1.,1.60982338570648E-15,-1.61823548450228E-17));
#1010=DIRECTION('',(-0.924678098474716,0.380749805254296,4.87238862750041E-20));
#1011=DIRECTION('center_axis',(1.61823548450227E-17,3.91720363736034E-17,
1.));
#1012=DIRECTION('ref_axis',(-0.924678098474729,-0.380749805254263,6.10238364508665E-16));
#1013=DIRECTION('',(0.380749805254288,-0.924678098474719,3.00600956515279E-17));
#1014=DIRECTION('center_axis',(-1.61823548450227E-17,-3.91720363736034E-17,
-1.));
#1015=DIRECTION('ref_axis',(1.83697019872103E-16,1.,-4.67462326157961E-16));
#1016=DIRECTION('center_axis',(0.924678098474716,0.380749805254296,-6.10238364508674E-16));
#1017=DIRECTION('ref_axis',(0.380749805254296,-0.924678098474716,2.84646257528386E-16));
#1018=DIRECTION('',(-4.67462326157961E-16,-4.67462326157961E-16,-1.));
#1019=DIRECTION('center_axis',(0.924678098474716,0.380749805254296,-6.10238364508674E-16));
#1020=DIRECTION('ref_axis',(0.380749805254296,-0.924678098474716,1.85748852196901E-15));
#1021=DIRECTION('',(3.46999041946177E-16,3.46958728899022E-16,1.));
#1022=DIRECTION('center_axis',(-4.67462326157961E-16,-4.67462326157961E-16,
-1.));
#1023=DIRECTION('ref_axis',(-0.707106875248276,0.707106687124807,8.79406345952867E-23));
#1024=DIRECTION('',(-4.67462326157961E-16,-4.67462326157961E-16,-1.));
#1025=DIRECTION('center_axis',(-5.23384309418169E-16,-5.23343996371014E-16,
-1.));
#1026=DIRECTION('ref_axis',(0.924678098474694,0.380749805254349,-6.10238364508689E-16));
#1027=DIRECTION('center_axis',(-0.380749805254289,-0.924678098474718,6.10238364508672E-16));
#1028=DIRECTION('ref_axis',(-0.924678098474718,0.380749805254289,2.84698883305031E-16));
#1029=DIRECTION('',(-3.46999041946177E-16,-3.46958728899022E-16,-1.));
#1030=DIRECTION('center_axis',(-0.380749805254289,-0.924678098474718,6.10238364508672E-16));
#1031=DIRECTION('ref_axis',(0.924678098474718,-0.380749805254289,-1.92153985031276E-16));
#1032=DIRECTION('center_axis',(-0.924678098474719,-0.380749805254288,6.10238364508672E-16));
#1033=DIRECTION('ref_axis',(-0.380749805254288,0.924678098474719,-2.84646257528391E-16));
#1034=DIRECTION('',(-4.67462326157961E-16,-4.67462326157961E-16,-1.));
#1035=DIRECTION('center_axis',(-0.924678098474719,-0.380749805254288,6.10238364508672E-16));
#1036=DIRECTION('ref_axis',(-0.380749805254288,0.924678098474719,-1.92153985031277E-16));
#1037=DIRECTION('',(3.46999041946177E-16,3.46958728899022E-16,1.));
#1038=DIRECTION('center_axis',(-4.67462326157961E-16,-4.67462326157961E-16,
-1.));
#1039=DIRECTION('ref_axis',(0.707106687035924,-0.707106875337159,8.80237329565236E-23));
#1040=DIRECTION('',(-4.67462326157961E-16,-4.67462326157961E-16,-1.));
#1041=DIRECTION('center_axis',(-5.23384309418169E-16,-5.23343996371014E-16,
-1.));
#1042=DIRECTION('ref_axis',(-0.924678098474729,-0.380749805254263,6.10238364508665E-16));
#1043=DIRECTION('center_axis',(-2.46519032881566E-32,8.55284707229501E-50,
1.));
#1044=DIRECTION('ref_axis',(-1.,-6.23541836221022E-79,-2.46519032881566E-32));
#1045=DIRECTION('',(-0.707106781186547,0.707106781186548,-1.74315279842105E-32));
#1046=DIRECTION('center_axis',(-2.01565235770109E-20,2.01565235769124E-20,
-1.));
#1047=DIRECTION('ref_axis',(-1.,-6.23541836221022E-79,0.));
#1048=DIRECTION('',(0.707106781186548,-0.707106781186547,-2.85056290128322E-20));
#1049=DIRECTION('center_axis',(-2.46519032881566E-32,8.55284707229501E-50,
1.));
#1050=DIRECTION('ref_axis',(-1.,-6.23541836221022E-79,-2.46519032881566E-32));
#1051=DIRECTION('center_axis',(-2.01565235770109E-20,2.01565235769124E-20,
-1.));
#1052=DIRECTION('ref_axis',(0.707106781186547,-0.707106781186548,-2.85056290128322E-20));
#1053=DIRECTION('',(-0.707106781186547,0.707106781186548,2.85056290128322E-20));
#1054=DIRECTION('',(-0.707106781186547,0.707106781186548,2.85056290128322E-20));
#1055=DIRECTION('',(0.707106781186547,-0.707106781186548,-2.85056290128322E-20));
#1056=DIRECTION('center_axis',(-0.707106781186549,-0.707106781186546,7.40148683083437E-16));
#1057=DIRECTION('ref_axis',(0.499999999999999,-0.499999999999999,-0.707106781186549));
#1058=DIRECTION('',(0.707106781186549,0.707106781186546,-7.40148683083437E-16));
#1059=DIRECTION('',(-0.707106781186549,-0.707106781186546,7.40148683083437E-16));
#1060=DIRECTION('',(-0.707106781186549,-0.707106781186546,7.40148683083437E-16));
#1061=DIRECTION('center_axis',(0.707106781186549,0.707106781186546,-7.40148683083437E-16));
#1062=DIRECTION('ref_axis',(0.499999999999999,-0.499999999999999,0.707106781186549));
#1063=DIRECTION('center_axis',(0.924678098474716,0.380749805254296,-6.43625648647773E-32));
#1064=DIRECTION('ref_axis',(0.380749805254296,-0.924678098474716,1.60128320859398E-15));
#1065=DIRECTION('',(-0.707106781186549,-0.707106781186546,7.40148683083437E-16));
#1066=DIRECTION('center_axis',(-0.380749805254289,-0.924678098474718,6.43625648647771E-32));
#1067=DIRECTION('ref_axis',(0.924678098474718,-0.380749805254289,-3.20256641718794E-15));
#1068=DIRECTION('',(0.707106781186549,0.707106781186546,-7.40148683083437E-16));
#1069=DIRECTION('',(0.707106781186549,0.707106781186546,-7.40148683083437E-16));
#1070=DIRECTION('center_axis',(5.23384309418169E-16,5.23343996371014E-16,
1.));
#1071=DIRECTION('ref_axis',(1.83697019872103E-16,1.,-5.23343996371014E-16));
#1072=DIRECTION('center_axis',(5.23384309418169E-16,5.23343996371014E-16,
1.));
#1073=DIRECTION('ref_axis',(1.83697019872103E-16,1.,-5.23343996371014E-16));
#1074=DIRECTION('center_axis',(-5.23384309418169E-16,-5.23343996371014E-16,
-1.));
#1075=DIRECTION('ref_axis',(0.924678098474694,0.380749805254349,-6.83225132703579E-16));
#1076=DIRECTION('center_axis',(-0.707106781186549,-0.707106781186546,7.40148683083437E-16));
#1077=DIRECTION('ref_axis',(-0.499999999999999,0.499999999999999,0.707106781186549));
#1078=DIRECTION('center_axis',(-0.924678098474719,-0.380749805254288,6.43625648647771E-32));
#1079=DIRECTION('ref_axis',(-0.380749805254288,0.924678098474719,-2.81825844712539E-15));
#1080=DIRECTION('',(0.707106781186549,0.707106781186546,-7.40148683083437E-16));
#1081=DIRECTION('center_axis',(0.380749805254296,0.924678098474716,-6.43625648647773E-32));
#1082=DIRECTION('ref_axis',(-0.924678098474716,0.380749805254296,1.60128320859398E-15));
#1083=DIRECTION('',(-0.707106781186549,-0.707106781186546,7.40148683083437E-16));
#1084=DIRECTION('',(-0.707106781186549,-0.707106781186546,7.40148683083437E-16));
#1085=DIRECTION('center_axis',(5.23384309418169E-16,5.23343996371014E-16,
1.));
#1086=DIRECTION('ref_axis',(1.83697019872103E-16,1.,-5.23343996371014E-16));
#1087=DIRECTION('center_axis',(5.23384309418169E-16,5.23343996371014E-16,
1.));
#1088=DIRECTION('ref_axis',(1.83697019872103E-16,1.,-5.23343996371014E-16));
#1089=DIRECTION('center_axis',(5.23384309418169E-16,5.23343996371014E-16,
1.));
#1090=DIRECTION('ref_axis',(1.83697019872103E-16,1.,-5.23343996371014E-16));
#1091=DIRECTION('center_axis',(-5.23384309418169E-16,-5.23343996371014E-16,
-1.));
#1092=DIRECTION('ref_axis',(-0.924678098474729,-0.380749805254263,6.83225132703553E-16));
#1093=DIRECTION('center_axis',(0.707106781186549,0.707106781186546,-7.40148683083437E-16));
#1094=DIRECTION('ref_axis',(-0.499999999999999,0.499999999999999,-0.707106781186549));
#1095=DIRECTION('center_axis',(0.380749805254296,0.924678098474716,-6.10238364508674E-16));
#1096=DIRECTION('ref_axis',(-0.924678098474716,0.380749805254296,1.85748852196901E-15));
#1097=DIRECTION('',(-0.707106781186549,-0.707106781186546,7.40148683083437E-16));
#1098=DIRECTION('',(0.707106781186549,0.707106781186546,-7.40148683083437E-16));
#1099=DIRECTION('',(0.707106781186549,0.707106781186546,-7.40148683083437E-16));
#1100=DIRECTION('center_axis',(5.23384309418169E-16,5.23343996371014E-16,
1.));
#1101=DIRECTION('ref_axis',(1.83697019872103E-16,1.,-5.23343996371014E-16));
#1102=DIRECTION('center_axis',(5.23384309418169E-16,5.23343996371014E-16,
1.));
#1103=DIRECTION('ref_axis',(1.83697019872103E-16,1.,-4.67462326157961E-16));
#1104=DIRECTION('center_axis',(5.23384309418169E-16,5.23343996371014E-16,
1.));
#1105=DIRECTION('ref_axis',(1.83697019872103E-16,1.,-4.67462326157961E-16));
#1106=DIRECTION('center_axis',(-4.93038065763133E-32,-4.93038065763133E-32,
-1.));
#1107=DIRECTION('ref_axis',(1.83697019872103E-16,1.,-4.93038065763133E-32));
#1108=DIRECTION('',(4.93038065763133E-32,4.93038065763133E-32,1.));
#1109=DIRECTION('center_axis',(-5.23384309418169E-16,-5.23343996371014E-16,
-1.));
#1110=DIRECTION('ref_axis',(1.83697019872103E-16,1.,-5.23343996371014E-16));
#1111=DIRECTION('center_axis',(-4.93038065763133E-32,-4.93038065763133E-32,
-1.));
#1112=DIRECTION('ref_axis',(-0.707106781187294,0.707106781185801,7.35955384876841E-44));
#1113=DIRECTION('center_axis',(5.23384309418169E-16,5.23343996371014E-16,
1.));
#1114=DIRECTION('ref_axis',(0.924678098474694,0.380749805254349,-6.83225132703579E-16));
#1115=DIRECTION('',(-4.93038065763133E-32,-4.93038065763133E-32,-1.));
#1116=DIRECTION('',(-4.93038065763133E-32,-4.93038065763133E-32,-1.));
#1117=DIRECTION('center_axis',(-0.380749805254289,-0.924678098474718,6.43625648647771E-32));
#1118=DIRECTION('ref_axis',(-0.924678098474718,0.380749805254289,2.84698883305031E-16));
#1119=DIRECTION('',(-0.924678098474718,0.380749805254289,2.84698883305031E-16));
#1120=DIRECTION('',(-3.46999041946177E-16,-3.46958728899022E-16,-1.));
#1121=DIRECTION('center_axis',(0.924678098474716,0.380749805254296,-6.43625648647773E-32));
#1122=DIRECTION('ref_axis',(0.380749805254296,-0.924678098474716,2.84646257528386E-16));
#1123=DIRECTION('',(-0.380749805254296,0.924678098474716,-2.84646257528386E-16));
#1124=DIRECTION('',(3.46999041946177E-16,3.46958728899022E-16,1.));
#1125=DIRECTION('center_axis',(0.707106781186546,-0.707106781186549,1.23259516440783E-30));
#1126=DIRECTION('ref_axis',(-0.707106781186549,-0.707106781186546,7.40148683083437E-16));
#1127=DIRECTION('',(-3.46999041946177E-16,-3.46958728899022E-16,-1.));
#1128=DIRECTION('',(3.46999041946177E-16,3.46958728899022E-16,1.));
#1129=DIRECTION('center_axis',(-4.93038065763133E-32,-4.93038065763133E-32,
-1.));
#1130=DIRECTION('ref_axis',(1.83697019872103E-16,1.,-4.93038065763133E-32));
#1131=DIRECTION('',(4.93038065763133E-32,4.93038065763133E-32,1.));
#1132=DIRECTION('center_axis',(-5.23384309418169E-16,-5.23343996371014E-16,
-1.));
#1133=DIRECTION('ref_axis',(1.83697019872103E-16,1.,-5.23343996371014E-16));
#1134=DIRECTION('center_axis',(-4.93038065763133E-32,-4.93038065763133E-32,
-1.));
#1135=DIRECTION('ref_axis',(0.707106781186514,-0.707106781186581,3.2295550544986E-45));
#1136=DIRECTION('center_axis',(5.23384309418169E-16,5.23343996371014E-16,
1.));
#1137=DIRECTION('ref_axis',(-0.924678098474729,-0.380749805254263,6.83225132703553E-16));
#1138=DIRECTION('',(-4.93038065763133E-32,-4.93038065763133E-32,-1.));
#1139=DIRECTION('',(-4.93038065763133E-32,-4.93038065763133E-32,-1.));
#1140=DIRECTION('center_axis',(0.380749805254296,0.924678098474716,-6.43625648647773E-32));
#1141=DIRECTION('ref_axis',(0.924678098474716,-0.380749805254296,-2.84698883305026E-16));
#1142=DIRECTION('',(0.924678098474716,-0.380749805254296,-2.84698883305026E-16));
#1143=DIRECTION('',(-3.46999041946177E-16,-3.46958728899022E-16,-1.));
#1144=DIRECTION('center_axis',(-0.924678098474719,-0.380749805254288,6.43625648647771E-32));
#1145=DIRECTION('ref_axis',(-0.380749805254288,0.924678098474719,-2.84646257528391E-16));
#1146=DIRECTION('',(0.380749805254288,-0.924678098474719,2.84646257528391E-16));
#1147=DIRECTION('',(3.46999041946177E-16,3.46958728899022E-16,1.));
#1148=DIRECTION('center_axis',(5.23384309418169E-16,5.23343996371014E-16,
1.));
#1149=DIRECTION('ref_axis',(1.83697019872103E-16,1.,-5.23343996371014E-16));
#1150=DIRECTION('center_axis',(5.23384309418169E-16,5.23343996371014E-16,
1.));
#1151=DIRECTION('ref_axis',(1.83697019872103E-16,1.,-4.67462326157961E-16));
#1152=DIRECTION('center_axis',(-0.707106781186546,0.707106781186549,-1.23259516440783E-30));
#1153=DIRECTION('ref_axis',(0.707106781186549,0.707106781186546,-7.40148683083437E-16));
#1154=DIRECTION('',(3.46999041946177E-16,3.46958728899022E-16,1.));
#1155=DIRECTION('',(-3.46999041946177E-16,-3.46958728899022E-16,-1.));
#1156=DIRECTION('center_axis',(0.380749805254296,0.924678098474716,-6.10238364508674E-16));
#1157=DIRECTION('ref_axis',(0.924678098474716,-0.380749805254296,-2.84698883305026E-16));
#1158=DIRECTION('',(-3.46999041946177E-16,-3.46958728899022E-16,-1.));
#1159=DIRECTION('center_axis',(-4.67462326157961E-16,-4.67462326157961E-16,
-1.));
#1160=DIRECTION('ref_axis',(1.83697019872103E-16,1.,-4.67462326157961E-16));
#1161=DIRECTION('',(4.67462326157961E-16,4.67462326157961E-16,1.));
#1162=DIRECTION('center_axis',(-4.67462326157961E-16,-4.67462326157961E-16,
-1.));
#1163=DIRECTION('ref_axis',(1.83697019872103E-16,1.,-4.67462326157961E-16));
#1164=DIRECTION('',(4.67462326157961E-16,4.67462326157961E-16,1.));
#1165=DIRECTION('center_axis',(0.707106781186548,0.707106781186547,-6.97261119368421E-32));
#1166=DIRECTION('ref_axis',(0.707106781186547,-0.707106781186548,-2.85056290135404E-20));
#1167=DIRECTION('center_axis',(-0.707106781186547,-0.707106781186548,-6.62899389399029E-16));
#1168=DIRECTION('ref_axis',(0.707106781186548,-0.707106781186547,-2.85056290135404E-20));
#1169=DIRECTION('',(-0.707106781186547,-0.707106781186547,6.9726111936842E-32));
#1170=DIRECTION('center_axis',(0.707106781186548,0.707106781186547,-4.9070224562174E-16));
#1171=DIRECTION('ref_axis',(0.707106781186547,-0.707106781186548,-2.85056290135404E-20));
#1172=DIRECTION('center_axis',(-0.707106781186548,-0.707106781186547,4.9070224562174E-16));
#1173=DIRECTION('ref_axis',(0.707106781186547,-0.707106781186548,-2.85056290128322E-20));
#1174=DIRECTION('',(0.707106781186547,-0.707106781186548,-2.85056290128322E-20));
#1175=DIRECTION('center_axis',(-0.707106781186546,-0.707106781186549,6.97261119368421E-32));
#1176=DIRECTION('ref_axis',(0.707106781186549,-0.707106781186546,-2.85056290135404E-20));
#1177=DIRECTION('center_axis',(-0.707106781186548,-0.707106781186547,4.9070224562174E-16));
#1178=DIRECTION('ref_axis',(0.707106781186549,-0.707106781186546,-2.85056290135404E-20));
#1179=DIRECTION('',(-0.707106781186546,-0.707106781186549,6.9726111936842E-32));
#1180=DIRECTION('center_axis',(0.707106781186548,0.707106781186547,-4.9070224562174E-16));
#1181=DIRECTION('ref_axis',(0.707106781186549,-0.707106781186546,-2.85056290135404E-20));
#1182=DIRECTION('center_axis',(-0.707106781186549,-0.707106781186546,6.97261119368421E-32));
#1183=DIRECTION('ref_axis',(0.707106781186546,-0.707106781186549,-2.85056290128322E-20));
#1184=DIRECTION('center_axis',(0.707106781186548,0.707106781186547,-4.9070224562174E-16));
#1185=DIRECTION('ref_axis',(0.707106781186547,-0.707106781186548,-2.85056290128322E-20));
#1186=DIRECTION('',(0.707106781186549,0.707106781186546,-6.97261119368421E-32));
#1187=DIRECTION('center_axis',(0.707106781186548,0.707106781186547,-4.9070224562174E-16));
#1188=DIRECTION('ref_axis',(0.707106781186547,-0.707106781186548,-2.85056290128322E-20));
#1189=DIRECTION('center_axis',(-0.707106781186549,-0.707106781186546,6.97261119368421E-32));
#1190=DIRECTION('ref_axis',(0.707106781186546,-0.707106781186549,-2.85056290128322E-20));
#1191=DIRECTION('center_axis',(0.707106781186548,0.707106781186547,-4.9070224562174E-16));
#1192=DIRECTION('ref_axis',(0.707106781186547,-0.707106781186548,-2.85056290128322E-20));
#1193=DIRECTION('',(0.707106781186549,0.707106781186546,-6.97261119368421E-32));
#1194=DIRECTION('center_axis',(0.707106781186548,0.707106781186547,-4.9070224562174E-16));
#1195=DIRECTION('ref_axis',(0.707106781186547,-0.707106781186548,-2.85056290128322E-20));
#1196=DIRECTION('center_axis',(-0.707106781186549,-0.707106781186546,6.97261119368421E-32));
#1197=DIRECTION('ref_axis',(0.707106781186546,-0.707106781186549,-2.85056290128322E-20));
#1198=DIRECTION('center_axis',(0.707106781186548,0.707106781186547,-4.9070224562174E-16));
#1199=DIRECTION('ref_axis',(0.707106781186547,-0.707106781186548,-2.85056290128322E-20));
#1200=DIRECTION('',(0.707106781186549,0.707106781186546,-6.97261119368421E-32));
#1201=DIRECTION('center_axis',(0.707106781186548,0.707106781186547,-4.9070224562174E-16));
#1202=DIRECTION('ref_axis',(0.707106781186547,-0.707106781186548,-2.85056290128322E-20));
#1203=DIRECTION('center_axis',(-0.707106781186549,-0.707106781186546,6.97261119368421E-32));
#1204=DIRECTION('ref_axis',(0.707106781186546,-0.707106781186549,-2.85056290128322E-20));
#1205=DIRECTION('center_axis',(0.707106781186548,0.707106781186547,-4.9070224562174E-16));
#1206=DIRECTION('ref_axis',(0.707106781186547,-0.707106781186548,-2.85056290128322E-20));
#1207=DIRECTION('',(0.707106781186549,0.707106781186546,-6.97261119368421E-32));
#1208=DIRECTION('center_axis',(0.707106781186548,0.707106781186547,-4.9070224562174E-16));
#1209=DIRECTION('ref_axis',(0.707106781186547,-0.707106781186548,-2.85056290128322E-20));
#1210=DIRECTION('center_axis',(-0.707106781186549,-0.707106781186546,6.97261119368421E-32));
#1211=DIRECTION('ref_axis',(0.707106781186546,-0.707106781186549,-2.85056290128322E-20));
#1212=DIRECTION('center_axis',(0.707106781186548,0.707106781186547,-4.9070224562174E-16));
#1213=DIRECTION('ref_axis',(0.707106781186547,-0.707106781186548,-2.85056290128322E-20));
#1214=DIRECTION('',(0.707106781186549,0.707106781186546,-6.97261119368421E-32));
#1215=DIRECTION('center_axis',(0.707106781186548,0.707106781186547,-4.9070224562174E-16));
#1216=DIRECTION('ref_axis',(0.707106781186547,-0.707106781186548,-2.85056290128322E-20));
#1217=DIRECTION('center_axis',(-0.707106781186549,-0.707106781186546,6.97261119368421E-32));
#1218=DIRECTION('ref_axis',(0.707106781186546,-0.707106781186549,-2.85056290128322E-20));
#1219=DIRECTION('center_axis',(0.707106781186548,0.707106781186547,-4.9070224562174E-16));
#1220=DIRECTION('ref_axis',(0.707106781186547,-0.707106781186548,-2.85056290128322E-20));
#1221=DIRECTION('',(0.707106781186549,0.707106781186546,-6.97261119368421E-32));
#1222=DIRECTION('center_axis',(0.707106781186548,0.707106781186547,-4.9070224562174E-16));
#1223=DIRECTION('ref_axis',(0.707106781186547,-0.707106781186548,-2.85056290128322E-20));
#1224=DIRECTION('center_axis',(2.01565235770109E-20,-2.01565235769124E-20,
1.));
#1225=DIRECTION('ref_axis',(-0.707106781186547,0.707106781186548,2.85056290128322E-20));
#1226=DIRECTION('',(-0.707106781186547,0.707106781186548,2.85056290128322E-20));
#1227=DIRECTION('center_axis',(-0.707106781186548,-0.707106781186547,4.9070224562174E-16));
#1228=DIRECTION('ref_axis',(0.707106781186547,-0.707106781186548,-2.85056290128322E-20));
#1229=DIRECTION('center_axis',(-0.707106781186548,-0.707106781186547,4.9070224562174E-16));
#1230=DIRECTION('ref_axis',(0.707106781186547,-0.707106781186548,-2.85056290128322E-20));
#1231=DIRECTION('',(3.91414660690212E-17,1.62561599843908E-17,1.));
#1232=DIRECTION('',(0.707106781186548,-0.707106781186546,-3.54824662440758E-32));
#1233=CARTESIAN_POINT('',(0.,0.,0.));
#1234=CARTESIAN_POINT('',(0.,0.,0.));
#1235=CARTESIAN_POINT('Origin',(-72.6812386149165,-59.2799665620347,15.4697731942999));
#1236=CARTESIAN_POINT('',(-72.6812398588029,-59.2799675765681,15.4697731942999));
#1237=CARTESIAN_POINT('',(-69.8528127340567,-56.4515404518219,15.4697731942999));
#1238=CARTESIAN_POINT('',(-71.6205790077417,-58.2193069548598,15.4697731942999));
#1239=CARTESIAN_POINT('',(-72.6812386149165,-59.2799665620347,16.9697731942999));
#1240=CARTESIAN_POINT('',(-72.6812398588029,-59.2799675765681,34.4697731942999));
#1241=CARTESIAN_POINT('',(-69.8528115385768,-56.451539485695,16.9697731942999));
#1242=CARTESIAN_POINT('',(-72.6812386149165,-59.2799665620347,16.9697731942999));
#1243=CARTESIAN_POINT('',(-69.8528127340567,-56.4515404518219,34.4697731942999));
#1244=CARTESIAN_POINT('Origin',(-64.5495107704399,-64.5832673301715,16.9697732925511));
#1245=CARTESIAN_POINT('',(-74.5305947802155,-58.5184669645587,16.9697731942999));
#1246=CARTESIAN_POINT('',(-68.2712363422116,-61.0958513775174,16.9697732925511));
#1247=CARTESIAN_POINT('',(-70.614311136053,-54.6021833203958,16.9697731942999));
#1248=CARTESIAN_POINT('Origin',(-73.3883466399895,-55.7444336706354,16.9697732925511));
#1249=CARTESIAN_POINT('',(-68.4176789672092,-59.9368653141658,16.9697732925511));
#1250=CARTESIAN_POINT('',(-73.3883466399895,-57.3944336706354,16.9697732925511));
#1251=CARTESIAN_POINT('Origin',(-73.3883466399895,-55.7444336706354,16.9697732925511));
#1252=CARTESIAN_POINT('Origin',(-56.4177829259631,-69.8865680983087,15.4697731942999));
#1253=CARTESIAN_POINT('',(-56.4177838915123,-69.8865692943664,15.4697731942999));
#1254=CARTESIAN_POINT('',(-59.2462110162585,-72.7149964191125,15.4697731942999));
#1255=CARTESIAN_POINT('',(-56.7713368569581,-70.2401220293037,15.4697731942999));
#1256=CARTESIAN_POINT('',(-56.4177829259631,-69.8865680983087,16.9697731942999));
#1257=CARTESIAN_POINT('',(-56.4177838915123,-69.8865692943664,15.4697731942999));
#1258=CARTESIAN_POINT('',(-59.2462100023029,-72.7149951746485,16.9697731942999));
#1259=CARTESIAN_POINT('',(-59.2462100023029,-72.7149951746485,16.9697731942999));
#1260=CARTESIAN_POINT('',(-59.2462110162585,-72.7149964191125,15.4697731942999));
#1261=CARTESIAN_POINT('Origin',(-64.5495107704399,-64.5832673301715,16.9697732925511));
#1262=CARTESIAN_POINT('',(-54.5684267606639,-70.6480676957849,16.9697731942999));
#1263=CARTESIAN_POINT('',(-60.8277868526798,-68.0706857221209,16.9697732925511));
#1264=CARTESIAN_POINT('',(-58.4847104048268,-74.5643513399474,16.9697731942999));
#1265=CARTESIAN_POINT('Origin',(-55.7106771103258,-73.4221032002991,16.9697732925511));
#1266=CARTESIAN_POINT('',(-60.6813450120972,-69.2296710006471,16.9697732925511));
#1267=CARTESIAN_POINT('',(-55.7106771103258,-75.0721032002991,16.9697732925511));
#1268=CARTESIAN_POINT('Origin',(-55.7106771103258,-73.4221032002991,16.9697732925511));
#1269=CARTESIAN_POINT('Origin',(-70.6143123445654,-54.6021842548723,34.4697731942999));
#1270=CARTESIAN_POINT('',(-70.6143123445653,-54.6021842548725,18.4756991332513));
#1271=CARTESIAN_POINT('',(-70.6143123445654,-54.6021842548723,34.4697731942999));
#1272=CARTESIAN_POINT('',(-69.8528127340567,-56.4515404518219,20.4697731942999));
#1273=CARTESIAN_POINT('Origin',(-70.677770645441,-54.4480712384601,20.4697731942999));
#1274=CARTESIAN_POINT('',(-69.8528127340567,-56.4515404518219,34.4697731942999));
#1275=CARTESIAN_POINT('Origin',(-73.3883466399895,-55.7444336706354,34.4697731942999));
#1276=CARTESIAN_POINT('',(-74.5305960557523,-58.5184679660596,18.4756991332513));
#1277=CARTESIAN_POINT('',(-74.5305960557522,-58.5184679660596,34.4697731942999));
#1278=CARTESIAN_POINT('',(-74.6812398588029,-58.4515404518219,18.4697731942999));
#1279=CARTESIAN_POINT('Ctrl Pts',(-74.6812398588029,-58.4515404518219,18.4697731942999));
#1280=CARTESIAN_POINT('Ctrl Pts',(-74.6319479976908,-58.4750818626808,18.4697731942999));
#1281=CARTESIAN_POINT('Ctrl Pts',(-74.5816723557511,-58.497436548413,18.4717653347478));
#1282=CARTESIAN_POINT('Ctrl Pts',(-74.5305960557536,-58.518467966059,18.4756991332512));
#1283=CARTESIAN_POINT('',(-70.6812398588029,-54.451540451822,18.4697731942999));
#1284=CARTESIAN_POINT('Origin',(-73.3883466399895,-55.7444336706354,18.4697731942999));
#1285=CARTESIAN_POINT('Ctrl Pts',(-70.6143123445658,-54.6021842548712,18.4756991332512));
#1286=CARTESIAN_POINT('Ctrl Pts',(-70.6353437622119,-54.5511079548738,18.4717653347478));
#1287=CARTESIAN_POINT('Ctrl Pts',(-70.6576984479441,-54.5008323129341,18.4697731942999));
#1288=CARTESIAN_POINT('Ctrl Pts',(-70.6812398588029,-54.451540451822,18.4697731942999));
#1289=CARTESIAN_POINT('Origin',(-72.6812398588029,-59.2799675765681,34.4697731942999));
#1290=CARTESIAN_POINT('',(-72.6812398588029,-59.2799675765681,20.4697731942999));
#1291=CARTESIAN_POINT('',(-72.6812398588029,-59.2799675765681,34.4697731942999));
#1292=CARTESIAN_POINT('Origin',(-74.6847090721648,-58.4550096651838,20.4697731942999));
#1293=CARTESIAN_POINT('Origin',(-58.48471140575,-74.5643526160619,34.4697731942999));
#1294=CARTESIAN_POINT('',(-58.4847114057499,-74.564352616062,18.4756991332513));
#1295=CARTESIAN_POINT('',(-58.48471140575,-74.5643526160619,34.4697731942999));
#1296=CARTESIAN_POINT('',(-59.2462110162585,-72.7149964191125,20.4697731942999));
#1297=CARTESIAN_POINT('Origin',(-58.4212531048742,-74.7184656324744,20.4697731942999));
#1298=CARTESIAN_POINT('',(-59.2462110162585,-72.7149964191125,15.4697731942999));
#1299=CARTESIAN_POINT('Origin',(-55.7106771103258,-73.4221032002991,34.4697731942999));
#1300=CARTESIAN_POINT('',(-54.5684276945629,-70.6480689048749,18.4756991332513));
#1301=CARTESIAN_POINT('',(-54.5684276945627,-70.648068904875,34.4697731942999));
#1302=CARTESIAN_POINT('',(-54.4177838915123,-70.7149964191125,18.4697731942999));
#1303=CARTESIAN_POINT('Ctrl Pts',(-54.4177838915123,-70.7149964191125,18.4697731942999));
#1304=CARTESIAN_POINT('Ctrl Pts',(-54.4670757526244,-70.6914550082537,18.4697731942999));
#1305=CARTESIAN_POINT('Ctrl Pts',(-54.5173513945641,-70.6691003225215,18.4717653347478));
#1306=CARTESIAN_POINT('Ctrl Pts',(-54.5684276945616,-70.6480689048755,18.4756991332512));
#1307=CARTESIAN_POINT('',(-58.4177838915123,-74.7149964191125,18.4697731942999));
#1308=CARTESIAN_POINT('Origin',(-55.7106771103258,-73.4221032002991,18.4697731942999));
#1309=CARTESIAN_POINT('Ctrl Pts',(-58.4847114057494,-74.5643526160633,18.4756991332512));
#1310=CARTESIAN_POINT('Ctrl Pts',(-58.4636799881034,-74.6154289160607,18.4717653347478));
#1311=CARTESIAN_POINT('Ctrl Pts',(-58.4413253023711,-74.6657045580004,18.4697731942999));
#1312=CARTESIAN_POINT('Ctrl Pts',(-58.4177838915123,-74.7149964191125,18.4697731942999));
#1313=CARTESIAN_POINT('Origin',(-66.5119039964885,-55.7430384019597,15.47));
#1314=CARTESIAN_POINT('',(-57.2256272511281,-69.0787259347506,15.4697731702405));
#1315=CARTESIAN_POINT('',(-69.044969374441,-57.2593838114377,15.4700000240594));
#1316=CARTESIAN_POINT('',(-65.8359538514941,-60.4683993343846,15.47));
#1317=CARTESIAN_POINT('',(-57.8191142936304,-69.3337670296719,15.4697731942999));
#1318=CARTESIAN_POINT('Origin',(-55.7106771103257,-73.422103200299,15.4697731942999));
#1319=CARTESIAN_POINT('',(-69.3000104693623,-57.8528708539401,15.4698865969366));
#1320=CARTESIAN_POINT('',(-64.0480955481995,-63.1047857751028,15.4697731942999));
#1321=CARTESIAN_POINT('Origin',(-73.3883466399894,-55.7444336706353,15.47));
#1322=CARTESIAN_POINT('Origin',(-70.5599195152433,-57.1586472330085,15.4697731942999));
#1323=CARTESIAN_POINT('',(-69.8528127340567,-56.4515404518219,15.4697731942999));
#1324=CARTESIAN_POINT('',(-69.8528127340567,-56.4515404518219,15.4697731942999));
#1325=CARTESIAN_POINT('',(-72.6812398588029,-59.2799675765681,15.4697731942999));
#1326=CARTESIAN_POINT('Origin',(-71.9741330776163,-55.7444336706354,20.4697731942999));
#1327=CARTESIAN_POINT('',(-70.5599195152433,-57.1586472330085,20.4697731942999));
#1328=CARTESIAN_POINT('',(-71.7532042991394,-55.5235048921584,18.4697731942999));
#1329=CARTESIAN_POINT('',(-71.9741330776163,-55.7444336706354,18.4697731942999));
#1330=CARTESIAN_POINT('',(-73.3883466359,-57.3944336706354,18.4767347159992));
#1331=CARTESIAN_POINT('Ctrl Pts',(-71.7532042991394,-55.5235048921585,18.4697731942999));
#1332=CARTESIAN_POINT('Ctrl Pts',(-71.7426518192903,-55.6016061097596,18.4697731942999));
#1333=CARTESIAN_POINT('Ctrl Pts',(-71.7380348985172,-55.6794569741783,18.4727805319786));
#1334=CARTESIAN_POINT('Ctrl Pts',(-71.7393009307864,-55.9585368988901,18.4897382347095));
#1335=CARTESIAN_POINT('Ctrl Pts',(-71.7812332147908,-56.1772683787446,18.5174270633223));
#1336=CARTESIAN_POINT('Ctrl Pts',(-71.9490975121212,-56.5803287191236,18.5627264567042));
#1337=CARTESIAN_POINT('Ctrl Pts',(-72.0752483835129,-56.7647877920744,18.5783451623621));
#1338=CARTESIAN_POINT('Ctrl Pts',(-72.3679925185505,-57.057531927112,18.5783451623621));
#1339=CARTESIAN_POINT('Ctrl Pts',(-72.5524515915013,-57.1836827985037,18.5627264567042));
#1340=CARTESIAN_POINT('Ctrl Pts',(-72.9555119318803,-57.3515470958341,18.5174270633223));
#1341=CARTESIAN_POINT('Ctrl Pts',(-73.1742434117347,-57.3934793798384,18.4897382347095));
#1342=CARTESIAN_POINT('Ctrl Pts',(-73.3833505282584,-57.3944279839256,18.4770322820166));
#1343=CARTESIAN_POINT('Ctrl Pts',(-73.3858456147708,-57.394433670623,18.4768826574269));
#1344=CARTESIAN_POINT('Ctrl Pts',(-73.3883466318106,-57.3944336706354,18.4767347159992));
#1345=CARTESIAN_POINT('',(-73.6092754184664,-57.3795760114855,18.4697731942999));
#1346=CARTESIAN_POINT('Ctrl Pts',(-73.3883466318106,-57.3944336706354,18.4767347159992));
#1347=CARTESIAN_POINT('Ctrl Pts',(-73.4586635413482,-57.394433670984,18.4725752945233));
#1348=CARTESIAN_POINT('Ctrl Pts',(-73.533849936916,-57.3897669649516,18.4697731942995));
#1349=CARTESIAN_POINT('Ctrl Pts',(-73.6092754184816,-57.3795760114834,18.4697731942999));
#1350=CARTESIAN_POINT('',(-71.9741330776163,-55.7444336706354,18.4697731942999));
#1351=CARTESIAN_POINT('Origin',(-71.9741330776163,-55.7444336706354,29.4697731942999));
#1352=CARTESIAN_POINT('',(-69.8528127340567,-56.4515404518219,29.4697731942999));
#1353=CARTESIAN_POINT('',(-70.6143123445653,-54.6021842548725,31.4638472553484));
#1354=CARTESIAN_POINT('Origin',(-70.677770645441,-54.4480712384601,29.4697731942999));
#1355=CARTESIAN_POINT('',(-72.6812398588029,-59.2799675765681,29.4697731942999));
#1356=CARTESIAN_POINT('',(-70.5599195152433,-57.1586472330085,29.4697731942999));
#1357=CARTESIAN_POINT('',(-74.5305960557523,-58.5184679660595,31.4638472553484));
#1358=CARTESIAN_POINT('Origin',(-74.6847090721648,-58.4550096651838,29.4697731942999));
#1359=CARTESIAN_POINT('',(-74.6812398588029,-58.4515404518219,31.4697731942999));
#1360=CARTESIAN_POINT('Ctrl Pts',(-74.5305960557465,-58.518467966062,31.463847255348));
#1361=CARTESIAN_POINT('Ctrl Pts',(-74.5817921393536,-58.4973872257533,31.4677902793551));
#1362=CARTESIAN_POINT('Ctrl Pts',(-74.632080943904,-58.4750183685996,31.4697731942999));
#1363=CARTESIAN_POINT('Ctrl Pts',(-74.6812398588029,-58.4515404518219,31.4697731942999));
#1364=CARTESIAN_POINT('',(-73.6092754184664,-57.3795760114855,31.4697731942999));
#1365=CARTESIAN_POINT('',(-71.9741330776163,-55.7444336706354,31.4697731942999));
#1366=CARTESIAN_POINT('',(-73.3883466359,-57.3944336706354,31.4628116726006));
#1367=CARTESIAN_POINT('Ctrl Pts',(-73.6092754184663,-57.3795760114855,31.4697731942999));
#1368=CARTESIAN_POINT('Ctrl Pts',(-73.5338566265565,-57.3897660610943,31.4697731942999));
#1369=CARTESIAN_POINT('Ctrl Pts',(-73.4586711301253,-57.3944336708103,31.4669715429095));
#1370=CARTESIAN_POINT('Ctrl Pts',(-73.3883466358859,-57.3944336706354,31.4628116728416));
#1371=CARTESIAN_POINT('',(-71.7532042991394,-55.5235048921584,31.4697731942999));
#1372=CARTESIAN_POINT('Ctrl Pts',(-73.3883466358859,-57.3944336706354,31.4628116728416));
#1373=CARTESIAN_POINT('Ctrl Pts',(-73.3858453994526,-57.3944336706292,31.4626637184385));
#1374=CARTESIAN_POINT('Ctrl Pts',(-73.3833503094256,-57.3944279829329,31.4625140932862));
#1375=CARTESIAN_POINT('Ctrl Pts',(-73.1742434117347,-57.3934793798384,31.4498081538902));
#1376=CARTESIAN_POINT('Ctrl Pts',(-72.9555119318803,-57.351547095834,31.4221193252775));
#1377=CARTESIAN_POINT('Ctrl Pts',(-72.5524515915012,-57.1836827985036,31.3768199318955));
#1378=CARTESIAN_POINT('Ctrl Pts',(-72.3679925185504,-57.057531927112,31.3612012262376));
#1379=CARTESIAN_POINT('Ctrl Pts',(-72.0752483835129,-56.7647877920744,31.3612012262376));
#1380=CARTESIAN_POINT('Ctrl Pts',(-71.9490975121212,-56.5803287191236,31.3768199318955));
#1381=CARTESIAN_POINT('Ctrl Pts',(-71.7812332147908,-56.1772683787446,31.4221193252775));
#1382=CARTESIAN_POINT('Ctrl Pts',(-71.7393009307864,-55.9585368988901,31.4498081538902));
#1383=CARTESIAN_POINT('Ctrl Pts',(-71.7380348985172,-55.6794569741783,31.4667658566211));
#1384=CARTESIAN_POINT('Ctrl Pts',(-71.7426518192903,-55.6016061097596,31.4697731942999));
#1385=CARTESIAN_POINT('Ctrl Pts',(-71.7532042991394,-55.5235048921585,31.4697731942999));
#1386=CARTESIAN_POINT('',(-70.6812398588029,-54.4515404518219,31.4697731942999));
#1387=CARTESIAN_POINT('',(-71.9741330776163,-55.7444336706354,31.4697731942999));
#1388=CARTESIAN_POINT('Ctrl Pts',(-70.6812398588029,-54.4515404518219,31.4697731942999));
#1389=CARTESIAN_POINT('Ctrl Pts',(-70.6577619420261,-54.5006993667189,31.4697731942999));
#1390=CARTESIAN_POINT('Ctrl Pts',(-70.6353930848733,-54.5509881712675,31.4677902793553));
#1391=CARTESIAN_POINT('Ctrl Pts',(-70.6143123445653,-54.6021842548725,31.4638472553484));
#1392=CARTESIAN_POINT('Origin',(-73.1205796870231,-56.0122006236017,31.4697731942999));
#1393=CARTESIAN_POINT('Origin',(-73.3883466399895,-55.7444336706354,31.4697731942999));
#1394=CARTESIAN_POINT('Origin',(-73.3883466399895,-55.7444336706354,31.4697731942999));
#1395=CARTESIAN_POINT('Origin',(-57.1248906726989,-73.4221032002991,29.4697731942999));
#1396=CARTESIAN_POINT('',(-59.2462110162585,-72.7149964191125,29.4697731942999));
#1397=CARTESIAN_POINT('',(-58.4847114057499,-74.564352616062,31.4638472553484));
#1398=CARTESIAN_POINT('Origin',(-58.4212531048742,-74.7184656324744,29.4697731942999));
#1399=CARTESIAN_POINT('',(-56.4177838915123,-69.8865692943664,29.4697731942999));
#1400=CARTESIAN_POINT('',(-58.5391042350719,-72.007889637926,29.4697731942999));
#1401=CARTESIAN_POINT('',(-54.5684276945629,-70.6480689048749,31.4638472553484));
#1402=CARTESIAN_POINT('Origin',(-54.4143146781504,-70.7115272057507,29.4697731942999));
#1403=CARTESIAN_POINT('',(-54.4177838915123,-70.7149964191125,31.4697731942999));
#1404=CARTESIAN_POINT('Ctrl Pts',(-54.5684276945616,-70.6480689048755,31.4638472553485));
#1405=CARTESIAN_POINT('Ctrl Pts',(-54.5173513945641,-70.6691003225215,31.467781053852));
#1406=CARTESIAN_POINT('Ctrl Pts',(-54.4670757526244,-70.6914550082537,31.4697731942999));
#1407=CARTESIAN_POINT('Ctrl Pts',(-54.4177838915123,-70.7149964191125,31.4697731942999));
#1408=CARTESIAN_POINT('',(-55.4897483318488,-71.786960859449,31.4697731942999));
#1409=CARTESIAN_POINT('',(-57.1248906726989,-73.4221032002991,31.4697731942999));
#1410=CARTESIAN_POINT('',(-57.3458194511758,-73.6430319787761,31.4697731942999));
#1411=CARTESIAN_POINT('Ctrl Pts',(-55.4897483318489,-71.786960859449,31.4697731942999));
#1412=CARTESIAN_POINT('Ctrl Pts',(-55.56784954945,-71.7764083795999,31.4697731942999));
#1413=CARTESIAN_POINT('Ctrl Pts',(-55.6457004138687,-71.7717914588269,31.4667658566211));
#1414=CARTESIAN_POINT('Ctrl Pts',(-55.9247803385805,-71.773057491096,31.4498081538902));
#1415=CARTESIAN_POINT('Ctrl Pts',(-56.1435118184349,-71.8149897751004,31.4221193252775));
#1416=CARTESIAN_POINT('Ctrl Pts',(-56.546572158814,-71.9828540724308,31.3768199318955));
#1417=CARTESIAN_POINT('Ctrl Pts',(-56.7310312317648,-72.1090049438225,31.3612012262376));
#1418=CARTESIAN_POINT('Ctrl Pts',(-57.0237753668024,-72.4017490788601,31.3612012262376));
#1419=CARTESIAN_POINT('Ctrl Pts',(-57.149926238194,-72.5862081518109,31.3768199318955));
#1420=CARTESIAN_POINT('Ctrl Pts',(-57.3177905355244,-72.9892684921899,31.4221193252775));
#1421=CARTESIAN_POINT('Ctrl Pts',(-57.3597228195288,-73.2079999720443,31.4498081538902));
#1422=CARTESIAN_POINT('Ctrl Pts',(-57.360988851798,-73.4870798967562,31.4667658566211));
#1423=CARTESIAN_POINT('Ctrl Pts',(-57.3563719310249,-73.5649307611748,31.4697731942999));
#1424=CARTESIAN_POINT('Ctrl Pts',(-57.3458194511759,-73.643031978776,31.4697731942999));
#1425=CARTESIAN_POINT('',(-58.4177838915123,-74.7149964191125,31.4697731942999));
#1426=CARTESIAN_POINT('',(-57.1248906726989,-73.4221032002991,31.4697731942999));
#1427=CARTESIAN_POINT('Ctrl Pts',(-58.4177838915123,-74.7149964191125,31.4697731942999));
#1428=CARTESIAN_POINT('Ctrl Pts',(-58.4413253023711,-74.6657045580004,31.4697731942999));
#1429=CARTESIAN_POINT('Ctrl Pts',(-58.4636799881034,-74.6154289160607,31.467781053852));
#1430=CARTESIAN_POINT('Ctrl Pts',(-58.4847114057494,-74.5643526160633,31.4638472553485));
#1431=CARTESIAN_POINT('Origin',(-55.9784440632921,-73.1543362473327,31.4697731942999));
#1432=CARTESIAN_POINT('',(-55.7106771103258,-75.0721032002991,31.4697731942999));
#1433=CARTESIAN_POINT('Origin',(-55.7106771103258,-73.4221032002991,31.4697731942999));
#1434=CARTESIAN_POINT('Origin',(-55.7106771103258,-73.4221032002991,31.4697731942999));
#1435=CARTESIAN_POINT('Origin',(-55.7106771103258,-73.4221032002991,31.4697731942999));
#1436=CARTESIAN_POINT('Origin',(-57.1248906726989,-73.4221032002991,20.4697731942999));
#1437=CARTESIAN_POINT('',(-56.4177838915123,-69.8865692943664,20.4697731942999));
#1438=CARTESIAN_POINT('Origin',(-54.4143146781504,-70.7115272057507,20.4697731942999));
#1439=CARTESIAN_POINT('',(-58.5391042350719,-72.007889637926,20.4697731942999));
#1440=CARTESIAN_POINT('',(-57.3458194511759,-73.6430319787761,18.4697731942999));
#1441=CARTESIAN_POINT('',(-57.1248906726989,-73.4221032002991,18.4697731942999));
#1442=CARTESIAN_POINT('',(-55.4897483318488,-71.786960859449,18.4697731942999));
#1443=CARTESIAN_POINT('Ctrl Pts',(-57.3458194511759,-73.643031978776,18.4697731942999));
#1444=CARTESIAN_POINT('Ctrl Pts',(-57.3563719310249,-73.5649307611748,18.4697731942999));
#1445=CARTESIAN_POINT('Ctrl Pts',(-57.360988851798,-73.4870798967562,18.4727805319786));
#1446=CARTESIAN_POINT('Ctrl Pts',(-57.3597228195288,-73.2079999720444,18.4897382347095));
#1447=CARTESIAN_POINT('Ctrl Pts',(-57.3177905355244,-72.9892684921899,18.5174270633223));
#1448=CARTESIAN_POINT('Ctrl Pts',(-57.149926238194,-72.5862081518109,18.5627264567042));
#1449=CARTESIAN_POINT('Ctrl Pts',(-57.0237753668024,-72.4017490788601,18.5783451623621));
#1450=CARTESIAN_POINT('Ctrl Pts',(-56.7310312317648,-72.1090049438225,18.5783451623621));
#1451=CARTESIAN_POINT('Ctrl Pts',(-56.546572158814,-71.9828540724308,18.5627264567042));
#1452=CARTESIAN_POINT('Ctrl Pts',(-56.1435118184349,-71.8149897751004,18.5174270633223));
#1453=CARTESIAN_POINT('Ctrl Pts',(-55.9247803385805,-71.773057491096,18.4897382347095));
#1454=CARTESIAN_POINT('Ctrl Pts',(-55.6457004138687,-71.7717914588269,18.4727805319786));
#1455=CARTESIAN_POINT('Ctrl Pts',(-55.56784954945,-71.7764083795999,18.4697731942999));
#1456=CARTESIAN_POINT('Ctrl Pts',(-55.4897483318489,-71.786960859449,18.4697731942999));
#1457=CARTESIAN_POINT('',(-57.1248906726989,-73.4221032002991,18.4697731942999));
#1458=CARTESIAN_POINT('Origin',(-55.9784440632921,-73.1543362473327,18.4697731942999));
#1459=CARTESIAN_POINT('',(-55.7106771103258,-75.0721032002991,18.4697731942999));
#1460=CARTESIAN_POINT('Origin',(-55.7106771103258,-73.4221032002991,18.4697731942999));
#1461=CARTESIAN_POINT('Origin',(-55.7106771103258,-73.4221032002991,18.4697731942999));
#1462=CARTESIAN_POINT('Origin',(-73.3883466399895,-55.7444336706354,34.4697731942999));
#1463=CARTESIAN_POINT('',(-73.3883466399895,-57.3944336706354,34.4697731942999));
#1464=CARTESIAN_POINT('',(-73.3883466399895,-57.3944336706354,34.4697731942999));
#1465=CARTESIAN_POINT('Origin',(-73.3883466399895,-55.7444336706354,34.4697731942999));
#1466=CARTESIAN_POINT('Origin',(-73.3883466399895,-55.7444336706354,34.4697731942999));
#1467=CARTESIAN_POINT('',(-70.6143123445654,-54.6021842548723,34.4697731942999));
#1468=CARTESIAN_POINT('',(-74.5305960557522,-58.5184679660596,34.4697731942999));
#1469=CARTESIAN_POINT('Origin',(-73.3883466399895,-55.7444336706354,34.4697731942999));
#1470=CARTESIAN_POINT('',(-70.6143123445654,-54.6021842548723,34.4697731942999));
#1471=CARTESIAN_POINT('',(-74.5305960557522,-58.5184679660596,34.4697731942999));
#1472=CARTESIAN_POINT('Origin',(-72.6812398588029,-59.2799675765681,34.4697731942999));
#1473=CARTESIAN_POINT('',(-72.6812398588029,-59.2799675765681,34.4697731942999));
#1474=CARTESIAN_POINT('',(-72.6812398588029,-59.2799675765681,34.4697731942999));
#1475=CARTESIAN_POINT('',(-72.6812398588029,-59.2799675765681,34.4697731942999));
#1476=CARTESIAN_POINT('Origin',(-70.6143123445654,-54.6021842548723,34.4697731942999));
#1477=CARTESIAN_POINT('',(-69.8528127340567,-56.4515404518219,34.4697731942999));
#1478=CARTESIAN_POINT('',(-69.8528127340567,-56.4515404518219,34.4697731942999));
#1479=CARTESIAN_POINT('',(-69.8528127340567,-56.4515404518219,34.4697731942999));
#1480=CARTESIAN_POINT('Origin',(-69.8528127340567,-56.4515404518219,34.4697731942999));
#1481=CARTESIAN_POINT('',(-72.6812398588029,-59.2799675765681,34.4697731942999));
#1482=CARTESIAN_POINT('',(-69.8528127340567,-56.4515404518219,34.4697731942999));
#1483=CARTESIAN_POINT('Origin',(-55.7106771103258,-73.4221032002991,34.4697731942999));
#1484=CARTESIAN_POINT('',(-55.7106771103258,-75.0721032002991,34.4697731942999));
#1485=CARTESIAN_POINT('',(-55.7106771103258,-75.0721032002991,34.4697731942999));
#1486=CARTESIAN_POINT('Origin',(-55.7106771103258,-73.4221032002991,34.4697731942999));
#1487=CARTESIAN_POINT('Origin',(-55.7106771103258,-73.4221032002991,34.4697731942999));
#1488=CARTESIAN_POINT('',(-58.48471140575,-74.5643526160619,34.4697731942999));
#1489=CARTESIAN_POINT('',(-54.5684276945627,-70.648068904875,34.4697731942999));
#1490=CARTESIAN_POINT('Origin',(-55.7106771103258,-73.4221032002991,34.4697731942999));
#1491=CARTESIAN_POINT('',(-58.48471140575,-74.5643526160619,34.4697731942999));
#1492=CARTESIAN_POINT('',(-54.5684276945627,-70.648068904875,34.4697731942999));
#1493=CARTESIAN_POINT('Origin',(-56.4177838915123,-69.8865692943663,34.4697731942999));
#1494=CARTESIAN_POINT('',(-56.4177838915123,-69.8865692943663,34.4697731942999));
#1495=CARTESIAN_POINT('',(-56.4177838915123,-69.8865692943663,34.4697731942999));
#1496=CARTESIAN_POINT('',(-56.4177838915123,-69.8865692943664,15.4697731942999));
#1497=CARTESIAN_POINT('Origin',(-58.48471140575,-74.5643526160619,34.4697731942999));
#1498=CARTESIAN_POINT('',(-59.2462110162585,-72.7149964191125,34.4697731942999));
#1499=CARTESIAN_POINT('',(-59.2462110162585,-72.7149964191125,34.4697731942999));
#1500=CARTESIAN_POINT('',(-59.2462110162585,-72.7149964191125,15.4697731942999));
#1501=CARTESIAN_POINT('Origin',(-73.1205796870231,-56.0122006236018,18.4697731942999));
#1502=CARTESIAN_POINT('Origin',(-73.3883466399895,-55.7444336706354,18.4697731942999));
#1503=CARTESIAN_POINT('Origin',(-59.2462110162585,-72.7149964191125,34.4697731942999));
#1504=CARTESIAN_POINT('',(-59.2462110162585,-72.7149964191125,15.4697731942999));
#1505=CARTESIAN_POINT('',(-56.4177838915123,-69.8865692943664,15.4697731942999));
#1506=CARTESIAN_POINT('Origin',(-56.4177838915123,-69.8865692943663,34.4697731942999));
#1507=CARTESIAN_POINT('',(-56.4177838915123,-69.8865692943664,15.4697731942999));
#1508=CARTESIAN_POINT('Origin',(-73.3883466399895,-55.7444336706354,34.4697731942999));
#1509=CARTESIAN_POINT('',(-73.3883466399895,-57.3944336706354,34.4697731942999));
#1510=CARTESIAN_POINT('Origin',(-55.7106771103258,-73.4221032002991,34.4697731942999));
#1511=CARTESIAN_POINT('',(-55.7106771103258,-75.0721032002991,34.4697731942999));
#1512=CARTESIAN_POINT('Origin',(-63.8424050939711,-63.8761616542807,24.9697731942999));
#1513=CARTESIAN_POINT('',(-68.9335739185142,-57.3707792673645,24.9697731942999));
#1514=CARTESIAN_POINT('Origin',(-63.1352983127845,-63.1690548730942,24.9697731942999));
#1515=CARTESIAN_POINT('',(-69.6406806997008,-58.077886048551,24.9697731942999));
#1516=CARTESIAN_POINT('',(-69.6406806997007,-58.077886048551,24.9697731942999));
#1517=CARTESIAN_POINT('Origin',(-63.8424050939711,-63.8761616542807,24.9697731942999));
#1518=CARTESIAN_POINT('Origin',(-63.1352983127845,-63.1690548730942,24.9697731942999));
#1519=CARTESIAN_POINT('',(-56.4177838915123,-69.8865692943664,34.4697731942999));
#1520=CARTESIAN_POINT('Origin',(-63.8424050939711,-63.8761616542807,24.9697731942999));
#1521=CARTESIAN_POINT('',(-66.1405021328273,-61.5780646154244,24.9697731942999));
#1522=CARTESIAN_POINT('Origin',(-63.8424050939711,-63.8761616542807,24.9697731942999));
#1523=CARTESIAN_POINT('',(-68.261822476387,-63.6993849589841,24.9697731942999));
#1524=CARTESIAN_POINT('',(-66.1405021328273,-61.5780646154244,24.9697731942999));
#1525=CARTESIAN_POINT('Origin',(-65.9637254375307,-65.9974819978403,24.9697731942999));
#1526=CARTESIAN_POINT('Origin',(-60.3068711880383,-67.4116955602134,24.9697731942903));
#1527=CARTESIAN_POINT('',(-63.3120750080811,-68.6491324272899,24.9697731942903));
#1528=CARTESIAN_POINT('Origin',(-62.4281915315979,-69.533015903773,24.9697731942903));
#1529=CARTESIAN_POINT('',(-61.1907546645215,-66.5278120837302,24.9697731942903));
#1530=CARTESIAN_POINT('',(-61.1907546645215,-66.5278120837302,24.9697731942903));
#1531=CARTESIAN_POINT('Origin',(-60.3068711880383,-67.4116955602134,24.9697731942903));
#1532=CARTESIAN_POINT('Origin',(-65.6101720469315,-62.1083947013202,29.2999002132269));
#1533=CARTESIAN_POINT('',(-68.6153758669744,-63.3458315683966,29.2999002132269));
#1534=CARTESIAN_POINT('Origin',(-67.7314923904912,-64.2297150448798,29.2999002132269));
#1535=CARTESIAN_POINT('',(-66.4940555234147,-61.224511224837,29.2999002132269));
#1536=CARTESIAN_POINT('',(-66.4940555234147,-61.224511224837,29.2999002132269));
#1537=CARTESIAN_POINT('Origin',(-65.6101720469315,-62.1083947013202,29.2999002132269));
#1538=CARTESIAN_POINT('Origin',(-62.0746381409988,-65.6439286072529,29.2999002132173));
#1539=CARTESIAN_POINT('',(-65.0798419610416,-66.8813654743294,29.2999002132173));
#1540=CARTESIAN_POINT('Origin',(-64.1959584845584,-67.7652489508125,29.2999002132173));
#1541=CARTESIAN_POINT('',(-62.958521617482,-64.7600451307697,29.2999002132173));
#1542=CARTESIAN_POINT('',(-62.958521617482,-64.7600451307697,29.2999002132173));
#1543=CARTESIAN_POINT('Origin',(-62.0746381409988,-65.6439286072529,29.2999002132173));
#1544=CARTESIAN_POINT('Origin',(-65.6101720469433,-62.1083947013084,20.6396461753825));
#1545=CARTESIAN_POINT('',(-68.6153758669861,-63.3458315683849,20.6396461753825));
#1546=CARTESIAN_POINT('Origin',(-67.7314923905029,-64.229715044868,20.6396461753825));
#1547=CARTESIAN_POINT('',(-66.4940555234265,-61.2245112248252,20.6396461753825));
#1548=CARTESIAN_POINT('',(-66.4940555234265,-61.2245112248252,20.6396461753825));
#1549=CARTESIAN_POINT('Origin',(-65.6101720469433,-62.1083947013084,20.6396461753825));
#1550=CARTESIAN_POINT('Origin',(-62.0746381410105,-65.6439286072412,20.6396461753729));
#1551=CARTESIAN_POINT('',(-65.0798419610534,-66.8813654743176,20.6396461753729));
#1552=CARTESIAN_POINT('Origin',(-64.1959584845702,-67.7652489508008,20.6396461753729));
#1553=CARTESIAN_POINT('',(-62.9585216174937,-64.760045130758,20.6396461753729));
#1554=CARTESIAN_POINT('',(-62.9585216174937,-64.760045130758,20.6396461753729));
#1555=CARTESIAN_POINT('Origin',(-62.0746381410105,-65.6439286072412,20.6396461753729));
#1556=CARTESIAN_POINT('Origin',(-67.3779389999038,-60.3406277483479,24.9697731943095));
#1557=CARTESIAN_POINT('',(-70.3831428199466,-61.5780646154244,24.9697731943095));
#1558=CARTESIAN_POINT('Origin',(-69.4992593434634,-62.4619480919075,24.9697731943095));
#1559=CARTESIAN_POINT('',(-68.261822476387,-59.4567442718647,24.9697731943095));
#1560=CARTESIAN_POINT('',(-68.261822476387,-59.4567442718647,24.9697731943095));
#1561=CARTESIAN_POINT('Origin',(-67.3779389999038,-60.3406277483479,24.9697731943095));
#1562=CARTESIAN_POINT('Origin',(-57.1248906726988,-70.5936760755529,34.4697731942999));
#1563=CARTESIAN_POINT('',(-59.2462110162585,-72.7149964191125,34.4697731942999));
#1564=CARTESIAN_POINT('Origin',(-65.9637254375307,-65.9974819978403,24.9697731942999));
#1565=CARTESIAN_POINT('Origin',(-63.8424050939711,-63.8761616542807,24.9697731942999));
#1566=CARTESIAN_POINT('',(74.0106646311154,0.0238694927046268,-24.9697731942903));
#1567=UNCERTAINTY_MEASURE_WITH_UNIT(LENGTH_MEASURE(0.01),#1573,
'DISTANCE_ACCURACY_VALUE',
'Maximum model space distance between geometric entities at asserted c
onnectivities');
#1568=UNCERTAINTY_MEASURE_WITH_UNIT(LENGTH_MEASURE(0.01),#1573,
'DISTANCE_ACCURACY_VALUE',
'Maximum model space distance between geometric entities at asserted c
onnectivities');
#1569=UNCERTAINTY_MEASURE_WITH_UNIT(LENGTH_MEASURE(0.01),#1573,
'DISTANCE_ACCURACY_VALUE',
'Maximum model space distance between geometric entities at asserted c
onnectivities');
#1570=(
GEOMETRIC_REPRESENTATION_CONTEXT(3)
GLOBAL_UNCERTAINTY_ASSIGNED_CONTEXT((#1567))
GLOBAL_UNIT_ASSIGNED_CONTEXT((#1573,#1575,#1576))
REPRESENTATION_CONTEXT('','3D')
);
#1571=(
GEOMETRIC_REPRESENTATION_CONTEXT(3)
GLOBAL_UNCERTAINTY_ASSIGNED_CONTEXT((#1568))
GLOBAL_UNIT_ASSIGNED_CONTEXT((#1573,#1575,#1576))
REPRESENTATION_CONTEXT('','3D')
);
#1572=(
GEOMETRIC_REPRESENTATION_CONTEXT(3)
GLOBAL_UNCERTAINTY_ASSIGNED_CONTEXT((#1569))
GLOBAL_UNIT_ASSIGNED_CONTEXT((#1573,#1575,#1576))
REPRESENTATION_CONTEXT('','3D')
);
#1573=(
LENGTH_UNIT()
NAMED_UNIT(*)
SI_UNIT(.MILLI.,.METRE.)
);
#1574=(
LENGTH_UNIT()
NAMED_UNIT(*)
SI_UNIT($,.METRE.)
);
#1575=(
NAMED_UNIT(*)
PLANE_ANGLE_UNIT()
SI_UNIT($,.RADIAN.)
);
#1576=(
NAMED_UNIT(*)
SI_UNIT($,.STERADIAN.)
SOLID_ANGLE_UNIT()
);
#1577=SHAPE_DEFINITION_REPRESENTATION(#1579,#1582);
#1578=SHAPE_DEFINITION_REPRESENTATION(#1580,#1583);
#1579=PRODUCT_DEFINITION_SHAPE('',$,#1585);
#1580=PRODUCT_DEFINITION_SHAPE('',$,#1586);
#1581=PRODUCT_DEFINITION_SHAPE($,$,#14);
#1582=SHAPE_REPRESENTATION('',(#893,#983),#1570);
#1583=SHAPE_REPRESENTATION('',(#894),#1571);
#1584=PRODUCT_DEFINITION_CONTEXT('part definition',#1592,'design');
#1585=PRODUCT_DEFINITION('motor_RE16_118710','motor_RE16_118710 v6',#1587,
#1584);
#1586=PRODUCT_DEFINITION('\X2\30B330F330DD30FC30CD30F330C8\X0\1',
'\X2\30B330F330DD30FC30CD30F330C8\X0\1',#1588,#1584);
#1587=PRODUCT_DEFINITION_FORMATION('',$,#1594);
#1588=PRODUCT_DEFINITION_FORMATION('',$,#1595);
#1589=PRODUCT_RELATED_PRODUCT_CATEGORY('motor_RE16_118710 v6',
'motor_RE16_118710 v6',(#1594));
#1590=PRODUCT_RELATED_PRODUCT_CATEGORY('\X2\30B330F330DD30FC30CD30F330C8\X0\1',
'\X2\30B330F330DD30FC30CD30F330C8\X0\1',(#1595));
#1591=APPLICATION_PROTOCOL_DEFINITION('international standard',
'automotive_design',2009,#1592);
#1592=APPLICATION_CONTEXT(
'Core Data for Automotive Mechanical Design Process');
#1593=PRODUCT_CONTEXT('part definition',#1592,'mechanical');
#1594=PRODUCT('motor_RE16_118710','motor_RE16_118710 v6',$,(#1593));
#1595=PRODUCT('\X2\30B330F330DD30FC30CD30F330C8\X0\1',
'\X2\30B330F330DD30FC30CD30F330C8\X0\1',$,(#1593));
#1596=PRESENTATION_STYLE_ASSIGNMENT((#1601));
#1597=PRESENTATION_STYLE_ASSIGNMENT((#1602));
#1598=PRESENTATION_STYLE_ASSIGNMENT((#1603));
#1599=PRESENTATION_STYLE_ASSIGNMENT((#1604));
#1600=PRESENTATION_STYLE_ASSIGNMENT((#1605));
#1601=SURFACE_STYLE_USAGE(.BOTH.,#1606);
#1602=SURFACE_STYLE_USAGE(.BOTH.,#1607);
#1603=SURFACE_STYLE_USAGE(.BOTH.,#1608);
#1604=SURFACE_STYLE_USAGE(.BOTH.,#1609);
#1605=SURFACE_STYLE_USAGE(.BOTH.,#1610);
#1606=SURFACE_SIDE_STYLE('',(#1611));
#1607=SURFACE_SIDE_STYLE('',(#1612));
#1608=SURFACE_SIDE_STYLE('',(#1613));
#1609=SURFACE_SIDE_STYLE('',(#1614));
#1610=SURFACE_SIDE_STYLE('',(#1615));
#1611=SURFACE_STYLE_FILL_AREA(#1616);
#1612=SURFACE_STYLE_FILL_AREA(#1617);
#1613=SURFACE_STYLE_FILL_AREA(#1618);
#1614=SURFACE_STYLE_FILL_AREA(#1619);
#1615=SURFACE_STYLE_FILL_AREA(#1620);
#1616=FILL_AREA_STYLE('\X2\92FC\X0\ - \X2\30B530C630F3\X0\',(#1621));
#1617=FILL_AREA_STYLE('\X2\30B330FC30C630A330F330B0\X0\ - \X2\9ED267D33081\X0\',
(#1622));
#1618=FILL_AREA_STYLE('\X2\30B330FC30C630A330F330B0\X0\ - \X2\9ED267D33081\X0\ 
(1)',(#1623));
#1619=FILL_AREA_STYLE('\X2\771F936E\X0\ - \X2\3064308451FA3057\X0\',(#1624));
#1620=FILL_AREA_STYLE('\X2\30B930C630F330EC30B992FC\X0\ - \X2\3064308451FA3057\X0\',
(#1625));
#1621=FILL_AREA_STYLE_COLOUR('\X2\92FC\X0\ - \X2\30B530C630F3\X0\',#1626);
#1622=FILL_AREA_STYLE_COLOUR('\X2\30B330FC30C630A330F330B0\X0\ - \X2\9ED267D33081\X0\',
#1627);
#1623=FILL_AREA_STYLE_COLOUR('\X2\30B330FC30C630A330F330B0\X0\ - \X2\9ED267D33081\X0\ 
(1)',#1628);
#1624=FILL_AREA_STYLE_COLOUR('\X2\771F936E\X0\ - \X2\3064308451FA3057\X0\',
#1629);
#1625=FILL_AREA_STYLE_COLOUR('\X2\30B930C630F330EC30B992FC\X0\ - \X2\3064308451FA3057\X0\',
#1630);
#1626=COLOUR_RGB('\X2\92FC\X0\ - \X2\30B530C630F3\X0\',0.627450980392157,
0.627450980392157,0.627450980392157);
#1627=COLOUR_RGB('\X2\30B330FC30C630A330F330B0\X0\ - \X2\9ED267D33081\X0\',
0.247058823529412,0.247058823529412,0.247058823529412);
#1628=COLOUR_RGB('\X2\30B330FC30C630A330F330B0\X0\ - \X2\9ED267D33081\X0\ 
(1)',0.925490196078431,0.925490196078431,0.925490196078431);
#1629=COLOUR_RGB('\X2\771F936E\X0\ - \X2\3064308451FA3057\X0\',0.952941176470588,
0.796078431372549,0.486274509803922);
#1630=COLOUR_RGB('\X2\30B930C630F330EC30B992FC\X0\ - \X2\3064308451FA3057\X0\',
0.709803921568627,0.686274509803922,0.686274509803922);
ENDSEC;
END-ISO-10303-21;
