0
SECTION
2
HEADER
9
$INSUNITS
70
4
9
$ACADVER
1
AC1014
9
$HANDSEED
5
FFFF
0
ENDSEC
0
SECTION
2
TABLES
0
TABLE
2
VPORT
5
8
100
AcDbSymbolTable
0
ENDTAB
0
TABLE
2
LTYPE
5
5
100
AcDbSymbolTable
0
LTYPE
5
14
100
AcDbSymbolTableRecord
100
AcDbLinetypeTableRecord
2
BYBLOCK
70
0
0
LTYPE
5
15
100
AcDbSymbolTableRecord
100
AcDbLinetypeTableRecord
2
BYLAYER
70
0
0
LTYPE
5
16
100
AcDbSymbolTableRecord
100
AcDbLinetypeTableRecord
2
DASHED
70
0
3
Dashed __ __ __ __ __ __ __ __ __ __ __ __ __ _
72
65
73
2
40
0.75
49
0.5
74
0
49
-0.25
74
0
0
ENDTAB
0
TABLE
2
LAYER
5
2
100
AcDbSymbolTable
70
2
0
LAYER
5
50
100
AcDbSymbolTableRecord
100
AcDbLayerTableRecord
2
0
70
0
62
7
6
CONTINUOUS
0
ENDTAB
0
TABLE
2
STYLE
5
3
100
AcDbSymbolTable
70
1
0
STYLE
5
11
100
AcDbSymbolTableRecord
100
AcDbTextStyleTableRecord
2
STANDARD
70
0
0
ENDTAB
0
TABLE
2
VIEW
5
6
100
AcDbSymbolTable
70
0
0
ENDTAB
0
TABLE
2
UCS
5
7
100
AcDbSymbolTable
70
0
0
ENDTAB
0
TABLE
2
APPID
5
9
100
AcDbSymbolTable
70
2
0
APPID
5
12
100
AcDbSymbolTableRecord
100
AcDbRegAppTableRecord
2
ACAD
70
0
0
ENDTAB
0
TABLE
2
DIMSTYLE
5
A
100
AcDbSymbolTable
70
1
0
ENDTAB
0
TABLE
2
BLOCK_RECORD
5
1
100
AcDbSymbolTable
70
1
0
BLOCK_RECORD
5
1F
100
AcDbSymbolTableRecord
100
AcDbBlockTableRecord
2
*MODEL_SPACE
0
BLOCK_RECORD
5
1B
100
AcDbSymbolTableRecord
100
AcDbBlockTableRecord
2
*PAPER_SPACE
0
ENDTAB
0
ENDSEC
0
SECTION
2
BLOCKS
0
BLOCK
5
20
100
AcDbEntity
100
AcDbBlockBegin
2
*MODEL_SPACE
0
ENDBLK
5
21
100
AcDbEntity
100
AcDbBlockEnd
0
BLOCK
5
1C
100
AcDbEntity
100
AcDbBlockBegin
2
*PAPER_SPACE
0
ENDBLK
5
1D
100
AcDbEntity
100
AcDbBlockEnd
0
ENDSEC
0
SECTION
2
ENTITIES
0
LINE
5
100
100
AcDbEntity
8
0
100
AcDbLine
10
-21.335000000000012
20
75.962999999999965
30
-1.4033773902028473e-76
11
-21.335000000000012
21
68.139205308784497
31
0
0
LINE
5
101
100
AcDbEntity
8
0
100
AcDbLine
10
21.335000000000019
20
68.139205308784497
30
0
11
21.335000000000015
21
75.962999999999994
31
0
0
LINE
5
102
100
AcDbEntity
8
0
100
AcDbLine
10
0
20
-82.963486249924642
30
0
11
24.335000000000004
21
-82.963486249924642
31
0
0
CIRCLE
5
103
100
AcDbEntity
8
0
100
AcDbCircle
10
0
20
-96.835000000000022
30
0
40
21.335000000000001
210
0
220
0
230
1
0
LINE
5
104
100
AcDbEntity
8
0
100
AcDbLine
10
0
20
-96.835000000000022
30
0
11
0
21
-75.500000000000028
31
0
0
CIRCLE
5
105
100
AcDbEntity
8
0
100
AcDbCircle
10
22.136999999999993
20
62.503726369806927
30
0
40
0.99999999999999645
210
0
220
0
230
1
0
CIRCLE
5
106
100
AcDbEntity
8
0
100
AcDbCircle
10
-22.136999999999993
20
62.503726369806927
30
0
40
0.99999999999999645
210
0
220
0
230
1
0
CIRCLE
5
107
100
AcDbEntity
8
0
100
AcDbCircle
10
24.999999999999993
20
55.08000000000002
30
0
40
0.79999999999999793
210
0
220
-0
230
1
0
CIRCLE
5
108
100
AcDbEntity
8
0
100
AcDbCircle
10
24.999999999999993
20
50.000000000000057
30
0
40
0.80000000000000071
210
0
220
-0
230
1
0
LWPOLYLINE
5
109
100
AcDbEntity
8
0
100
AcDbPolyline
90
4
70
1
43
0.0
10
26.269999999999989
20
48.730000000000054
10
23.729999999999993
20
48.730000000000054
10
23.729999999999993
20
56.349999999999994
10
26.269999999999989
20
56.349999999999994
0
LINE
5
110
100
AcDbEntity
8
0
100
AcDbLine
10
28.269999999999989
20
56.429537867694421
30
2.1034311903149975e-30
11
28.269999999999989
21
49.730000000000054
31
9.4765862681702387e-30
0
LINE
5
111
100
AcDbEntity
8
0
100
AcDbLine
10
25.269999999999992
20
46.730000000000054
30
7.7081307719067203e-30
11
24.72999999999999
21
46.730000000000054
31
6.7955135012225013e-30
0
LINE
5
112
100
AcDbEntity
8
0
100
AcDbLine
10
21.729999999999997
20
49.730000000000061
30
1.3351691168918337e-30
11
21.72999999999999
21
57.851626661553361
31
2.7868508251255273e-31
0
ARC
5
113
100
AcDbEntity
8
0
100
AcDbCircle
10
8.8817841970012523e-15
20
-8.8817841970012523e-15
30
0
40
63.80808833854055
210
-4.2277700398169233e-48
220
-1.3058375544815242e-47
230
1
100
AcDbArc
50
72.060159399567766
51
111.36157536742444
0
ARC
5
114
100
AcDbEntity
8
0
100
AcDbCircle
10
8.8817841970012523e-15
20
-8.8817841970012523e-15
30
0
40
68.829326730618348
210
0
220
-0
230
1
100
AcDbArc
50
74.158319812213989
51
105.84168018778604
0
ARC
5
115
100
AcDbEntity
8
0
100
AcDbCircle
10
18.729999999999983
20
57.85162666155334
30
7.3726315015703957e-31
40
3.0000000000000071
210
1.5285935588149402e-31
220
2.0882383462638431e-31
230
1
100
AcDbArc
50
0
51
72.060159399567738
0
ARC
5
116
100
AcDbEntity
8
0
100
AcDbCircle
10
19.335000000000015
20
68.139205308784497
30
0
40
1.9999999999999982
210
0
220
0
230
1
100
AcDbArc
50
-105.84168018778595
51
0
0
ARC
5
117
100
AcDbEntity
8
0
100
AcDbCircle
10
-19.335000000000012
20
68.139205308784497
30
0
40
1.9999999999999996
210
0
220
0
230
1
100
AcDbArc
50
180
51
285.84168018778593
0
ARC
5
118
100
AcDbEntity
8
0
100
AcDbCircle
10
25.269999999999982
20
56.429537867694421
30
6.620984858970373e-30
40
3.0000000000000071
210
1.5058512228851215e-30
220
1.7438411753373682e-30
230
1
100
AcDbArc
50
0
51
32.417239266759921
0
ARC
5
119
100
AcDbEntity
8
0
100
AcDbCircle
10
25.270000000000007
20
49.730000000000032
30
4.4064903199246621e-30
40
2.9999999999999805
210
-1.6900319827485401e-30
220
1.1005468173273675e-30
230
1
100
AcDbArc
50
-90.000000000000256
51
0
0
ARC
5
120
100
AcDbEntity
8
0
100
AcDbCircle
10
24.729999999999976
20
49.730000000000032
30
6.4052650651374393e-30
40
2.9999999999999805
210
-1.6900319827485454e-30
220
1.3008281202834729e-31
230
1
100
AcDbArc
50
180
51
270.00000000000023
0
LINE
5
121
100
AcDbEntity
8
0
100
AcDbLine
10
27.335000000000029
20
59.646022750295245
30
-2.6902814977662925e-31
11
27.335000000000015
21
75.963000000000008
31
-4.1781094365694449e-32
0
LINE
5
122
100
AcDbEntity
8
0
100
AcDbLine
10
-27.335000000000008
20
75.962999999999951
30
8.9737877246723023e-47
11
-27.335000000000015
21
62.21839312012353
31
5.0087515891032741e-46
0
ARC
5
123
100
AcDbEntity
8
0
100
AcDbCircle
10
30.335000000000122
20
59.646022750295266
30
1.2969625358557481e-29
40
3.0000000000000915
210
-4.4128845027778959e-30
220
-1.1136990675825285e-30
230
1
100
AcDbArc
50
180
51
212.41723926675931
0
ARC
5
124
100
AcDbEntity
8
0
100
AcDbCircle
10
-24.335000000000029
20
62.218393120123508
30
4.8749157338031948e-46
40
2.9999999999999849
210
4.4611951766697551e-48
220
6.9833509094947693e-47
230
1
100
AcDbArc
50
180
51
291.36157536742456
0
ARC
5
125
100
AcDbEntity
8
0
100
AcDbCircle
10
-24.335000000000008
20
75.962999999999951
30
8.9737877246722498e-47
40
2.9999999999999982
210
1.7421201624220656e-61
220
2.9912625748907548e-47
230
1
100
AcDbArc
50
89.999999999999858
51
180
0
ARC
5
126
100
AcDbEntity
8
0
100
AcDbCircle
10
-24.335000000000008
20
75.962999999999951
30
-8.5080287002008004e-62
40
2.9999999999999982
210
-2.8360095667335974e-62
220
1.3194146403616581e-77
230
1
100
AcDbArc
50
0
51
89.999999999999929
0
ARC
5
127
100
AcDbEntity
8
0
100
AcDbCircle
10
24.335000000000019
20
75.962999999999994
30
0
40
3.0000000000000071
210
0
220
0
230
1
100
AcDbArc
50
90.000000000000199
51
180
0
ARC
5
128
100
AcDbEntity
8
0
100
AcDbCircle
10
24.335000000000022
20
75.963000000000008
30
-4.1781094365694175e-32
40
2.9999999999999938
210
4.9998072807742388e-47
220
-1.3927031455231442e-32
230
1
100
AcDbArc
50
0
51
90.000000000000142
0
ENDSEC
0
SECTION
2
OBJECTS
0
DICTIONARY
5
C
100
AcDbDictionary
3
ACAD_GROUP
350
D
3
ACAD_MLINESTYLE
350
17
0
DICTIONARY
5
D
100
AcDbDictionary
0
DICTIONARY
5
1A
330
C
100
AcDbDictionary
0
DICTIONARY
5
17
100
AcDbDictionary
0
ENDSEC
0
EOF
