0
SECTION
2
HEADER
9
$INSUNITS
70
4
9
$ACADVER
1
AC1014
9
$HANDSEED
5
FFFF
0
ENDSEC
0
SECTION
2
TABLES
0
TABLE
2
VPORT
5
8
100
AcDbSymbolTable
0
ENDTAB
0
TABLE
2
LTYPE
5
5
100
AcDbSymbolTable
0
LTYPE
5
14
100
AcDbSymbolTableRecord
100
AcDbLinetypeTableRecord
2
BYBLOCK
70
0
0
LTYPE
5
15
100
AcDbSymbolTableRecord
100
AcDbLinetypeTableRecord
2
BYLAYER
70
0
0
LTYPE
5
16
100
AcDbSymbolTableRecord
100
AcDbLinetypeTableRecord
2
DASHED
70
0
3
Dashed __ __ __ __ __ __ __ __ __ __ __ __ __ _
72
65
73
2
40
0.75
49
0.5
74
0
49
-0.25
74
0
0
ENDTAB
0
TABLE
2
LAYER
5
2
100
AcDbSymbolTable
70
2
0
LAYER
5
50
100
AcDbSymbolTableRecord
100
AcDbLayerTableRecord
2
0
70
0
62
7
6
CONTINUOUS
0
ENDTAB
0
TABLE
2
STYLE
5
3
100
AcDbSymbolTable
70
1
0
STYLE
5
11
100
AcDbSymbolTableRecord
100
AcDbTextStyleTableRecord
2
STANDARD
70
0
0
ENDTAB
0
TABLE
2
VIEW
5
6
100
AcDbSymbolTable
70
0
0
ENDTAB
0
TABLE
2
UCS
5
7
100
AcDbSymbolTable
70
0
0
ENDTAB
0
TABLE
2
APPID
5
9
100
AcDbSymbolTable
70
2
0
APPID
5
12
100
AcDbSymbolTableRecord
100
AcDbRegAppTableRecord
2
ACAD
70
0
0
ENDTAB
0
TABLE
2
DIMSTYLE
5
A
100
AcDbSymbolTable
70
1
0
ENDTAB
0
TABLE
2
BLOCK_RECORD
5
1
100
AcDbSymbolTable
70
1
0
BLOCK_RECORD
5
1F
100
AcDbSymbolTableRecord
100
AcDbBlockTableRecord
2
*MODEL_SPACE
0
BLOCK_RECORD
5
1B
100
AcDbSymbolTableRecord
100
AcDbBlockTableRecord
2
*PAPER_SPACE
0
ENDTAB
0
ENDSEC
0
SECTION
2
BLOCKS
0
BLOCK
5
20
100
AcDbEntity
100
AcDbBlockBegin
2
*MODEL_SPACE
0
ENDBLK
5
21
100
AcDbEntity
100
AcDbBlockEnd
0
BLOCK
5
1C
100
AcDbEntity
100
AcDbBlockBegin
2
*PAPER_SPACE
0
ENDBLK
5
1D
100
AcDbEntity
100
AcDbBlockEnd
0
ENDSEC
0
SECTION
2
ENTITIES
0
LINE
5
100
100
AcDbEntity
8
0
100
AcDbLine
10
6.5581169079632229
20
-22.114466094067264
30
0
11
34.806245351110412
21
-50.362594537214434
31
0
0
LINE
5
101
100
AcDbEntity
8
0
100
AcDbLine
10
-6.5581169079632184
20
-22.114466094067275
30
0
11
-34.806245351110377
21
-50.362594537214434
31
0
0
ARC
5
102
100
AcDbEntity
8
0
100
AcDbCircle
10
32.684925007550767
20
-52.48391488077408
30
0
40
3.0000000000000155
210
-0
220
0
230
1
100
AcDbArc
50
-58.086967811641316
51
45
0
ARC
5
103
100
AcDbEntity
8
0
100
AcDbCircle
10
-32.684925007550738
20
-52.48391488077408
30
0
40
2.9999999999999973
210
0
220
0
230
1
100
AcDbArc
50
134.99999999999991
51
238.0869678116413
0
LINE
5
104
100
AcDbEntity
8
0
100
AcDbLine
10
-13.000095726434477
20
-28.556444912538534
30
0
11
-13.000095726434582
21
-49.850000000000406
31
-1.7219433775554702e-15
0
LINE
5
105
100
AcDbEntity
8
0
100
AcDbLine
10
-11.000095726434589
20
-51.850000000000414
30
4.4408920985006262e-15
11
-7.9844554377699257
21
-51.850000000000435
31
4.4408920985006254e-15
0
LINE
5
106
100
AcDbEntity
8
0
100
AcDbLine
10
7.9999042735657167
20
-51.850000000000506
30
4.440892098500623e-15
11
10.999904273565457
21
-51.85000000000052
31
4.4408920985006246e-15
0
ARC
5
107
100
AcDbEntity
8
0
100
AcDbCircle
10
-11.00009572643458
20
-49.850000000000414
30
4.4408920985006262e-15
40
2.0000000000000018
210
-3.0814177380280452e-15
220
1.3517843337793348e-29
230
1
100
AcDbArc
50
180
51
269.99999999999972
0
LINE
5
108
100
AcDbEntity
8
0
100
AcDbLine
10
12.99990427356547
20
-49.850000000000527
30
4.4408920985006262e-15
11
12.999904273565575
21
-28.556253459669605
31
0
0
ARC
5
109
100
AcDbEntity
8
0
100
AcDbCircle
10
10.999904273565468
20
-49.85000000000052
30
-1.7219433775554702e-15
40
2.0000000000000018
210
1.7101427841474612e-29
220
3.0814177380280449e-15
230
1
100
AcDbArc
50
269.99999999999972
51
360
0
LINE
5
110
100
AcDbEntity
8
0
100
AcDbLine
10
-7.9844554377699257
20
-51.850000000000435
30
4.4408920985006254e-15
11
-7.9844554377702615
21
-64.335760473530769
31
0
0
LINE
5
111
100
AcDbEntity
8
0
100
AcDbLine
10
7.9999042735657167
20
-51.850000000000506
30
4.440892098500623e-15
11
7.9999042735653747
21
-64.333841296467398
31
0
0
LINE
5
112
100
AcDbEntity
8
0
100
AcDbLine
10
-2.0000957711378438
20
-54.849999947846008
30
0
11
-2.0000957711380316
21
-61.626817914289646
31
0
0
LINE
5
113
100
AcDbEntity
8
0
100
AcDbLine
10
1.9999042288619679
20
-61.626833454784546
30
0
11
1.9999042288621562
21
-54.849999947846072
31
0
0
ARC
5
114
100
AcDbEntity
8
0
100
AcDbCircle
10
4.9999042288619631
20
-61.626833454784631
30
0
40
2.9999999999999956
210
0
220
0
230
1
100
AcDbArc
50
180
51
274.63835808396919
0
ARC
5
115
100
AcDbEntity
8
0
100
AcDbCircle
10
-5.0000957711380325
20
-61.62681791428956
30
0
40
3.0000000000000022
210
0
220
0
230
1
100
AcDbArc
50
265.36146383507395
51
360
0
LINE
5
116
100
AcDbEntity
8
0
100
AcDbLine
10
-3.0225830020304842
20
-20.650000000000013
30
0
11
3.022583002030474
21
-20.649999999999995
31
0
0
ARC
5
117
100
AcDbEntity
8
0
100
AcDbCircle
10
3.0225830020304856
20
-25.649999999999999
30
0
40
4.9999999999999982
210
0
220
-0
230
1
100
AcDbArc
50
44.999999999999964
51
90.000000000000128
0
ARC
5
118
100
AcDbEntity
8
0
100
AcDbCircle
10
-3.0225830020304665
20
-25.650000000000052
30
0
40
5.00000000000004
210
0
220
0
230
1
100
AcDbArc
50
90.000000000000199
51
134.9999999999998
0
LINE
5
119
100
AcDbEntity
8
0
100
AcDbLine
10
21.335000000000008
20
-65.304252080006052
30
0
11
21.335000000000015
21
-76.963486249924657
31
0
0
LINE
5
120
100
AcDbEntity
8
0
100
AcDbLine
10
-21.334999999999987
20
-76.963486249924642
30
0
11
-21.335000000000012
21
-65.304252080006037
31
0
0
ARC
5
121
100
AcDbEntity
8
0
100
AcDbCircle
10
1.3322676295501878e-14
20
3.5527136788005009e-14
30
0
40
64.829326730618362
210
0
220
0
230
1
100
AcDbArc
50
254.31723753122614
51
265.36146383507486
0
ARC
5
122
100
AcDbEntity
8
0
100
AcDbCircle
10
1.3322676295501878e-14
20
3.5527136788005009e-14
30
0
40
64.829326730618362
210
0
220
0
230
1
100
AcDbArc
50
274.63835808396942
51
285.68276246877389
0
ARC
5
123
100
AcDbEntity
8
0
100
AcDbCircle
10
-18.335000000000001
20
-65.304252080006052
30
0
40
3.0000000000000093
210
0
220
-0
230
1
100
AcDbArc
50
74.317237531226141
51
180
0
ARC
5
124
100
AcDbEntity
8
0
100
AcDbCircle
10
18.335000000000001
20
-65.304252080006066
30
0
40
3.0000000000000071
210
0
220
-0
230
1
100
AcDbArc
50
0
51
105.68276246877373
0
CIRCLE
5
125
100
AcDbEntity
8
0
100
AcDbCircle
10
-5.0789999999999722
20
-25.758000000000028
30
-2.7755575615628628e-16
40
0.29999999999999805
210
0
220
0
230
1
0
CIRCLE
5
126
100
AcDbEntity
8
0
100
AcDbCircle
10
-5.0789999999999722
20
-23.218000000000046
30
-1.3877787807814728e-16
40
0.29999999999999805
210
0
220
0
230
1
0
CIRCLE
5
127
100
AcDbEntity
8
0
100
AcDbCircle
10
5.0809999999999693
20
-23.21800000000005
30
-1.387778780781473e-16
40
0.30000000000000032
210
0
220
0
230
1
0
CIRCLE
5
128
100
AcDbEntity
8
0
100
AcDbCircle
10
5.0809999999999693
20
-25.758000000000038
30
-4.1633363423443099e-16
40
0.30000000000000193
210
0
220
0
230
1
0
ARC
5
129
100
AcDbEntity
8
0
100
AcDbCircle
10
1.3322676295501878e-14
20
3.5527136788005009e-14
30
0
40
64.829326730618362
210
0
220
0
230
1
100
AcDbArc
50
238.08696781164116
51
244.50506795195719
0
LINE
5
130
100
AcDbEntity
8
0
100
AcDbLine
10
0
20
-110
30
0
11
0
21
-95
31
0
0
ARC
5
131
100
AcDbEntity
8
0
100
AcDbCircle
10
1.3322676295501878e-14
20
3.5527136788005009e-14
30
0
40
64.829326730618348
210
0
220
0
230
1
100
AcDbArc
50
295.49493204804281
51
301.91303218835884
0
LINE
5
132
100
AcDbEntity
8
0
100
AcDbLine
10
27.335000000000015
20
-59.419088118268007
30
0
11
27.335000000000012
21
-76.963486249924657
31
0
0
CIRCLE
5
133
100
AcDbEntity
8
0
100
AcDbCircle
10
25.842791969687717
20
-61.087884950688569
30
0
40
0.99999999999999667
210
0
220
0
230
1
0
CIRCLE
5
134
100
AcDbEntity
8
0
100
AcDbCircle
10
-25.842791969687717
20
-61.087884950688569
30
0
40
0.99999999999999667
210
0
220
0
230
1
0
LINE
5
135
100
AcDbEntity
8
0
100
AcDbLine
10
-27.335000000000015
20
-59.419088118268007
30
0
11
-27.33499999999999
21
-76.963486249924642
31
0
0
ARC
5
136
100
AcDbEntity
8
0
100
AcDbCircle
10
-28.335000000000051
20
-59.419088118268029
30
0
40
1.0000000000000364
210
0
220
-0
230
1
100
AcDbArc
50
0
51
64.505067951956804
0
ARC
5
137
100
AcDbEntity
8
0
100
AcDbCircle
10
28.334999999999994
20
-59.419088118268
30
0
40
0.99999999999998512
210
0
220
0
230
1
100
AcDbArc
50
115.49493204804078
51
180
0
ARC
5
138
100
AcDbEntity
8
0
100
AcDbCircle
10
-24.33499999999998
20
-76.963486249924628
30
0
40
3.0000000000000115
210
0
220
0
230
1
100
AcDbArc
50
180
51
269.99999999999983
0
ARC
5
139
100
AcDbEntity
8
0
100
AcDbCircle
10
-24.335000000000001
20
-76.963486249924642
30
0
40
3.0000000000000071
210
-0
220
0
230
1
100
AcDbArc
50
-89.999999999999446
51
0
0
ARC
5
140
100
AcDbEntity
8
0
100
AcDbCircle
10
24.335000000000022
20
-76.963486249924657
30
0
40
2.9999999999999893
210
0
220
0
230
1
100
AcDbArc
50
-90.000000000000256
51
0
0
ARC
5
141
100
AcDbEntity
8
0
100
AcDbCircle
10
24.335000000000008
20
-76.963486249924657
30
0
40
2.9999999999999938
210
0
220
0
230
1
100
AcDbArc
50
180
51
270.00000000000023
0
ARC
5
142
100
AcDbEntity
8
0
100
AcDbCircle
10
-9.5771137757494351e-05
20
-54.849999947846101
30
0
40
2.0000000000000817
210
0
220
0
230
1
100
AcDbArc
50
90.000000000000938
51
180
0
ARC
5
143
100
AcDbEntity
8
0
100
AcDbCircle
10
-9.5771137831324182e-05
20
-54.849999947846008
30
0
40
1.9999999999999876
210
0
220
0
230
1
100
AcDbArc
50
0
51
89.999999999999076
0
ENDSEC
0
SECTION
2
OBJECTS
0
DICTIONARY
5
C
100
AcDbDictionary
3
ACAD_GROUP
350
D
3
ACAD_MLINESTYLE
350
17
0
DICTIONARY
5
D
100
AcDbDictionary
0
DICTIONARY
5
1A
330
C
100
AcDbDictionary
0
DICTIONARY
5
17
100
AcDbDictionary
0
ENDSEC
0
EOF
