0
SECTION
2
HEADER
9
$INSUNITS
70
4
9
$ACADVER
1
AC1014
9
$HANDSEED
5
FFFF
0
ENDSEC
0
SECTION
2
TABLES
0
TABLE
2
VPORT
5
8
100
AcDbSymbolTable
0
ENDTAB
0
TABLE
2
LTYPE
5
5
100
AcDbSymbolTable
0
LTYPE
5
14
100
AcDbSymbolTableRecord
100
AcDbLinetypeTableRecord
2
BYBLOCK
70
0
0
LTYPE
5
15
100
AcDbSymbolTableRecord
100
AcDbLinetypeTableRecord
2
BYLAYER
70
0
0
LTYPE
5
16
100
AcDbSymbolTableRecord
100
AcDbLinetypeTableRecord
2
DASHED
70
0
3
Dashed __ __ __ __ __ __ __ __ __ __ __ __ __ _
72
65
73
2
40
0.75
49
0.5
74
0
49
-0.25
74
0
0
ENDTAB
0
TABLE
2
LAYER
5
2
100
AcDbSymbolTable
70
2
0
LAYER
5
50
100
AcDbSymbolTableRecord
100
AcDbLayerTableRecord
2
0
70
0
62
7
6
CONTINUOUS
0
ENDTAB
0
TABLE
2
STYLE
5
3
100
AcDbSymbolTable
70
1
0
STYLE
5
11
100
AcDbSymbolTableRecord
100
AcDbTextStyleTableRecord
2
STANDARD
70
0
0
ENDTAB
0
TABLE
2
VIEW
5
6
100
AcDbSymbolTable
70
0
0
ENDTAB
0
TABLE
2
UCS
5
7
100
AcDbSymbolTable
70
0
0
ENDTAB
0
TABLE
2
APPID
5
9
100
AcDbSymbolTable
70
2
0
APPID
5
12
100
AcDbSymbolTableRecord
100
AcDbRegAppTableRecord
2
ACAD
70
0
0
ENDTAB
0
TABLE
2
DIMSTYLE
5
A
100
AcDbSymbolTable
70
1
0
ENDTAB
0
TABLE
2
BLOCK_RECORD
5
1
100
AcDbSymbolTable
70
1
0
BLOCK_RECORD
5
1F
100
AcDbSymbolTableRecord
100
AcDbBlockTableRecord
2
*MODEL_SPACE
0
BLOCK_RECORD
5
1B
100
AcDbSymbolTableRecord
100
AcDbBlockTableRecord
2
*PAPER_SPACE
0
ENDTAB
0
ENDSEC
0
SECTION
2
BLOCKS
0
BLOCK
5
20
100
AcDbEntity
100
AcDbBlockBegin
2
*MODEL_SPACE
0
ENDBLK
5
21
100
AcDbEntity
100
AcDbBlockEnd
0
BLOCK
5
1C
100
AcDbEntity
100
AcDbBlockBegin
2
*PAPER_SPACE
0
ENDBLK
5
1D
100
AcDbEntity
100
AcDbBlockEnd
0
ENDSEC
0
SECTION
2
ENTITIES
0
POINT
5
100
100
AcDbEntity
8
0
100
AcDbPoint
10
-52.990198591306012
20
21.817718287816259
30
4.4408920985006262e-15
0
POINT
5
101
100
AcDbEntity
8
0
100
AcDbPoint
10
-58.163923973369265
20
23.960745509060683
30
4.9960036108132044e-15
0
POINT
5
102
100
AcDbEntity
8
0
100
AcDbPoint
10
0
20
0
30
0
0
POINT
5
103
100
AcDbEntity
8
0
100
AcDbPoint
10
0.00033251803746914277
20
-62.829326729738462
30
0
0
POINT
5
104
100
AcDbEntity
8
0
100
AcDbPoint
10
0.00033251803746914277
20
-57.496077474482306
30
0
0
POINT
5
105
100
AcDbEntity
8
0
100
AcDbPoint
10
46.720178358595639
20
15.17803522503459
30
0
0
CIRCLE
5
106
100
AcDbEntity
8
0
100
AcDbCircle
10
67.054492575335729
20
19.718770172495454
30
0
40
1.6500000000000004
210
-0
220
0
230
1
0
CIRCLE
5
107
100
AcDbEntity
8
0
100
AcDbCircle
10
67.056207981042832
20
-19.717735511652151
30
0
40
1.6500000000000004
210
-0
220
0
230
1
0
CIRCLE
5
108
100
AcDbEntity
8
0
100
AcDbCircle
10
-67.056207981042832
20
19.717735511652158
30
0
40
1.6500000000000004
210
-0
220
0
230
1
0
CIRCLE
5
109
100
AcDbEntity
8
0
100
AcDbCircle
10
-67.054492575335729
20
-19.718770172495447
30
0
40
1.6500000000000004
210
-0
220
0
230
1
0
LWPOLYLINE
5
110
100
AcDbEntity
8
0
100
AcDbPolyline
90
39
70
1
43
0.0
10
72.629566247662098
20
18.010392711823133
10
73.25480786124561
20
18.165437655393553
42
-0.42199469181658161
10
75.689456735486118
20
16.654012702258051
42
-0.10871513651892324
10
75.689456735486118
20
-16.654012702258076
42
-0.42199469181657678
10
73.254807861245581
20
-18.165437655393561
10
72.630483545842452
20
-18.010620179799556
42
0.41435184243946233
10
70.207678011296807
20
-19.471370020942022
10
69.968357425777413
20
-20.438419639083946
42
-0.4142135623730947
10
66.335523853611036
20
-22.629884956386725
10
64.908385325268569
20
-22.276703876726668
42
0.38035879815381568
10
62.555822325990462
20
-23.514421200336947
42
-0.69241613361891696
10
-62.55557342695927
20
-23.515083340104262
42
0.38049087337869192
10
-64.909045463875515
20
-22.277612869397725
10
-66.332433718251821
20
-22.630579061640933
42
-0.41421356237309509
10
-69.966301464481219
20
-20.440829029579351
10
-70.206987750175855
20
-19.470226066530842
42
0.41421356237309603
10
-72.629566247662098
20
-18.010392711823123
10
-73.254807861245638
20
-18.165437655393543
42
-0.42199469181658228
10
-75.689456735486175
20
-16.654012702258065
42
-0.057121829023837077
10
-77.494732145693433
20
0.90359817797090525
42
0.37970482769019476
10
-80.102949652092377
20
3.9129107560783232
10
-83.63998215165212
20
4.3785699186931639
42
-0.41395214553959037
10
-85.362051719357169
20
6.6207419642474727
10
-84.195280801907558
20
15.544794304074291
42
-0.4144750275383427
10
-81.951106465322297
20
17.268401704015208
10
-77.731437386752475
20
16.712871730829168
42
0.23823708207997374
10
-75.178178090251322
20
17.607029287515743
42
-0.26795271990495184
10
-73.256601525128687
20
18.161677565647707
10
-72.630474396105924
20
18.006726766426112
42
0.4142135624144459
10
-70.208585347720913
20
19.467703644560128
10
-69.968357425777413
20
20.438419639083953
42
-0.4142135623730947
10
-66.335523853611036
20
22.629884956386732
10
-64.90838532526854
20
22.276703876726671
42
0.38035879815380497
10
-62.555822325990448
20
23.514421200336926
42
-0.69241613361891707
10
62.555573426959235
20
23.515083340104272
42
0.38049087337869875
10
64.909045463875486
20
22.277612869397728
10
66.332433718251821
20
22.630579061640944
42
-0.41421356237309509
10
69.966301464481219
20
20.440829029579358
10
70.206987750175855
20
19.470226066530859
42
0.41421356237309304
0
CIRCLE
5
111
100
AcDbEntity
8
0
100
AcDbCircle
10
-6.5
20
-31.87867973094616
30
0
40
1.5999999999999996
210
0
220
0
230
1
0
CIRCLE
5
112
100
AcDbEntity
8
0
100
AcDbCircle
10
6.5
20
-31.87867973094616
30
0
40
1.6000000000000003
210
0
220
0
230
1
0
LWPOLYLINE
5
113
100
AcDbEntity
8
0
100
AcDbPolyline
90
14
70
1
43
0.0
10
45.079390260296123
20
2.1000000521540936
10
45.079390260296123
20
1.1000000521540931
10
45.079390260296123
20
-5.0999999478459053
10
45.079390260296123
20
-26.099999947845902
42
-0.41421356237309176
10
43.079390260296137
20
-28.099999947845905
10
39.079390260296123
20
-28.099999947845905
42
-0.4142135623730957
10
37.079390260296123
20
-26.099999947845905
10
37.079390260296123
20
-5.0999999478459053
10
37.079390260296123
20
1.1000000521540931
10
37.079390260296123
20
2.100000052154094
42
-0.41421356237309692
10
39.079390260296137
20
4.1000000521540949
10
40.47018435034132
20
4.100000052154094
10
41.688596170250946
20
4.100000052154094
10
43.079390260296123
20
4.100000052154094
42
-0.41421356237309226
0
ELLIPSE
5
114
100
AcDbEntity
8
0
100
AcDbEllipse
10
-48.068093768831488
20
14.894406375152393
30
6.6613381477509392e-15
11
-1.0000000000000013
21
5.4040115087123376e-11
31
0.0
40
0.99999995477714132
41
0
42
6.2831853071795862
0
ELLIPSE
5
115
100
AcDbEntity
8
0
100
AcDbEllipse
10
-48.068093768831517
20
19.894406149038115
30
6.6613381477509392e-15
11
-1.0000000000000013
21
-3.6551630739452174e-10
31
0.0
40
0.99999995477714132
41
0
42
6.2831853071795862
0
LINE
5
116
100
AcDbEntity
8
0
100
AcDbLine
10
-45.943093768831467
20
12.288808016494983
30
6.6613381477509392e-15
11
-50.193093768831474
21
12.288808016494958
31
7.2908951450474392e-15
0
ELLIPSE
5
117
100
AcDbEntity
8
0
100
AcDbEllipse
10
-50.193093768831474
20
12.76880799478799
30
6.6613381477509392e-15
11
-0.48000000000000054
21
-2.7150797950230221e-15
31
0.0
40
0.99999995477714143
41
0
42
1.5707963267948966
0
LINE
5
118
100
AcDbEntity
8
0
100
AcDbLine
10
-50.673093768831478
20
12.768807994787988
30
6.7324410556808974e-15
11
-50.673093768831521
21
21.060625039402829
31
7.4072692424209663e-15
0
LINE
5
119
100
AcDbEntity
8
0
100
AcDbLine
10
-49.259707439812345
20
22.498807554769613
30
6.6613381477509392e-15
11
-50.673093768831521
21
21.060625039402829
31
7.4072692424209663e-15
0
LINE
5
120
100
AcDbEntity
8
0
100
AcDbLine
10
-46.876480097850717
20
22.49880755476962
30
6.6613381477509392e-15
11
-49.259707439812345
21
22.498807554769613
31
6.6613381477509392e-15
0
LINE
5
121
100
AcDbEntity
8
0
100
AcDbLine
10
-45.46309376883152
20
21.060625039402861
30
4.4408920985006262e-15
11
-46.876480097850717
21
22.49880755476962
31
6.6613381477509392e-15
0
LINE
5
122
100
AcDbEntity
8
0
100
AcDbLine
10
-45.46309376883152
20
21.060625039402861
30
4.4408920985006262e-15
11
-45.463093768831477
21
12.768807994788016
31
3.6949610038305991e-15
0
ELLIPSE
5
123
100
AcDbEntity
8
0
100
AcDbEllipse
10
-45.943093768831474
20
12.768807994788014
30
6.6613381477509392e-15
11
0.48000000000000054
21
2.7738628387237579e-15
31
0.0
40
0.99999995477714276
41
4.7123889803847039
42
6.2831853071795862
0
LINE
5
124
100
AcDbEntity
8
0
100
AcDbLine
10
-2.4999999999999996
20
-2.4999999999999818
30
0
11
2.4999999999999996
21
2.4999999999999818
31
0
0
LINE
5
125
100
AcDbEntity
8
0
100
AcDbLine
10
2.4999999999999996
20
-2.4999999999999818
30
0
11
-2.4999999999999996
21
2.4999999999999818
31
0
0
LINE
5
126
100
AcDbEntity
8
0
100
AcDbLine
10
-1.9996674819625313
20
-64.829326729738469
30
0
11
2.0003325180374696
21
-60.829326729738462
31
0
0
LINE
5
127
100
AcDbEntity
8
0
100
AcDbLine
10
2.0003325180374696
20
-64.829326729738469
30
0
11
-1.9996674819625313
21
-60.829326729738462
31
0
0
LINE
5
128
100
AcDbEntity
8
0
100
AcDbLine
10
-1.9996674819625313
20
-59.496077474482306
30
0
11
2.0003325180374696
21
-55.496077474482306
31
0
0
LINE
5
129
100
AcDbEntity
8
0
100
AcDbLine
10
2.0003325180374696
20
-59.496077474482306
30
0
11
-1.9996674819625313
21
-55.496077474482306
31
0
0
LWPOLYLINE
5
130
100
AcDbEntity
8
0
100
AcDbPolyline
90
4
70
1
43
0.0
10
42.051404548910568
20
10.676003337123984
10
51.388952168280717
20
10.676003337123984
10
51.388952168280717
20
19.680067112945196
10
42.051404548910568
20
19.680067112945196
0
CIRCLE
5
131
100
AcDbEntity
8
0
100
AcDbCircle
10
-67.592790287153122
20
-13.445380967701858
30
0
40
2.2500000000001723
210
0
220
0
230
1
0
CIRCLE
5
132
100
AcDbEntity
8
0
100
AcDbCircle
10
-72.823562653429846
20
-14.485846282302061
30
0
40
2.2500000000004214
210
-0
220
0
230
1
0
CIRCLE
5
133
100
AcDbEntity
8
0
100
AcDbCircle
10
-73.892758522394018
20
-7.2781356131684145
30
0
40
2.250000000000429
210
0
220
0
230
1
0
CIRCLE
5
134
100
AcDbEntity
8
0
100
AcDbCircle
10
-68.585190320027237
20
-6.7553857725034483
30
0
40
2.2500000000001714
210
0
220
0
230
1
0
CIRCLE
5
135
100
AcDbEntity
8
0
100
AcDbCircle
10
-74.250326732896852
20
-0.00033251944636752484
30
0
40
2.2500000000004281
210
0
220
0
230
1
0
CIRCLE
5
136
100
AcDbEntity
8
0
100
AcDbCircle
10
-68.917077477640703
20
-0.00033251944636717329
30
0
40
2.2500000000001732
210
0
220
0
230
1
0
CIRCLE
5
137
100
AcDbEntity
8
0
100
AcDbCircle
10
-73.892823707604521
20
7.2774737766197308
30
0
40
2.2500000000004361
210
0
220
0
230
1
0
CIRCLE
5
138
100
AcDbEntity
8
0
100
AcDbCircle
10
-68.585255505237726
20
6.7547239359547628
30
0
40
2.2500000000001634
210
0
220
0
230
1
0
CIRCLE
5
139
100
AcDbEntity
8
0
100
AcDbCircle
10
-72.823692396081583
20
14.485194021945141
30
0
40
2.2500000000004232
210
0
220
0
230
1
0
CIRCLE
5
140
100
AcDbEntity
8
0
100
AcDbCircle
10
-67.592920029804858
20
13.44472870734494
30
0
40
2.2500000000001794
210
0
220
0
230
1
0
LINE
5
141
100
AcDbEntity
8
0
100
AcDbLine
10
-74.414552911099875
20
-16.076836539972092
30
0
11
-71.232572395759817
21
-12.894856024632034
31
0
0
LINE
5
142
100
AcDbEntity
8
0
100
AcDbLine
10
-69.18378054482298
20
-15.036371225371711
30
0
11
-66.001800029483263
21
-11.854390710032007
31
0
0
LINE
5
143
100
AcDbEntity
8
0
100
AcDbLine
10
-70.176180577697082
20
-8.3463760301733014
30
0
11
-66.994200062357379
21
-5.164395514833596
31
0
0
LINE
5
144
100
AcDbEntity
8
0
100
AcDbLine
10
-75.483748780064062
20
-8.8691258708384471
30
0
11
-72.301768264723989
21
-5.687145355498382
31
0
0
LINE
5
145
100
AcDbEntity
8
0
100
AcDbLine
10
-75.841316990566881
20
-1.5913227771164018
30
0
11
-72.659336475226809
21
1.5906577382236651
31
0
0
LINE
5
146
100
AcDbEntity
8
0
100
AcDbLine
10
-70.508067735310561
20
-1.5913227771162144
30
0
11
-67.32608721997083
21
1.5906577382234812
31
0
0
LINE
5
147
100
AcDbEntity
8
0
100
AcDbLine
10
-70.176245762907598
20
5.1637336782849381
30
0
11
-66.994265247567867
21
8.3457141936246018
31
0
0
LINE
5
148
100
AcDbEntity
8
0
100
AcDbLine
10
-75.483813965274564
20
5.6864835189496983
30
0
11
-72.301833449934463
21
8.8684640342897652
31
0
0
LINE
5
149
100
AcDbEntity
8
0
100
AcDbLine
10
-74.414682653751626
20
12.894203764275122
30
0
11
-71.23270213841154
21
16.076184279615163
31
0
0
LINE
5
150
100
AcDbEntity
8
0
100
AcDbLine
10
-69.183910287474731
20
11.853738449675095
30
0
11
-66.001929772134986
21
15.035718965014787
31
0
0
LINE
5
151
100
AcDbEntity
8
0
100
AcDbLine
10
-66.001929772135
20
11.853738449675074
30
0
11
-69.183910287474703
21
15.03571896501481
31
0
0
LINE
5
152
100
AcDbEntity
8
0
100
AcDbLine
10
-71.232702138411554
20
12.894203764275098
30
0
11
-74.414682653751612
21
16.076184279615173
31
0
0
LINE
5
153
100
AcDbEntity
8
0
100
AcDbLine
10
-72.301833449934477
20
5.6864835189496894
30
0
11
-75.48381396527455
21
8.8684640342897847
31
0
0
LINE
5
154
100
AcDbEntity
8
0
100
AcDbLine
10
-66.994265247567895
20
5.1637336782849053
30
0
11
-70.176245762907556
21
8.345714193624616
31
0
0
LINE
5
155
100
AcDbEntity
8
0
100
AcDbLine
10
-72.659336475226823
20
-1.5913227771164051
30
0
11
-75.841316990566881
21
1.5906577382236708
31
0
0
LINE
5
156
100
AcDbEntity
8
0
100
AcDbLine
10
-67.326087219970844
20
-1.5913227771162335
30
0
11
-70.508067735310533
21
1.5906577382234932
31
0
0
LINE
5
157
100
AcDbEntity
8
0
100
AcDbLine
10
-72.301768264723989
20
-8.8691258708384524
30
0
11
-75.483748780064047
21
-5.6871453554983731
31
0
0
LINE
5
158
100
AcDbEntity
8
0
100
AcDbLine
10
-66.994200062357393
20
-8.3463760301733068
30
0
11
-70.176180577697082
21
-5.1643955148335952
31
0
0
LINE
5
159
100
AcDbEntity
8
0
100
AcDbLine
10
-71.232572395759817
20
-16.076836539972096
30
0
11
-74.414552911099875
21
-12.894856024632029
31
0
0
LINE
5
160
100
AcDbEntity
8
0
100
AcDbLine
10
-66.001800029483263
20
-15.036371225371711
30
0
11
-69.18378054482298
21
-11.854390710032003
31
0
0
LINE
5
161
100
AcDbEntity
8
0
100
AcDbLine
10
-81.783725993534105
20
14.890011964513743
30
2.5695800925214524e-14
11
-81.486792471910903
21
15.153508612948672
31
2.5868854398196067e-14
0
LINE
5
162
100
AcDbEntity
8
0
100
AcDbLine
10
-81.525950329576915
20
14.85607515453653
30
2.5612479849836618e-14
11
-81.744568135868093
21
15.187445422925885
31
2.594278958323315e-14
0
LINE
5
163
100
AcDbEntity
8
0
100
AcDbLine
10
-77.659315370219048
20
14.347023004878324
30
2.4583942118371401e-14
11
-77.322724054140906
21
14.605298605624448
31
2.4601973638605993e-14
0
LINE
5
164
100
AcDbEntity
8
0
100
AcDbLine
10
-77.361881911806904
20
14.307865147212306
30
2.4489246399141636e-14
11
-77.620157512553035
21
14.644456463290465
31
2.4687283467494936e-14
0
LINE
5
165
100
AcDbEntity
8
0
100
AcDbLine
10
-78.489628212588173
20
5.7417815449426115
30
1.9949319973733282e-14
11
-78.74790381333429
21
6.0783728610207692
31
2.0147357042086582e-14
0
LINE
5
166
100
AcDbEntity
8
0
100
AcDbLine
10
-78.787061671000316
20
5.7809394026086274
30
2.0034629802622224e-14
11
-78.45047035492216
21
6.0392150033547534
31
2.0052661322856816e-14
0
LINE
5
167
100
AcDbEntity
8
0
100
AcDbLine
10
-82.872314436649347
20
6.6213618206561886
30
2.1402863157824796e-14
11
-82.653696630358155
21
6.2899915522668337
31
2.1211331302506409e-14
0
LINE
5
168
100
AcDbEntity
8
0
100
AcDbLine
10
-82.911472294315359
20
6.3239283622440476
30
2.1285266487543492e-14
11
-82.614538772692157
21
6.5874250106789747
31
2.131954208244689e-14
0
CIRCLE
5
169
100
AcDbEntity
8
0
100
AcDbCircle
10
67.592920029804858
20
13.44472870734494
30
0
40
2.2500000000001794
210
0
220
0
230
1
0
LINE
5
170
100
AcDbEntity
8
0
100
AcDbLine
10
69.183910287474731
20
11.853738449675095
30
0
11
66.001929772134986
21
15.035718965014787
31
0
0
LINE
5
171
100
AcDbEntity
8
0
100
AcDbLine
10
66.001929772135
20
11.853738449675074
30
0
11
69.183910287474703
21
15.03571896501481
31
0
0
LINE
5
172
100
AcDbEntity
8
0
100
AcDbLine
10
71.232702138411554
20
12.894203764275098
30
0
11
74.414682653751612
21
16.076184279615173
31
0
0
LINE
5
173
100
AcDbEntity
8
0
100
AcDbLine
10
74.414682653751626
20
12.894203764275122
30
0
11
71.23270213841154
21
16.076184279615163
31
0
0
CIRCLE
5
174
100
AcDbEntity
8
0
100
AcDbCircle
10
72.823692396081583
20
14.485194021945141
30
0
40
2.2500000000004232
210
0
220
0
230
1
0
CIRCLE
5
175
100
AcDbEntity
8
0
100
AcDbCircle
10
73.892823707604521
20
7.2774737766197308
30
0
40
2.2500000000004361
210
0
220
0
230
1
0
LINE
5
176
100
AcDbEntity
8
0
100
AcDbLine
10
72.301833449934477
20
5.6864835189496894
30
0
11
75.48381396527455
21
8.8684640342897847
31
0
0
LINE
5
177
100
AcDbEntity
8
0
100
AcDbLine
10
75.483813965274564
20
5.6864835189496983
30
0
11
72.301833449934463
21
8.8684640342897652
31
0
0
LINE
5
178
100
AcDbEntity
8
0
100
AcDbLine
10
66.994265247567895
20
5.1637336782849053
30
0
11
70.176245762907556
21
8.345714193624616
31
0
0
LINE
5
179
100
AcDbEntity
8
0
100
AcDbLine
10
70.176245762907598
20
5.1637336782849381
30
0
11
66.994265247567867
21
8.3457141936246018
31
0
0
CIRCLE
5
180
100
AcDbEntity
8
0
100
AcDbCircle
10
68.585255505237726
20
6.7547239359547628
30
0
40
2.2500000000001634
210
0
220
0
230
1
0
CIRCLE
5
181
100
AcDbEntity
8
0
100
AcDbCircle
10
68.917077477640703
20
-0.00033251944636717329
30
0
40
2.2500000000001732
210
0
220
0
230
1
0
LINE
5
182
100
AcDbEntity
8
0
100
AcDbLine
10
67.326087219970844
20
-1.5913227771162335
30
0
11
70.508067735310533
21
1.5906577382234932
31
0
0
LINE
5
183
100
AcDbEntity
8
0
100
AcDbLine
10
70.508067735310561
20
-1.5913227771162144
30
0
11
67.32608721997083
21
1.5906577382234812
31
0
0
CIRCLE
5
184
100
AcDbEntity
8
0
100
AcDbCircle
10
74.250326732896852
20
-0.00033251944636752484
30
0
40
2.2500000000004281
210
0
220
0
230
1
0
LINE
5
185
100
AcDbEntity
8
0
100
AcDbLine
10
75.841316990566881
20
-1.5913227771164018
30
0
11
72.659336475226809
21
1.5906577382236651
31
0
0
LINE
5
186
100
AcDbEntity
8
0
100
AcDbLine
10
72.659336475226823
20
-1.5913227771164051
30
0
11
75.841316990566881
21
1.5906577382236708
31
0
0
CIRCLE
5
187
100
AcDbEntity
8
0
100
AcDbCircle
10
73.892758522394018
20
-7.2781356131684145
30
0
40
2.250000000000429
210
0
220
0
230
1
0
LINE
5
188
100
AcDbEntity
8
0
100
AcDbLine
10
75.483748780064062
20
-8.8691258708384471
30
0
11
72.301768264723989
21
-5.687145355498382
31
0
0
LINE
5
189
100
AcDbEntity
8
0
100
AcDbLine
10
72.301768264723989
20
-8.8691258708384524
30
0
11
75.483748780064047
21
-5.6871453554983731
31
0
0
LINE
5
190
100
AcDbEntity
8
0
100
AcDbLine
10
66.994200062357393
20
-8.3463760301733068
30
0
11
70.176180577697082
21
-5.1643955148335952
31
0
0
LINE
5
191
100
AcDbEntity
8
0
100
AcDbLine
10
70.176180577697082
20
-8.3463760301733014
30
0
11
66.994200062357379
21
-5.164395514833596
31
0
0
CIRCLE
5
192
100
AcDbEntity
8
0
100
AcDbCircle
10
68.585190320027237
20
-6.7553857725034483
30
0
40
2.2500000000001714
210
0
220
0
230
1
0
LINE
5
193
100
AcDbEntity
8
0
100
AcDbLine
10
66.001800029483263
20
-15.036371225371711
30
0
11
69.18378054482298
21
-11.854390710032003
31
0
0
LINE
5
194
100
AcDbEntity
8
0
100
AcDbLine
10
69.18378054482298
20
-15.036371225371711
30
0
11
66.001800029483263
21
-11.854390710032007
31
0
0
CIRCLE
5
195
100
AcDbEntity
8
0
100
AcDbCircle
10
67.592790287153122
20
-13.445380967701858
30
0
40
2.2500000000001723
210
0
220
0
230
1
0
LINE
5
196
100
AcDbEntity
8
0
100
AcDbLine
10
74.414552911099875
20
-16.076836539972092
30
0
11
71.232572395759817
21
-12.894856024632034
31
0
0
LINE
5
197
100
AcDbEntity
8
0
100
AcDbLine
10
71.232572395759817
20
-16.076836539972096
30
0
11
74.414552911099875
21
-12.894856024632029
31
0
0
CIRCLE
5
198
100
AcDbEntity
8
0
100
AcDbCircle
10
72.823562653429846
20
-14.485846282302061
30
0
40
2.2500000000004214
210
-0
220
0
230
1
0
ENDSEC
0
SECTION
2
OBJECTS
0
DICTIONARY
5
C
100
AcDbDictionary
3
ACAD_GROUP
350
D
3
ACAD_MLINESTYLE
350
17
0
DICTIONARY
5
D
100
AcDbDictionary
0
DICTIONARY
5
1A
330
C
100
AcDbDictionary
0
DICTIONARY
5
17
100
AcDbDictionary
0
ENDSEC
0
EOF
