0
SECTION
2
HEADER
9
$INSUNITS
70
4
9
$ACADVER
1
AC1014
9
$HANDSEED
5
FFFF
0
ENDSEC
0
SECTION
2
TABLES
0
TABLE
2
VPORT
5
8
100
AcDbSymbolTable
0
ENDTAB
0
TABLE
2
LTYPE
5
5
100
AcDbSymbolTable
0
LTYPE
5
14
100
AcDbSymbolTableRecord
100
AcDbLinetypeTableRecord
2
BYBLOCK
70
0
0
LTYPE
5
15
100
AcDbSymbolTableRecord
100
AcDbLinetypeTableRecord
2
BYLAYER
70
0
0
LTYPE
5
16
100
AcDbSymbolTableRecord
100
AcDbLinetypeTableRecord
2
DASHED
70
0
3
Dashed __ __ __ __ __ __ __ __ __ __ __ __ __ _
72
65
73
2
40
0.75
49
0.5
74
0
49
-0.25
74
0
0
ENDTAB
0
TABLE
2
LAYER
5
2
100
AcDbSymbolTable
70
2
0
LAYER
5
50
100
AcDbSymbolTableRecord
100
AcDbLayerTableRecord
2
0
70
0
62
7
6
CONTINUOUS
0
ENDTAB
0
TABLE
2
STYLE
5
3
100
AcDbSymbolTable
70
1
0
STYLE
5
11
100
AcDbSymbolTableRecord
100
AcDbTextStyleTableRecord
2
STANDARD
70
0
0
ENDTAB
0
TABLE
2
VIEW
5
6
100
AcDbSymbolTable
70
0
0
ENDTAB
0
TABLE
2
UCS
5
7
100
AcDbSymbolTable
70
0
0
ENDTAB
0
TABLE
2
APPID
5
9
100
AcDbSymbolTable
70
2
0
APPID
5
12
100
AcDbSymbolTableRecord
100
AcDbRegAppTableRecord
2
ACAD
70
0
0
ENDTAB
0
TABLE
2
DIMSTYLE
5
A
100
AcDbSymbolTable
70
1
0
ENDTAB
0
TABLE
2
BLOCK_RECORD
5
1
100
AcDbSymbolTable
70
1
0
BLOCK_RECORD
5
1F
100
AcDbSymbolTableRecord
100
AcDbBlockTableRecord
2
*MODEL_SPACE
0
BLOCK_RECORD
5
1B
100
AcDbSymbolTableRecord
100
AcDbBlockTableRecord
2
*PAPER_SPACE
0
ENDTAB
0
ENDSEC
0
SECTION
2
BLOCKS
0
BLOCK
5
20
100
AcDbEntity
100
AcDbBlockBegin
2
*MODEL_SPACE
0
ENDBLK
5
21
100
AcDbEntity
100
AcDbBlockEnd
0
BLOCK
5
1C
100
AcDbEntity
100
AcDbBlockBegin
2
*PAPER_SPACE
0
ENDBLK
5
1D
100
AcDbEntity
100
AcDbBlockEnd
0
ENDSEC
0
SECTION
2
ENTITIES
0
POINT
5
100
100
AcDbEntity
8
0
100
AcDbPoint
10
-52.990198591306012
20
21.817718287816259
30
4.4408920985006262e-15
0
POINT
5
101
100
AcDbEntity
8
0
100
AcDbPoint
10
-58.163923973369265
20
23.960745509060683
30
4.9960036108132044e-15
0
POINT
5
102
100
AcDbEntity
8
0
100
AcDbPoint
10
0
20
0
30
0
0
POINT
5
103
100
AcDbEntity
8
0
100
AcDbPoint
10
46.720178358595639
20
15.17803522503459
30
0
0
CIRCLE
5
104
100
AcDbEntity
8
0
100
AcDbCircle
10
67.054492575335729
20
19.718770172495454
30
0
40
1.6500000000000004
210
-0
220
0
230
1
0
CIRCLE
5
105
100
AcDbEntity
8
0
100
AcDbCircle
10
67.056207981042832
20
-19.717735511652151
30
0
40
1.6500000000000004
210
-0
220
0
230
1
0
CIRCLE
5
106
100
AcDbEntity
8
0
100
AcDbCircle
10
-67.056207981042832
20
19.717735511652158
30
0
40
1.6500000000000004
210
-0
220
0
230
1
0
CIRCLE
5
107
100
AcDbEntity
8
0
100
AcDbCircle
10
-67.054492575335729
20
-19.718770172495447
30
0
40
1.6500000000000004
210
-0
220
0
230
1
0
LINE
5
108
100
AcDbEntity
8
0
100
AcDbLine
10
72.629566247662098
20
18.010392711823133
30
0
11
73.25480786124561
21
18.165437655393553
31
0
0
ARC
5
109
100
AcDbEntity
8
0
100
AcDbCircle
10
0
20
0
30
0
40
77.499999999999986
210
-0
220
0
230
1
100
AcDbArc
50
-12.409102468990296
51
12.409102468990277
0
LINE
5
110
100
AcDbEntity
8
0
100
AcDbLine
10
73.254807861245581
20
-18.165437655393561
30
0
11
72.630483545842452
21
-18.010620179799556
31
0
0
LINE
5
111
100
AcDbEntity
8
0
100
AcDbLine
10
70.207678011296807
20
-19.471370020942022
30
0
11
69.968357425777413
21
-20.438419639083946
31
0
0
ARC
5
112
100
AcDbEntity
8
0
100
AcDbCircle
10
67.056207981042832
20
-19.717735511652151
30
0
40
3.0000000000000004
210
0
220
0
230
1
100
AcDbArc
50
256.09999999999997
51
346.09999999999997
0
LINE
5
113
100
AcDbEntity
8
0
100
AcDbLine
10
64.908385325268569
20
-22.276703876726668
30
0
11
66.335523853611036
21
-22.629884956386725
31
0
0
ARC
5
114
100
AcDbEntity
8
0
100
AcDbCircle
10
0
20
8.8817841970012523e-15
30
0
40
66.829326730618362
210
0
220
0
230
1
100
AcDbArc
50
200.6015963098998
51
339.3990101546654
0
LINE
5
115
100
AcDbEntity
8
0
100
AcDbLine
10
-64.909045463875515
20
-22.277612869397725
30
0
11
-66.332433718251821
21
-22.630579061640933
31
0
0
ARC
5
116
100
AcDbEntity
8
0
100
AcDbCircle
10
-67.054492575335729
20
-19.718770172495447
30
0
40
3
210
0
220
0
230
1
100
AcDbArc
50
193.92704902784638
51
283.92704902784652
0
LINE
5
117
100
AcDbEntity
8
0
100
AcDbLine
10
-70.207896710090168
20
-19.466560551549044
30
0
11
-69.966301464481219
21
-20.440829029579351
31
0
0
LINE
5
118
100
AcDbEntity
8
0
100
AcDbLine
10
-72.629566247662098
20
-18.010392711823123
30
0
11
-73.254807861245638
21
-18.165437655393543
31
0
0
LINE
5
119
100
AcDbEntity
8
0
100
AcDbLine
10
-73.256601525128687
20
18.161677565647707
30
0
11
-72.630474396105924
21
18.006726766426112
31
0
0
LINE
5
120
100
AcDbEntity
8
0
100
AcDbLine
10
-70.208585347720913
20
19.467703644560128
30
0
11
-69.968357425777413
21
20.438419639083953
31
0
0
ARC
5
121
100
AcDbEntity
8
0
100
AcDbCircle
10
-67.056207981042832
20
19.717735511652158
30
0
40
3.0000000000000004
210
0
220
-0
230
1
100
AcDbArc
50
76.099999999999923
51
166.09999999999997
0
LINE
5
122
100
AcDbEntity
8
0
100
AcDbLine
10
-64.90838532526854
20
22.276703876726671
30
0
11
-66.335523853611036
21
22.629884956386732
31
0
0
ARC
5
123
100
AcDbEntity
8
0
100
AcDbCircle
10
0
20
8.8817841970012523e-15
30
0
40
66.829326730618334
210
0
220
-0
230
1
100
AcDbArc
50
20.601596309899818
51
159.39901015466543
0
LINE
5
124
100
AcDbEntity
8
0
100
AcDbLine
10
64.909045463875486
20
22.277612869397728
30
0
11
66.332433718251821
21
22.630579061640944
31
0
0
ARC
5
125
100
AcDbEntity
8
0
100
AcDbCircle
10
67.054492575335729
20
19.718770172495454
30
0
40
3
210
0
220
-0
230
1
100
AcDbArc
50
13.927049027846373
51
103.92704902784646
0
LINE
5
126
100
AcDbEntity
8
0
100
AcDbLine
10
70.206987750175855
20
19.470226066530859
30
0
11
69.966301464481219
21
20.440829029579358
31
0
0
ARC
5
127
100
AcDbEntity
8
0
100
AcDbCircle
10
72.14819367627284
20
19.951598637920128
30
0
40
1.9999999999999882
210
0
220
0
230
1
100
AcDbArc
50
193.92704902784644
51
283.92704902784607
0
ARC
5
128
100
AcDbEntity
8
0
100
AcDbCircle
10
73.736180432634882
20
16.224231729296577
30
0
40
1.9999999999999849
210
0
220
-0
230
1
100
AcDbArc
50
12.40910246898995
51
103.92704902784659
0
ARC
5
129
100
AcDbEntity
8
0
100
AcDbCircle
10
64.427672892486214
20
24.218818795494709
30
0
40
1.9999999999999951
210
0
220
0
230
1
100
AcDbArc
50
200.60159630989961
51
283.92704902784658
0
ARC
5
130
100
AcDbEntity
8
0
100
AcDbCircle
10
73.736180432634853
20
-16.224231729296555
30
0
40
2.0000000000000111
210
0
220
0
230
1
100
AcDbArc
50
256.07295097215359
51
347.59089753100915
0
ARC
5
131
100
AcDbEntity
8
0
100
AcDbCircle
10
72.14911097445318
20
-19.951826105896544
30
0
40
1.999999999999994
210
0
220
-0
230
1
100
AcDbArc
50
76.072950972153492
51
166.10000000000016
0
ARC
5
132
100
AcDbEntity
8
0
100
AcDbCircle
10
64.427929240314043
20
-24.218136839883016
30
0
40
1.9999999999999716
210
0
220
-0
230
1
100
AcDbArc
50
76.099999999999824
51
159.39901015466708
0
ARC
5
133
100
AcDbEntity
8
0
100
AcDbCircle
10
-64.427672892486243
20
-24.218818795494727
30
0
40
2.0000000000000044
210
0
220
-0
230
1
100
AcDbArc
50
20.601596309900415
51
103.92704902784641
0
ARC
5
134
100
AcDbEntity
8
0
100
AcDbCircle
10
-64.427929240314029
20
24.218136839883051
30
0
40
1.9999999999999996
210
0
220
0
230
1
100
AcDbArc
50
256.10000000000048
51
339.3990101546654
0
ARC
5
135
100
AcDbEntity
8
0
100
AcDbCircle
10
-72.1500183108773
20
19.948159729514668
30
0
40
2.0000000000000089
210
0
220
0
230
1
100
AcDbArc
50
256.09999999191086
51
346.09999999999968
0
ARC
5
136
100
AcDbEntity
8
0
100
AcDbCircle
10
-73.73705761035734
20
16.22024460255918
30
0
40
1.9999999999999851
210
0
220
-0
230
1
100
AcDbArc
50
76.099999991909868
51
136.10075427365521
0
CIRCLE
5
137
100
AcDbEntity
8
0
100
AcDbCircle
10
-6.5
20
-31.87867973094616
30
0
40
1.5999999999999996
210
0
220
0
230
1
0
CIRCLE
5
138
100
AcDbEntity
8
0
100
AcDbCircle
10
6.5
20
-31.87867973094616
30
0
40
1.6000000000000003
210
0
220
0
230
1
0
LWPOLYLINE
5
139
100
AcDbEntity
8
0
100
AcDbPolyline
90
14
70
1
43
0.0
10
45.079390260296123
20
2.1000000521540936
10
45.079390260296123
20
1.1000000521540931
10
45.079390260296123
20
-5.0999999478459053
10
45.079390260296123
20
-26.099999947845902
42
-0.41421356237309176
10
43.079390260296137
20
-28.099999947845905
10
39.079390260296123
20
-28.099999947845905
42
-0.4142135623730957
10
37.079390260296123
20
-26.099999947845905
10
37.079390260296123
20
-5.0999999478459053
10
37.079390260296123
20
1.1000000521540931
10
37.079390260296123
20
2.100000052154094
42
-0.41421356237309692
10
39.079390260296137
20
4.1000000521540949
10
40.47018435034132
20
4.100000052154094
10
41.688596170250946
20
4.100000052154094
10
43.079390260296123
20
4.100000052154094
42
-0.41421356237309226
0
ELLIPSE
5
140
100
AcDbEntity
8
0
100
AcDbEllipse
10
-48.068093768831488
20
14.894406375152393
30
6.6613381477509392e-15
11
-1.0000000000000013
21
5.4040115087123376e-11
31
0.0
40
0.99999995477714132
41
0
42
6.2831853071795862
0
ELLIPSE
5
141
100
AcDbEntity
8
0
100
AcDbEllipse
10
-48.068093768831517
20
19.894406149038115
30
6.6613381477509392e-15
11
-1.0000000000000013
21
-3.6551630739452174e-10
31
0.0
40
0.99999995477714132
41
0
42
6.2831853071795862
0
LINE
5
142
100
AcDbEntity
8
0
100
AcDbLine
10
-45.943093768831467
20
12.288808016494983
30
6.6613381477509392e-15
11
-50.193093768831474
21
12.288808016494958
31
7.2908951450474392e-15
0
ELLIPSE
5
143
100
AcDbEntity
8
0
100
AcDbEllipse
10
-50.193093768831474
20
12.76880799478799
30
6.6613381477509392e-15
11
-0.48000000000000054
21
-2.7150797950230221e-15
31
0.0
40
0.99999995477714143
41
0
42
1.5707963267948966
0
LINE
5
144
100
AcDbEntity
8
0
100
AcDbLine
10
-50.673093768831478
20
12.768807994787988
30
6.7324410556808974e-15
11
-50.673093768831521
21
21.060625039402829
31
7.4072692424209663e-15
0
LINE
5
145
100
AcDbEntity
8
0
100
AcDbLine
10
-49.259707439812345
20
22.498807554769613
30
6.6613381477509392e-15
11
-50.673093768831521
21
21.060625039402829
31
7.4072692424209663e-15
0
LINE
5
146
100
AcDbEntity
8
0
100
AcDbLine
10
-46.876480097850717
20
22.49880755476962
30
6.6613381477509392e-15
11
-49.259707439812345
21
22.498807554769613
31
6.6613381477509392e-15
0
LINE
5
147
100
AcDbEntity
8
0
100
AcDbLine
10
-45.46309376883152
20
21.060625039402861
30
4.4408920985006262e-15
11
-46.876480097850717
21
22.49880755476962
31
6.6613381477509392e-15
0
LINE
5
148
100
AcDbEntity
8
0
100
AcDbLine
10
-45.46309376883152
20
21.060625039402861
30
4.4408920985006262e-15
11
-45.463093768831477
21
12.768807994788016
31
3.6949610038305991e-15
0
ELLIPSE
5
149
100
AcDbEntity
8
0
100
AcDbEllipse
10
-45.943093768831474
20
12.768807994788014
30
6.6613381477509392e-15
11
0.48000000000000054
21
2.7738628387237579e-15
31
0.0
40
0.99999995477714276
41
4.7123889803847039
42
6.2831853071795862
0
LINE
5
150
100
AcDbEntity
8
0
100
AcDbLine
10
-2.4999999999999996
20
-2.4999999999999818
30
0
11
2.4999999999999996
21
2.4999999999999818
31
0
0
LINE
5
151
100
AcDbEntity
8
0
100
AcDbLine
10
2.4999999999999996
20
-2.4999999999999818
30
0
11
-2.4999999999999996
21
2.4999999999999818
31
0
0
LWPOLYLINE
5
152
100
AcDbEntity
8
0
100
AcDbPolyline
90
4
70
1
43
0.0
10
42.051404548910568
20
10.676003337123984
10
51.388952168280717
20
10.676003337123984
10
51.388952168280717
20
19.680067112945196
10
42.051404548910568
20
19.680067112945196
0
LINE
5
153
100
AcDbEntity
8
0
100
AcDbLine
10
-80.102949652092377
20
3.9129107560783232
30
0
11
-83.63998215165212
21
4.3785699186931515
31
0
0
LINE
5
154
100
AcDbEntity
8
0
100
AcDbLine
10
-77.731437386752475
20
16.712871730829168
30
0
11
-81.951106465322297
21
17.268401704015208
31
0
0
ARC
5
155
100
AcDbEntity
8
0
100
AcDbCircle
10
-77.339858810092309
20
19.687206314950572
30
0
40
2.9999999999999796
210
0
220
0
230
1
100
AcDbArc
50
262.49999999999972
51
316.10075427365598
0
ARC
5
156
100
AcDbEntity
8
0
100
AcDbCircle
10
-80.494528228752515
20
0.93857617195691467
30
0
40
2.9999999999999751
210
-0
220
0
230
1
100
AcDbArc
50
-0.66804561334736445
51
82.500000000000284
0
LINE
5
157
100
AcDbEntity
8
0
100
AcDbLine
10
-84.195280801907558
20
15.544794304074291
30
0
11
-85.362051719357169
21
6.6207419642474727
31
0
0
ARC
5
158
100
AcDbEntity
8
0
100
AcDbCircle
10
-82.212158849762403
20
15.285511981267588
30
0
40
2
210
0
220
-0
230
1
100
AcDbArc
50
82.499999999999915
51
172.55114309419727
0
ARC
5
159
100
AcDbEntity
8
0
100
AcDbCircle
10
-83.378929767212057
20
6.3614596414407565
30
0
40
1.999999999999968
210
0
220
0
230
1
100
AcDbArc
50
172.55114309419676
51
262.50000000000108
0
LINE
5
160
100
AcDbEntity
8
0
100
AcDbLine
10
-81.783725993534105
20
14.890011964513743
30
2.5695800925214524e-14
11
-81.486792471910903
21
15.153508612948672
31
2.5868854398196067e-14
0
LINE
5
161
100
AcDbEntity
8
0
100
AcDbLine
10
-81.525950329576915
20
14.85607515453653
30
2.5612479849836618e-14
11
-81.744568135868093
21
15.187445422925885
31
2.594278958323315e-14
0
LINE
5
162
100
AcDbEntity
8
0
100
AcDbLine
10
-77.659315370219048
20
14.347023004878324
30
2.4583942118371401e-14
11
-77.322724054140906
21
14.605298605624448
31
2.4601973638605993e-14
0
LINE
5
163
100
AcDbEntity
8
0
100
AcDbLine
10
-77.361881911806904
20
14.307865147212306
30
2.4489246399141636e-14
11
-77.620157512553035
21
14.644456463290465
31
2.4687283467494936e-14
0
LINE
5
164
100
AcDbEntity
8
0
100
AcDbLine
10
-78.489628212588173
20
5.7417815449426115
30
1.9949319973733282e-14
11
-78.74790381333429
21
6.0783728610207692
31
2.0147357042086582e-14
0
LINE
5
165
100
AcDbEntity
8
0
100
AcDbLine
10
-78.787061671000316
20
5.7809394026086274
30
2.0034629802622224e-14
11
-78.45047035492216
21
6.0392150033547534
31
2.0052661322856816e-14
0
LINE
5
166
100
AcDbEntity
8
0
100
AcDbLine
10
-82.872314436649347
20
6.6213618206561886
30
2.1402863157824796e-14
11
-82.653696630358155
21
6.2899915522668337
31
2.1211331302506409e-14
0
LINE
5
167
100
AcDbEntity
8
0
100
AcDbLine
10
-82.911472294315359
20
6.3239283622440476
30
2.1285266487543492e-14
11
-82.614538772692157
21
6.5874250106789747
31
2.131954208244689e-14
0
CIRCLE
5
168
100
AcDbEntity
8
0
100
AcDbCircle
10
0.0003351642383275788
20
-63.329326729731477
30
0
40
1.9999999999999982
210
0
220
0
230
1
0
CIRCLE
5
169
100
AcDbEntity
8
0
100
AcDbCircle
10
0.00030340982795529214
20
-57.329326729815513
30
0
40
1.999999999999996
210
0
220
0
230
1
0
CIRCLE
5
170
100
AcDbEntity
8
0
100
AcDbCircle
10
67.741239470238682
20
5.9265905068407401
30
0
40
2
210
0
220
0
230
1
0
CIRCLE
5
171
100
AcDbEntity
8
0
100
AcDbCircle
10
73.718407658789161
20
6.4495249633266898
30
0
40
1.9999999999999993
210
0
220
0
230
1
0
CIRCLE
5
172
100
AcDbEntity
8
0
100
AcDbCircle
10
66.966927204830128
20
11.808076081351244
30
0
40
2
210
0
220
0
230
1
0
CIRCLE
5
173
100
AcDbEntity
8
0
100
AcDbCircle
10
72.875773722903389
20
12.84996514735283
30
0
40
1.9999999999999993
210
0
220
0
230
1
0
CIRCLE
5
174
100
AcDbEntity
8
0
100
AcDbCircle
10
73.718407658789161
20
-6.4495249633266898
30
0
40
1.9999999999999993
210
0
220
0
230
1
0
CIRCLE
5
175
100
AcDbEntity
8
0
100
AcDbCircle
10
67.741239470238682
20
-5.9265905068407401
30
0
40
2
210
0
220
0
230
1
0
CIRCLE
5
176
100
AcDbEntity
8
0
100
AcDbCircle
10
66.966927204830128
20
-11.808076081351244
30
0
40
2
210
0
220
0
230
1
0
CIRCLE
5
177
100
AcDbEntity
8
0
100
AcDbCircle
10
72.875773722903389
20
-12.84996514735283
30
0
40
1.9999999999999993
210
0
220
0
230
1
0
LINE
5
178
100
AcDbEntity
8
0
100
AcDbLine
10
-77.731437386752475
20
-16.712871730829168
30
0
11
-81.951106465322297
21
-17.268401704015208
31
0
0
ARC
5
179
100
AcDbEntity
8
0
100
AcDbCircle
10
-82.212158849762403
20
-15.285511981267588
30
0
40
2.0000000000000013
210
0
220
0
230
1
100
AcDbArc
50
187.4488569058027
51
277.50000000000011
0
LINE
5
180
100
AcDbEntity
8
0
100
AcDbLine
10
-84.195280801907558
20
-15.544794304074291
30
0
11
-85.362051719357169
21
-6.6207419642474727
31
0
0
ARC
5
181
100
AcDbEntity
8
0
100
AcDbCircle
10
-73.73705761035734
20
-16.22024460255918
30
0
40
1.9999999999999798
210
0
220
0
230
1
100
AcDbArc
50
223.89924572634476
51
283.9000000080901
0
LINE
5
182
100
AcDbEntity
8
0
100
AcDbLine
10
-73.256601525128687
20
-18.161677565647707
30
0
11
-72.629558721415805
21
-18.006500159849772
31
0
0
ARC
5
183
100
AcDbEntity
8
0
100
AcDbCircle
10
-77.339858810092309
20
-19.687206314950572
30
0
40
2.9999999999999831
210
0
220
-0
230
1
100
AcDbArc
50
43.89924572634402
51
97.50000000000027
0
ARC
5
184
100
AcDbEntity
8
0
100
AcDbCircle
10
0
20
8.8817841970012523e-15
30
0
40
85.618421486823465
210
0
220
0
230
1
100
AcDbArc
50
175.56497722297513
51
184.43502277702487
0
ARC
5
185
100
AcDbEntity
8
0
100
AcDbCircle
10
-72.14910263618718
20
-19.947933122938334
30
0
40
2.0000000000000191
210
0
220
-0
230
1
100
AcDbArc
50
13.927049027846795
51
103.90000000808909
0
CIRCLE
5
186
100
AcDbEntity
8
0
100
AcDbCircle
10
-72.875773722903389
20
12.849965147352833
30
0
40
1.9999999999999993
210
0
220
0
230
1
0
CIRCLE
5
187
100
AcDbEntity
8
0
100
AcDbCircle
10
-66.966927204830128
20
11.808076081351242
30
0
40
2
210
0
220
0
230
1
0
CIRCLE
5
188
100
AcDbEntity
8
0
100
AcDbCircle
10
-73.718407658789161
20
6.4495249633266916
30
0
40
1.9999999999999993
210
0
220
0
230
1
0
CIRCLE
5
189
100
AcDbEntity
8
0
100
AcDbCircle
10
-67.741239470238682
20
5.9265905068407321
30
0
40
2
210
0
220
0
230
1
0
CIRCLE
5
190
100
AcDbEntity
8
0
100
AcDbCircle
10
-73.718407658789161
20
-6.4495249633266916
30
0
40
1.9999999999999993
210
0
220
0
230
1
0
CIRCLE
5
191
100
AcDbEntity
8
0
100
AcDbCircle
10
-67.741239470238682
20
-5.9265905068407321
30
0
40
2
210
0
220
0
230
1
0
CIRCLE
5
192
100
AcDbEntity
8
0
100
AcDbCircle
10
-72.875773722903389
20
-12.849965147352833
30
0
40
1.9999999999999993
210
0
220
0
230
1
0
CIRCLE
5
193
100
AcDbEntity
8
0
100
AcDbCircle
10
-66.966927204830128
20
-11.808076081351242
30
0
40
2
210
0
220
0
230
1
0
CIRCLE
5
194
100
AcDbEntity
8
0
100
AcDbCircle
10
63.329326729731491
20
0.00033516423830296307
30
-3.6082248300317588e-15
40
1.9999999999999982
210
5.5511151231257802e-17
220
-5.5511151231257827e-17
230
1
0
ENDSEC
0
SECTION
2
OBJECTS
0
DICTIONARY
5
C
100
AcDbDictionary
3
ACAD_GROUP
350
D
3
ACAD_MLINESTYLE
350
17
0
DICTIONARY
5
D
100
AcDbDictionary
0
DICTIONARY
5
1A
330
C
100
AcDbDictionary
0
DICTIONARY
5
17
100
AcDbDictionary
0
ENDSEC
0
EOF
