0
SECTION
2
HEADER
9
$INSUNITS
70
4
9
$ACADVER
1
AC1014
9
$HANDSEED
5
FFFF
0
ENDSEC
0
SECTION
2
TABLES
0
TABLE
2
VPORT
5
8
100
AcDbSymbolTable
0
ENDTAB
0
TABLE
2
LTYPE
5
5
100
AcDbSymbolTable
0
LTYPE
5
14
100
AcDbSymbolTableRecord
100
AcDbLinetypeTableRecord
2
BYBLOCK
70
0
0
LTYPE
5
15
100
AcDbSymbolTableRecord
100
AcDbLinetypeTableRecord
2
BYLAYER
70
0
0
LTYPE
5
16
100
AcDbSymbolTableRecord
100
AcDbLinetypeTableRecord
2
DASHED
70
0
3
Dashed __ __ __ __ __ __ __ __ __ __ __ __ __ _
72
65
73
2
40
0.75
49
0.5
74
0
49
-0.25
74
0
0
ENDTAB
0
TABLE
2
LAYER
5
2
100
AcDbSymbolTable
70
2
0
LAYER
5
50
100
AcDbSymbolTableRecord
100
AcDbLayerTableRecord
2
0
70
0
62
7
6
CONTINUOUS
0
ENDTAB
0
TABLE
2
STYLE
5
3
100
AcDbSymbolTable
70
1
0
STYLE
5
11
100
AcDbSymbolTableRecord
100
AcDbTextStyleTableRecord
2
STANDARD
70
0
0
ENDTAB
0
TABLE
2
VIEW
5
6
100
AcDbSymbolTable
70
0
0
ENDTAB
0
TABLE
2
UCS
5
7
100
AcDbSymbolTable
70
0
0
ENDTAB
0
TABLE
2
APPID
5
9
100
AcDbSymbolTable
70
2
0
APPID
5
12
100
AcDbSymbolTableRecord
100
AcDbRegAppTableRecord
2
ACAD
70
0
0
ENDTAB
0
TABLE
2
DIMSTYLE
5
A
100
AcDbSymbolTable
70
1
0
ENDTAB
0
TABLE
2
BLOCK_RECORD
5
1
100
AcDbSymbolTable
70
1
0
BLOCK_RECORD
5
1F
100
AcDbSymbolTableRecord
100
AcDbBlockTableRecord
2
*MODEL_SPACE
0
BLOCK_RECORD
5
1B
100
AcDbSymbolTableRecord
100
AcDbBlockTableRecord
2
*PAPER_SPACE
0
ENDTAB
0
ENDSEC
0
SECTION
2
BLOCKS
0
BLOCK
5
20
100
AcDbEntity
100
AcDbBlockBegin
2
*MODEL_SPACE
0
ENDBLK
5
21
100
AcDbEntity
100
AcDbBlockEnd
0
BLOCK
5
1C
100
AcDbEntity
100
AcDbBlockBegin
2
*PAPER_SPACE
0
ENDBLK
5
1D
100
AcDbEntity
100
AcDbBlockEnd
0
ENDSEC
0
SECTION
2
ENTITIES
0
POINT
5
100
100
AcDbEntity
8
0
100
AcDbPoint
10
0
20
0
30
0
0
CIRCLE
5
101
100
AcDbEntity
8
0
100
AcDbCircle
10
0
20
0
30
0
40
25
210
0
220
0
230
1
0
CIRCLE
5
102
100
AcDbEntity
8
0
100
AcDbCircle
10
0
20
0
30
0
40
27
210
0
220
0
230
1
0
LWPOLYLINE
5
103
100
AcDbEntity
8
0
100
AcDbPolyline
90
8
70
1
43
0.0
10
-0.24748737341528396
20
12.268302653586735
10
-12.268302653586584
20
0.24748737341544674
42
0.41421356237309509
10
-12.268302653586588
20
-3.9951533137038364
10
-3.9951533137039985
20
-12.26830265358644
42
0.41421356237309509
10
0.2474873734152859
20
-12.268302653586442
10
12.268302653586591
20
-0.24748737341515392
42
0.4142135623730952
10
12.268302653586593
20
3.99515331370413
10
3.9951533137039972
20
12.268302653586733
42
0.41421356237309509
0
LWPOLYLINE
5
104
100
AcDbEntity
8
0
100
AcDbPolyline
90
8
70
1
43
0.0
10
0.95459415460183539
20
-12.975409434772994
10
12.975409434773137
20
-0.95459415460170205
42
0.41421356237309531
10
12.975409434773139
20
4.7022600948906748
10
4.7022600948905477
20
12.975409434773281
42
0.4142135623730952
10
-0.95459415460183006
20
12.975409434773281
10
-12.97540943477313
20
0.95459415460199626
42
0.41421356237309515
10
-12.975409434773137
20
-4.7022600948903834
10
-4.7022600948905477
20
-12.975409434772992
42
0.41421356237309509
0
CIRCLE
5
105
100
AcDbEntity
8
0
100
AcDbCircle
10
35.279999999999433
20
-3.8099999998499761
30
0
40
0.49999999999999994
210
0
220
0
230
1
0
CIRCLE
5
106
100
AcDbEntity
8
0
100
AcDbCircle
10
35.279999999999681
20
3.810000000150052
30
0
40
0.49999999999999989
210
0
220
0
230
1
0
CIRCLE
5
107
100
AcDbEntity
8
0
100
AcDbCircle
10
0
20
44
30
0
40
3.0000007003545726
210
0
220
0
230
1
0
CIRCLE
5
108
100
AcDbEntity
8
0
100
AcDbCircle
10
-47
20
0
30
0
40
3.0000000000000009
210
0
220
0
230
1
0
LWPOLYLINE
5
109
100
AcDbEntity
8
0
100
AcDbPolyline
90
4
70
1
43
0.0
10
-53.845722157604911
20
14.841836696800264
10
-47.596766229378687
20
12.567402743684294
10
-44.539106148046848
20
20.968254773510218
10
-50.788062076273064
20
23.242688726626184
0
LWPOLYLINE
5
110
100
AcDbEntity
8
0
100
AcDbPolyline
90
4
70
1
43
0.0
10
-48.169628959423235
20
28.272412700102798
10
-42.722267864901582
20
24.458129398368101
10
-37.594494523922904
20
31.781348674311502
10
-43.041855618444558
20
35.595631976046192
0
LWPOLYLINE
5
111
100
AcDbEntity
8
0
100
AcDbPolyline
90
4
70
1
43
0.0
10
-39.211056314136208
20
39.776587759965622
10
-34.936518709720893
20
34.682392213224247
10
-28.088081388237004
20
40.428913443821685
10
-32.362618992652315
20
45.523108990563053
0
LWPOLYLINE
5
112
100
AcDbEntity
8
0
100
AcDbPolyline
90
4
70
1
43
0.0
10
29.109019859824592
20
47.669143770585976
10
25.200247932079407
20
42.289180757992703
10
32.432859861791258
20
37.034380602497677
10
36.34163178953645
20
42.414343615090942
0
LWPOLYLINE
5
113
100
AcDbEntity
8
0
100
AcDbPolyline
90
4
70
1
43
0.0
10
40.454836332123563
20
38.510888361105678
10
35.286815688434544
20
34.325907760624432
10
40.912939984419843
20
27.378222865198897
10
46.080960628108869
20
31.563203465680139
0
LWPOLYLINE
5
114
100
AcDbEntity
8
0
100
AcDbPolyline
90
4
70
1
43
0.0
10
49.04372256316659
20
26.728179552068152
10
42.968645269843179
20
24.023380875614286
10
46.604870858940551
20
15.856284484289279
10
52.679948152263961
20
18.561083160743145
0
LWPOLYLINE
5
115
100
AcDbEntity
8
0
100
AcDbPolyline
90
8
70
1
43
0.0
10
-29.981327522309581
20
35.991735162395393
10
-35.991735162395237
20
29.981327522309741
42
0.41421356237309509
10
-35.991735162395237
20
24.324473272817357
10
-32.350135239284462
20
20.68287334970659
42
0.41421356237309592
10
-26.693280989792104
20
20.68287334970659
10
-20.682873349706433
20
26.693280989792228
42
0.41421356237309365
10
-20.682873349706419
20
32.350135239284619
10
-24.324473272817194
20
35.991735162395393
42
0.41421356237309509
0
CIRCLE
5
116
100
AcDbEntity
8
0
100
AcDbCircle
10
2.4112671033275055e-14
20
-4.8577526296007284e-30
30
0
40
57.125964660562154
210
0
220
0
230
1
0
CIRCLE
5
117
100
AcDbEntity
8
0
100
AcDbCircle
10
29.20138874266085
20
-29.201388742660875
30
0
40
1.6000000000000014
210
0
220
0
230
1
0
CIRCLE
5
118
100
AcDbEntity
8
0
100
AcDbCircle
10
29.201388742660903
20
29.201388742660825
30
0
40
1.6000000000000014
210
0
220
0
230
1
0
CIRCLE
5
119
100
AcDbEntity
8
0
100
AcDbCircle
10
-29.20138874266086
20
-29.201388742660825
30
0
40
1.6000000000000014
210
0
220
0
230
1
0
CIRCLE
5
120
100
AcDbEntity
8
0
100
AcDbCircle
10
-46.067936188712778
20
16.767828758597258
30
4.9493996169648366e-21
40
1.5000000000000013
210
0
220
0
230
1
0
CIRCLE
5
121
100
AcDbEntity
8
0
100
AcDbCircle
10
-40.158381194412243
20
28.119739036339801
30
4.9493996169340217e-21
40
1.4999999999999969
210
0
220
0
230
1
0
CIRCLE
5
122
100
AcDbEntity
8
0
100
AcDbCircle
10
-31.51230004897895
20
37.555652828522966
30
4.949399616841577e-21
40
1.5000000000000018
210
0
220
0
230
1
0
CIRCLE
5
123
100
AcDbEntity
8
0
100
AcDbCircle
10
44.786758064391861
20
19.939832679951785
30
4.9493996168723919e-21
40
1.5000000000000027
210
0
220
0
230
1
0
CIRCLE
5
124
100
AcDbEntity
8
0
100
AcDbCircle
10
38.09987783642719
20
30.852065312911666
30
-2.661011435044729e-19
40
1.4999999999999991
210
0
220
0
230
1
0
CIRCLE
5
125
100
AcDbEntity
8
0
100
AcDbCircle
10
28.816553896935332
20
39.661780680245187
30
-2.661011435044729e-19
40
1.5000000000000004
210
0
220
0
230
1
0
CIRCLE
5
126
100
AcDbEntity
8
0
100
AcDbCircle
10
16.431906231168689
20
43.896664721016535
30
-2.5782327661705295e-15
40
2.9999999999999982
210
0
220
0
230
1
0
CIRCLE
5
127
100
AcDbEntity
8
0
100
AcDbCircle
10
-16.568093768831311
20
43.896664721016535
30
3.6429192995512949e-16
40
2.9999999999999982
210
0
220
0
230
1
0
CIRCLE
5
128
100
AcDbEntity
8
0
100
AcDbCircle
10
0
20
-44.5
30
0
40
2.9999999999999982
210
0
220
0
230
1
0
ENDSEC
0
SECTION
2
OBJECTS
0
DICTIONARY
5
C
100
AcDbDictionary
3
ACAD_GROUP
350
D
3
ACAD_MLINESTYLE
350
17
0
DICTIONARY
5
D
100
AcDbDictionary
0
DICTIONARY
5
1A
330
C
100
AcDbDictionary
0
DICTIONARY
5
17
100
AcDbDictionary
0
ENDSEC
0
EOF
