0
SECTION
2
HEADER
9
$INSUNITS
70
4
9
$ACADVER
1
AC1014
9
$HANDSEED
5
FFFF
0
ENDSEC
0
SECTION
2
TABLES
0
TABLE
2
VPORT
5
8
100
AcDbSymbolTable
0
ENDTAB
0
TABLE
2
LTYPE
5
5
100
AcDbSymbolTable
0
LTYPE
5
14
100
AcDbSymbolTableRecord
100
AcDbLinetypeTableRecord
2
BYBLOCK
70
0
0
LTYPE
5
15
100
AcDbSymbolTableRecord
100
AcDbLinetypeTableRecord
2
BYLAYER
70
0
0
LTYPE
5
16
100
AcDbSymbolTableRecord
100
AcDbLinetypeTableRecord
2
DASHED
70
0
3
Dashed __ __ __ __ __ __ __ __ __ __ __ __ __ _
72
65
73
2
40
0.75
49
0.5
74
0
49
-0.25
74
0
0
ENDTAB
0
TABLE
2
LAYER
5
2
100
AcDbSymbolTable
70
2
0
LAYER
5
50
100
AcDbSymbolTableRecord
100
AcDbLayerTableRecord
2
0
70
0
62
7
6
CONTINUOUS
0
ENDTAB
0
TABLE
2
STYLE
5
3
100
AcDbSymbolTable
70
1
0
STYLE
5
11
100
AcDbSymbolTableRecord
100
AcDbTextStyleTableRecord
2
STANDARD
70
0
0
ENDTAB
0
TABLE
2
VIEW
5
6
100
AcDbSymbolTable
70
0
0
ENDTAB
0
TABLE
2
UCS
5
7
100
AcDbSymbolTable
70
0
0
ENDTAB
0
TABLE
2
APPID
5
9
100
AcDbSymbolTable
70
2
0
APPID
5
12
100
AcDbSymbolTableRecord
100
AcDbRegAppTableRecord
2
ACAD
70
0
0
ENDTAB
0
TABLE
2
DIMSTYLE
5
A
100
AcDbSymbolTable
70
1
0
ENDTAB
0
TABLE
2
BLOCK_RECORD
5
1
100
AcDbSymbolTable
70
1
0
BLOCK_RECORD
5
1F
100
AcDbSymbolTableRecord
100
AcDbBlockTableRecord
2
*MODEL_SPACE
0
BLOCK_RECORD
5
1B
100
AcDbSymbolTableRecord
100
AcDbBlockTableRecord
2
*PAPER_SPACE
0
ENDTAB
0
ENDSEC
0
SECTION
2
BLOCKS
0
BLOCK
5
20
100
AcDbEntity
100
AcDbBlockBegin
2
*MODEL_SPACE
0
ENDBLK
5
21
100
AcDbEntity
100
AcDbBlockEnd
0
BLOCK
5
1C
100
AcDbEntity
100
AcDbBlockBegin
2
*PAPER_SPACE
0
ENDBLK
5
1D
100
AcDbEntity
100
AcDbBlockEnd
0
ENDSEC
0
SECTION
2
ENTITIES
0
LWPOLYLINE
5
100
100
AcDbEntity
8
0
100
AcDbPolyline
90
6
70
1
43
0.0
10
37.079390260296108
20
-17.108827511818937
10
37.079390260296151
20
17.108827511818756
42
0.66817863791929921
10
31.95806991673652
20
19.230147855378412
10
14.849242404917636
20
2.121320343559586
42
0.41421356237309542
10
14.84924240491763
20
-2.1213203435596997
10
31.958069916736459
20
-19.230147855378572
42
0.66817863791929766
0
LINE
5
101
100
AcDbEntity
8
0
100
AcDbLine
10
35.627850688778175
20
11.124999999999991
30
-4.4408920985006262e-15
11
35.627850688778175
21
9.9999999999999911
31
-4.4096670773451283e-15
0
LINE
5
102
100
AcDbEntity
8
0
100
AcDbLine
10
35.704780109940828
20
9.9999999999999929
30
-4.4408920985006262e-15
11
35.627850688778175
21
9.9999999999999911
31
-4.4096670773451283e-15
0
LINE
5
103
100
AcDbEntity
8
0
100
AcDbLine
10
35.704780109940828
20
9.9999999999999929
30
-4.4408920985006262e-15
11
35.704918451233773
21
9.9999999999999929
31
-7.3368236215083881e-15
0
ARC
5
104
100
AcDbEntity
8
0
100
AcDbCircle
10
35.704918451233773
20
9.9799999999999915
30
-2.2204460492503131e-15
40
0.019999999999997797
210
1.1075125191941299e-16
220
5.5511148720884948e-17
230
1
100
AcDbArc
50
0
51
90
0
LINE
5
105
100
AcDbEntity
8
0
100
AcDbLine
10
35.724918451233769
20
9.9799999999999915
30
-2.222661074288701e-15
11
35.724918450329312
21
9.2329952266899475
31
-4.4201585519674135e-15
0
ARC
5
106
100
AcDbEntity
8
0
100
AcDbCircle
10
35.705144007689661
20
9.2299999999999933
30
-4.4408920985006262e-15
40
0.019999999999997797
210
1.1075125191938834e-16
220
5.5511148720884948e-17
230
1
100
AcDbArc
50
0
51
8.6130961853846078
0
LINE
5
107
100
AcDbEntity
8
0
100
AcDbLine
10
35.725144007689657
20
9.2299999999999933
30
-4.4431071235390133e-15
11
35.725144006785207
21
8.7699999999999925
31
-2.2076784850445094e-15
0
ARC
5
108
100
AcDbEntity
8
0
100
AcDbCircle
10
35.705144007689924
20
8.7699999999999694
30
-4.4408920985006427e-15
40
0.019999999999735854
210
1.1075125191993291e-16
220
5.551114872090197e-17
230
1
100
AcDbArc
50
-8.6130961854318873
51
0
0
LINE
5
109
100
AcDbEntity
8
0
100
AcDbLine
10
35.724918451203514
20
8.7670047731776233
30
-4.4429158743942045e-15
11
35.724918450329312
21
8.0199999999999925
31
-4.4201585519674135e-15
0
ARC
5
110
100
AcDbEntity
8
0
100
AcDbCircle
10
35.704918451233773
20
8.0199999999999925
30
-2.2204460492503131e-15
40
0.020000000000000018
210
1.1075125191939419e-16
220
5.5511148720886722e-17
230
1
100
AcDbArc
50
-90
51
0
0
LINE
5
111
100
AcDbEntity
8
0
100
AcDbLine
10
35.704918451233773
20
7.9999999999999929
30
-2.2193358262758952e-15
11
35.704780109940828
21
7.9999999999999929
31
-1.5449605754928642e-15
0
LINE
5
112
100
AcDbEntity
8
0
100
AcDbLine
10
35.627850688778175
20
7.9999999999999911
30
-4.4408920985006262e-15
11
35.704780109940828
21
7.9999999999999929
31
-1.5449605754928642e-15
0
LINE
5
113
100
AcDbEntity
8
0
100
AcDbLine
10
35.627850688778175
20
7.9999999999999911
30
-4.4408920985006262e-15
11
35.627850688778175
21
6.874999999999992
31
-4.4096670773451283e-15
0
SPLINE
5
114
100
AcDbEntity
8
0
100
AcDbSpline
70
0
71
3
72
16
73
12
74
0
42
0.000000001
43
0.0000000001
44
0.0000000001
40
4.7123889803846897
40
4.7123889803846897
40
4.7123889803846897
40
4.7123889803846897
40
5.026548245743669
40
5.026548245743669
40
5.3407075111026483
40
5.3407075111026483
40
5.6548667764616276
40
5.6548667764616276
40
5.9690260418206069
40
5.9690260418206069
40
6.2831853071795862
40
6.2831853071795862
40
6.2831853071795862
40
6.2831853071795862
10
35.627850689682631
20
6.8749999999999929
30
-2.2204460492503131e-15
10
35.627850689682631
20
6.8226401225348781
30
-2.2204460492503131e-15
10
35.619559040211549
20
6.7702887057467418
30
-6.6613381477509392e-15
10
35.587198857737981
20
6.6706943003839037
30
-2.2204460492503131e-15
10
35.563135553720315
20
6.6234674049737983
30
-4.4408920985006262e-15
10
35.501582828816829
20
6.5387473434296215
30
-4.4408920985006262e-15
10
35.464103354052241
20
6.5012678669604709
30
-6.6613381477509392e-15
10
35.379383296197268
20
6.4397151391701737
30
-2.2204460492503131e-15
10
35.332156402770131
20
6.4156518339740876
30
-4.4408920985006262e-15
10
35.23256200147398
20
6.3832916498950265
30
-4.4408920985006262e-15
10
35.180210586770997
20
6.3749999999999929
30
-4.4408920985006262e-15
10
35.127850711389598
20
6.3749999999999929
30
-4.4408920985006262e-15
0
LINE
5
115
100
AcDbEntity
8
0
100
AcDbLine
10
35.127850711389598
20
6.374999999999992
30
-4.4408920985006262e-15
11
35.124103466802417
21
6.3749999999999929
31
-5.8384796531601746e-15
0
LINE
5
116
100
AcDbEntity
8
0
100
AcDbLine
10
35.124103466802417
20
6.3749999999999929
30
-5.8384796531601746e-15
11
26.832286422187586
21
6.3749999999999938
31
-4.0782264718042249e-15
0
ARC
5
117
100
AcDbEntity
8
0
100
AcDbCircle
10
26.832286422187586
20
6.3949999999999942
30
-4.4408920985006262e-15
40
0.020000000000000382
210
1.1080025850900262e-16
220
5.551245854935683e-17
230
1
100
AcDbArc
50
225.4982129079697
51
270
0
LINE
5
118
100
AcDbEntity
8
0
100
AcDbLine
10
26.81826779197365
20
6.3807354282600208
30
-4.4385469692015403e-15
11
25.380085276918383
21
7.7941217575961375
31
-4.1255925542146854e-15
0
ARC
5
119
100
AcDbEntity
8
0
100
AcDbCircle
10
25.394103906820824
20
7.8083863290191857
30
-2.2204460492503131e-15
40
0.019999999999997797
210
1.1075125191940066e-16
220
5.5511148720884941e-17
230
1
100
AcDbArc
50
180
51
225.49821290803902
0
LINE
5
120
100
AcDbEntity
8
0
100
AcDbLine
10
25.374103906820828
20
7.8083863290191857
30
-2.2182310242119252e-15
11
25.374103907725281
21
7.9999999999999947
31
-2.2257643967436982e-15
0
LINE
5
121
100
AcDbEntity
8
0
100
AcDbLine
10
25.374103907725281
20
7.9999999999999947
30
-2.2257643967436982e-15
11
25.294780580710778
21
7.9999999999999947
31
-2.143370286214908e-15
0
ARC
5
122
100
AcDbEntity
8
0
100
AcDbCircle
10
25.294780580710778
20
8.0199999999999942
30
-2.2204460492503131e-15
40
0.019999999999997797
210
1.1075125191940066e-16
220
5.5511148720884948e-17
230
1
100
AcDbArc
50
180
51
270
0
LINE
5
123
100
AcDbEntity
8
0
100
AcDbLine
10
25.274780581615239
20
9.9799999999999933
30
-2.2204460492503131e-15
11
25.274780580710782
21
8.0199999999999942
31
-2.2182310242119252e-15
0
ARC
5
124
100
AcDbEntity
8
0
100
AcDbCircle
10
25.294780783706923
20
9.9799999159162347
30
0
40
0.020000202996324094
210
-1.5791314473361527e-13
220
4.7381157255081439e-14
230
1
100
AcDbArc
50
89.802423849462357
51
179.99975912081172
0
LINE
5
125
100
AcDbEntity
8
0
100
AcDbLine
10
25.374103907725281
20
9.9999999999999929
30
-2.2204460492503131e-15
11
25.294849751357248
21
9.9999999999999929
31
-9.367362305398187e-16
0
LINE
5
126
100
AcDbEntity
8
0
100
AcDbLine
10
25.374103907725281
20
9.9999999999999929
30
-2.2204460492503131e-15
11
25.374103907725281
21
10.191613670980804
31
-2.2257643967436982e-15
0
ARC
5
127
100
AcDbEntity
8
0
100
AcDbCircle
10
25.394103906820824
20
10.191613670980804
30
-2.2204460492503131e-15
40
0.019999999999999806
210
1.1080726057205211e-16
220
5.5502120865394097e-17
230
1
100
AcDbArc
50
134.50178709196916
51
180
0
LINE
5
128
100
AcDbEntity
8
0
100
AcDbLine
10
25.380085276606902
20
10.205878242720793
30
-2.2196843972241419e-15
11
26.818267792285113
21
11.619264571423031
31
-2.6138759125909905e-15
0
ARC
5
129
100
AcDbEntity
8
0
100
AcDbCircle
10
26.832286422187586
20
11.604999999999993
30
-4.4408920985006262e-15
40
0.020000000000000018
210
1.1075125191939369e-16
220
5.5511148720874397e-17
230
1
100
AcDbArc
50
90
51
134.50178709204769
0
LINE
5
130
100
AcDbEntity
8
0
100
AcDbLine
10
26.832286422187586
20
11.624999999999995
30
-4.442002321475044e-15
11
35.124103466802417
21
11.624999999999993
31
-4.8035577251970274e-15
0
LINE
5
131
100
AcDbEntity
8
0
100
AcDbLine
10
35.124103466802417
20
11.624999999999993
30
-4.8035577251970274e-15
11
35.127850711389598
21
11.624999999999993
31
-7.4841965099928058e-15
0
SPLINE
5
132
100
AcDbEntity
8
0
100
AcDbSpline
70
0
71
3
72
16
73
12
74
0
42
0.000000001
43
0.0000000001
44
0.0000000001
40
1.5707963267948966
40
1.5707963267948966
40
1.5707963267948966
40
1.5707963267948966
40
1.8849555921538759
40
1.8849555921538759
40
2.1991148575128552
40
2.1991148575128552
40
2.5132741228718345
40
2.5132741228718345
40
2.8274333882308138
40
2.8274333882308138
40
3.1415926535897931
40
3.1415926535897931
40
3.1415926535897931
40
3.1415926535897931
10
35.627850689682631
20
11.124999999999991
30
-2.2204460492503131e-15
10
35.627850689682631
20
11.177359877465108
30
-2.2204460492503131e-15
10
35.619559040211549
20
11.229711294253244
30
-6.6613381477509392e-15
10
35.587198857737981
20
11.329305699616082
30
-2.2204460492503131e-15
10
35.563135553720315
20
11.376532595026186
30
-4.4408920985006262e-15
10
35.501582828816829
20
11.461252656570364
30
-4.4408920985006262e-15
10
35.464103354052241
20
11.498732133039514
30
-6.6613381477509392e-15
10
35.379383296197268
20
11.56028486082981
30
-2.2204460492503131e-15
10
35.332156402770131
20
11.584348166025897
30
-4.4408920985006262e-15
10
35.232562001473987
20
11.616708350104958
30
-4.4408920985006262e-15
10
35.180210586770997
20
11.624999999999993
30
-4.4408920985006262e-15
10
35.127850711389605
20
11.624999999999993
30
-4.4408920985006262e-15
0
LWPOLYLINE
5
133
100
AcDbEntity
8
0
100
AcDbPolyline
90
8
70
1
43
0.0
10
32.17122058865295
20
6.9749999999999934
10
28.829350594921046
20
6.974999999999997
42
-0.8108959595394396
10
28.768708215065534
20
7.2621951229652808
42
0.65131775979456652
10
28.768708215065534
20
10.737804877034707
42
-0.8108959595394486
10
28.829350594921046
20
11.024999999999995
10
32.171220588652943
20
11.02499999999999
42
-0.8108959595394768
10
32.231862968508466
20
10.737804877034707
42
0.65131775979456641
10
32.231862968508466
20
7.2621951229652835
42
-0.81089595953947224
0
LINE
5
134
100
AcDbEntity
8
0
100
AcDbLine
10
35.627850688778175
20
2.124999999999992
30
-4.4408920985006262e-15
11
35.627850688778175
21
0.99999999999999201
31
-4.4096670773451283e-15
0
LINE
5
135
100
AcDbEntity
8
0
100
AcDbLine
10
35.704780109940828
20
0.99999999999999223
30
-4.4408920985006262e-15
11
35.627850688778175
21
0.99999999999999201
31
-4.4096670773451283e-15
0
LINE
5
136
100
AcDbEntity
8
0
100
AcDbLine
10
35.704780109940828
20
0.99999999999999223
30
-4.4408920985006262e-15
11
35.704918451233773
21
0.99999999999999223
31
-7.3368236215083881e-15
0
ARC
5
137
100
AcDbEntity
8
0
100
AcDbCircle
10
35.704918451233773
20
0.97999999999999221
30
-2.2204460492503131e-15
40
0.019999999999997797
210
1.1075125191941299e-16
220
5.5511148720884948e-17
230
1
100
AcDbArc
50
0
51
90
0
LINE
5
138
100
AcDbEntity
8
0
100
AcDbLine
10
35.724918451233769
20
0.97999999999999221
30
-2.222661074288701e-15
11
35.724918450329312
21
0.23299522668994779
31
-4.4201585519674135e-15
0
ARC
5
139
100
AcDbEntity
8
0
100
AcDbCircle
10
35.705144007689661
20
0.22999999999999243
30
-4.4408920985006262e-15
40
0.019999999999997797
210
1.1075125191938834e-16
220
5.5511148720884948e-17
230
1
100
AcDbArc
50
0
51
8.613096185387878
0
LINE
5
140
100
AcDbEntity
8
0
100
AcDbLine
10
35.725144007689657
20
0.22999999999999243
30
-4.4431071235390133e-15
11
35.725144006785207
21
-0.23000000000000764
31
-2.2076784850445094e-15
0
ARC
5
141
100
AcDbEntity
8
0
100
AcDbCircle
10
35.705144007689903
20
-0.23000000000003132
30
-4.4408920985006451e-15
40
0.019999999999757986
210
1.1075125191971329e-16
220
5.5511148720909378e-17
230
1
100
AcDbArc
50
-8.6130961854242525
51
0
0
LINE
5
142
100
AcDbEntity
8
0
100
AcDbLine
10
35.724918451203514
20
-0.23299522682237794
30
-4.4429158743942045e-15
11
35.724918450329312
21
-0.98000000000000742
31
-4.4201585519674135e-15
0
ARC
5
143
100
AcDbEntity
8
0
100
AcDbCircle
10
35.704918451233773
20
-0.98000000000000753
30
-2.2204460492503131e-15
40
0.020000000000000018
210
1.1075125191939419e-16
220
5.5511148720886722e-17
230
1
100
AcDbArc
50
-90
51
0
0
LINE
5
144
100
AcDbEntity
8
0
100
AcDbLine
10
35.704918451233773
20
-1.0000000000000075
30
-2.2193358262758952e-15
11
35.704780109940828
21
-1.0000000000000075
31
-1.5449605754928642e-15
0
LINE
5
145
100
AcDbEntity
8
0
100
AcDbLine
10
35.627850688778175
20
-1.0000000000000087
30
-4.4408920985006262e-15
11
35.704780109940828
21
-1.0000000000000075
31
-1.5449605754928642e-15
0
LINE
5
146
100
AcDbEntity
8
0
100
AcDbLine
10
35.627850688778175
20
-1.0000000000000087
30
-4.4408920985006262e-15
11
35.627850688778175
21
-2.1250000000000075
31
-4.4096670773451283e-15
0
SPLINE
5
147
100
AcDbEntity
8
0
100
AcDbSpline
70
0
71
3
72
16
73
12
74
0
42
0.000000001
43
0.0000000001
44
0.0000000001
40
4.7123889803846897
40
4.7123889803846897
40
4.7123889803846897
40
4.7123889803846897
40
5.026548245743669
40
5.026548245743669
40
5.3407075111026483
40
5.3407075111026483
40
5.6548667764616276
40
5.6548667764616276
40
5.9690260418206069
40
5.9690260418206069
40
6.2831853071795862
40
6.2831853071795862
40
6.2831853071795862
40
6.2831853071795862
10
35.627850689682631
20
-2.1250000000000075
30
-2.2204460492503131e-15
10
35.627850689682631
20
-2.1773598774651228
30
-2.2204460492503131e-15
10
35.619559040211549
20
-2.2297112942532582
30
-6.6613381477509392e-15
10
35.587198857737981
20
-2.3293056996160963
30
-2.2204460492503131e-15
10
35.563135553720315
20
-2.3765325950262017
30
-4.4408920985006262e-15
10
35.501582828816829
20
-2.4612526565703785
30
-4.4408920985006262e-15
10
35.464103354052241
20
-2.4987321330395296
30
-6.6613381477509392e-15
10
35.379383296197268
20
-2.5602848608298268
30
-2.2204460492503131e-15
10
35.332156402770131
20
-2.5843481660259124
30
-4.4408920985006262e-15
10
35.23256200147398
20
-2.6167083501049735
30
-4.4408920985006262e-15
10
35.180210586770997
20
-2.6250000000000071
30
-4.4408920985006262e-15
10
35.127850711389598
20
-2.6250000000000071
30
-4.4408920985006262e-15
0
LINE
5
148
100
AcDbEntity
8
0
100
AcDbLine
10
35.127850711389598
20
-2.6250000000000067
30
-4.4408920985006262e-15
11
35.124103466802417
21
-2.6250000000000071
31
-3.6180337362587596e-15
0
LINE
5
149
100
AcDbEntity
8
0
100
AcDbLine
10
35.124103466802417
20
-2.6250000000000071
30
-3.6180337362587596e-15
11
26.832286422187586
21
-2.6250000000000062
31
-1.8577804225539118e-15
0
ARC
5
150
100
AcDbEntity
8
0
100
AcDbCircle
10
26.832286422187586
20
-2.6050000000000062
30
-4.4408920985006262e-15
40
0.020000000000000382
210
1.1080025850900262e-16
220
5.551245854935683e-17
230
1
100
AcDbArc
50
225.49821290797064
51
270
0
LINE
5
151
100
AcDbEntity
8
0
100
AcDbLine
10
26.81826779197365
20
-2.6192645717399801
30
-4.4385469692015403e-15
11
25.380085276918383
21
-1.2058782424038628
31
-4.1255925542146854e-15
0
ARC
5
152
100
AcDbEntity
8
0
100
AcDbCircle
10
25.394103906820824
20
-1.1916136709808152
30
-2.2204460492503131e-15
40
0.019999999999997797
210
1.1075125191940066e-16
220
5.5511148720884941e-17
230
1
100
AcDbArc
50
180
51
225.49821290803766
0
LINE
5
153
100
AcDbEntity
8
0
100
AcDbLine
10
25.374103906820828
20
-1.1916136709808152
30
-2.2182310242119252e-15
11
25.374103907725281
21
-1.0000000000000058
31
-2.2257643967436982e-15
0
LINE
5
154
100
AcDbEntity
8
0
100
AcDbLine
10
25.374103907725281
20
-1.0000000000000058
30
-2.2257643967436982e-15
11
25.294780580710778
21
-1.0000000000000058
31
-2.143370286214908e-15
0
ARC
5
155
100
AcDbEntity
8
0
100
AcDbCircle
10
25.294780580710778
20
-0.98000000000000587
30
-2.2204460492503131e-15
40
0.019999999999997797
210
1.1075125191940066e-16
220
5.5511148720884948e-17
230
1
100
AcDbArc
50
180
51
270
0
LINE
5
156
100
AcDbEntity
8
0
100
AcDbLine
10
25.274780581615239
20
0.97999999999999365
30
-2.2204460492503131e-15
11
25.274780580710782
21
-0.98000000000000587
31
-2.2182310242119252e-15
0
ARC
5
157
100
AcDbEntity
8
0
100
AcDbCircle
10
25.294780783706923
20
0.97999991591623559
30
0
40
0.020000202996324511
210
-1.5791314473361532e-13
220
4.7381157255080461e-14
230
1
100
AcDbArc
50
89.802423849462357
51
179.99975912081172
0
LINE
5
158
100
AcDbEntity
8
0
100
AcDbLine
10
25.374103907725281
20
0.99999999999999367
30
-2.2204460492503131e-15
11
25.294849751357248
21
0.99999999999999378
31
-9.367362305398187e-16
0
LINE
5
159
100
AcDbEntity
8
0
100
AcDbLine
10
25.374103907725281
20
0.99999999999999367
30
-2.2204460492503131e-15
11
25.374103907725281
21
1.1916136709808036
31
-2.2257643967436982e-15
0
ARC
5
160
100
AcDbEntity
8
0
100
AcDbCircle
10
25.394103906820824
20
1.1916136709808036
30
-2.2204460492503131e-15
40
0.020000000000000399
210
1.1080726057205371e-16
220
5.5502120865392446e-17
230
1
100
AcDbArc
50
134.50178709196555
51
180
0
LINE
5
161
100
AcDbEntity
8
0
100
AcDbLine
10
25.380085276606902
20
1.2058782427207948
30
-2.2196843972241419e-15
11
26.818267792285113
21
2.6192645714230309
31
-2.6138759125909905e-15
0
ARC
5
162
100
AcDbEntity
8
0
100
AcDbCircle
10
26.832286422187586
20
2.6049999999999933
30
-4.4408920985006262e-15
40
0.020000000000000018
210
1.1075125191939369e-16
220
5.5511148720874397e-17
230
1
100
AcDbArc
50
90
51
134.50178709204769
0
LINE
5
163
100
AcDbEntity
8
0
100
AcDbLine
10
26.832286422187586
20
2.6249999999999933
30
-4.442002321475044e-15
11
35.124103466802417
21
2.6249999999999925
31
-4.8035577251970274e-15
0
LINE
5
164
100
AcDbEntity
8
0
100
AcDbLine
10
35.124103466802417
20
2.6249999999999925
30
-4.8035577251970274e-15
11
35.127850711389598
21
2.624999999999992
31
-7.4841965099928058e-15
0
SPLINE
5
165
100
AcDbEntity
8
0
100
AcDbSpline
70
0
71
3
72
16
73
12
74
0
42
0.000000001
43
0.0000000001
44
0.0000000001
40
1.5707963267948966
40
1.5707963267948966
40
1.5707963267948966
40
1.5707963267948966
40
1.8849555921538759
40
1.8849555921538759
40
2.1991148575128552
40
2.1991148575128552
40
2.5132741228718345
40
2.5132741228718345
40
2.8274333882308138
40
2.8274333882308138
40
3.1415926535897931
40
3.1415926535897931
40
3.1415926535897931
40
3.1415926535897931
10
35.627850689682631
20
2.124999999999992
30
-2.2204460492503131e-15
10
35.627850689682631
20
2.1773598774651068
30
-2.2204460492503131e-15
10
35.619559040211549
20
2.2297112942532431
30
-6.6613381477509392e-15
10
35.587198857737981
20
2.3293056996160812
30
-2.2204460492503131e-15
10
35.563135553720315
20
2.3765325950261857
30
-4.4408920985006262e-15
10
35.501582828816829
20
2.461252656570363
30
-4.4408920985006262e-15
10
35.464103354052241
20
2.4987321330395131
30
-6.6613381477509392e-15
10
35.379383296197268
20
2.5602848608298108
30
-2.2204460492503131e-15
10
35.332156402770131
20
2.5843481660258965
30
-4.4408920985006262e-15
10
35.232562001473987
20
2.6167083501049588
30
-4.4408920985006262e-15
10
35.180210586770997
20
2.624999999999992
30
-4.4408920985006262e-15
10
35.127850711389605
20
2.624999999999992
30
-4.4408920985006262e-15
0
LWPOLYLINE
5
166
100
AcDbEntity
8
0
100
AcDbPolyline
90
8
70
1
43
0.0
10
32.17122058865295
20
-2.0250000000000066
10
28.829350594921046
20
-2.0250000000000048
42
-0.81089595953944027
10
28.768708215065534
20
-1.7378048770347199
42
0.65131775979456641
10
28.768708215065537
20
1.7378048770347065
42
-0.81089595953944948
10
28.829350594921046
20
2.0249999999999941
10
32.171220588652943
20
2.0249999999999928
42
-0.81089595953947791
10
32.231862968508466
20
1.7378048770347072
42
0.65131775979456641
10
32.231862968508459
20
-1.7378048770347205
42
-0.81089595953945126
0
LINE
5
167
100
AcDbEntity
8
0
100
AcDbLine
10
35.627850688778175
20
-6.8750000000000089
30
-4.4408920985006262e-15
11
35.627850688778175
21
-8.0000000000000089
31
-4.4096670773451283e-15
0
LINE
5
168
100
AcDbEntity
8
0
100
AcDbLine
10
35.704780109940828
20
-8.0000000000000089
30
-4.4408920985006262e-15
11
35.627850688778175
21
-8.0000000000000089
31
-4.4096670773451283e-15
0
LINE
5
169
100
AcDbEntity
8
0
100
AcDbLine
10
35.704780109940828
20
-8.0000000000000089
30
-4.4408920985006262e-15
11
35.704918451233773
21
-8.0000000000000089
31
-7.3368236215083881e-15
0
ARC
5
170
100
AcDbEntity
8
0
100
AcDbCircle
10
35.704918451233773
20
-8.0200000000000085
30
-2.2204460492503131e-15
40
0.019999999999997797
210
1.1075125191941299e-16
220
5.5511148720884948e-17
230
1
100
AcDbArc
50
0
51
90
0
LINE
5
171
100
AcDbEntity
8
0
100
AcDbLine
10
35.724918451233769
20
-8.0200000000000085
30
-2.222661074288701e-15
11
35.724918450329312
21
-8.7670047733100525
31
-4.4201585519674135e-15
0
ARC
5
172
100
AcDbEntity
8
0
100
AcDbCircle
10
35.705144007689661
20
-8.7700000000000085
30
-4.4408920985006262e-15
40
0.019999999999997797
210
1.1075125191938834e-16
220
5.5511148720884948e-17
230
1
100
AcDbArc
50
0
51
8.6130961853896633
0
LINE
5
173
100
AcDbEntity
8
0
100
AcDbLine
10
35.725144007689657
20
-8.7700000000000085
30
-4.4431071235390133e-15
11
35.725144006785207
21
-9.2300000000000075
31
-2.2076784850445094e-15
0
ARC
5
174
100
AcDbEntity
8
0
100
AcDbCircle
10
35.705144007689924
20
-9.2300000000000324
30
-4.4408920985006427e-15
40
0.019999999999735854
210
1.1075125191993291e-16
220
5.551114872090197e-17
230
1
100
AcDbArc
50
-8.6130961854268477
51
0
0
LINE
5
175
100
AcDbEntity
8
0
100
AcDbLine
10
35.724918451203514
20
-9.2329952268223767
30
-4.4429158743942045e-15
11
35.724918450329312
21
-9.9800000000000075
31
-4.4201585519674135e-15
0
ARC
5
176
100
AcDbEntity
8
0
100
AcDbCircle
10
35.704918451233773
20
-9.9800000000000075
30
-2.2204460492503131e-15
40
0.019999999999998908
210
1.1075125191939419e-16
220
5.5511148720889804e-17
230
1
100
AcDbArc
50
-90
51
0
0
LINE
5
177
100
AcDbEntity
8
0
100
AcDbLine
10
35.704918451233773
20
-10.000000000000007
30
-2.2193358262758952e-15
11
35.704780109940828
21
-10.000000000000009
31
-1.5449605754928642e-15
0
LINE
5
178
100
AcDbEntity
8
0
100
AcDbLine
10
35.627850688778175
20
-10.000000000000009
30
-4.4408920985006262e-15
11
35.704780109940828
21
-10.000000000000009
31
-1.5449605754928642e-15
0
LINE
5
179
100
AcDbEntity
8
0
100
AcDbLine
10
35.627850688778175
20
-10.000000000000009
30
-4.4408920985006262e-15
11
35.627850688778175
21
-11.125000000000007
31
-4.4096670773451283e-15
0
SPLINE
5
180
100
AcDbEntity
8
0
100
AcDbSpline
70
0
71
3
72
16
73
12
74
0
42
0.000000001
43
0.0000000001
44
0.0000000001
40
4.7123889803846897
40
4.7123889803846897
40
4.7123889803846897
40
4.7123889803846897
40
5.026548245743669
40
5.026548245743669
40
5.3407075111026483
40
5.3407075111026483
40
5.6548667764616276
40
5.6548667764616276
40
5.9690260418206069
40
5.9690260418206069
40
6.2831853071795862
40
6.2831853071795862
40
6.2831853071795862
40
6.2831853071795862
10
35.627850689682631
20
-11.125000000000007
30
-2.2204460492503131e-15
10
35.627850689682631
20
-11.177359877465122
30
-2.2204460492503131e-15
10
35.619559040211549
20
-11.229711294253256
30
-6.6613381477509392e-15
10
35.587198857737981
20
-11.329305699616096
30
-2.2204460492503131e-15
10
35.563135553720315
20
-11.376532595026202
30
-4.4408920985006262e-15
10
35.501582828816829
20
-11.461252656570377
30
-2.2204460492503131e-15
10
35.464103354052241
20
-11.498732133039532
30
-6.6613381477509392e-15
10
35.379383296197268
20
-11.560284860829828
30
-2.2204460492503131e-15
10
35.332156402770131
20
-11.584348166025913
30
-4.4408920985006262e-15
10
35.23256200147398
20
-11.616708350104973
30
-4.4408920985006262e-15
10
35.180210586770997
20
-11.625000000000007
30
-4.4408920985006262e-15
10
35.127850711389598
20
-11.625000000000007
30
-4.4408920985006262e-15
0
LINE
5
181
100
AcDbEntity
8
0
100
AcDbLine
10
35.127850711389598
20
-11.625000000000007
30
-4.4408920985006262e-15
11
35.124103466802417
21
-11.625000000000007
31
-3.6180337362587596e-15
0
LINE
5
182
100
AcDbEntity
8
0
100
AcDbLine
10
35.124103466802417
20
-11.625000000000007
30
-3.6180337362587596e-15
11
26.832286422187586
21
-11.625000000000005
31
-1.8577804225539118e-15
0
ARC
5
183
100
AcDbEntity
8
0
100
AcDbCircle
10
26.832286422187586
20
-11.605000000000008
30
-4.4408920985006262e-15
40
0.019999999999999588
210
1.1080025850900477e-16
220
5.5512458549359e-17
230
1
100
AcDbArc
50
225.49821290796615
51
270
0
LINE
5
184
100
AcDbEntity
8
0
100
AcDbLine
10
26.81826779197365
20
-11.619264571739979
30
-4.4385469692015403e-15
11
25.380085276918383
21
-10.205878242403866
31
-4.1255925542146854e-15
0
ARC
5
185
100
AcDbEntity
8
0
100
AcDbCircle
10
25.394103906820824
20
-10.191613670980814
30
-2.2204460492503131e-15
40
0.019999999999997797
210
1.1075125191940066e-16
220
5.5511148720884941e-17
230
1
100
AcDbArc
50
180
51
225.49821290804616
0
LINE
5
186
100
AcDbEntity
8
0
100
AcDbLine
10
25.374103906820828
20
-10.191613670980814
30
-2.2182310242119252e-15
11
25.374103907725281
21
-10.000000000000007
31
-2.2257643967436982e-15
0
LINE
5
187
100
AcDbEntity
8
0
100
AcDbLine
10
25.374103907725281
20
-10.000000000000007
30
-2.2257643967436982e-15
11
25.294780580710778
21
-10.000000000000007
31
-2.143370286214908e-15
0
ARC
5
188
100
AcDbEntity
8
0
100
AcDbCircle
10
25.294780580710778
20
-9.9800000000000075
30
-2.2204460492503131e-15
40
0.019999999999997797
210
1.1075125191940066e-16
220
5.5511148720884948e-17
230
1
100
AcDbArc
50
180
51
270
0
LINE
5
189
100
AcDbEntity
8
0
100
AcDbLine
10
25.274780581615239
20
-8.0200000000000067
30
-2.2204460492503131e-15
11
25.274780580710782
21
-9.9800000000000075
31
-2.2182310242119252e-15
0
ARC
5
190
100
AcDbEntity
8
0
100
AcDbCircle
10
25.294780783706923
20
-8.0200000840837653
30
0
40
0.020000202996324094
210
-1.5791314473361527e-13
220
4.7381157255081439e-14
230
1
100
AcDbArc
50
89.802423849462357
51
179.99975912081172
0
LINE
5
191
100
AcDbEntity
8
0
100
AcDbLine
10
25.374103907725281
20
-8.0000000000000071
30
-2.2204460492503131e-15
11
25.294849751357248
21
-8.0000000000000071
31
-9.367362305398187e-16
0
LINE
5
192
100
AcDbEntity
8
0
100
AcDbLine
10
25.374103907725281
20
-8.0000000000000071
30
-2.2204460492503131e-15
11
25.374103907725281
21
-7.8083863290191964
31
-2.2257643967436982e-15
0
ARC
5
193
100
AcDbEntity
8
0
100
AcDbCircle
10
25.394103906820824
20
-7.8083863290191964
30
-2.2204460492503131e-15
40
0.020000000000000601
210
1.1080726057205425e-16
220
5.5502120865391879e-17
230
1
100
AcDbArc
50
134.50178709196555
51
180
0
LINE
5
194
100
AcDbEntity
8
0
100
AcDbLine
10
25.380085276606902
20
-7.7941217572792052
30
-2.2196843972241419e-15
11
26.818267792285113
21
-6.3807354285769691
31
-2.6138759125909905e-15
0
ARC
5
195
100
AcDbEntity
8
0
100
AcDbCircle
10
26.832286422187586
20
-6.3950000000000067
30
-4.4408920985006262e-15
40
0.020000000000000018
210
1.1075125191939369e-16
220
5.5511148720874397e-17
230
1
100
AcDbArc
50
90
51
134.50178709204769
0
LINE
5
196
100
AcDbEntity
8
0
100
AcDbLine
10
26.832286422187586
20
-6.3750000000000062
30
-4.442002321475044e-15
11
35.124103466802417
21
-6.3750000000000089
31
-4.8035577251970274e-15
0
LINE
5
197
100
AcDbEntity
8
0
100
AcDbLine
10
35.124103466802417
20
-6.3750000000000089
30
-4.8035577251970274e-15
11
35.127850711389598
21
-6.3750000000000089
31
-7.4841965099928058e-15
0
SPLINE
5
198
100
AcDbEntity
8
0
100
AcDbSpline
70
0
71
3
72
16
73
12
74
0
42
0.000000001
43
0.0000000001
44
0.0000000001
40
1.5707963267948966
40
1.5707963267948966
40
1.5707963267948966
40
1.5707963267948966
40
1.8849555921538759
40
1.8849555921538759
40
2.1991148575128552
40
2.1991148575128552
40
2.5132741228718345
40
2.5132741228718345
40
2.8274333882308138
40
2.8274333882308138
40
3.1415926535897931
40
3.1415926535897931
40
3.1415926535897931
40
3.1415926535897931
10
35.627850689682631
20
-6.8750000000000089
30
-2.2204460492503131e-15
10
35.627850689682631
20
-6.8226401225348932
30
-2.2204460492503131e-15
10
35.619559040211549
20
-6.7702887057467578
30
-6.6613381477509392e-15
10
35.587198857737981
20
-6.6706943003839196
30
-2.2204460492503131e-15
10
35.563135553720315
20
-6.6234674049738151
30
-4.4408920985006262e-15
10
35.501582828816829
20
-6.5387473434296375
30
-4.4408920985006262e-15
10
35.464103354052241
20
-6.5012678669604878
30
-6.6613381477509392e-15
10
35.379383296197268
20
-6.4397151391701888
30
-2.2204460492503131e-15
10
35.332156402770131
20
-6.4156518339741027
30
-4.4408920985006262e-15
10
35.232562001473987
20
-6.3832916498950407
30
-4.4408920985006262e-15
10
35.180210586770997
20
-6.3750000000000089
30
-4.4408920985006262e-15
10
35.127850711389605
20
-6.3750000000000089
30
-4.4408920985006262e-15
0
LWPOLYLINE
5
199
100
AcDbEntity
8
0
100
AcDbPolyline
90
8
70
1
43
0.0
10
32.17122058865295
20
-11.025000000000007
10
28.829350594921046
20
-11.025000000000006
42
-0.81089595953944105
10
28.768708215065534
20
-10.737804877034719
42
0.65131775979456497
10
28.768708215065534
20
-7.262195122965295
42
-0.8108959595394486
10
28.829350594921046
20
-6.9750000000000059
10
32.171220588652943
20
-6.9750000000000059
42
-0.81089595953945448
10
32.231862968508466
20
-7.2621951229652932
42
0.65131775979456652
10
32.231862968508466
20
-10.737804877034717
42
-0.81089595953946969
0
ENDSEC
0
SECTION
2
OBJECTS
0
DICTIONARY
5
C
100
AcDbDictionary
3
ACAD_GROUP
350
D
3
ACAD_MLINESTYLE
350
17
0
DICTIONARY
5
D
100
AcDbDictionary
0
DICTIONARY
5
1A
330
C
100
AcDbDictionary
0
DICTIONARY
5
17
100
AcDbDictionary
0
ENDSEC
0
EOF
