0
SECTION
2
HEADER
9
$INSUNITS
70
4
9
$ACADVER
1
AC1014
9
$HANDSEED
5
FFFF
0
ENDSEC
0
SECTION
2
TABLES
0
TABLE
2
VPORT
5
8
100
AcDbSymbolTable
0
ENDTAB
0
TABLE
2
LTYPE
5
5
100
AcDbSymbolTable
0
LTYPE
5
14
100
AcDbSymbolTableRecord
100
AcDbLinetypeTableRecord
2
BYBLOCK
70
0
0
LTYPE
5
15
100
AcDbSymbolTableRecord
100
AcDbLinetypeTableRecord
2
BYLAYER
70
0
0
LTYPE
5
16
100
AcDbSymbolTableRecord
100
AcDbLinetypeTableRecord
2
DASHED
70
0
3
Dashed __ __ __ __ __ __ __ __ __ __ __ __ __ _
72
65
73
2
40
0.75
49
0.5
74
0
49
-0.25
74
0
0
ENDTAB
0
TABLE
2
LAYER
5
2
100
AcDbSymbolTable
70
2
0
LAYER
5
50
100
AcDbSymbolTableRecord
100
AcDbLayerTableRecord
2
0
70
0
62
7
6
CONTINUOUS
0
ENDTAB
0
TABLE
2
STYLE
5
3
100
AcDbSymbolTable
70
1
0
STYLE
5
11
100
AcDbSymbolTableRecord
100
AcDbTextStyleTableRecord
2
STANDARD
70
0
0
ENDTAB
0
TABLE
2
VIEW
5
6
100
AcDbSymbolTable
70
0
0
ENDTAB
0
TABLE
2
UCS
5
7
100
AcDbSymbolTable
70
0
0
ENDTAB
0
TABLE
2
APPID
5
9
100
AcDbSymbolTable
70
2
0
APPID
5
12
100
AcDbSymbolTableRecord
100
AcDbRegAppTableRecord
2
ACAD
70
0
0
ENDTAB
0
TABLE
2
DIMSTYLE
5
A
100
AcDbSymbolTable
70
1
0
ENDTAB
0
TABLE
2
BLOCK_RECORD
5
1
100
AcDbSymbolTable
70
1
0
BLOCK_RECORD
5
1F
100
AcDbSymbolTableRecord
100
AcDbBlockTableRecord
2
*MODEL_SPACE
0
BLOCK_RECORD
5
1B
100
AcDbSymbolTableRecord
100
AcDbBlockTableRecord
2
*PAPER_SPACE
0
ENDTAB
0
ENDSEC
0
SECTION
2
BLOCKS
0
BLOCK
5
20
100
AcDbEntity
100
AcDbBlockBegin
2
*MODEL_SPACE
0
ENDBLK
5
21
100
AcDbEntity
100
AcDbBlockEnd
0
BLOCK
5
1C
100
AcDbEntity
100
AcDbBlockBegin
2
*PAPER_SPACE
0
ENDBLK
5
1D
100
AcDbEntity
100
AcDbBlockEnd
0
ENDSEC
0
SECTION
2
ENTITIES
0
CIRCLE
5
100
100
AcDbEntity
8
0
100
AcDbCircle
10
37.094647102726043
20
-37.094647102725951
30
0
40
0.80000000000000071
210
0
220
-0
230
1
0
CIRCLE
5
101
100
AcDbEntity
8
0
100
AcDbCircle
10
32.362698372207831
20
-39.347979746446875
30
0
40
0.80000000000000071
210
0
220
-0
230
1
0
CIRCLE
5
102
100
AcDbEntity
8
0
100
AcDbCircle
10
29.86240888793056
20
-39.347979746446875
30
0
40
0.80000000000000016
210
0
220
-0
230
1
0
CIRCLE
5
103
100
AcDbEntity
8
0
100
AcDbCircle
10
39.347979746446896
20
-29.862408887930538
30
0
40
0.80000000000000016
210
0
220
-0
230
1
0
CIRCLE
5
104
100
AcDbEntity
8
0
100
AcDbCircle
10
39.347979746446896
20
-32.362698372207809
30
0
40
0.80000000000000071
210
0
220
-0
230
1
0
CIRCLE
5
105
100
AcDbEntity
8
0
100
AcDbCircle
10
19.848966561325881
20
-31.848760158871059
30
0
40
1.6000000000000014
210
0
220
-0
230
1
0
ELLIPSE
5
106
100
AcDbEntity
8
0
100
AcDbEllipse
10
28.400000000000016
20
-13.650000000000002
30
0
11
0.82500000000000018
21
9.1586513037381625e-17
31
0.0
40
0.99999995477714143
41
0
42
6.2831853071795862
0
ELLIPSE
5
107
100
AcDbEntity
8
0
100
AcDbEllipse
10
28.400000000000016
20
-18.649999773885728
30
0
11
-0.82500000000000018
21
-9.1586513037381625e-17
31
0.0
40
0.99999995477714143
41
0
42
6.2831853071795862
0
CIRCLE
5
108
100
AcDbEntity
8
0
100
AcDbCircle
10
19.84876015887108
20
31.848966561325859
30
0
40
1.6000000000000012
210
0
220
-0
230
1
0
CIRCLE
5
109
100
AcDbEntity
8
0
100
AcDbCircle
10
36.929882333189525
20
-3.8100370145873415
30
0
40
0.79999999999999982
210
0
220
-0
230
1
0
CIRCLE
5
110
100
AcDbEntity
8
0
100
AcDbCircle
10
36.929187440020058
20
3.809962953727855
30
0
40
0.80000000000000171
210
0
220
-0
230
1
0
CIRCLE
5
111
100
AcDbEntity
8
0
100
AcDbCircle
10
39.347979746446896
20
29.862408887930513
30
0
40
0.80000000000000016
210
0
220
0
230
1
0
CIRCLE
5
112
100
AcDbEntity
8
0
100
AcDbCircle
10
39.34797974644691
20
32.362698372207781
30
0
40
0.80000000000000071
210
0
220
0
230
1
0
CIRCLE
5
113
100
AcDbEntity
8
0
100
AcDbCircle
10
37.094647102725979
20
37.094647102725993
30
0
40
0.80000000000000071
210
0
220
0
230
1
0
CIRCLE
5
114
100
AcDbEntity
8
0
100
AcDbCircle
10
32.362698372207845
20
39.347979746446846
30
0
40
0.80000000000000071
210
0
220
0
230
1
0
CIRCLE
5
115
100
AcDbEntity
8
0
100
AcDbCircle
10
29.86240888793057
20
39.347979746446853
30
0
40
0.80000000000000016
210
0
220
0
230
1
0
CIRCLE
5
116
100
AcDbEntity
8
0
100
AcDbCircle
10
3.8100370145873717
20
36.929882333189489
30
0
40
0.79999999999999982
210
0
220
0
230
1
0
CIRCLE
5
117
100
AcDbEntity
8
0
100
AcDbCircle
10
-3.8099629537278243
20
36.929187440020016
30
0
40
0.80000000000000171
210
0
220
0
230
1
0
CIRCLE
5
118
100
AcDbEntity
8
0
100
AcDbCircle
10
-29.862408887930492
20
39.34797974644686
30
0
40
0.80000000000000016
210
0
220
0
230
1
0
CIRCLE
5
119
100
AcDbEntity
8
0
100
AcDbCircle
10
-32.36269837220776
20
39.347979746446867
30
0
40
0.80000000000000071
210
0
220
0
230
1
0
CIRCLE
5
120
100
AcDbEntity
8
0
100
AcDbCircle
10
-37.094647102725979
20
37.094647102725936
30
0
40
0.80000000000000071
210
0
220
0
230
1
0
CIRCLE
5
121
100
AcDbEntity
8
0
100
AcDbCircle
10
-39.347979746446825
20
32.362698372207802
30
0
40
0.80000000000000071
210
0
220
0
230
1
0
CIRCLE
5
122
100
AcDbEntity
8
0
100
AcDbCircle
10
-39.347979746446825
20
29.862408887930524
30
0
40
0.80000000000000016
210
0
220
0
230
1
0
CIRCLE
5
123
100
AcDbEntity
8
0
100
AcDbCircle
10
-36.929882333189468
20
3.8100370145873281
30
0
40
0.79999999999999982
210
0
220
0
230
1
0
CIRCLE
5
124
100
AcDbEntity
8
0
100
AcDbCircle
10
-36.929187440019994
20
-3.8099629537278683
30
0
40
0.80000000000000171
210
0
220
0
230
1
0
CIRCLE
5
125
100
AcDbEntity
8
0
100
AcDbCircle
10
-39.347979746446839
20
-29.862408887930528
30
0
40
0.80000000000000016
210
0
220
0
230
1
0
CIRCLE
5
126
100
AcDbEntity
8
0
100
AcDbCircle
10
-39.347979746446846
20
-32.362698372207802
30
0
40
0.80000000000000071
210
0
220
0
230
1
0
CIRCLE
5
127
100
AcDbEntity
8
0
100
AcDbCircle
10
-37.094647102725922
20
-37.094647102726015
30
0
40
0.80000000000000071
210
0
220
0
230
1
0
CIRCLE
5
128
100
AcDbEntity
8
0
100
AcDbCircle
10
-32.362698372207781
20
-39.347979746446867
30
0
40
0.80000000000000071
210
0
220
0
230
1
0
CIRCLE
5
129
100
AcDbEntity
8
0
100
AcDbCircle
10
-29.862408887930506
20
-39.347979746446867
30
0
40
0.80000000000000016
210
0
220
0
230
1
0
CIRCLE
5
130
100
AcDbEntity
8
0
100
AcDbCircle
10
-3.8100370145873095
20
-36.929882333189504
30
0
40
0.79999999999999982
210
0
220
0
230
1
0
CIRCLE
5
131
100
AcDbEntity
8
0
100
AcDbCircle
10
3.8099629537278865
20
-36.929187440020037
30
0
40
0.80000000000000171
210
0
220
0
230
1
0
LWPOLYLINE
5
132
100
AcDbEntity
8
0
100
AcDbPolyline
90
4
70
1
43
0.0
10
20.000000000000032
20
53.510520819739625
10
-20.000000298023217
20
53.510520819739625
42
0.69380682518089909
10
-19.999999999999986
20
-53.510520819739625
10
20.000000261493817
20
-53.510520722004181
42
0.69380682518089909
0
LWPOLYLINE
5
133
100
AcDbEntity
8
0
100
AcDbPolyline
90
26
70
1
43
0.0
10
9.7500000000000835
20
31.349999999999607
42
0.41421356237309509
10
12.250000000000083
20
28.849999999999607
10
16.750000000000082
20
28.849999999999611
42
-0.41421356237309509
10
23.500000000000085
20
22.099999999999611
10
23.500000000000082
20
17.599999999999611
42
0.41421356237309742
10
26.000000000000085
20
15.099999999999609
42
-0.99999999999999989
10
26.000000000000085
20
8.0999999999996071
10
25.500000000000078
20
8.0999999999996106
42
0.32046505340852255
10
23.135135135135219
20
6.410810810810414
42
-0.12168465440946646
10
21.381307602261113
20
3.6894511617087966
42
0.23217806175925373
10
20.763121585270493
20
2.0390073651842942
42
-0.50595732076073807
10
-4.2454413126216419
20
-20.426477842767838
42
-0.59645957018661044
10
-4.7490730536934604
20
-18.740310701894192
10
-4.7010969176947022
20
-18.692332344306134
42
0.34501376942866163
10
-4.2689248050885773
20
-15.135833421931775
42
-0.1366838385209467
10
-4.7012569782162945
20
-13.584836567746393
10
-4.7056082678420834
20
13.579728600430599
42
-0.13673940513183086
10
-4.2734346060493795
20
15.131424186221508
42
0.3449851848859205
10
-4.7057602128151448
20
18.687669049185782
10
-5.0795311243771222
20
19.061457268633045
42
-0.58861199197820557
10
-4.7188248944926814
20
20.322338955324906
42
-0.0081931311060194894
10
-4.0504108938624759
20
20.466043598870787
42
0.39231745733811108
10
-3.4514165069330653
20
21.291596140159811
42
-0.35389177978606023
10
1.0608108108108927
20
28.48513513513474
42
0.32046505340852355
10
2.7500000000000795
20
30.849999999999611
10
2.7500000000000813
20
31.349999999999607
42
-0.99999999999999989
0
CIRCLE
5
134
100
AcDbEntity
8
0
100
AcDbCircle
10
12.750000000000083
20
31.849999999999604
30
0
40
1.6000000000000014
210
0
220
0
230
1
0
CIRCLE
5
135
100
AcDbEntity
8
0
100
AcDbCircle
10
26.500000000000085
20
3.9300000000000135
30
0
40
1.6000000000000003
210
0
220
0
230
1
0
CIRCLE
5
136
100
AcDbEntity
8
0
100
AcDbCircle
10
29.625235673771826
20
22.987937224257454
30
-3.6082248300317588e-15
40
1.4999999999999991
210
0
220
0
230
1
0
CIRCLE
5
137
100
AcDbEntity
8
0
100
AcDbCircle
10
29.625235673771826
20
17.907937224257449
30
-3.3306690738754696e-15
40
1.4999999999999991
210
0
220
0
230
1
0
CIRCLE
5
138
100
AcDbEntity
8
0
100
AcDbCircle
10
-17.713793283687703
20
28.489519268451062
30
5.5511151231257847e-16
40
0.76488636363636953
210
1.0345290776698349e-16
220
4.4509341188347269e-17
230
1
0
CIRCLE
5
139
100
AcDbEntity
8
0
100
AcDbCircle
10
-28.489519268450941
20
-17.713793283687821
30
2.7755575615628914e-15
40
0.7648863636363683
210
6.9192119116603665e-17
220
3.1591377369954207e-17
230
1
0
LWPOLYLINE
5
140
100
AcDbEntity
8
0
100
AcDbPolyline
90
12
70
1
43
0.0
10
-14.57936383411232
20
-4.7058077721958416
42
0.41420678117028908
10
-18.687669049185711
20
-4.7057602128152185
10
-18.738704521736217
20
-4.7567933222198082
42
-0.59632501911263658
10
-20.424790799690975
20
-4.2535502570039121
42
-0.10292168527673659
10
-20.426477842767795
20
4.2454413126217645
42
-0.59645957018661278
10
-18.740310701894145
20
4.7490730536935777
10
-18.692332344306109
20
4.7010969176948407
42
0.41420678117028975
10
-14.584027128682154
20
4.7011444765249149
10
-14.264727601316359
20
5.0204440039140517
42
-0.66812071495814007
10
-11.704067448741608
20
3.9600241060118928
10
-11.702798668872006
20
-3.9608123392814507
42
-0.66823656399351983
10
-14.263458821407983
20
-5.021712784900175
0
ENDSEC
0
SECTION
2
OBJECTS
0
DICTIONARY
5
C
100
AcDbDictionary
3
ACAD_GROUP
350
D
3
ACAD_MLINESTYLE
350
17
0
DICTIONARY
5
D
100
AcDbDictionary
0
DICTIONARY
5
1A
330
C
100
AcDbDictionary
0
DICTIONARY
5
17
100
AcDbDictionary
0
ENDSEC
0
EOF
