ISO-10303-21;
HEADER;
/* Generated by software containing ST-Developer
 * from STEP Tools, Inc. (www.steptools.com) 
 */

FILE_DESCRIPTION(
/* description */ (''),
/* implementation_level */ '2;1');

FILE_NAME(
/* name */ 'SW_Rocker.step',
/* time_stamp */ '2026-07-25T11:41:51+09:00',
/* author */ (''),
/* organization */ (''),
/* preprocessor_version */ 'ST-DEVELOPER v20.1',
/* originating_system */ 'Autodesk Translation Framework v15.8.0.0',
/* authorisation */ '');

FILE_SCHEMA (('AUTOMOTIVE_DESIGN { 1 0 10303 214 3 1 1 }'));
ENDSEC;

DATA;
#10=MECHANICAL_DESIGN_GEOMETRIC_PRESENTATION_REPRESENTATION('',(#63,#64,
#65,#66,#67,#68,#69,#70,#71,#72,#73,#74,#75,#76,#77,#78,#79,#80,#81,#82,
#83),#1828);
#11=SHAPE_REPRESENTATION_RELATIONSHIP('SRR','None',#1835,#12);
#12=ADVANCED_BREP_SHAPE_REPRESENTATION('',(#49,#50),#1827);
#13=B_SPLINE_CURVE_WITH_KNOTS('',2,(#1639,#1640,#1641),.UNSPECIFIED.,.F.,
 .F.,(3,3),(0.,1.),.UNSPECIFIED.);
#14=B_SPLINE_CURVE_WITH_KNOTS('',2,(#1643,#1644,#1645),.UNSPECIFIED.,.F.,
 .F.,(3,3),(0.,1.),.UNSPECIFIED.);
#15=B_SPLINE_CURVE_WITH_KNOTS('',2,(#1647,#1648,#1649),.UNSPECIFIED.,.F.,
 .F.,(3,3),(0.,1.),.UNSPECIFIED.);
#16=B_SPLINE_CURVE_WITH_KNOTS('',2,(#1651,#1652,#1653),.UNSPECIFIED.,.F.,
 .F.,(3,3),(0.,1.),.UNSPECIFIED.);
#17=B_SPLINE_CURVE_WITH_KNOTS('',2,(#1655,#1656,#1657),.UNSPECIFIED.,.F.,
 .F.,(3,3),(0.,1.),.UNSPECIFIED.);
#18=B_SPLINE_CURVE_WITH_KNOTS('',2,(#1659,#1660,#1661),.UNSPECIFIED.,.F.,
 .F.,(3,3),(0.,1.),.UNSPECIFIED.);
#19=B_SPLINE_CURVE_WITH_KNOTS('',2,(#1663,#1664,#1665),.UNSPECIFIED.,.F.,
 .F.,(3,3),(0.,1.),.UNSPECIFIED.);
#20=B_SPLINE_CURVE_WITH_KNOTS('',2,(#1667,#1668,#1669),.UNSPECIFIED.,.F.,
 .F.,(3,3),(0.,1.),.UNSPECIFIED.);
#21=B_SPLINE_CURVE_WITH_KNOTS('',2,(#1671,#1672,#1673),.UNSPECIFIED.,.F.,
 .F.,(3,3),(0.,1.),.UNSPECIFIED.);
#22=B_SPLINE_CURVE_WITH_KNOTS('',2,(#1674,#1675,#1676),.UNSPECIFIED.,.F.,
 .F.,(3,3),(0.,1.),.UNSPECIFIED.);
#23=B_SPLINE_CURVE_WITH_KNOTS('',2,(#1679,#1680,#1681),.UNSPECIFIED.,.F.,
 .F.,(3,3),(0.,1.),.UNSPECIFIED.);
#24=B_SPLINE_CURVE_WITH_KNOTS('',2,(#1683,#1684,#1685),.UNSPECIFIED.,.F.,
 .F.,(3,3),(0.,1.),.UNSPECIFIED.);
#25=B_SPLINE_CURVE_WITH_KNOTS('',2,(#1687,#1688,#1689),.UNSPECIFIED.,.F.,
 .F.,(3,3),(0.,1.),.UNSPECIFIED.);
#26=B_SPLINE_CURVE_WITH_KNOTS('',2,(#1691,#1692,#1693),.UNSPECIFIED.,.F.,
 .F.,(3,3),(0.,1.),.UNSPECIFIED.);
#27=B_SPLINE_CURVE_WITH_KNOTS('',2,(#1695,#1696,#1697),.UNSPECIFIED.,.F.,
 .F.,(3,3),(0.,1.),.UNSPECIFIED.);
#28=B_SPLINE_CURVE_WITH_KNOTS('',2,(#1699,#1700,#1701),.UNSPECIFIED.,.F.,
 .F.,(3,3),(0.,1.),.UNSPECIFIED.);
#29=B_SPLINE_CURVE_WITH_KNOTS('',2,(#1703,#1704,#1705),.UNSPECIFIED.,.F.,
 .F.,(3,3),(0.,1.),.UNSPECIFIED.);
#30=B_SPLINE_CURVE_WITH_KNOTS('',2,(#1706,#1707,#1708),.UNSPECIFIED.,.F.,
 .F.,(3,3),(0.,1.),.UNSPECIFIED.);
#31=B_SPLINE_CURVE_WITH_KNOTS('',2,(#1712,#1713,#1714),.UNSPECIFIED.,.F.,
 .F.,(3,3),(0.,1.),.UNSPECIFIED.);
#32=B_SPLINE_CURVE_WITH_KNOTS('',2,(#1716,#1717,#1718),.UNSPECIFIED.,.F.,
 .F.,(3,3),(0.,1.),.UNSPECIFIED.);
#33=B_SPLINE_CURVE_WITH_KNOTS('',2,(#1720,#1721,#1722),.UNSPECIFIED.,.F.,
 .F.,(3,3),(0.,1.),.UNSPECIFIED.);
#34=B_SPLINE_CURVE_WITH_KNOTS('',2,(#1724,#1725,#1726),.UNSPECIFIED.,.F.,
 .F.,(3,3),(0.,1.),.UNSPECIFIED.);
#35=B_SPLINE_CURVE_WITH_KNOTS('',2,(#1728,#1729,#1730),.UNSPECIFIED.,.F.,
 .F.,(3,3),(0.,1.),.UNSPECIFIED.);
#36=B_SPLINE_CURVE_WITH_KNOTS('',2,(#1732,#1733,#1734),.UNSPECIFIED.,.F.,
 .F.,(3,3),(0.,1.),.UNSPECIFIED.);
#37=B_SPLINE_CURVE_WITH_KNOTS('',2,(#1736,#1737,#1738),.UNSPECIFIED.,.F.,
 .F.,(3,3),(0.,1.),.UNSPECIFIED.);
#38=B_SPLINE_CURVE_WITH_KNOTS('',2,(#1740,#1741,#1742),.UNSPECIFIED.,.F.,
 .F.,(3,3),(0.,1.),.UNSPECIFIED.);
#39=B_SPLINE_CURVE_WITH_KNOTS('',2,(#1744,#1745,#1746),.UNSPECIFIED.,.F.,
 .F.,(3,3),(0.,1.),.UNSPECIFIED.);
#40=B_SPLINE_CURVE_WITH_KNOTS('',2,(#1747,#1748,#1749),.UNSPECIFIED.,.F.,
 .F.,(3,3),(0.,1.),.UNSPECIFIED.);
#41=B_SPLINE_CURVE_WITH_KNOTS('',2,(#1752,#1753,#1754),.UNSPECIFIED.,.F.,
 .F.,(3,3),(0.,1.),.UNSPECIFIED.);
#42=B_SPLINE_CURVE_WITH_KNOTS('',2,(#1756,#1757,#1758),.UNSPECIFIED.,.F.,
 .F.,(3,3),(0.,1.),.UNSPECIFIED.);
#43=B_SPLINE_CURVE_WITH_KNOTS('',2,(#1760,#1761,#1762),.UNSPECIFIED.,.F.,
 .F.,(3,3),(0.,1.),.UNSPECIFIED.);
#44=B_SPLINE_CURVE_WITH_KNOTS('',2,(#1764,#1765,#1766),.UNSPECIFIED.,.F.,
 .F.,(3,3),(0.,1.),.UNSPECIFIED.);
#45=B_SPLINE_CURVE_WITH_KNOTS('',2,(#1768,#1769,#1770),.UNSPECIFIED.,.F.,
 .F.,(3,3),(0.,1.),.UNSPECIFIED.);
#46=B_SPLINE_CURVE_WITH_KNOTS('',2,(#1772,#1773,#1774),.UNSPECIFIED.,.F.,
 .F.,(3,3),(0.,1.),.UNSPECIFIED.);
#47=B_SPLINE_CURVE_WITH_KNOTS('',2,(#1776,#1777,#1778),.UNSPECIFIED.,.F.,
 .F.,(3,3),(0.,1.),.UNSPECIFIED.);
#48=B_SPLINE_CURVE_WITH_KNOTS('',2,(#1779,#1780,#1781),.UNSPECIFIED.,.F.,
 .F.,(3,3),(0.,1.),.UNSPECIFIED.);
#49=MANIFOLD_SOLID_BREP('\X2\30DC30C730A3\X0\1',#1125);
#50=MANIFOLD_SOLID_BREP('\X2\30DC30C730A3\X0\2',#1126);
#51=CIRCLE('',#1158,0.90000005960465);
#52=CIRCLE('',#1159,0.90000005960465);
#53=CIRCLE('',#1162,0.9);
#54=CIRCLE('',#1163,0.9);
#55=CIRCLE('',#1165,1.4);
#56=CIRCLE('',#1167,1.4);
#57=CIRCLE('',#1169,1.4);
#58=CIRCLE('',#1172,1.4);
#59=CYLINDRICAL_SURFACE('',#1157,0.90000005960465);
#60=CYLINDRICAL_SURFACE('',#1161,0.9);
#61=CYLINDRICAL_SURFACE('',#1168,1.4);
#62=CYLINDRICAL_SURFACE('',#1171,1.4);
#63=STYLED_ITEM('',(#1846),#1095);
#64=STYLED_ITEM('',(#1846),#1096);
#65=STYLED_ITEM('',(#1846),#1097);
#66=STYLED_ITEM('',(#1846),#1098);
#67=STYLED_ITEM('',(#1846),#1099);
#68=STYLED_ITEM('',(#1846),#1100);
#69=STYLED_ITEM('',(#1846),#1101);
#70=STYLED_ITEM('',(#1846),#1102);
#71=STYLED_ITEM('',(#1846),#1103);
#72=STYLED_ITEM('',(#1846),#1104);
#73=STYLED_ITEM('',(#1846),#1105);
#74=STYLED_ITEM('',(#1846),#1106);
#75=STYLED_ITEM('',(#1846),#1107);
#76=STYLED_ITEM('',(#1846),#1108);
#77=STYLED_ITEM('',(#1845),#49);
#78=STYLED_ITEM('',(#1847),#1113);
#79=STYLED_ITEM('',(#1847),#1114);
#80=STYLED_ITEM('',(#1847),#1115);
#81=STYLED_ITEM('',(#1847),#1116);
#82=STYLED_ITEM('',(#1847),#1117);
#83=STYLED_ITEM('',(#1845),#50);
#84=FACE_BOUND('',#149,.T.);
#85=FACE_BOUND('',#155,.T.);
#86=FACE_BOUND('',#166,.T.);
#87=FACE_BOUND('',#175,.T.);
#88=FACE_BOUND('',#179,.T.);
#89=FACE_BOUND('',#180,.T.);
#90=FACE_BOUND('',#186,.T.);
#91=FACE_BOUND('',#188,.T.);
#92=FACE_BOUND('',#191,.T.);
#93=FACE_BOUND('',#192,.T.);
#94=FACE_BOUND('',#193,.T.);
#95=FACE_BOUND('',#194,.T.);
#96=FACE_BOUND('',#195,.T.);
#97=FACE_OUTER_BOUND('',#143,.T.);
#98=FACE_OUTER_BOUND('',#144,.T.);
#99=FACE_OUTER_BOUND('',#145,.T.);
#100=FACE_OUTER_BOUND('',#146,.T.);
#101=FACE_OUTER_BOUND('',#147,.T.);
#102=FACE_OUTER_BOUND('',#148,.T.);
#103=FACE_OUTER_BOUND('',#150,.T.);
#104=FACE_OUTER_BOUND('',#151,.T.);
#105=FACE_OUTER_BOUND('',#152,.T.);
#106=FACE_OUTER_BOUND('',#153,.T.);
#107=FACE_OUTER_BOUND('',#154,.T.);
#108=FACE_OUTER_BOUND('',#156,.T.);
#109=FACE_OUTER_BOUND('',#157,.T.);
#110=FACE_OUTER_BOUND('',#158,.T.);
#111=FACE_OUTER_BOUND('',#159,.T.);
#112=FACE_OUTER_BOUND('',#160,.T.);
#113=FACE_OUTER_BOUND('',#161,.T.);
#114=FACE_OUTER_BOUND('',#162,.T.);
#115=FACE_OUTER_BOUND('',#163,.T.);
#116=FACE_OUTER_BOUND('',#164,.T.);
#117=FACE_OUTER_BOUND('',#165,.T.);
#118=FACE_OUTER_BOUND('',#167,.T.);
#119=FACE_OUTER_BOUND('',#168,.T.);
#120=FACE_OUTER_BOUND('',#169,.T.);
#121=FACE_OUTER_BOUND('',#170,.T.);
#122=FACE_OUTER_BOUND('',#171,.T.);
#123=FACE_OUTER_BOUND('',#172,.T.);
#124=FACE_OUTER_BOUND('',#173,.T.);
#125=FACE_OUTER_BOUND('',#174,.T.);
#126=FACE_OUTER_BOUND('',#176,.T.);
#127=FACE_OUTER_BOUND('',#177,.T.);
#128=FACE_OUTER_BOUND('',#178,.T.);
#129=FACE_OUTER_BOUND('',#181,.T.);
#130=FACE_OUTER_BOUND('',#182,.T.);
#131=FACE_OUTER_BOUND('',#183,.T.);
#132=FACE_OUTER_BOUND('',#184,.T.);
#133=FACE_OUTER_BOUND('',#185,.T.);
#134=FACE_OUTER_BOUND('',#187,.T.);
#135=FACE_OUTER_BOUND('',#189,.T.);
#136=FACE_OUTER_BOUND('',#190,.T.);
#137=FACE_OUTER_BOUND('',#196,.T.);
#138=FACE_OUTER_BOUND('',#197,.T.);
#139=FACE_OUTER_BOUND('',#198,.T.);
#140=FACE_OUTER_BOUND('',#199,.T.);
#141=FACE_OUTER_BOUND('',#200,.T.);
#142=FACE_OUTER_BOUND('',#201,.T.);
#143=EDGE_LOOP('',(#719,#720,#721,#722));
#144=EDGE_LOOP('',(#723,#724,#725,#726));
#145=EDGE_LOOP('',(#727,#728,#729,#730));
#146=EDGE_LOOP('',(#731,#732,#733,#734));
#147=EDGE_LOOP('',(#735,#736,#737,#738));
#148=EDGE_LOOP('',(#739,#740,#741,#742));
#149=EDGE_LOOP('',(#743,#744,#745,#746));
#150=EDGE_LOOP('',(#747,#748,#749,#750));
#151=EDGE_LOOP('',(#751,#752,#753,#754));
#152=EDGE_LOOP('',(#755,#756,#757,#758));
#153=EDGE_LOOP('',(#759,#760,#761,#762));
#154=EDGE_LOOP('',(#763,#764,#765,#766));
#155=EDGE_LOOP('',(#767,#768,#769,#770));
#156=EDGE_LOOP('',(#771,#772,#773,#774));
#157=EDGE_LOOP('',(#775,#776,#777,#778));
#158=EDGE_LOOP('',(#779,#780,#781,#782));
#159=EDGE_LOOP('',(#783,#784,#785,#786));
#160=EDGE_LOOP('',(#787,#788,#789,#790));
#161=EDGE_LOOP('',(#791,#792,#793,#794));
#162=EDGE_LOOP('',(#795,#796,#797,#798));
#163=EDGE_LOOP('',(#799,#800,#801,#802));
#164=EDGE_LOOP('',(#803,#804,#805,#806));
#165=EDGE_LOOP('',(#807,#808,#809,#810));
#166=EDGE_LOOP('',(#811,#812,#813,#814));
#167=EDGE_LOOP('',(#815,#816,#817,#818));
#168=EDGE_LOOP('',(#819,#820,#821,#822));
#169=EDGE_LOOP('',(#823,#824,#825,#826));
#170=EDGE_LOOP('',(#827,#828,#829,#830));
#171=EDGE_LOOP('',(#831,#832,#833,#834));
#172=EDGE_LOOP('',(#835,#836,#837,#838));
#173=EDGE_LOOP('',(#839,#840,#841,#842));
#174=EDGE_LOOP('',(#843,#844,#845,#846));
#175=EDGE_LOOP('',(#847,#848,#849,#850));
#176=EDGE_LOOP('',(#851,#852,#853,#854));
#177=EDGE_LOOP('',(#855,#856,#857,#858));
#178=EDGE_LOOP('',(#859,#860,#861,#862));
#179=EDGE_LOOP('',(#863,#864,#865,#866));
#180=EDGE_LOOP('',(#867,#868,#869,#870));
#181=EDGE_LOOP('',(#871,#872,#873,#874,#875,#876,#877,#878));
#182=EDGE_LOOP('',(#879,#880,#881,#882,#883,#884,#885,#886));
#183=EDGE_LOOP('',(#887,#888,#889,#890,#891,#892,#893,#894,#895,#896));
#184=EDGE_LOOP('',(#897,#898,#899,#900,#901,#902,#903,#904,#905,#906));
#185=EDGE_LOOP('',(#907,#908,#909,#910,#911,#912,#913,#914,#915,#916));
#186=EDGE_LOOP('',(#917,#918,#919,#920,#921,#922,#923,#924));
#187=EDGE_LOOP('',(#925,#926,#927,#928,#929,#930,#931,#932,#933,#934));
#188=EDGE_LOOP('',(#935,#936,#937,#938,#939,#940,#941,#942));
#189=EDGE_LOOP('',(#943,#944,#945,#946,#947,#948,#949,#950,#951,#952));
#190=EDGE_LOOP('',(#953,#954,#955,#956));
#191=EDGE_LOOP('',(#957,#958,#959,#960,#961,#962,#963,#964,#965,#966));
#192=EDGE_LOOP('',(#967,#968,#969,#970,#971,#972,#973,#974,#975,#976));
#193=EDGE_LOOP('',(#977,#978,#979,#980,#981,#982,#983,#984,#985,#986));
#194=EDGE_LOOP('',(#987,#988,#989,#990,#991,#992,#993,#994,#995,#996));
#195=EDGE_LOOP('',(#997,#998,#999,#1000,#1001,#1002,#1003,#1004,#1005,#1006));
#196=EDGE_LOOP('',(#1007,#1008,#1009,#1010,#1011,#1012,#1013,#1014));
#197=EDGE_LOOP('',(#1015,#1016,#1017,#1018));
#198=EDGE_LOOP('',(#1019,#1020,#1021,#1022,#1023,#1024,#1025,#1026));
#199=EDGE_LOOP('',(#1027,#1028,#1029,#1030));
#200=EDGE_LOOP('',(#1031,#1032,#1033));
#201=EDGE_LOOP('',(#1034,#1035,#1036));
#202=LINE('',#1423,#317);
#203=LINE('',#1425,#318);
#204=LINE('',#1427,#319);
#205=LINE('',#1428,#320);
#206=LINE('',#1431,#321);
#207=LINE('',#1433,#322);
#208=LINE('',#1434,#323);
#209=LINE('',#1437,#324);
#210=LINE('',#1439,#325);
#211=LINE('',#1440,#326);
#212=LINE('',#1442,#327);
#213=LINE('',#1443,#328);
#214=LINE('',#1448,#329);
#215=LINE('',#1450,#330);
#216=LINE('',#1452,#331);
#217=LINE('',#1453,#332);
#218=LINE('',#1456,#333);
#219=LINE('',#1458,#334);
#220=LINE('',#1460,#335);
#221=LINE('',#1461,#336);
#222=LINE('',#1464,#337);
#223=LINE('',#1466,#338);
#224=LINE('',#1467,#339);
#225=LINE('',#1470,#340);
#226=LINE('',#1471,#341);
#227=LINE('',#1474,#342);
#228=LINE('',#1475,#343);
#229=LINE('',#1477,#344);
#230=LINE('',#1481,#345);
#231=LINE('',#1483,#346);
#232=LINE('',#1484,#347);
#233=LINE('',#1487,#348);
#234=LINE('',#1489,#349);
#235=LINE('',#1490,#350);
#236=LINE('',#1493,#351);
#237=LINE('',#1495,#352);
#238=LINE('',#1496,#353);
#239=LINE('',#1499,#354);
#240=LINE('',#1501,#355);
#241=LINE('',#1502,#356);
#242=LINE('',#1505,#357);
#243=LINE('',#1507,#358);
#244=LINE('',#1508,#359);
#245=LINE('',#1512,#360);
#246=LINE('',#1514,#361);
#247=LINE('',#1516,#362);
#248=LINE('',#1517,#363);
#249=LINE('',#1523,#364);
#250=LINE('',#1526,#365);
#251=LINE('',#1528,#366);
#252=LINE('',#1529,#367);
#253=LINE('',#1538,#368);
#254=LINE('',#1540,#369);
#255=LINE('',#1541,#370);
#256=LINE('',#1547,#371);
#257=LINE('',#1549,#372);
#258=LINE('',#1550,#373);
#259=LINE('',#1553,#374);
#260=LINE('',#1556,#375);
#261=LINE('',#1559,#376);
#262=LINE('',#1560,#377);
#263=LINE('',#1563,#378);
#264=LINE('',#1566,#379);
#265=LINE('',#1569,#380);
#266=LINE('',#1570,#381);
#267=LINE('',#1573,#382);
#268=LINE('',#1574,#383);
#269=LINE('',#1576,#384);
#270=LINE('',#1579,#385);
#271=LINE('',#1580,#386);
#272=LINE('',#1582,#387);
#273=LINE('',#1585,#388);
#274=LINE('',#1587,#389);
#275=LINE('',#1588,#390);
#276=LINE('',#1590,#391);
#277=LINE('',#1591,#392);
#278=LINE('',#1597,#393);
#279=LINE('',#1599,#394);
#280=LINE('',#1601,#395);
#281=LINE('',#1603,#396);
#282=LINE('',#1605,#397);
#283=LINE('',#1607,#398);
#284=LINE('',#1609,#399);
#285=LINE('',#1611,#400);
#286=LINE('',#1613,#401);
#287=LINE('',#1614,#402);
#288=LINE('',#1618,#403);
#289=LINE('',#1620,#404);
#290=LINE('',#1622,#405);
#291=LINE('',#1624,#406);
#292=LINE('',#1626,#407);
#293=LINE('',#1628,#408);
#294=LINE('',#1630,#409);
#295=LINE('',#1632,#410);
#296=LINE('',#1634,#411);
#297=LINE('',#1635,#412);
#298=LINE('',#1785,#413);
#299=LINE('',#1787,#414);
#300=LINE('',#1789,#415);
#301=LINE('',#1791,#416);
#302=LINE('',#1793,#417);
#303=LINE('',#1795,#418);
#304=LINE('',#1797,#419);
#305=LINE('',#1799,#420);
#306=LINE('',#1801,#421);
#307=LINE('',#1802,#422);
#308=LINE('',#1806,#423);
#309=LINE('',#1808,#424);
#310=LINE('',#1810,#425);
#311=LINE('',#1811,#426);
#312=LINE('',#1815,#427);
#313=LINE('',#1817,#428);
#314=LINE('',#1818,#429);
#315=LINE('',#1821,#430);
#316=LINE('',#1822,#431);
#317=VECTOR('',#1198,10.);
#318=VECTOR('',#1199,10.);
#319=VECTOR('',#1200,10.);
#320=VECTOR('',#1201,10.);
#321=VECTOR('',#1204,10.);
#322=VECTOR('',#1205,10.);
#323=VECTOR('',#1206,10.);
#324=VECTOR('',#1209,10.);
#325=VECTOR('',#1210,10.);
#326=VECTOR('',#1211,10.);
#327=VECTOR('',#1214,10.);
#328=VECTOR('',#1215,10.);
#329=VECTOR('',#1220,10.);
#330=VECTOR('',#1221,10.);
#331=VECTOR('',#1222,10.);
#332=VECTOR('',#1223,10.);
#333=VECTOR('',#1224,10.);
#334=VECTOR('',#1225,10.);
#335=VECTOR('',#1226,10.);
#336=VECTOR('',#1227,10.);
#337=VECTOR('',#1230,10.);
#338=VECTOR('',#1231,10.);
#339=VECTOR('',#1232,10.);
#340=VECTOR('',#1235,10.);
#341=VECTOR('',#1236,10.);
#342=VECTOR('',#1239,10.);
#343=VECTOR('',#1240,10.);
#344=VECTOR('',#1243,10.);
#345=VECTOR('',#1248,10.);
#346=VECTOR('',#1249,10.);
#347=VECTOR('',#1250,10.);
#348=VECTOR('',#1253,10.);
#349=VECTOR('',#1254,10.);
#350=VECTOR('',#1255,10.);
#351=VECTOR('',#1258,10.);
#352=VECTOR('',#1259,10.);
#353=VECTOR('',#1260,10.);
#354=VECTOR('',#1263,10.);
#355=VECTOR('',#1264,10.);
#356=VECTOR('',#1265,10.);
#357=VECTOR('',#1268,10.);
#358=VECTOR('',#1269,10.);
#359=VECTOR('',#1270,10.);
#360=VECTOR('',#1273,10.);
#361=VECTOR('',#1274,10.);
#362=VECTOR('',#1275,10.);
#363=VECTOR('',#1276,10.);
#364=VECTOR('',#1283,10.);
#365=VECTOR('',#1286,10.);
#366=VECTOR('',#1287,10.);
#367=VECTOR('',#1288,10.);
#368=VECTOR('',#1299,10.);
#369=VECTOR('',#1300,10.);
#370=VECTOR('',#1301,10.);
#371=VECTOR('',#1306,10.);
#372=VECTOR('',#1307,10.);
#373=VECTOR('',#1308,10.);
#374=VECTOR('',#1311,10.);
#375=VECTOR('',#1314,10.);
#376=VECTOR('',#1317,10.);
#377=VECTOR('',#1318,10.);
#378=VECTOR('',#1321,10.);
#379=VECTOR('',#1324,10.);
#380=VECTOR('',#1327,10.);
#381=VECTOR('',#1328,10.);
#382=VECTOR('',#1331,10.);
#383=VECTOR('',#1332,10.);
#384=VECTOR('',#1335,10.);
#385=VECTOR('',#1338,10.);
#386=VECTOR('',#1339,10.);
#387=VECTOR('',#1342,10.);
#388=VECTOR('',#1345,10.);
#389=VECTOR('',#1346,10.);
#390=VECTOR('',#1347,10.);
#391=VECTOR('',#1350,10.);
#392=VECTOR('',#1351,10.);
#393=VECTOR('',#1358,10.);
#394=VECTOR('',#1359,10.);
#395=VECTOR('',#1360,10.);
#396=VECTOR('',#1361,10.);
#397=VECTOR('',#1362,10.);
#398=VECTOR('',#1363,10.);
#399=VECTOR('',#1364,10.);
#400=VECTOR('',#1365,10.);
#401=VECTOR('',#1366,10.);
#402=VECTOR('',#1367,10.);
#403=VECTOR('',#1370,10.);
#404=VECTOR('',#1371,10.);
#405=VECTOR('',#1372,10.);
#406=VECTOR('',#1373,10.);
#407=VECTOR('',#1374,10.);
#408=VECTOR('',#1375,10.);
#409=VECTOR('',#1376,10.);
#410=VECTOR('',#1377,10.);
#411=VECTOR('',#1378,10.);
#412=VECTOR('',#1379,10.);
#413=VECTOR('',#1386,10.);
#414=VECTOR('',#1387,10.);
#415=VECTOR('',#1388,10.);
#416=VECTOR('',#1389,10.);
#417=VECTOR('',#1390,10.);
#418=VECTOR('',#1391,10.);
#419=VECTOR('',#1392,10.);
#420=VECTOR('',#1393,10.);
#421=VECTOR('',#1394,10.);
#422=VECTOR('',#1395,10.);
#423=VECTOR('',#1398,10.);
#424=VECTOR('',#1399,10.);
#425=VECTOR('',#1400,10.);
#426=VECTOR('',#1401,10.);
#427=VECTOR('',#1406,10.);
#428=VECTOR('',#1407,10.);
#429=VECTOR('',#1408,10.);
#430=VECTOR('',#1413,10.);
#431=VECTOR('',#1414,10.);
#432=VERTEX_POINT('',#1421);
#433=VERTEX_POINT('',#1422);
#434=VERTEX_POINT('',#1424);
#435=VERTEX_POINT('',#1426);
#436=VERTEX_POINT('',#1430);
#437=VERTEX_POINT('',#1432);
#438=VERTEX_POINT('',#1436);
#439=VERTEX_POINT('',#1438);
#440=VERTEX_POINT('',#1446);
#441=VERTEX_POINT('',#1447);
#442=VERTEX_POINT('',#1449);
#443=VERTEX_POINT('',#1451);
#444=VERTEX_POINT('',#1454);
#445=VERTEX_POINT('',#1455);
#446=VERTEX_POINT('',#1457);
#447=VERTEX_POINT('',#1459);
#448=VERTEX_POINT('',#1463);
#449=VERTEX_POINT('',#1465);
#450=VERTEX_POINT('',#1469);
#451=VERTEX_POINT('',#1473);
#452=VERTEX_POINT('',#1480);
#453=VERTEX_POINT('',#1482);
#454=VERTEX_POINT('',#1486);
#455=VERTEX_POINT('',#1488);
#456=VERTEX_POINT('',#1492);
#457=VERTEX_POINT('',#1494);
#458=VERTEX_POINT('',#1498);
#459=VERTEX_POINT('',#1500);
#460=VERTEX_POINT('',#1504);
#461=VERTEX_POINT('',#1506);
#462=VERTEX_POINT('',#1510);
#463=VERTEX_POINT('',#1511);
#464=VERTEX_POINT('',#1513);
#465=VERTEX_POINT('',#1515);
#466=VERTEX_POINT('',#1519);
#467=VERTEX_POINT('',#1521);
#468=VERTEX_POINT('',#1525);
#469=VERTEX_POINT('',#1527);
#470=VERTEX_POINT('',#1534);
#471=VERTEX_POINT('',#1535);
#472=VERTEX_POINT('',#1537);
#473=VERTEX_POINT('',#1539);
#474=VERTEX_POINT('',#1543);
#475=VERTEX_POINT('',#1544);
#476=VERTEX_POINT('',#1546);
#477=VERTEX_POINT('',#1548);
#478=VERTEX_POINT('',#1552);
#479=VERTEX_POINT('',#1554);
#480=VERTEX_POINT('',#1558);
#481=VERTEX_POINT('',#1562);
#482=VERTEX_POINT('',#1564);
#483=VERTEX_POINT('',#1568);
#484=VERTEX_POINT('',#1572);
#485=VERTEX_POINT('',#1578);
#486=VERTEX_POINT('',#1584);
#487=VERTEX_POINT('',#1586);
#488=VERTEX_POINT('',#1595);
#489=VERTEX_POINT('',#1596);
#490=VERTEX_POINT('',#1598);
#491=VERTEX_POINT('',#1600);
#492=VERTEX_POINT('',#1602);
#493=VERTEX_POINT('',#1604);
#494=VERTEX_POINT('',#1606);
#495=VERTEX_POINT('',#1608);
#496=VERTEX_POINT('',#1610);
#497=VERTEX_POINT('',#1612);
#498=VERTEX_POINT('',#1616);
#499=VERTEX_POINT('',#1617);
#500=VERTEX_POINT('',#1619);
#501=VERTEX_POINT('',#1621);
#502=VERTEX_POINT('',#1623);
#503=VERTEX_POINT('',#1625);
#504=VERTEX_POINT('',#1627);
#505=VERTEX_POINT('',#1629);
#506=VERTEX_POINT('',#1631);
#507=VERTEX_POINT('',#1633);
#508=VERTEX_POINT('',#1637);
#509=VERTEX_POINT('',#1638);
#510=VERTEX_POINT('',#1642);
#511=VERTEX_POINT('',#1646);
#512=VERTEX_POINT('',#1650);
#513=VERTEX_POINT('',#1654);
#514=VERTEX_POINT('',#1658);
#515=VERTEX_POINT('',#1662);
#516=VERTEX_POINT('',#1666);
#517=VERTEX_POINT('',#1670);
#518=VERTEX_POINT('',#1677);
#519=VERTEX_POINT('',#1678);
#520=VERTEX_POINT('',#1682);
#521=VERTEX_POINT('',#1686);
#522=VERTEX_POINT('',#1690);
#523=VERTEX_POINT('',#1694);
#524=VERTEX_POINT('',#1698);
#525=VERTEX_POINT('',#1702);
#526=VERTEX_POINT('',#1710);
#527=VERTEX_POINT('',#1711);
#528=VERTEX_POINT('',#1715);
#529=VERTEX_POINT('',#1719);
#530=VERTEX_POINT('',#1723);
#531=VERTEX_POINT('',#1727);
#532=VERTEX_POINT('',#1731);
#533=VERTEX_POINT('',#1735);
#534=VERTEX_POINT('',#1739);
#535=VERTEX_POINT('',#1743);
#536=VERTEX_POINT('',#1750);
#537=VERTEX_POINT('',#1751);
#538=VERTEX_POINT('',#1755);
#539=VERTEX_POINT('',#1759);
#540=VERTEX_POINT('',#1763);
#541=VERTEX_POINT('',#1767);
#542=VERTEX_POINT('',#1771);
#543=VERTEX_POINT('',#1775);
#544=VERTEX_POINT('',#1783);
#545=VERTEX_POINT('',#1784);
#546=VERTEX_POINT('',#1786);
#547=VERTEX_POINT('',#1788);
#548=VERTEX_POINT('',#1790);
#549=VERTEX_POINT('',#1792);
#550=VERTEX_POINT('',#1794);
#551=VERTEX_POINT('',#1796);
#552=VERTEX_POINT('',#1798);
#553=VERTEX_POINT('',#1800);
#554=VERTEX_POINT('',#1804);
#555=VERTEX_POINT('',#1805);
#556=VERTEX_POINT('',#1807);
#557=VERTEX_POINT('',#1809);
#558=VERTEX_POINT('',#1814);
#559=VERTEX_POINT('',#1816);
#560=EDGE_CURVE('',#432,#433,#202,.T.);
#561=EDGE_CURVE('',#434,#432,#203,.T.);
#562=EDGE_CURVE('',#435,#434,#204,.T.);
#563=EDGE_CURVE('',#433,#435,#205,.T.);
#564=EDGE_CURVE('',#436,#432,#206,.T.);
#565=EDGE_CURVE('',#437,#436,#207,.T.);
#566=EDGE_CURVE('',#434,#437,#208,.T.);
#567=EDGE_CURVE('',#438,#436,#209,.T.);
#568=EDGE_CURVE('',#439,#438,#210,.T.);
#569=EDGE_CURVE('',#437,#439,#211,.T.);
#570=EDGE_CURVE('',#433,#438,#212,.T.);
#571=EDGE_CURVE('',#439,#435,#213,.T.);
#572=EDGE_CURVE('',#440,#441,#214,.T.);
#573=EDGE_CURVE('',#442,#440,#215,.T.);
#574=EDGE_CURVE('',#443,#442,#216,.T.);
#575=EDGE_CURVE('',#441,#443,#217,.T.);
#576=EDGE_CURVE('',#444,#445,#218,.T.);
#577=EDGE_CURVE('',#445,#446,#219,.T.);
#578=EDGE_CURVE('',#446,#447,#220,.T.);
#579=EDGE_CURVE('',#444,#447,#221,.T.);
#580=EDGE_CURVE('',#440,#448,#222,.T.);
#581=EDGE_CURVE('',#449,#448,#223,.T.);
#582=EDGE_CURVE('',#442,#449,#224,.T.);
#583=EDGE_CURVE('',#450,#449,#225,.T.);
#584=EDGE_CURVE('',#443,#450,#226,.T.);
#585=EDGE_CURVE('',#451,#450,#227,.T.);
#586=EDGE_CURVE('',#441,#451,#228,.T.);
#587=EDGE_CURVE('',#448,#451,#229,.T.);
#588=EDGE_CURVE('',#452,#446,#230,.T.);
#589=EDGE_CURVE('',#453,#452,#231,.T.);
#590=EDGE_CURVE('',#447,#453,#232,.T.);
#591=EDGE_CURVE('',#454,#452,#233,.T.);
#592=EDGE_CURVE('',#455,#454,#234,.T.);
#593=EDGE_CURVE('',#453,#455,#235,.T.);
#594=EDGE_CURVE('',#445,#456,#236,.T.);
#595=EDGE_CURVE('',#457,#444,#237,.T.);
#596=EDGE_CURVE('',#457,#456,#238,.T.);
#597=EDGE_CURVE('',#456,#458,#239,.T.);
#598=EDGE_CURVE('',#459,#457,#240,.T.);
#599=EDGE_CURVE('',#458,#459,#241,.T.);
#600=EDGE_CURVE('',#454,#460,#242,.T.);
#601=EDGE_CURVE('',#460,#461,#243,.T.);
#602=EDGE_CURVE('',#455,#461,#244,.T.);
#603=EDGE_CURVE('',#462,#463,#245,.T.);
#604=EDGE_CURVE('',#464,#462,#246,.T.);
#605=EDGE_CURVE('',#465,#464,#247,.T.);
#606=EDGE_CURVE('',#465,#463,#248,.T.);
#607=EDGE_CURVE('',#463,#466,#51,.T.);
#608=EDGE_CURVE('',#467,#465,#52,.T.);
#609=EDGE_CURVE('',#467,#466,#249,.T.);
#610=EDGE_CURVE('',#466,#468,#250,.T.);
#611=EDGE_CURVE('',#469,#467,#251,.T.);
#612=EDGE_CURVE('',#469,#468,#252,.T.);
#613=EDGE_CURVE('',#468,#462,#53,.T.);
#614=EDGE_CURVE('',#464,#469,#54,.T.);
#615=EDGE_CURVE('',#470,#471,#55,.T.);
#616=EDGE_CURVE('',#472,#470,#253,.T.);
#617=EDGE_CURVE('',#473,#472,#254,.T.);
#618=EDGE_CURVE('',#473,#471,#255,.T.);
#619=EDGE_CURVE('',#474,#475,#56,.T.);
#620=EDGE_CURVE('',#476,#474,#256,.T.);
#621=EDGE_CURVE('',#477,#476,#257,.T.);
#622=EDGE_CURVE('',#477,#475,#258,.T.);
#623=EDGE_CURVE('',#471,#478,#259,.T.);
#624=EDGE_CURVE('',#478,#479,#57,.T.);
#625=EDGE_CURVE('',#479,#470,#260,.T.);
#626=EDGE_CURVE('',#480,#479,#261,.T.);
#627=EDGE_CURVE('',#472,#480,#262,.T.);
#628=EDGE_CURVE('',#475,#481,#263,.T.);
#629=EDGE_CURVE('',#481,#482,#58,.T.);
#630=EDGE_CURVE('',#482,#474,#264,.T.);
#631=EDGE_CURVE('',#483,#482,#265,.T.);
#632=EDGE_CURVE('',#476,#483,#266,.T.);
#633=EDGE_CURVE('',#484,#481,#267,.T.);
#634=EDGE_CURVE('',#483,#484,#268,.T.);
#635=EDGE_CURVE('',#484,#477,#269,.T.);
#636=EDGE_CURVE('',#485,#478,#270,.T.);
#637=EDGE_CURVE('',#480,#485,#271,.T.);
#638=EDGE_CURVE('',#485,#473,#272,.T.);
#639=EDGE_CURVE('',#486,#459,#273,.T.);
#640=EDGE_CURVE('',#487,#486,#274,.T.);
#641=EDGE_CURVE('',#487,#458,#275,.T.);
#642=EDGE_CURVE('',#460,#487,#276,.T.);
#643=EDGE_CURVE('',#461,#486,#277,.T.);
#644=EDGE_CURVE('',#488,#489,#278,.T.);
#645=EDGE_CURVE('',#490,#488,#279,.T.);
#646=EDGE_CURVE('',#491,#490,#280,.T.);
#647=EDGE_CURVE('',#492,#491,#281,.T.);
#648=EDGE_CURVE('',#493,#492,#282,.T.);
#649=EDGE_CURVE('',#494,#493,#283,.T.);
#650=EDGE_CURVE('',#495,#494,#284,.T.);
#651=EDGE_CURVE('',#496,#495,#285,.T.);
#652=EDGE_CURVE('',#497,#496,#286,.T.);
#653=EDGE_CURVE('',#489,#497,#287,.T.);
#654=EDGE_CURVE('',#498,#499,#288,.T.);
#655=EDGE_CURVE('',#500,#498,#289,.T.);
#656=EDGE_CURVE('',#501,#500,#290,.T.);
#657=EDGE_CURVE('',#502,#501,#291,.T.);
#658=EDGE_CURVE('',#503,#502,#292,.T.);
#659=EDGE_CURVE('',#504,#503,#293,.T.);
#660=EDGE_CURVE('',#505,#504,#294,.T.);
#661=EDGE_CURVE('',#506,#505,#295,.T.);
#662=EDGE_CURVE('',#507,#506,#296,.T.);
#663=EDGE_CURVE('',#499,#507,#297,.T.);
#664=EDGE_CURVE('',#508,#509,#13,.T.);
#665=EDGE_CURVE('',#510,#508,#14,.T.);
#666=EDGE_CURVE('',#511,#510,#15,.T.);
#667=EDGE_CURVE('',#512,#511,#16,.T.);
#668=EDGE_CURVE('',#513,#512,#17,.T.);
#669=EDGE_CURVE('',#514,#513,#18,.T.);
#670=EDGE_CURVE('',#515,#514,#19,.T.);
#671=EDGE_CURVE('',#516,#515,#20,.T.);
#672=EDGE_CURVE('',#517,#516,#21,.T.);
#673=EDGE_CURVE('',#509,#517,#22,.T.);
#674=EDGE_CURVE('',#518,#519,#23,.T.);
#675=EDGE_CURVE('',#520,#518,#24,.T.);
#676=EDGE_CURVE('',#521,#520,#25,.T.);
#677=EDGE_CURVE('',#522,#521,#26,.T.);
#678=EDGE_CURVE('',#523,#522,#27,.T.);
#679=EDGE_CURVE('',#524,#523,#28,.T.);
#680=EDGE_CURVE('',#525,#524,#29,.T.);
#681=EDGE_CURVE('',#519,#525,#30,.T.);
#682=EDGE_CURVE('',#526,#527,#31,.T.);
#683=EDGE_CURVE('',#528,#526,#32,.T.);
#684=EDGE_CURVE('',#529,#528,#33,.T.);
#685=EDGE_CURVE('',#530,#529,#34,.T.);
#686=EDGE_CURVE('',#531,#530,#35,.T.);
#687=EDGE_CURVE('',#532,#531,#36,.T.);
#688=EDGE_CURVE('',#533,#532,#37,.T.);
#689=EDGE_CURVE('',#534,#533,#38,.T.);
#690=EDGE_CURVE('',#535,#534,#39,.T.);
#691=EDGE_CURVE('',#527,#535,#40,.T.);
#692=EDGE_CURVE('',#536,#537,#41,.T.);
#693=EDGE_CURVE('',#538,#536,#42,.T.);
#694=EDGE_CURVE('',#539,#538,#43,.T.);
#695=EDGE_CURVE('',#540,#539,#44,.T.);
#696=EDGE_CURVE('',#541,#540,#45,.T.);
#697=EDGE_CURVE('',#542,#541,#46,.T.);
#698=EDGE_CURVE('',#543,#542,#47,.T.);
#699=EDGE_CURVE('',#537,#543,#48,.T.);
#700=EDGE_CURVE('',#544,#545,#298,.T.);
#701=EDGE_CURVE('',#546,#544,#299,.T.);
#702=EDGE_CURVE('',#547,#546,#300,.T.);
#703=EDGE_CURVE('',#548,#547,#301,.T.);
#704=EDGE_CURVE('',#549,#548,#302,.T.);
#705=EDGE_CURVE('',#550,#549,#303,.T.);
#706=EDGE_CURVE('',#551,#550,#304,.T.);
#707=EDGE_CURVE('',#552,#551,#305,.T.);
#708=EDGE_CURVE('',#553,#552,#306,.T.);
#709=EDGE_CURVE('',#545,#553,#307,.T.);
#710=EDGE_CURVE('',#554,#555,#308,.T.);
#711=EDGE_CURVE('',#555,#556,#309,.T.);
#712=EDGE_CURVE('',#557,#556,#310,.T.);
#713=EDGE_CURVE('',#554,#557,#311,.T.);
#714=EDGE_CURVE('',#555,#558,#312,.T.);
#715=EDGE_CURVE('',#558,#559,#313,.T.);
#716=EDGE_CURVE('',#556,#559,#314,.T.);
#717=EDGE_CURVE('',#558,#554,#315,.T.);
#718=EDGE_CURVE('',#559,#557,#316,.T.);
#719=ORIENTED_EDGE('',*,*,#560,.F.);
#720=ORIENTED_EDGE('',*,*,#561,.F.);
#721=ORIENTED_EDGE('',*,*,#562,.F.);
#722=ORIENTED_EDGE('',*,*,#563,.F.);
#723=ORIENTED_EDGE('',*,*,#564,.F.);
#724=ORIENTED_EDGE('',*,*,#565,.F.);
#725=ORIENTED_EDGE('',*,*,#566,.F.);
#726=ORIENTED_EDGE('',*,*,#561,.T.);
#727=ORIENTED_EDGE('',*,*,#567,.F.);
#728=ORIENTED_EDGE('',*,*,#568,.F.);
#729=ORIENTED_EDGE('',*,*,#569,.F.);
#730=ORIENTED_EDGE('',*,*,#565,.T.);
#731=ORIENTED_EDGE('',*,*,#570,.F.);
#732=ORIENTED_EDGE('',*,*,#563,.T.);
#733=ORIENTED_EDGE('',*,*,#571,.F.);
#734=ORIENTED_EDGE('',*,*,#568,.T.);
#735=ORIENTED_EDGE('',*,*,#566,.T.);
#736=ORIENTED_EDGE('',*,*,#569,.T.);
#737=ORIENTED_EDGE('',*,*,#571,.T.);
#738=ORIENTED_EDGE('',*,*,#562,.T.);
#739=ORIENTED_EDGE('',*,*,#572,.F.);
#740=ORIENTED_EDGE('',*,*,#573,.F.);
#741=ORIENTED_EDGE('',*,*,#574,.F.);
#742=ORIENTED_EDGE('',*,*,#575,.F.);
#743=ORIENTED_EDGE('',*,*,#576,.T.);
#744=ORIENTED_EDGE('',*,*,#577,.T.);
#745=ORIENTED_EDGE('',*,*,#578,.T.);
#746=ORIENTED_EDGE('',*,*,#579,.F.);
#747=ORIENTED_EDGE('',*,*,#573,.T.);
#748=ORIENTED_EDGE('',*,*,#580,.T.);
#749=ORIENTED_EDGE('',*,*,#581,.F.);
#750=ORIENTED_EDGE('',*,*,#582,.F.);
#751=ORIENTED_EDGE('',*,*,#574,.T.);
#752=ORIENTED_EDGE('',*,*,#582,.T.);
#753=ORIENTED_EDGE('',*,*,#583,.F.);
#754=ORIENTED_EDGE('',*,*,#584,.F.);
#755=ORIENTED_EDGE('',*,*,#575,.T.);
#756=ORIENTED_EDGE('',*,*,#584,.T.);
#757=ORIENTED_EDGE('',*,*,#585,.F.);
#758=ORIENTED_EDGE('',*,*,#586,.F.);
#759=ORIENTED_EDGE('',*,*,#572,.T.);
#760=ORIENTED_EDGE('',*,*,#586,.T.);
#761=ORIENTED_EDGE('',*,*,#587,.F.);
#762=ORIENTED_EDGE('',*,*,#580,.F.);
#763=ORIENTED_EDGE('',*,*,#587,.T.);
#764=ORIENTED_EDGE('',*,*,#585,.T.);
#765=ORIENTED_EDGE('',*,*,#583,.T.);
#766=ORIENTED_EDGE('',*,*,#581,.T.);
#767=ORIENTED_EDGE('',*,*,#570,.T.);
#768=ORIENTED_EDGE('',*,*,#567,.T.);
#769=ORIENTED_EDGE('',*,*,#564,.T.);
#770=ORIENTED_EDGE('',*,*,#560,.T.);
#771=ORIENTED_EDGE('',*,*,#588,.F.);
#772=ORIENTED_EDGE('',*,*,#589,.F.);
#773=ORIENTED_EDGE('',*,*,#590,.F.);
#774=ORIENTED_EDGE('',*,*,#578,.F.);
#775=ORIENTED_EDGE('',*,*,#591,.F.);
#776=ORIENTED_EDGE('',*,*,#592,.F.);
#777=ORIENTED_EDGE('',*,*,#593,.F.);
#778=ORIENTED_EDGE('',*,*,#589,.T.);
#779=ORIENTED_EDGE('',*,*,#594,.F.);
#780=ORIENTED_EDGE('',*,*,#576,.F.);
#781=ORIENTED_EDGE('',*,*,#595,.F.);
#782=ORIENTED_EDGE('',*,*,#596,.T.);
#783=ORIENTED_EDGE('',*,*,#597,.F.);
#784=ORIENTED_EDGE('',*,*,#596,.F.);
#785=ORIENTED_EDGE('',*,*,#598,.F.);
#786=ORIENTED_EDGE('',*,*,#599,.F.);
#787=ORIENTED_EDGE('',*,*,#592,.T.);
#788=ORIENTED_EDGE('',*,*,#600,.T.);
#789=ORIENTED_EDGE('',*,*,#601,.T.);
#790=ORIENTED_EDGE('',*,*,#602,.F.);
#791=ORIENTED_EDGE('',*,*,#603,.F.);
#792=ORIENTED_EDGE('',*,*,#604,.F.);
#793=ORIENTED_EDGE('',*,*,#605,.F.);
#794=ORIENTED_EDGE('',*,*,#606,.T.);
#795=ORIENTED_EDGE('',*,*,#607,.F.);
#796=ORIENTED_EDGE('',*,*,#606,.F.);
#797=ORIENTED_EDGE('',*,*,#608,.F.);
#798=ORIENTED_EDGE('',*,*,#609,.T.);
#799=ORIENTED_EDGE('',*,*,#610,.F.);
#800=ORIENTED_EDGE('',*,*,#609,.F.);
#801=ORIENTED_EDGE('',*,*,#611,.F.);
#802=ORIENTED_EDGE('',*,*,#612,.T.);
#803=ORIENTED_EDGE('',*,*,#613,.F.);
#804=ORIENTED_EDGE('',*,*,#612,.F.);
#805=ORIENTED_EDGE('',*,*,#614,.F.);
#806=ORIENTED_EDGE('',*,*,#604,.T.);
#807=ORIENTED_EDGE('',*,*,#615,.F.);
#808=ORIENTED_EDGE('',*,*,#616,.F.);
#809=ORIENTED_EDGE('',*,*,#617,.F.);
#810=ORIENTED_EDGE('',*,*,#618,.T.);
#811=ORIENTED_EDGE('',*,*,#611,.T.);
#812=ORIENTED_EDGE('',*,*,#608,.T.);
#813=ORIENTED_EDGE('',*,*,#605,.T.);
#814=ORIENTED_EDGE('',*,*,#614,.T.);
#815=ORIENTED_EDGE('',*,*,#619,.F.);
#816=ORIENTED_EDGE('',*,*,#620,.F.);
#817=ORIENTED_EDGE('',*,*,#621,.F.);
#818=ORIENTED_EDGE('',*,*,#622,.T.);
#819=ORIENTED_EDGE('',*,*,#615,.T.);
#820=ORIENTED_EDGE('',*,*,#623,.T.);
#821=ORIENTED_EDGE('',*,*,#624,.T.);
#822=ORIENTED_EDGE('',*,*,#625,.T.);
#823=ORIENTED_EDGE('',*,*,#625,.F.);
#824=ORIENTED_EDGE('',*,*,#626,.F.);
#825=ORIENTED_EDGE('',*,*,#627,.F.);
#826=ORIENTED_EDGE('',*,*,#616,.T.);
#827=ORIENTED_EDGE('',*,*,#619,.T.);
#828=ORIENTED_EDGE('',*,*,#628,.T.);
#829=ORIENTED_EDGE('',*,*,#629,.T.);
#830=ORIENTED_EDGE('',*,*,#630,.T.);
#831=ORIENTED_EDGE('',*,*,#630,.F.);
#832=ORIENTED_EDGE('',*,*,#631,.F.);
#833=ORIENTED_EDGE('',*,*,#632,.F.);
#834=ORIENTED_EDGE('',*,*,#620,.T.);
#835=ORIENTED_EDGE('',*,*,#629,.F.);
#836=ORIENTED_EDGE('',*,*,#633,.F.);
#837=ORIENTED_EDGE('',*,*,#634,.F.);
#838=ORIENTED_EDGE('',*,*,#631,.T.);
#839=ORIENTED_EDGE('',*,*,#628,.F.);
#840=ORIENTED_EDGE('',*,*,#622,.F.);
#841=ORIENTED_EDGE('',*,*,#635,.F.);
#842=ORIENTED_EDGE('',*,*,#633,.T.);
#843=ORIENTED_EDGE('',*,*,#624,.F.);
#844=ORIENTED_EDGE('',*,*,#636,.F.);
#845=ORIENTED_EDGE('',*,*,#637,.F.);
#846=ORIENTED_EDGE('',*,*,#626,.T.);
#847=ORIENTED_EDGE('',*,*,#610,.T.);
#848=ORIENTED_EDGE('',*,*,#613,.T.);
#849=ORIENTED_EDGE('',*,*,#603,.T.);
#850=ORIENTED_EDGE('',*,*,#607,.T.);
#851=ORIENTED_EDGE('',*,*,#623,.F.);
#852=ORIENTED_EDGE('',*,*,#618,.F.);
#853=ORIENTED_EDGE('',*,*,#638,.F.);
#854=ORIENTED_EDGE('',*,*,#636,.T.);
#855=ORIENTED_EDGE('',*,*,#599,.T.);
#856=ORIENTED_EDGE('',*,*,#639,.F.);
#857=ORIENTED_EDGE('',*,*,#640,.F.);
#858=ORIENTED_EDGE('',*,*,#641,.T.);
#859=ORIENTED_EDGE('',*,*,#642,.T.);
#860=ORIENTED_EDGE('',*,*,#640,.T.);
#861=ORIENTED_EDGE('',*,*,#643,.F.);
#862=ORIENTED_EDGE('',*,*,#601,.F.);
#863=ORIENTED_EDGE('',*,*,#632,.T.);
#864=ORIENTED_EDGE('',*,*,#634,.T.);
#865=ORIENTED_EDGE('',*,*,#635,.T.);
#866=ORIENTED_EDGE('',*,*,#621,.T.);
#867=ORIENTED_EDGE('',*,*,#627,.T.);
#868=ORIENTED_EDGE('',*,*,#637,.T.);
#869=ORIENTED_EDGE('',*,*,#638,.T.);
#870=ORIENTED_EDGE('',*,*,#617,.T.);
#871=ORIENTED_EDGE('',*,*,#593,.T.);
#872=ORIENTED_EDGE('',*,*,#602,.T.);
#873=ORIENTED_EDGE('',*,*,#643,.T.);
#874=ORIENTED_EDGE('',*,*,#639,.T.);
#875=ORIENTED_EDGE('',*,*,#598,.T.);
#876=ORIENTED_EDGE('',*,*,#595,.T.);
#877=ORIENTED_EDGE('',*,*,#579,.T.);
#878=ORIENTED_EDGE('',*,*,#590,.T.);
#879=ORIENTED_EDGE('',*,*,#588,.T.);
#880=ORIENTED_EDGE('',*,*,#577,.F.);
#881=ORIENTED_EDGE('',*,*,#594,.T.);
#882=ORIENTED_EDGE('',*,*,#597,.T.);
#883=ORIENTED_EDGE('',*,*,#641,.F.);
#884=ORIENTED_EDGE('',*,*,#642,.F.);
#885=ORIENTED_EDGE('',*,*,#600,.F.);
#886=ORIENTED_EDGE('',*,*,#591,.T.);
#887=ORIENTED_EDGE('',*,*,#644,.F.);
#888=ORIENTED_EDGE('',*,*,#645,.F.);
#889=ORIENTED_EDGE('',*,*,#646,.F.);
#890=ORIENTED_EDGE('',*,*,#647,.F.);
#891=ORIENTED_EDGE('',*,*,#648,.F.);
#892=ORIENTED_EDGE('',*,*,#649,.F.);
#893=ORIENTED_EDGE('',*,*,#650,.F.);
#894=ORIENTED_EDGE('',*,*,#651,.F.);
#895=ORIENTED_EDGE('',*,*,#652,.F.);
#896=ORIENTED_EDGE('',*,*,#653,.F.);
#897=ORIENTED_EDGE('',*,*,#654,.F.);
#898=ORIENTED_EDGE('',*,*,#655,.F.);
#899=ORIENTED_EDGE('',*,*,#656,.F.);
#900=ORIENTED_EDGE('',*,*,#657,.F.);
#901=ORIENTED_EDGE('',*,*,#658,.F.);
#902=ORIENTED_EDGE('',*,*,#659,.F.);
#903=ORIENTED_EDGE('',*,*,#660,.F.);
#904=ORIENTED_EDGE('',*,*,#661,.F.);
#905=ORIENTED_EDGE('',*,*,#662,.F.);
#906=ORIENTED_EDGE('',*,*,#663,.F.);
#907=ORIENTED_EDGE('',*,*,#664,.F.);
#908=ORIENTED_EDGE('',*,*,#665,.F.);
#909=ORIENTED_EDGE('',*,*,#666,.F.);
#910=ORIENTED_EDGE('',*,*,#667,.F.);
#911=ORIENTED_EDGE('',*,*,#668,.F.);
#912=ORIENTED_EDGE('',*,*,#669,.F.);
#913=ORIENTED_EDGE('',*,*,#670,.F.);
#914=ORIENTED_EDGE('',*,*,#671,.F.);
#915=ORIENTED_EDGE('',*,*,#672,.F.);
#916=ORIENTED_EDGE('',*,*,#673,.F.);
#917=ORIENTED_EDGE('',*,*,#674,.F.);
#918=ORIENTED_EDGE('',*,*,#675,.F.);
#919=ORIENTED_EDGE('',*,*,#676,.F.);
#920=ORIENTED_EDGE('',*,*,#677,.F.);
#921=ORIENTED_EDGE('',*,*,#678,.F.);
#922=ORIENTED_EDGE('',*,*,#679,.F.);
#923=ORIENTED_EDGE('',*,*,#680,.F.);
#924=ORIENTED_EDGE('',*,*,#681,.F.);
#925=ORIENTED_EDGE('',*,*,#682,.F.);
#926=ORIENTED_EDGE('',*,*,#683,.F.);
#927=ORIENTED_EDGE('',*,*,#684,.F.);
#928=ORIENTED_EDGE('',*,*,#685,.F.);
#929=ORIENTED_EDGE('',*,*,#686,.F.);
#930=ORIENTED_EDGE('',*,*,#687,.F.);
#931=ORIENTED_EDGE('',*,*,#688,.F.);
#932=ORIENTED_EDGE('',*,*,#689,.F.);
#933=ORIENTED_EDGE('',*,*,#690,.F.);
#934=ORIENTED_EDGE('',*,*,#691,.F.);
#935=ORIENTED_EDGE('',*,*,#692,.F.);
#936=ORIENTED_EDGE('',*,*,#693,.F.);
#937=ORIENTED_EDGE('',*,*,#694,.F.);
#938=ORIENTED_EDGE('',*,*,#695,.F.);
#939=ORIENTED_EDGE('',*,*,#696,.F.);
#940=ORIENTED_EDGE('',*,*,#697,.F.);
#941=ORIENTED_EDGE('',*,*,#698,.F.);
#942=ORIENTED_EDGE('',*,*,#699,.F.);
#943=ORIENTED_EDGE('',*,*,#700,.F.);
#944=ORIENTED_EDGE('',*,*,#701,.F.);
#945=ORIENTED_EDGE('',*,*,#702,.F.);
#946=ORIENTED_EDGE('',*,*,#703,.F.);
#947=ORIENTED_EDGE('',*,*,#704,.F.);
#948=ORIENTED_EDGE('',*,*,#705,.F.);
#949=ORIENTED_EDGE('',*,*,#706,.F.);
#950=ORIENTED_EDGE('',*,*,#707,.F.);
#951=ORIENTED_EDGE('',*,*,#708,.F.);
#952=ORIENTED_EDGE('',*,*,#709,.F.);
#953=ORIENTED_EDGE('',*,*,#710,.T.);
#954=ORIENTED_EDGE('',*,*,#711,.T.);
#955=ORIENTED_EDGE('',*,*,#712,.F.);
#956=ORIENTED_EDGE('',*,*,#713,.F.);
#957=ORIENTED_EDGE('',*,*,#645,.T.);
#958=ORIENTED_EDGE('',*,*,#644,.T.);
#959=ORIENTED_EDGE('',*,*,#653,.T.);
#960=ORIENTED_EDGE('',*,*,#652,.T.);
#961=ORIENTED_EDGE('',*,*,#651,.T.);
#962=ORIENTED_EDGE('',*,*,#650,.T.);
#963=ORIENTED_EDGE('',*,*,#649,.T.);
#964=ORIENTED_EDGE('',*,*,#648,.T.);
#965=ORIENTED_EDGE('',*,*,#647,.T.);
#966=ORIENTED_EDGE('',*,*,#646,.T.);
#967=ORIENTED_EDGE('',*,*,#655,.T.);
#968=ORIENTED_EDGE('',*,*,#654,.T.);
#969=ORIENTED_EDGE('',*,*,#663,.T.);
#970=ORIENTED_EDGE('',*,*,#662,.T.);
#971=ORIENTED_EDGE('',*,*,#661,.T.);
#972=ORIENTED_EDGE('',*,*,#660,.T.);
#973=ORIENTED_EDGE('',*,*,#659,.T.);
#974=ORIENTED_EDGE('',*,*,#658,.T.);
#975=ORIENTED_EDGE('',*,*,#657,.T.);
#976=ORIENTED_EDGE('',*,*,#656,.T.);
#977=ORIENTED_EDGE('',*,*,#665,.T.);
#978=ORIENTED_EDGE('',*,*,#664,.T.);
#979=ORIENTED_EDGE('',*,*,#673,.T.);
#980=ORIENTED_EDGE('',*,*,#672,.T.);
#981=ORIENTED_EDGE('',*,*,#671,.T.);
#982=ORIENTED_EDGE('',*,*,#670,.T.);
#983=ORIENTED_EDGE('',*,*,#669,.T.);
#984=ORIENTED_EDGE('',*,*,#668,.T.);
#985=ORIENTED_EDGE('',*,*,#667,.T.);
#986=ORIENTED_EDGE('',*,*,#666,.T.);
#987=ORIENTED_EDGE('',*,*,#683,.T.);
#988=ORIENTED_EDGE('',*,*,#682,.T.);
#989=ORIENTED_EDGE('',*,*,#691,.T.);
#990=ORIENTED_EDGE('',*,*,#690,.T.);
#991=ORIENTED_EDGE('',*,*,#689,.T.);
#992=ORIENTED_EDGE('',*,*,#688,.T.);
#993=ORIENTED_EDGE('',*,*,#687,.T.);
#994=ORIENTED_EDGE('',*,*,#686,.T.);
#995=ORIENTED_EDGE('',*,*,#685,.T.);
#996=ORIENTED_EDGE('',*,*,#684,.T.);
#997=ORIENTED_EDGE('',*,*,#701,.T.);
#998=ORIENTED_EDGE('',*,*,#700,.T.);
#999=ORIENTED_EDGE('',*,*,#709,.T.);
#1000=ORIENTED_EDGE('',*,*,#708,.T.);
#1001=ORIENTED_EDGE('',*,*,#707,.T.);
#1002=ORIENTED_EDGE('',*,*,#706,.T.);
#1003=ORIENTED_EDGE('',*,*,#705,.T.);
#1004=ORIENTED_EDGE('',*,*,#704,.T.);
#1005=ORIENTED_EDGE('',*,*,#703,.T.);
#1006=ORIENTED_EDGE('',*,*,#702,.T.);
#1007=ORIENTED_EDGE('',*,*,#693,.T.);
#1008=ORIENTED_EDGE('',*,*,#692,.T.);
#1009=ORIENTED_EDGE('',*,*,#699,.T.);
#1010=ORIENTED_EDGE('',*,*,#698,.T.);
#1011=ORIENTED_EDGE('',*,*,#697,.T.);
#1012=ORIENTED_EDGE('',*,*,#696,.T.);
#1013=ORIENTED_EDGE('',*,*,#695,.T.);
#1014=ORIENTED_EDGE('',*,*,#694,.T.);
#1015=ORIENTED_EDGE('',*,*,#714,.T.);
#1016=ORIENTED_EDGE('',*,*,#715,.T.);
#1017=ORIENTED_EDGE('',*,*,#716,.F.);
#1018=ORIENTED_EDGE('',*,*,#711,.F.);
#1019=ORIENTED_EDGE('',*,*,#675,.T.);
#1020=ORIENTED_EDGE('',*,*,#674,.T.);
#1021=ORIENTED_EDGE('',*,*,#681,.T.);
#1022=ORIENTED_EDGE('',*,*,#680,.T.);
#1023=ORIENTED_EDGE('',*,*,#679,.T.);
#1024=ORIENTED_EDGE('',*,*,#678,.T.);
#1025=ORIENTED_EDGE('',*,*,#677,.T.);
#1026=ORIENTED_EDGE('',*,*,#676,.T.);
#1027=ORIENTED_EDGE('',*,*,#717,.T.);
#1028=ORIENTED_EDGE('',*,*,#713,.T.);
#1029=ORIENTED_EDGE('',*,*,#718,.F.);
#1030=ORIENTED_EDGE('',*,*,#715,.F.);
#1031=ORIENTED_EDGE('',*,*,#717,.F.);
#1032=ORIENTED_EDGE('',*,*,#714,.F.);
#1033=ORIENTED_EDGE('',*,*,#710,.F.);
#1034=ORIENTED_EDGE('',*,*,#718,.T.);
#1035=ORIENTED_EDGE('',*,*,#712,.T.);
#1036=ORIENTED_EDGE('',*,*,#716,.T.);
#1037=PLANE('',#1140);
#1038=PLANE('',#1141);
#1039=PLANE('',#1142);
#1040=PLANE('',#1143);
#1041=PLANE('',#1144);
#1042=PLANE('',#1145);
#1043=PLANE('',#1146);
#1044=PLANE('',#1147);
#1045=PLANE('',#1148);
#1046=PLANE('',#1149);
#1047=PLANE('',#1150);
#1048=PLANE('',#1151);
#1049=PLANE('',#1152);
#1050=PLANE('',#1153);
#1051=PLANE('',#1154);
#1052=PLANE('',#1155);
#1053=PLANE('',#1156);
#1054=PLANE('',#1160);
#1055=PLANE('',#1164);
#1056=PLANE('',#1166);
#1057=PLANE('',#1170);
#1058=PLANE('',#1173);
#1059=PLANE('',#1174);
#1060=PLANE('',#1175);
#1061=PLANE('',#1176);
#1062=PLANE('',#1177);
#1063=PLANE('',#1178);
#1064=PLANE('',#1179);
#1065=PLANE('',#1180);
#1066=PLANE('',#1181);
#1067=PLANE('',#1182);
#1068=PLANE('',#1183);
#1069=PLANE('',#1184);
#1070=PLANE('',#1185);
#1071=PLANE('',#1186);
#1072=PLANE('',#1187);
#1073=PLANE('',#1188);
#1074=PLANE('',#1189);
#1075=PLANE('',#1190);
#1076=PLANE('',#1191);
#1077=PLANE('',#1192);
#1078=PLANE('',#1193);
#1079=ADVANCED_FACE('',(#97),#1037,.F.);
#1080=ADVANCED_FACE('',(#98),#1038,.F.);
#1081=ADVANCED_FACE('',(#99),#1039,.F.);
#1082=ADVANCED_FACE('',(#100),#1040,.F.);
#1083=ADVANCED_FACE('',(#101),#1041,.F.);
#1084=ADVANCED_FACE('',(#102,#84),#1042,.F.);
#1085=ADVANCED_FACE('',(#103),#1043,.T.);
#1086=ADVANCED_FACE('',(#104),#1044,.T.);
#1087=ADVANCED_FACE('',(#105),#1045,.T.);
#1088=ADVANCED_FACE('',(#106),#1046,.T.);
#1089=ADVANCED_FACE('',(#107,#85),#1047,.T.);
#1090=ADVANCED_FACE('',(#108),#1048,.F.);
#1091=ADVANCED_FACE('',(#109),#1049,.F.);
#1092=ADVANCED_FACE('',(#110),#1050,.F.);
#1093=ADVANCED_FACE('',(#111),#1051,.F.);
#1094=ADVANCED_FACE('',(#112),#1052,.T.);
#1095=ADVANCED_FACE('',(#113),#1053,.F.);
#1096=ADVANCED_FACE('',(#114),#59,.F.);
#1097=ADVANCED_FACE('',(#115),#1054,.F.);
#1098=ADVANCED_FACE('',(#116),#60,.F.);
#1099=ADVANCED_FACE('',(#117,#86),#1055,.T.);
#1100=ADVANCED_FACE('',(#118),#1056,.T.);
#1101=ADVANCED_FACE('',(#119),#61,.T.);
#1102=ADVANCED_FACE('',(#120),#1057,.T.);
#1103=ADVANCED_FACE('',(#121),#62,.T.);
#1104=ADVANCED_FACE('',(#122),#1058,.T.);
#1105=ADVANCED_FACE('',(#123),#1059,.T.);
#1106=ADVANCED_FACE('',(#124),#1060,.T.);
#1107=ADVANCED_FACE('',(#125,#87),#1061,.T.);
#1108=ADVANCED_FACE('',(#126),#1062,.T.);
#1109=ADVANCED_FACE('',(#127),#1063,.T.);
#1110=ADVANCED_FACE('',(#128,#88,#89),#1064,.T.);
#1111=ADVANCED_FACE('',(#129),#1065,.T.);
#1112=ADVANCED_FACE('',(#130),#1066,.F.);
#1113=ADVANCED_FACE('',(#131),#1067,.F.);
#1114=ADVANCED_FACE('',(#132),#1068,.F.);
#1115=ADVANCED_FACE('',(#133,#90),#1069,.T.);
#1116=ADVANCED_FACE('',(#134,#91),#1070,.T.);
#1117=ADVANCED_FACE('',(#135),#1071,.F.);
#1118=ADVANCED_FACE('',(#136,#92,#93,#94,#95,#96),#1072,.T.);
#1119=ADVANCED_FACE('',(#137),#1073,.T.);
#1120=ADVANCED_FACE('',(#138),#1074,.T.);
#1121=ADVANCED_FACE('',(#139),#1075,.T.);
#1122=ADVANCED_FACE('',(#140),#1076,.T.);
#1123=ADVANCED_FACE('',(#141),#1077,.T.);
#1124=ADVANCED_FACE('',(#142),#1078,.T.);
#1125=CLOSED_SHELL('',(#1079,#1080,#1081,#1082,#1083,#1084,#1085,#1086,
#1087,#1088,#1089,#1090,#1091,#1092,#1093,#1094,#1095,#1096,#1097,#1098,
#1099,#1100,#1101,#1102,#1103,#1104,#1105,#1106,#1107,#1108,#1109,#1110,
#1111,#1112));
#1126=CLOSED_SHELL('',(#1113,#1114,#1115,#1116,#1117,#1118,#1119,#1120,
#1121,#1122,#1123,#1124));
#1127=DERIVED_UNIT_ELEMENT(#1129,1.);
#1128=DERIVED_UNIT_ELEMENT(#1830,-3.);
#1129=(
MASS_UNIT()
NAMED_UNIT(*)
SI_UNIT(.KILO.,.GRAM.)
);
#1130=DERIVED_UNIT((#1127,#1128));
#1131=MEASURE_REPRESENTATION_ITEM('density measure',
POSITIVE_RATIO_MEASURE(7850.),#1130);
#1132=PROPERTY_DEFINITION_REPRESENTATION(#1137,#1134);
#1133=PROPERTY_DEFINITION_REPRESENTATION(#1138,#1135);
#1134=REPRESENTATION('material name',(#1136),#1827);
#1135=REPRESENTATION('density',(#1131),#1827);
#1136=DESCRIPTIVE_REPRESENTATION_ITEM('\X2\92FC\X0\','\X2\92FC\X0\');
#1137=PROPERTY_DEFINITION('material property','material name',#1837);
#1138=PROPERTY_DEFINITION('material property','density of part',#1837);
#1139=AXIS2_PLACEMENT_3D('',#1419,#1194,#1195);
#1140=AXIS2_PLACEMENT_3D('',#1420,#1196,#1197);
#1141=AXIS2_PLACEMENT_3D('',#1429,#1202,#1203);
#1142=AXIS2_PLACEMENT_3D('',#1435,#1207,#1208);
#1143=AXIS2_PLACEMENT_3D('',#1441,#1212,#1213);
#1144=AXIS2_PLACEMENT_3D('',#1444,#1216,#1217);
#1145=AXIS2_PLACEMENT_3D('',#1445,#1218,#1219);
#1146=AXIS2_PLACEMENT_3D('',#1462,#1228,#1229);
#1147=AXIS2_PLACEMENT_3D('',#1468,#1233,#1234);
#1148=AXIS2_PLACEMENT_3D('',#1472,#1237,#1238);
#1149=AXIS2_PLACEMENT_3D('',#1476,#1241,#1242);
#1150=AXIS2_PLACEMENT_3D('',#1478,#1244,#1245);
#1151=AXIS2_PLACEMENT_3D('',#1479,#1246,#1247);
#1152=AXIS2_PLACEMENT_3D('',#1485,#1251,#1252);
#1153=AXIS2_PLACEMENT_3D('',#1491,#1256,#1257);
#1154=AXIS2_PLACEMENT_3D('',#1497,#1261,#1262);
#1155=AXIS2_PLACEMENT_3D('',#1503,#1266,#1267);
#1156=AXIS2_PLACEMENT_3D('',#1509,#1271,#1272);
#1157=AXIS2_PLACEMENT_3D('',#1518,#1277,#1278);
#1158=AXIS2_PLACEMENT_3D('',#1520,#1279,#1280);
#1159=AXIS2_PLACEMENT_3D('',#1522,#1281,#1282);
#1160=AXIS2_PLACEMENT_3D('',#1524,#1284,#1285);
#1161=AXIS2_PLACEMENT_3D('',#1530,#1289,#1290);
#1162=AXIS2_PLACEMENT_3D('',#1531,#1291,#1292);
#1163=AXIS2_PLACEMENT_3D('',#1532,#1293,#1294);
#1164=AXIS2_PLACEMENT_3D('',#1533,#1295,#1296);
#1165=AXIS2_PLACEMENT_3D('',#1536,#1297,#1298);
#1166=AXIS2_PLACEMENT_3D('',#1542,#1302,#1303);
#1167=AXIS2_PLACEMENT_3D('',#1545,#1304,#1305);
#1168=AXIS2_PLACEMENT_3D('',#1551,#1309,#1310);
#1169=AXIS2_PLACEMENT_3D('',#1555,#1312,#1313);
#1170=AXIS2_PLACEMENT_3D('',#1557,#1315,#1316);
#1171=AXIS2_PLACEMENT_3D('',#1561,#1319,#1320);
#1172=AXIS2_PLACEMENT_3D('',#1565,#1322,#1323);
#1173=AXIS2_PLACEMENT_3D('',#1567,#1325,#1326);
#1174=AXIS2_PLACEMENT_3D('',#1571,#1329,#1330);
#1175=AXIS2_PLACEMENT_3D('',#1575,#1333,#1334);
#1176=AXIS2_PLACEMENT_3D('',#1577,#1336,#1337);
#1177=AXIS2_PLACEMENT_3D('',#1581,#1340,#1341);
#1178=AXIS2_PLACEMENT_3D('',#1583,#1343,#1344);
#1179=AXIS2_PLACEMENT_3D('',#1589,#1348,#1349);
#1180=AXIS2_PLACEMENT_3D('',#1592,#1352,#1353);
#1181=AXIS2_PLACEMENT_3D('',#1593,#1354,#1355);
#1182=AXIS2_PLACEMENT_3D('',#1594,#1356,#1357);
#1183=AXIS2_PLACEMENT_3D('',#1615,#1368,#1369);
#1184=AXIS2_PLACEMENT_3D('',#1636,#1380,#1381);
#1185=AXIS2_PLACEMENT_3D('',#1709,#1382,#1383);
#1186=AXIS2_PLACEMENT_3D('',#1782,#1384,#1385);
#1187=AXIS2_PLACEMENT_3D('',#1803,#1396,#1397);
#1188=AXIS2_PLACEMENT_3D('',#1812,#1402,#1403);
#1189=AXIS2_PLACEMENT_3D('',#1813,#1404,#1405);
#1190=AXIS2_PLACEMENT_3D('',#1819,#1409,#1410);
#1191=AXIS2_PLACEMENT_3D('',#1820,#1411,#1412);
#1192=AXIS2_PLACEMENT_3D('',#1823,#1415,#1416);
#1193=AXIS2_PLACEMENT_3D('',#1824,#1417,#1418);
#1194=DIRECTION('axis',(0.,0.,1.));
#1195=DIRECTION('refdir',(1.,0.,0.));
#1196=DIRECTION('center_axis',(-1.,0.,0.));
#1197=DIRECTION('ref_axis',(0.,0.,1.));
#1198=DIRECTION('',(0.,1.,0.));
#1199=DIRECTION('',(0.,0.,1.));
#1200=DIRECTION('',(0.,-1.,0.));
#1201=DIRECTION('',(0.,0.,-1.));
#1202=DIRECTION('center_axis',(0.,-1.,0.));
#1203=DIRECTION('ref_axis',(0.,0.,-1.));
#1204=DIRECTION('',(-1.,0.,0.));
#1205=DIRECTION('',(0.,0.,1.));
#1206=DIRECTION('',(1.,0.,0.));
#1207=DIRECTION('center_axis',(1.,0.,0.));
#1208=DIRECTION('ref_axis',(0.,0.,-1.));
#1209=DIRECTION('',(0.,-1.,0.));
#1210=DIRECTION('',(0.,0.,1.));
#1211=DIRECTION('',(0.,1.,0.));
#1212=DIRECTION('center_axis',(0.,1.,0.));
#1213=DIRECTION('ref_axis',(0.,0.,1.));
#1214=DIRECTION('',(1.,0.,0.));
#1215=DIRECTION('',(-1.,0.,0.));
#1216=DIRECTION('center_axis',(0.,0.,-1.));
#1217=DIRECTION('ref_axis',(-1.,0.,0.));
#1218=DIRECTION('center_axis',(0.,0.,1.));
#1219=DIRECTION('ref_axis',(-1.,0.,0.));
#1220=DIRECTION('',(0.,-1.,0.));
#1221=DIRECTION('',(-1.,0.,0.));
#1222=DIRECTION('',(0.,1.,0.));
#1223=DIRECTION('',(1.,0.,0.));
#1224=DIRECTION('',(-1.,0.,0.));
#1225=DIRECTION('',(0.,-1.,0.));
#1226=DIRECTION('',(1.,0.,0.));
#1227=DIRECTION('',(0.,-1.,0.));
#1228=DIRECTION('center_axis',(0.,1.,0.));
#1229=DIRECTION('ref_axis',(-1.,0.,0.));
#1230=DIRECTION('',(0.,0.,1.));
#1231=DIRECTION('',(-1.,0.,0.));
#1232=DIRECTION('',(0.,0.,1.));
#1233=DIRECTION('center_axis',(1.,0.,0.));
#1234=DIRECTION('ref_axis',(0.,1.,0.));
#1235=DIRECTION('',(0.,1.,0.));
#1236=DIRECTION('',(0.,0.,1.));
#1237=DIRECTION('center_axis',(0.,-1.,0.));
#1238=DIRECTION('ref_axis',(1.,0.,0.));
#1239=DIRECTION('',(1.,0.,0.));
#1240=DIRECTION('',(0.,0.,1.));
#1241=DIRECTION('center_axis',(-1.,0.,0.));
#1242=DIRECTION('ref_axis',(0.,-1.,0.));
#1243=DIRECTION('',(0.,-1.,0.));
#1244=DIRECTION('center_axis',(0.,0.,1.));
#1245=DIRECTION('ref_axis',(1.,0.,0.));
#1246=DIRECTION('center_axis',(0.,1.,0.));
#1247=DIRECTION('ref_axis',(0.,0.,-1.));
#1248=DIRECTION('',(0.,0.,1.));
#1249=DIRECTION('',(-1.,0.,0.));
#1250=DIRECTION('',(0.,0.,-1.));
#1251=DIRECTION('center_axis',(0.,0.,-1.));
#1252=DIRECTION('ref_axis',(0.,-1.,0.));
#1253=DIRECTION('',(0.,1.,0.));
#1254=DIRECTION('',(-1.,0.,0.));
#1255=DIRECTION('',(0.,-1.,0.));
#1256=DIRECTION('center_axis',(0.,-1.,0.));
#1257=DIRECTION('ref_axis',(0.,0.,1.));
#1258=DIRECTION('',(0.,0.,-1.));
#1259=DIRECTION('',(0.,0.,1.));
#1260=DIRECTION('',(-1.,0.,0.));
#1261=DIRECTION('center_axis',(0.,0.,-1.));
#1262=DIRECTION('ref_axis',(0.,-1.,0.));
#1263=DIRECTION('',(0.,1.,0.));
#1264=DIRECTION('',(0.,-1.,0.));
#1265=DIRECTION('',(1.,0.,0.));
#1266=DIRECTION('center_axis',(0.,-1.,0.));
#1267=DIRECTION('ref_axis',(0.,0.,-1.));
#1268=DIRECTION('',(0.,0.,-1.));
#1269=DIRECTION('',(1.,0.,0.));
#1270=DIRECTION('',(0.,0.,-1.));
#1271=DIRECTION('center_axis',(1.,0.,0.));
#1272=DIRECTION('ref_axis',(0.,0.,-1.));
#1273=DIRECTION('',(0.,0.,1.));
#1274=DIRECTION('',(0.,1.,0.));
#1275=DIRECTION('',(0.,0.,-1.));
#1276=DIRECTION('',(0.,1.,0.));
#1277=DIRECTION('center_axis',(0.,1.,0.));
#1278=DIRECTION('ref_axis',(1.,0.,0.));
#1279=DIRECTION('center_axis',(0.,-1.,0.));
#1280=DIRECTION('ref_axis',(1.,0.,0.));
#1281=DIRECTION('center_axis',(0.,1.,0.));
#1282=DIRECTION('ref_axis',(1.,0.,0.));
#1283=DIRECTION('',(0.,1.,0.));
#1284=DIRECTION('center_axis',(-1.,0.,0.));
#1285=DIRECTION('ref_axis',(0.,0.,1.));
#1286=DIRECTION('',(0.,0.,-1.));
#1287=DIRECTION('',(0.,0.,1.));
#1288=DIRECTION('',(0.,1.,0.));
#1289=DIRECTION('center_axis',(0.,1.,0.));
#1290=DIRECTION('ref_axis',(1.,0.,0.));
#1291=DIRECTION('center_axis',(0.,-1.,0.));
#1292=DIRECTION('ref_axis',(1.,0.,0.));
#1293=DIRECTION('center_axis',(0.,1.,0.));
#1294=DIRECTION('ref_axis',(1.,0.,0.));
#1295=DIRECTION('center_axis',(0.,-1.,0.));
#1296=DIRECTION('ref_axis',(-1.,0.,0.));
#1297=DIRECTION('center_axis',(0.,1.,0.));
#1298=DIRECTION('ref_axis',(-0.707106781186548,0.,-0.707106781186548));
#1299=DIRECTION('',(0.,0.,-1.));
#1300=DIRECTION('',(1.,0.,0.));
#1301=DIRECTION('',(0.,0.,-1.));
#1302=DIRECTION('center_axis',(0.,-1.,0.));
#1303=DIRECTION('ref_axis',(-1.,0.,0.));
#1304=DIRECTION('center_axis',(0.,1.,0.));
#1305=DIRECTION('ref_axis',(-0.707106781186548,0.,-0.707106781186548));
#1306=DIRECTION('',(0.,0.,-1.));
#1307=DIRECTION('',(1.,0.,0.));
#1308=DIRECTION('',(0.,0.,-1.));
#1309=DIRECTION('center_axis',(0.,-1.,0.));
#1310=DIRECTION('ref_axis',(0.707106781186548,0.,-0.707106781186548));
#1311=DIRECTION('',(0.,1.,0.));
#1312=DIRECTION('center_axis',(0.,-1.,0.));
#1313=DIRECTION('ref_axis',(0.707106781186548,0.,-0.707106781186548));
#1314=DIRECTION('',(0.,-1.,0.));
#1315=DIRECTION('center_axis',(1.,0.,0.));
#1316=DIRECTION('ref_axis',(0.,-1.,0.));
#1317=DIRECTION('',(0.,0.,-1.));
#1318=DIRECTION('',(0.,1.,0.));
#1319=DIRECTION('center_axis',(0.,-1.,0.));
#1320=DIRECTION('ref_axis',(0.707106781186548,0.,-0.707106781186548));
#1321=DIRECTION('',(0.,1.,0.));
#1322=DIRECTION('center_axis',(0.,-1.,0.));
#1323=DIRECTION('ref_axis',(0.707106781186548,0.,-0.707106781186548));
#1324=DIRECTION('',(0.,-1.,0.));
#1325=DIRECTION('center_axis',(1.,0.,0.));
#1326=DIRECTION('ref_axis',(0.,-1.,0.));
#1327=DIRECTION('',(0.,0.,-1.));
#1328=DIRECTION('',(0.,1.,0.));
#1329=DIRECTION('center_axis',(0.,1.,0.));
#1330=DIRECTION('ref_axis',(1.,0.,0.));
#1331=DIRECTION('',(0.,0.,-1.));
#1332=DIRECTION('',(-1.,0.,0.));
#1333=DIRECTION('center_axis',(-1.,0.,0.));
#1334=DIRECTION('ref_axis',(0.,1.,0.));
#1335=DIRECTION('',(0.,-1.,0.));
#1336=DIRECTION('center_axis',(0.,1.,0.));
#1337=DIRECTION('ref_axis',(1.,0.,0.));
#1338=DIRECTION('',(0.,0.,-1.));
#1339=DIRECTION('',(-1.,0.,0.));
#1340=DIRECTION('center_axis',(-1.,0.,0.));
#1341=DIRECTION('ref_axis',(0.,1.,0.));
#1342=DIRECTION('',(0.,-1.,0.));
#1343=DIRECTION('center_axis',(0.,1.,0.));
#1344=DIRECTION('ref_axis',(0.,0.,1.));
#1345=DIRECTION('',(0.,0.,1.));
#1346=DIRECTION('',(1.,0.,0.));
#1347=DIRECTION('',(0.,0.,1.));
#1348=DIRECTION('center_axis',(0.,0.,-1.));
#1349=DIRECTION('ref_axis',(0.,1.,0.));
#1350=DIRECTION('',(0.,1.,0.));
#1351=DIRECTION('',(0.,1.,0.));
#1352=DIRECTION('center_axis',(1.,0.,0.));
#1353=DIRECTION('ref_axis',(0.,0.,-1.));
#1354=DIRECTION('center_axis',(1.,0.,0.));
#1355=DIRECTION('ref_axis',(0.,1.,0.));
#1356=DIRECTION('center_axis',(0.,0.274721127891513,-0.961523947642499));
#1357=DIRECTION('ref_axis',(-1.,0.,0.));
#1358=DIRECTION('',(0.999997928811427,0.00195697239193192,0.000559134969123407));
#1359=DIRECTION('',(-0.00203528200907837,0.96152195614341,0.274720558898117));
#1360=DIRECTION('',(0.999997928811427,0.00195697239193025,0.000559134969122929));
#1361=DIRECTION('',(-0.0020352820090786,0.96152195614341,0.274720558898117));
#1362=DIRECTION('',(-0.999997928811427,-0.00195697239193393,-0.000559134969123979));
#1363=DIRECTION('',(-0.0020352820090787,0.96152195614341,0.274720558898117));
#1364=DIRECTION('',(0.999997928811427,0.00195697239193147,0.000559134969123278));
#1365=DIRECTION('',(-0.00203528200907998,0.96152195614341,0.274720558898117));
#1366=DIRECTION('',(-0.999997928811427,-0.00195697239193166,-0.00055913496912333));
#1367=DIRECTION('',(0.00203528200907901,-0.96152195614341,-0.274720558898117));
#1368=DIRECTION('center_axis',(0.,0.274721127891513,-0.961523947642499));
#1369=DIRECTION('ref_axis',(-1.,0.,0.));
#1370=DIRECTION('',(0.999997928811427,0.00195697239193422,0.000559134969124063));
#1371=DIRECTION('',(-0.00203528200907747,0.96152195614341,0.274720558898117));
#1372=DIRECTION('',(0.999997928811427,0.00195697239193209,0.000559134969123454));
#1373=DIRECTION('',(-0.0020352820090809,0.96152195614341,0.274720558898117));
#1374=DIRECTION('',(-0.999997928811427,-0.00195697239193209,-0.000559134969123454));
#1375=DIRECTION('',(-0.00203528200907764,0.96152195614341,0.274720558898117));
#1376=DIRECTION('',(0.999997928811427,0.00195697239193013,0.000559134969122895));
#1377=DIRECTION('',(-0.00203528200908041,0.96152195614341,0.274720558898117));
#1378=DIRECTION('',(-0.999997928811427,-0.00195697239193179,-0.000559134969123369));
#1379=DIRECTION('',(0.00203528200907901,-0.96152195614341,-0.274720558898117));
#1380=DIRECTION('center_axis',(0.,-0.274721127897378,0.961523947640823));
#1381=DIRECTION('ref_axis',(1.,0.,0.));
#1382=DIRECTION('center_axis',(0.,-0.274721127897378,0.961523947640823));
#1383=DIRECTION('ref_axis',(1.,0.,0.));
#1384=DIRECTION('center_axis',(0.,0.274721127901777,-0.961523947639566));
#1385=DIRECTION('ref_axis',(-1.,0.,0.));
#1386=DIRECTION('',(0.999997928811427,0.00195697239193209,0.000559134969123454));
#1387=DIRECTION('',(-0.00203528200907876,0.96152195614341,0.274720558898117));
#1388=DIRECTION('',(0.56514248524126,-0.793250829937204,-0.226643094267772));
#1389=DIRECTION('',(0.999997928811427,0.00195697239193116,0.000559134969123188));
#1390=DIRECTION('',(-0.00203528200907882,0.96152195614341,0.274720558898117));
#1391=DIRECTION('',(-0.999997928811427,-0.00195697239192994,-0.000559134969122838));
#1392=DIRECTION('',(0.00203528200907925,-0.96152195614341,-0.274720558898117));
#1393=DIRECTION('',(-0.564324203265088,0.793789234500272,0.226796924142935));
#1394=DIRECTION('',(-0.999997928811427,-0.00195697239193139,-0.000559134969123254));
#1395=DIRECTION('',(0.00203528200907901,-0.96152195614341,-0.274720558898117));
#1396=DIRECTION('center_axis',(0.,-0.274721127897378,0.961523947640823));
#1397=DIRECTION('ref_axis',(0.,-0.961523947640823,-0.274721127897378));
#1398=DIRECTION('',(0.,-0.961523947640823,-0.274721127897378));
#1399=DIRECTION('',(1.,0.,0.));
#1400=DIRECTION('',(0.,-0.961523947640823,-0.274721127897378));
#1401=DIRECTION('',(1.,0.,0.));
#1402=DIRECTION('center_axis',(0.,-0.274721127897378,0.961523947640823));
#1403=DIRECTION('ref_axis',(0.,-0.961523947640823,-0.274721127897378));
#1404=DIRECTION('center_axis',(0.,0.,-1.));
#1405=DIRECTION('ref_axis',(0.,1.,0.));
#1406=DIRECTION('',(0.,1.,0.));
#1407=DIRECTION('',(1.,0.,0.));
#1408=DIRECTION('',(0.,1.,0.));
#1409=DIRECTION('center_axis',(0.,-0.274721127897378,0.961523947640823));
#1410=DIRECTION('ref_axis',(0.,-0.961523947640823,-0.274721127897378));
#1411=DIRECTION('center_axis',(0.,0.963349370555056,0.268249865333008));
#1412=DIRECTION('ref_axis',(0.,-0.268249865333008,0.963349370555056));
#1413=DIRECTION('',(0.,-0.268249865333008,0.963349370555056));
#1414=DIRECTION('',(0.,-0.268249865333008,0.963349370555056));
#1415=DIRECTION('center_axis',(-1.,0.,0.));
#1416=DIRECTION('ref_axis',(0.,-1.,0.));
#1417=DIRECTION('center_axis',(1.,0.,0.));
#1418=DIRECTION('ref_axis',(0.,0.,-1.));
#1419=CARTESIAN_POINT('',(0.,0.,0.));
#1420=CARTESIAN_POINT('Origin',(-6.00000001490116,-5.49999994039536,14.5));
#1421=CARTESIAN_POINT('',(-6.00000001490116,-5.99999994039536,14.5000002160668));
#1422=CARTESIAN_POINT('',(-6.00000001490116,6.33536658526574,14.5));
#1423=CARTESIAN_POINT('',(-6.00000001490116,-2.74999997764826,14.5));
#1424=CARTESIAN_POINT('',(-6.00000001490116,-5.99999994039536,12.0000002160668));
#1425=CARTESIAN_POINT('',(-6.00000001490116,-5.99999994039536,14.5000002160668));
#1426=CARTESIAN_POINT('',(-6.00000001490116,6.33536658526574,12.));
#1427=CARTESIAN_POINT('',(-6.00000001490116,5.83536658526574,12.));
#1428=CARTESIAN_POINT('',(-6.00000001490116,6.33536658526574,14.5));
#1429=CARTESIAN_POINT('Origin',(5.49999998509884,-5.99999994039536,14.5000002160668));
#1430=CARTESIAN_POINT('',(5.99999998509884,-5.99999994039536,14.5000002160668));
#1431=CARTESIAN_POINT('',(-2.75000001490116,-5.99999994039536,14.5));
#1432=CARTESIAN_POINT('',(5.99999998509884,-5.99999994039536,12.0000002160668));
#1433=CARTESIAN_POINT('',(5.99999998509884,-5.99999994039536,14.5000002160668));
#1434=CARTESIAN_POINT('',(-5.50000001490116,-5.99999994039536,12.0000002160668));
#1435=CARTESIAN_POINT('Origin',(5.99999998509884,5.83536658526574,14.5));
#1436=CARTESIAN_POINT('',(5.99999998509884,6.33536658526574,14.5));
#1437=CARTESIAN_POINT('',(5.99999998509884,-2.74999997764826,14.5));
#1438=CARTESIAN_POINT('',(5.99999998509884,6.33536658526574,12.));
#1439=CARTESIAN_POINT('',(5.99999998509884,6.33536658526574,14.5));
#1440=CARTESIAN_POINT('',(5.99999998509884,-10.5000000149012,12.));
#1441=CARTESIAN_POINT('Origin',(-5.50000001490116,6.33536658526574,14.5));
#1442=CARTESIAN_POINT('',(-2.75000001490116,6.33536658526574,14.5));
#1443=CARTESIAN_POINT('',(-5.50000001490116,6.33536658526574,12.));
#1444=CARTESIAN_POINT('Origin',(-5.50000001490116,-5.49999994039536,12.0000002160668));
#1445=CARTESIAN_POINT('Origin',(-1.49011614158923E-8,-1.49011614158923E-8,
12.5));
#1446=CARTESIAN_POINT('',(-7.50000001490116,10.4999999850988,12.5));
#1447=CARTESIAN_POINT('',(-7.50000001490116,-10.5000000149012,12.5));
#1448=CARTESIAN_POINT('',(-7.50000001490116,10.4999999850988,12.5));
#1449=CARTESIAN_POINT('',(7.49999998509884,10.4999999850988,12.5));
#1450=CARTESIAN_POINT('',(7.49999998509884,10.4999999850988,12.5));
#1451=CARTESIAN_POINT('',(7.49999998509884,-10.5000000149012,12.5));
#1452=CARTESIAN_POINT('',(7.49999998509884,-10.5000000149012,12.5));
#1453=CARTESIAN_POINT('',(-7.50000001490116,-10.5000000149012,12.5));
#1454=CARTESIAN_POINT('',(6.5,7.5,12.5));
#1455=CARTESIAN_POINT('',(-6.5,7.5,12.5));
#1456=CARTESIAN_POINT('',(0.,7.5,12.5));
#1457=CARTESIAN_POINT('',(-6.5,-7.5,12.5));
#1458=CARTESIAN_POINT('',(-6.5,9.5,12.5));
#1459=CARTESIAN_POINT('',(6.5,-7.5,12.5));
#1460=CARTESIAN_POINT('',(0.,-7.5,12.5));
#1461=CARTESIAN_POINT('',(6.5,9.5,12.5));
#1462=CARTESIAN_POINT('Origin',(7.49999998509884,10.4999999850988,12.5));
#1463=CARTESIAN_POINT('',(-7.50000001490116,10.4999999850988,14.5));
#1464=CARTESIAN_POINT('',(-7.50000001490116,10.4999999850988,12.5));
#1465=CARTESIAN_POINT('',(7.49999998509884,10.4999999850988,14.5));
#1466=CARTESIAN_POINT('',(7.49999998509884,10.4999999850988,14.5));
#1467=CARTESIAN_POINT('',(7.49999998509884,10.4999999850988,12.5));
#1468=CARTESIAN_POINT('Origin',(7.49999998509884,-10.5000000149012,12.5));
#1469=CARTESIAN_POINT('',(7.49999998509884,-10.5000000149012,14.5));
#1470=CARTESIAN_POINT('',(7.49999998509884,-10.5000000149012,14.5));
#1471=CARTESIAN_POINT('',(7.49999998509884,-10.5000000149012,12.5));
#1472=CARTESIAN_POINT('Origin',(-7.50000001490116,-10.5000000149012,12.5));
#1473=CARTESIAN_POINT('',(-7.50000001490116,-10.5000000149012,14.5));
#1474=CARTESIAN_POINT('',(-7.50000001490116,-10.5000000149012,14.5));
#1475=CARTESIAN_POINT('',(-7.50000001490116,-10.5000000149012,12.5));
#1476=CARTESIAN_POINT('Origin',(-7.50000001490116,10.4999999850988,12.5));
#1477=CARTESIAN_POINT('',(-7.50000001490116,10.4999999850988,14.5));
#1478=CARTESIAN_POINT('Origin',(-1.49011614158923E-8,-1.49011614158923E-8,
14.5));
#1479=CARTESIAN_POINT('Origin',(6.5,-7.5,12.5));
#1480=CARTESIAN_POINT('',(-6.5,-7.5,4.5));
#1481=CARTESIAN_POINT('',(-6.5,-7.5,9.375));
#1482=CARTESIAN_POINT('',(6.5,-7.5,4.5));
#1483=CARTESIAN_POINT('',(6.5,-7.5,4.5));
#1484=CARTESIAN_POINT('',(6.5,-7.5,9.375));
#1485=CARTESIAN_POINT('Origin',(6.5,-7.5,4.5));
#1486=CARTESIAN_POINT('',(-6.5,-9.5,4.5));
#1487=CARTESIAN_POINT('',(-6.5,-3.75,4.5));
#1488=CARTESIAN_POINT('',(6.5,-9.5,4.5));
#1489=CARTESIAN_POINT('',(0.,-9.5,4.5));
#1490=CARTESIAN_POINT('',(6.5,-3.75,4.5));
#1491=CARTESIAN_POINT('Origin',(6.5,7.5,4.5));
#1492=CARTESIAN_POINT('',(-6.5,7.5,4.5));
#1493=CARTESIAN_POINT('',(-6.5,7.5,5.375));
#1494=CARTESIAN_POINT('',(6.5,7.5,4.5));
#1495=CARTESIAN_POINT('',(6.5,7.5,5.375));
#1496=CARTESIAN_POINT('',(6.5,7.5,4.5));
#1497=CARTESIAN_POINT('Origin',(6.5,9.5,4.5));
#1498=CARTESIAN_POINT('',(-6.5,9.5,4.5));
#1499=CARTESIAN_POINT('',(-6.5,4.75,4.5));
#1500=CARTESIAN_POINT('',(6.5,9.5,4.5));
#1501=CARTESIAN_POINT('',(6.5,4.75,4.5));
#1502=CARTESIAN_POINT('',(0.,9.5,4.5));
#1503=CARTESIAN_POINT('Origin',(-6.5,-9.5,12.5));
#1504=CARTESIAN_POINT('',(-6.5,-9.5,0.));
#1505=CARTESIAN_POINT('',(-6.5,-9.5,12.5));
#1506=CARTESIAN_POINT('',(6.5,-9.5,0.));
#1507=CARTESIAN_POINT('',(-6.5,-9.5,0.));
#1508=CARTESIAN_POINT('',(6.5,-9.5,12.5));
#1509=CARTESIAN_POINT('Origin',(0.899629572555184,5.75,-3.12582129881609));
#1510=CARTESIAN_POINT('',(0.899629572555184,6.25,-4.57418077878448));
#1511=CARTESIAN_POINT('',(0.899629572555184,6.25,-3.12582129881609));
#1512=CARTESIAN_POINT('',(0.899629572555184,6.25,-1.56291064940804));
#1513=CARTESIAN_POINT('',(0.899629572555184,5.75,-4.57418077878448));
#1514=CARTESIAN_POINT('',(0.899629572555184,5.75,-4.57418077878448));
#1515=CARTESIAN_POINT('',(0.899629572555184,5.75,-3.12582129881609));
#1516=CARTESIAN_POINT('',(0.899629572555184,5.75,-1.56291064940804));
#1517=CARTESIAN_POINT('',(0.899629572555184,5.75,-3.12582129881609));
#1518=CARTESIAN_POINT('Origin',(0.,5.75,-3.1));
#1519=CARTESIAN_POINT('',(-0.90000005960465,6.25,-3.1));
#1520=CARTESIAN_POINT('Origin',(0.,6.25,-3.1));
#1521=CARTESIAN_POINT('',(-0.90000005960465,5.75,-3.1));
#1522=CARTESIAN_POINT('Origin',(0.,5.75,-3.1));
#1523=CARTESIAN_POINT('',(-0.90000005960465,5.75,-3.1));
#1524=CARTESIAN_POINT('Origin',(-0.90000005960465,5.75,-4.6));
#1525=CARTESIAN_POINT('',(-0.90000005960465,6.25,-4.6));
#1526=CARTESIAN_POINT('',(-0.90000005960465,6.25,-2.3));
#1527=CARTESIAN_POINT('',(-0.90000005960465,5.75,-4.6));
#1528=CARTESIAN_POINT('',(-0.90000005960465,5.75,-2.3));
#1529=CARTESIAN_POINT('',(-0.90000005960465,5.75,-4.6));
#1530=CARTESIAN_POINT('Origin',(0.,5.75,-4.6));
#1531=CARTESIAN_POINT('Origin',(0.,6.25,-4.6));
#1532=CARTESIAN_POINT('Origin',(0.,5.75,-4.6));
#1533=CARTESIAN_POINT('Origin',(1.4,5.75,0.));
#1534=CARTESIAN_POINT('',(1.4,5.75,-4.6));
#1535=CARTESIAN_POINT('',(-1.4,5.75,-4.6));
#1536=CARTESIAN_POINT('Origin',(0.,5.75,-4.6));
#1537=CARTESIAN_POINT('',(1.4,5.75,0.));
#1538=CARTESIAN_POINT('',(1.4,5.75,0.));
#1539=CARTESIAN_POINT('',(-1.4,5.75,0.));
#1540=CARTESIAN_POINT('',(-2.55,5.75,0.));
#1541=CARTESIAN_POINT('',(-1.4,5.75,0.));
#1542=CARTESIAN_POINT('Origin',(1.4,-0.25,0.));
#1543=CARTESIAN_POINT('',(1.4,-0.25,-4.6));
#1544=CARTESIAN_POINT('',(-1.4,-0.25,-4.6));
#1545=CARTESIAN_POINT('Origin',(0.,-0.25,-4.6));
#1546=CARTESIAN_POINT('',(1.4,-0.25,0.));
#1547=CARTESIAN_POINT('',(1.4,-0.25,0.));
#1548=CARTESIAN_POINT('',(-1.4,-0.25,0.));
#1549=CARTESIAN_POINT('',(-2.55,-0.25,0.));
#1550=CARTESIAN_POINT('',(-1.4,-0.25,0.));
#1551=CARTESIAN_POINT('Origin',(0.,6.125,-4.6));
#1552=CARTESIAN_POINT('',(-1.4,6.25,-4.6));
#1553=CARTESIAN_POINT('',(-1.4,5.875,-4.6));
#1554=CARTESIAN_POINT('',(1.4,6.25,-4.6));
#1555=CARTESIAN_POINT('Origin',(0.,6.25,-4.6));
#1556=CARTESIAN_POINT('',(1.4,6.125,-4.6));
#1557=CARTESIAN_POINT('Origin',(1.4,6.25,0.));
#1558=CARTESIAN_POINT('',(1.4,6.25,0.));
#1559=CARTESIAN_POINT('',(1.4,6.25,0.));
#1560=CARTESIAN_POINT('',(1.4,-1.625,0.));
#1561=CARTESIAN_POINT('Origin',(0.,0.125000000000001,-4.6));
#1562=CARTESIAN_POINT('',(-1.4,0.25,-4.6));
#1563=CARTESIAN_POINT('',(-1.4,-0.125000000000001,-4.6));
#1564=CARTESIAN_POINT('',(1.4,0.25,-4.6));
#1565=CARTESIAN_POINT('Origin',(0.,0.25,-4.6));
#1566=CARTESIAN_POINT('',(1.4,0.125000000000001,-4.6));
#1567=CARTESIAN_POINT('Origin',(1.4,0.25,0.));
#1568=CARTESIAN_POINT('',(1.4,0.25,0.));
#1569=CARTESIAN_POINT('',(1.4,0.25,0.));
#1570=CARTESIAN_POINT('',(1.4,-4.625,0.));
#1571=CARTESIAN_POINT('Origin',(-1.4,0.25,0.));
#1572=CARTESIAN_POINT('',(-1.4,0.25,0.));
#1573=CARTESIAN_POINT('',(-1.4,0.25,0.));
#1574=CARTESIAN_POINT('',(-3.95,0.25,0.));
#1575=CARTESIAN_POINT('Origin',(-1.4,-0.25,0.));
#1576=CARTESIAN_POINT('',(-1.4,-4.875,0.));
#1577=CARTESIAN_POINT('Origin',(-1.4,6.25,0.));
#1578=CARTESIAN_POINT('',(-1.4,6.25,0.));
#1579=CARTESIAN_POINT('',(-1.4,6.25,0.));
#1580=CARTESIAN_POINT('',(-3.95,6.25,0.));
#1581=CARTESIAN_POINT('Origin',(-1.4,5.75,0.));
#1582=CARTESIAN_POINT('',(-1.4,-1.875,0.));
#1583=CARTESIAN_POINT('Origin',(-6.5,9.5,0.));
#1584=CARTESIAN_POINT('',(6.5,9.5,0.));
#1585=CARTESIAN_POINT('',(6.5,9.5,0.));
#1586=CARTESIAN_POINT('',(-6.5,9.5,0.));
#1587=CARTESIAN_POINT('',(-6.5,9.5,0.));
#1588=CARTESIAN_POINT('',(-6.5,9.5,0.));
#1589=CARTESIAN_POINT('Origin',(-6.5,-9.5,0.));
#1590=CARTESIAN_POINT('',(-6.5,-9.5,0.));
#1591=CARTESIAN_POINT('',(6.5,-9.5,0.));
#1592=CARTESIAN_POINT('Origin',(6.5,0.,6.25));
#1593=CARTESIAN_POINT('Origin',(-6.5,0.,6.25));
#1594=CARTESIAN_POINT('Origin',(-3.18483851379607,3.1162624913565,16.9616854807213));
#1595=CARTESIAN_POINT('',(-2.9754185481763,4.55893850596671,17.3739826293131));
#1596=CARTESIAN_POINT('',(-2.04431545900832,4.56077438883665,17.3744551664911));
#1597=CARTESIAN_POINT('',(-4.23723725039956,4.55646915648835,17.3732771008908));
#1598=CARTESIAN_POINT('',(-2.9729237311973,3.38033360768613,17.0371863721741));
#1599=CARTESIAN_POINT('',(-2.97464317082597,4.19262939336593,17.2693228828558));
#1600=CARTESIAN_POINT('',(-4.1352679252445,3.37807266361213,17.0364883870706));
#1601=CARTESIAN_POINT('',(-4.1352679252445,3.37807266361213,17.0364883870706));
#1602=CARTESIAN_POINT('',(-4.13403509424286,2.7956501437835,16.8700819528338));
#1603=CARTESIAN_POINT('',(-4.13403509424286,2.7956501437835,16.8700819528338));
#1604=CARTESIAN_POINT('',(-2.97169090019566,2.79792482399246,16.8707318614649));
#1605=CARTESIAN_POINT('',(-2.97169090019566,2.79792482399246,16.8707318614649));
#1606=CARTESIAN_POINT('',(-2.97062466762556,2.29420788357443,16.7268127356312));
#1607=CARTESIAN_POINT('',(-2.97062466762556,2.29420788357443,16.7268127356312));
#1608=CARTESIAN_POINT('',(-4.33146741485367,2.29154474637248,16.7260518392878));
#1609=CARTESIAN_POINT('',(-4.33146741485367,2.29154474637248,16.7260518392878));
#1610=CARTESIAN_POINT('',(-4.33015544913455,1.67173685782497,16.5489638711314));
#1611=CARTESIAN_POINT('',(-4.33015544913455,1.67173685782497,16.5489638711314));
#1612=CARTESIAN_POINT('',(-2.03820961273846,1.67622214184047,16.5502453808501));
#1613=CARTESIAN_POINT('',(-2.03820961273846,1.67622214184047,16.5502453808501));
#1614=CARTESIAN_POINT('',(-2.04431545900832,4.56078812489305,17.3744070902937));
#1615=CARTESIAN_POINT('Origin',(-0.38948272505252,3.12173293679102,16.9632484651312));
#1616=CARTESIAN_POINT('',(-0.180062461410141,4.56440895198445,17.3755456138896));
#1617=CARTESIAN_POINT('',(0.751040627757832,4.5662448348544,17.3760181510676));
#1618=CARTESIAN_POINT('',(-2.83955920701648,4.55920437949721,17.374058593179));
#1619=CARTESIAN_POINT('',(-0.177567644431139,3.38580405370388,17.0387493567506));
#1620=CARTESIAN_POINT('',(-0.179287084059813,4.19809983938367,17.2708858674323));
#1621=CARTESIAN_POINT('',(-1.33991183847835,3.38354310962987,17.0380513716471));
#1622=CARTESIAN_POINT('',(-1.33991183847835,3.38354310962987,17.0380513716471));
#1623=CARTESIAN_POINT('',(-1.33867900747671,2.80112058980124,16.8716449374103));
#1624=CARTESIAN_POINT('',(-1.33867900747671,2.80112058980124,16.8716449374103));
#1625=CARTESIAN_POINT('',(-0.176334813429501,2.80339527001021,16.8722948460414));
#1626=CARTESIAN_POINT('',(-0.176334813429501,2.80339527001021,16.8722948460414));
#1627=CARTESIAN_POINT('',(-0.175268580859407,2.29967832959217,16.7283757202077));
#1628=CARTESIAN_POINT('',(-0.175268580859407,2.29967832959217,16.7283757202077));
#1629=CARTESIAN_POINT('',(-1.53611192413273,2.29701519122378,16.727614823531));
#1630=CARTESIAN_POINT('',(-1.53611192413273,2.29701519122378,16.727614823531));
#1631=CARTESIAN_POINT('',(-1.53479995841361,1.67720730267627,16.5505268553746));
#1632=CARTESIAN_POINT('',(-1.53479995841361,1.67720730267627,16.5505268553746));
#1633=CARTESIAN_POINT('',(0.757146474027693,1.68169258785821,16.5518083654266));
#1634=CARTESIAN_POINT('',(0.757146474027693,1.68169258785821,16.5518083654266));
#1635=CARTESIAN_POINT('',(0.751040627757832,4.56625857091079,17.3759700748702));
#1636=CARTESIAN_POINT('Origin',(1.88536328005001,-3.69202232214612,15.0164612482825));
#1637=CARTESIAN_POINT('',(2.69062234445349,-2.35417525510004,15.3988072690084));
#1638=CARTESIAN_POINT('',(3.23088486707999,-2.84501725741998,15.258514696132));
#1639=CARTESIAN_POINT('Ctrl Pts',(2.69062234445349,-2.35417525510004,15.3988072690084));
#1640=CARTESIAN_POINT('Ctrl Pts',(3.02348820547687,-2.50896844111176,15.3545806444336));
#1641=CARTESIAN_POINT('Ctrl Pts',(3.23088486707999,-2.84503099347638,15.2585627723294));
#1642=CARTESIAN_POINT('',(1.85025415976083,-2.20036178975983,15.4427019728999));
#1643=CARTESIAN_POINT('Ctrl Pts',(1.85025415976083,-2.20037552573868,15.4427500488259));
#1644=CARTESIAN_POINT('Ctrl Pts',(2.35775640953102,-2.19938235579,15.4430338116684));
#1645=CARTESIAN_POINT('Ctrl Pts',(2.69062234445349,-2.35417525510004,15.3988072690084));
#1646=CARTESIAN_POINT('',(1.01673521854945,-2.38201930625776,15.3907478242506));
#1647=CARTESIAN_POINT('Ctrl Pts',(1.01673521854945,-2.38201930625776,15.3907478242506));
#1648=CARTESIAN_POINT('Ctrl Pts',(1.35093724989261,-2.2013252050572,15.4423747103079));
#1649=CARTESIAN_POINT('Ctrl Pts',(1.85025415976083,-2.20034805362589,15.4426538964311));
#1650=CARTESIAN_POINT('',(0.506206307578135,-2.88673728304265,15.2465426880263));
#1651=CARTESIAN_POINT('Ctrl Pts',(0.506206307578135,-2.88673728304265,15.2465426880263));
#1652=CARTESIAN_POINT('Ctrl Pts',(0.682533187206297,-2.56271340745832,15.3391209381933));
#1653=CARTESIAN_POINT('Ctrl Pts',(1.01673521854945,-2.38201930625776,15.3907478242506));
#1654=CARTESIAN_POINT('',(0.330949825473277,-3.71644573494834,15.009483130339));
#1655=CARTESIAN_POINT('Ctrl Pts',(0.330949825473277,-3.71644573494834,15.009483130339));
#1656=CARTESIAN_POINT('Ctrl Pts',(0.329879427949976,-3.21076115862698,15.1539644378594));
#1657=CARTESIAN_POINT('Ctrl Pts',(0.506206307578135,-2.88673728304265,15.2465426880263));
#1658=CARTESIAN_POINT('',(0.738426130503188,-4.79884059187849,14.7002274569304));
#1659=CARTESIAN_POINT('Ctrl Pts',(0.738426130503188,-4.79884059187849,14.7002274569304));
#1660=CARTESIAN_POINT('Ctrl Pts',(0.332424224974019,-4.41299171028106,14.8104699945296));
#1661=CARTESIAN_POINT('Ctrl Pts',(0.330949825473277,-3.71644573494834,15.009483130339));
#1662=CARTESIAN_POINT('',(1.89340310341863,-5.18322403346807,14.5904036164762));
#1663=CARTESIAN_POINT('Ctrl Pts',(1.89340310341863,-5.18322403346807,14.5904036164762));
#1664=CARTESIAN_POINT('Ctrl Pts',(1.14442773861631,-5.18468976061503,14.5899848372914));
#1665=CARTESIAN_POINT('Ctrl Pts',(0.738426130503188,-4.79884059187849,14.7002274569304));
#1666=CARTESIAN_POINT('',(3.03240398576325,-4.78746479197863,14.7034776854732));
#1667=CARTESIAN_POINT('Ctrl Pts',(3.03240398576325,-4.78746479197863,14.7034776854732));
#1668=CARTESIAN_POINT('Ctrl Pts',(2.62396089464913,-5.18179434907878,14.5908120977303));
#1669=CARTESIAN_POINT('Ctrl Pts',(1.89340310341863,-5.18322403346807,14.5904036164762));
#1670=CARTESIAN_POINT('',(3.43935190757999,-3.68675065008601,15.0179674402997));
#1671=CARTESIAN_POINT('Ctrl Pts',(3.43935190757999,-3.68675065008601,15.0179674402997));
#1672=CARTESIAN_POINT('Ctrl Pts',(3.44084713215005,-4.39313494821325,14.8161433551205));
#1673=CARTESIAN_POINT('Ctrl Pts',(3.03240398576325,-4.78746479197863,14.7034776854732));
#1674=CARTESIAN_POINT('Ctrl Pts',(3.23088486707999,-2.84500352136359,15.2584666199346));
#1675=CARTESIAN_POINT('Ctrl Pts',(3.43828151066325,-3.18106636032053,15.1624486659469));
#1676=CARTESIAN_POINT('Ctrl Pts',(3.43935190757999,-3.68675065008601,15.0179674402997));
#1677=CARTESIAN_POINT('',(2.34382056732326,-4.31660322675483,14.8381135628213));
#1678=CARTESIAN_POINT('',(2.51233325219522,-3.68464353826425,15.0186214730337));
#1679=CARTESIAN_POINT('Ctrl Pts',(2.34382056732326,-4.31660322675483,14.8381135628213));
#1680=CARTESIAN_POINT('Ctrl Pts',(2.51326620535286,-4.12540943599874,14.8927403601802));
#1681=CARTESIAN_POINT('Ctrl Pts',(2.51233325219522,-3.68465727432064,15.018669549231));
#1682=CARTESIAN_POINT('',(1.89402089093476,-4.50833192778145,14.7832819334651));
#1683=CARTESIAN_POINT('Ctrl Pts',(1.89402089093476,-4.50834566376031,14.7833300093911));
#1684=CARTESIAN_POINT('Ctrl Pts',(2.17437507830497,-4.50779701721931,14.7834867655457));
#1685=CARTESIAN_POINT('Ctrl Pts',(2.34382056732326,-4.31660322675483,14.8381135628213));
#1686=CARTESIAN_POINT('',(1.43011796387982,-4.32131524355668,14.8366632707366));
#1687=CARTESIAN_POINT('Ctrl Pts',(1.43011796387982,-4.32131524355668,14.8366632707366));
#1688=CARTESIAN_POINT('Ctrl Pts',(1.60138847019464,-4.50889086640201,14.7830702356379));
#1689=CARTESIAN_POINT('Ctrl Pts',(1.89402089093476,-4.50831819164752,14.7832338569964));
#1690=CARTESIAN_POINT('',(1.25798530891516,-3.72643741266757,15.0066283652764));
#1691=CARTESIAN_POINT('Ctrl Pts',(1.25798530891516,-3.72643741266757,15.0066283652764));
#1692=CARTESIAN_POINT('Ctrl Pts',(1.25884745817157,-4.13373990726723,14.8902562239622));
#1693=CARTESIAN_POINT('Ctrl Pts',(1.43011796387982,-4.32131524355668,14.8366632707366));
#1694=CARTESIAN_POINT('',(1.42027542842016,-3.05515047000954,15.1984246346072));
#1695=CARTESIAN_POINT('Ctrl Pts',(1.42027542842016,-3.05515047000954,15.1984246346072));
#1696=CARTESIAN_POINT('Ctrl Pts',(1.25696072618041,-3.24239697456063,15.1449256333069));
#1697=CARTESIAN_POINT('Ctrl Pts',(1.25798530891516,-3.72643741266757,15.0066283652764));
#1698=CARTESIAN_POINT('',(1.88236181709629,-2.86731927630559,15.2520906899512));
#1699=CARTESIAN_POINT('Ctrl Pts',(1.88236181709629,-2.86731927630559,15.2520906899512));
#1700=CARTESIAN_POINT('Ctrl Pts',(1.58359027967121,-2.86790396516683,15.2519236359909));
#1701=CARTESIAN_POINT('Ctrl Pts',(1.42027542842016,-3.05515047000954,15.1984246346072));
#1702=CARTESIAN_POINT('',(2.34217809796145,-3.05728161630854,15.1978157356647));
#1703=CARTESIAN_POINT('Ctrl Pts',(2.34217809796145,-3.05728161630854,15.1978157356647));
#1704=CARTESIAN_POINT('Ctrl Pts',(2.17294786560809,-2.86675060625335,15.252253167109));
#1705=CARTESIAN_POINT('Ctrl Pts',(1.88236181709629,-2.86731927630559,15.2520906899512));
#1706=CARTESIAN_POINT('Ctrl Pts',(2.51233325219522,-3.68462980220785,15.0185733968363));
#1707=CARTESIAN_POINT('Ctrl Pts',(2.51140862833743,-3.24781262578051,15.1433783043869));
#1708=CARTESIAN_POINT('Ctrl Pts',(2.34217809796145,-3.05728161630854,15.1978157356647));
#1709=CARTESIAN_POINT('Origin',(2.8119621765603,3.12774001422489,16.9649647729599));
#1710=CARTESIAN_POINT('',(3.61722124096377,4.46558708127096,17.3473107936858));
#1711=CARTESIAN_POINT('',(4.15748376359027,3.97474507895102,17.2070182208094));
#1712=CARTESIAN_POINT('Ctrl Pts',(3.61722124096377,4.46558708127096,17.3473107936858));
#1713=CARTESIAN_POINT('Ctrl Pts',(3.95008710198715,4.31079389525924,17.303084169111));
#1714=CARTESIAN_POINT('Ctrl Pts',(4.15748376359027,3.97473134289463,17.2070662970068));
#1715=CARTESIAN_POINT('',(2.77685305627111,4.61940054661117,17.3912054975773));
#1716=CARTESIAN_POINT('Ctrl Pts',(2.77685305627111,4.61938681063232,17.3912535735033));
#1717=CARTESIAN_POINT('Ctrl Pts',(3.28435530604131,4.62037998058101,17.3915373363458));
#1718=CARTESIAN_POINT('Ctrl Pts',(3.61722124096377,4.46558708127096,17.3473107936858));
#1719=CARTESIAN_POINT('',(1.94333411505974,4.43774303011325,17.339251348928));
#1720=CARTESIAN_POINT('Ctrl Pts',(1.94333411505974,4.43774303011325,17.339251348928));
#1721=CARTESIAN_POINT('Ctrl Pts',(2.2775361464029,4.61843713131381,17.3908782349853));
#1722=CARTESIAN_POINT('Ctrl Pts',(2.77685305627111,4.61941428274511,17.3911574211085));
#1723=CARTESIAN_POINT('',(1.43280520408842,3.93302505332835,17.1950462127038));
#1724=CARTESIAN_POINT('Ctrl Pts',(1.43280520408842,3.93302505332835,17.1950462127038));
#1725=CARTESIAN_POINT('Ctrl Pts',(1.60913208371658,4.25704892891269,17.2876244628707));
#1726=CARTESIAN_POINT('Ctrl Pts',(1.94333411505974,4.43774303011325,17.339251348928));
#1727=CARTESIAN_POINT('',(1.25754872198356,3.10331660142267,16.9579866550164));
#1728=CARTESIAN_POINT('Ctrl Pts',(1.25754872198356,3.10331660142267,16.9579866550164));
#1729=CARTESIAN_POINT('Ctrl Pts',(1.25647832446026,3.60900117774402,17.1024679625368));
#1730=CARTESIAN_POINT('Ctrl Pts',(1.43280520408842,3.93302505332835,17.1950462127038));
#1731=CARTESIAN_POINT('',(1.66502502701347,2.02092174449251,16.6487309816078));
#1732=CARTESIAN_POINT('Ctrl Pts',(1.66502502701347,2.02092174449251,16.6487309816078));
#1733=CARTESIAN_POINT('Ctrl Pts',(1.25902312148431,2.40677062608994,16.7589735192071));
#1734=CARTESIAN_POINT('Ctrl Pts',(1.25754872198356,3.10331660142267,16.9579866550164));
#1735=CARTESIAN_POINT('',(2.82000199992892,1.63653830290293,16.5389071411536));
#1736=CARTESIAN_POINT('Ctrl Pts',(2.82000199992892,1.63653830290293,16.5389071411536));
#1737=CARTESIAN_POINT('Ctrl Pts',(2.0710266351266,1.63507257575598,16.5384883619688));
#1738=CARTESIAN_POINT('Ctrl Pts',(1.66502502701347,2.02092174449251,16.6487309816078));
#1739=CARTESIAN_POINT('',(3.95900288227354,2.03229754439238,16.6519812101506));
#1740=CARTESIAN_POINT('Ctrl Pts',(3.95900288227354,2.03229754439238,16.6519812101506));
#1741=CARTESIAN_POINT('Ctrl Pts',(3.55055979115941,1.63796798729222,16.5393156224077));
#1742=CARTESIAN_POINT('Ctrl Pts',(2.82000199992892,1.63653830290293,16.5389071411536));
#1743=CARTESIAN_POINT('',(4.36595080409028,3.133011686285,16.9664709649771));
#1744=CARTESIAN_POINT('Ctrl Pts',(4.36595080409028,3.133011686285,16.9664709649771));
#1745=CARTESIAN_POINT('Ctrl Pts',(4.36744602866033,2.42662738815775,16.7646468797979));
#1746=CARTESIAN_POINT('Ctrl Pts',(3.95900288227354,2.03229754439238,16.6519812101506));
#1747=CARTESIAN_POINT('Ctrl Pts',(4.15748376359027,3.97475881500742,17.2069701446121));
#1748=CARTESIAN_POINT('Ctrl Pts',(4.36488040717354,3.63869597605048,17.1109521906244));
#1749=CARTESIAN_POINT('Ctrl Pts',(4.36595080409028,3.133011686285,16.9664709649771));
#1750=CARTESIAN_POINT('',(3.27041946383355,2.50315910961617,16.7866170874987));
#1751=CARTESIAN_POINT('',(3.4389321487055,3.13511879810676,16.9671249977111));
#1752=CARTESIAN_POINT('Ctrl Pts',(3.27041946383355,2.50315910961617,16.7866170874987));
#1753=CARTESIAN_POINT('Ctrl Pts',(3.43986510186315,2.69435290037226,16.8412438848576));
#1754=CARTESIAN_POINT('Ctrl Pts',(3.4389321487055,3.13510506205036,16.9671730739085));
#1755=CARTESIAN_POINT('',(2.82061978744505,2.31143040858955,16.7317854581426));
#1756=CARTESIAN_POINT('Ctrl Pts',(2.82061978744505,2.3114166726107,16.7318335340686));
#1757=CARTESIAN_POINT('Ctrl Pts',(3.10097397481525,2.31196531915169,16.7319902902231));
#1758=CARTESIAN_POINT('Ctrl Pts',(3.27041946383355,2.50315910961617,16.7866170874987));
#1759=CARTESIAN_POINT('',(2.35671686039011,2.49844709281432,16.785166795414));
#1760=CARTESIAN_POINT('Ctrl Pts',(2.35671686039011,2.49844709281432,16.785166795414));
#1761=CARTESIAN_POINT('Ctrl Pts',(2.52798736670493,2.31087146996899,16.7315737603154));
#1762=CARTESIAN_POINT('Ctrl Pts',(2.82061978744505,2.31144414472349,16.7317373816738));
#1763=CARTESIAN_POINT('',(2.18458420542544,3.09332492370343,16.9551318899538));
#1764=CARTESIAN_POINT('Ctrl Pts',(2.18458420542544,3.09332492370343,16.9551318899538));
#1765=CARTESIAN_POINT('Ctrl Pts',(2.18544635468185,2.68602242910377,16.8387597486396));
#1766=CARTESIAN_POINT('Ctrl Pts',(2.35671686039011,2.49844709281432,16.785166795414));
#1767=CARTESIAN_POINT('',(2.34687432493044,3.76461186636147,17.1469281592846));
#1768=CARTESIAN_POINT('Ctrl Pts',(2.34687432493044,3.76461186636147,17.1469281592847));
#1769=CARTESIAN_POINT('Ctrl Pts',(2.1835596226907,3.57736536181037,17.0934291579843));
#1770=CARTESIAN_POINT('Ctrl Pts',(2.18458420542544,3.09332492370343,16.9551318899538));
#1771=CARTESIAN_POINT('',(2.80896071360657,3.95244306006541,17.2005942146286));
#1772=CARTESIAN_POINT('Ctrl Pts',(2.80896071360657,3.95244306006541,17.2005942146286));
#1773=CARTESIAN_POINT('Ctrl Pts',(2.51018917618149,3.95185837120418,17.2004271606683));
#1774=CARTESIAN_POINT('Ctrl Pts',(2.34687432493044,3.76461186636147,17.1469281592847));
#1775=CARTESIAN_POINT('',(3.26877699447174,3.76248072006246,17.1463192603421));
#1776=CARTESIAN_POINT('Ctrl Pts',(3.26877699447174,3.76248072006246,17.1463192603421));
#1777=CARTESIAN_POINT('Ctrl Pts',(3.09954676211838,3.95301173011765,17.2007566917864));
#1778=CARTESIAN_POINT('Ctrl Pts',(2.80896071360657,3.95244306006541,17.2005942146286));
#1779=CARTESIAN_POINT('Ctrl Pts',(3.4389321487055,3.13513253416315,16.9670769215137));
#1780=CARTESIAN_POINT('Ctrl Pts',(3.43800752484771,3.57194971059049,17.0918818290644));
#1781=CARTESIAN_POINT('Ctrl Pts',(3.26877699447174,3.76248072006246,17.1463192603421));
#1782=CARTESIAN_POINT('Origin',(-1.60906475936128,-3.69859806991943,15.0145824631973));
#1783=CARTESIAN_POINT('',(-1.04936293552748,-2.25524125272462,15.4270741268338));
#1784=CARTESIAN_POINT('',(-0.177604789992077,-2.25352150651046,15.4275134821062));
#1785=CARTESIAN_POINT('',(-3.26699359664863,-2.25958110369154,15.4258341694108));
#1786=CARTESIAN_POINT('',(-1.04601039476336,-3.8390579339509,14.9745030745557));
#1787=CARTESIAN_POINT('',(-1.05537454371111,0.584804124035988,16.2385156630472));
#1788=CARTESIAN_POINT('',(-2.17282590822531,-2.25741237118541,15.4263498056998));
#1789=CARTESIAN_POINT('',(-2.17282590822531,-2.25741237118541,15.4263498056998));
#1790=CARTESIAN_POINT('',(-3.04663057500034,-2.25912238633599,15.4258612299425));
#1791=CARTESIAN_POINT('',(-3.04663057500034,-2.259122386336,15.4258612299425));
#1792=CARTESIAN_POINT('',(-3.04052472873048,-5.14368836938857,14.6016995204989));
#1793=CARTESIAN_POINT('',(-3.04052472873048,-5.14368836938857,14.6016995204989));
#1794=CARTESIAN_POINT('',(-2.16672006195545,-5.14197835423799,14.6021880962562));
#1795=CARTESIAN_POINT('',(-2.16672006195545,-5.14197835423799,14.6021880962562));
#1796=CARTESIAN_POINT('',(-2.17009811347498,-3.5460959701158,15.0581544917197));
#1797=CARTESIAN_POINT('',(-2.17009811347498,-3.5460959701158,15.0581544917197));
#1798=CARTESIAN_POINT('',(-1.03711782356136,-5.13976774926501,14.6028196976771));
#1799=CARTESIAN_POINT('',(-1.03711782356136,-5.13976774926501,14.6028196976771));
#1800=CARTESIAN_POINT('',(-0.171498943722216,-5.13807375350665,14.6033036964652));
#1801=CARTESIAN_POINT('',(-0.171498943722216,-5.13807375350665,14.6033036964652));
#1802=CARTESIAN_POINT('',(-0.177604789992077,-2.25350777045406,15.4274654059088));
#1803=CARTESIAN_POINT('Origin',(-5.50000001490116,5.00000021606684,17.5000002607703));
#1804=CARTESIAN_POINT('',(-5.50000001490116,5.00000021606684,17.5000002607703));
#1805=CARTESIAN_POINT('',(-5.50000001490116,-5.49999994039536,14.5000002160668));
#1806=CARTESIAN_POINT('',(-5.50000001490116,5.00000021606684,17.5000002607703));
#1807=CARTESIAN_POINT('',(5.49999998509884,-5.49999994039536,14.5000002160668));
#1808=CARTESIAN_POINT('',(-5.50000001490116,-5.49999994039536,14.5000002160668));
#1809=CARTESIAN_POINT('',(5.49999998509884,5.00000021606684,17.5000002607703));
#1810=CARTESIAN_POINT('',(5.49999998509884,5.00000021606684,17.5000002607703));
#1811=CARTESIAN_POINT('',(-5.50000001490116,5.00000021606684,17.5000002607703));
#1812=CARTESIAN_POINT('Origin',(-5.50000001490116,5.00000021606684,17.5000002607703));
#1813=CARTESIAN_POINT('Origin',(-5.50000001490116,-5.49999994039536,14.5));
#1814=CARTESIAN_POINT('',(-5.50000001490116,5.83536658526574,14.5));
#1815=CARTESIAN_POINT('',(-5.50000001490116,-10.5000000149012,14.5));
#1816=CARTESIAN_POINT('',(5.49999998509884,5.83536658526574,14.5));
#1817=CARTESIAN_POINT('',(-5.50000001490116,5.83536658526574,14.5));
#1818=CARTESIAN_POINT('',(5.49999998509884,-10.5000000149012,14.5));
#1819=CARTESIAN_POINT('Origin',(-5.50000001490116,5.00000021606684,17.5000002607703));
#1820=CARTESIAN_POINT('Origin',(-5.50000001490116,5.83536658526574,14.5));
#1821=CARTESIAN_POINT('',(-5.50000001490116,5.83536658526574,14.5));
#1822=CARTESIAN_POINT('',(5.49999998509884,5.83536658526574,14.5));
#1823=CARTESIAN_POINT('Origin',(-5.50000001490116,0.167683322435193,16.0000001303852));
#1824=CARTESIAN_POINT('Origin',(5.49999998509884,0.167683322435193,16.0000001303852));
#1825=UNCERTAINTY_MEASURE_WITH_UNIT(LENGTH_MEASURE(0.01),#1829,
'DISTANCE_ACCURACY_VALUE',
'Maximum model space distance between geometric entities at asserted c
onnectivities');
#1826=UNCERTAINTY_MEASURE_WITH_UNIT(LENGTH_MEASURE(0.01),#1829,
'DISTANCE_ACCURACY_VALUE',
'Maximum model space distance between geometric entities at asserted c
onnectivities');
#1827=(
GEOMETRIC_REPRESENTATION_CONTEXT(3)
GLOBAL_UNCERTAINTY_ASSIGNED_CONTEXT((#1825))
GLOBAL_UNIT_ASSIGNED_CONTEXT((#1829,#1831,#1832))
REPRESENTATION_CONTEXT('','3D')
);
#1828=(
GEOMETRIC_REPRESENTATION_CONTEXT(3)
GLOBAL_UNCERTAINTY_ASSIGNED_CONTEXT((#1826))
GLOBAL_UNIT_ASSIGNED_CONTEXT((#1829,#1831,#1832))
REPRESENTATION_CONTEXT('','3D')
);
#1829=(
LENGTH_UNIT()
NAMED_UNIT(*)
SI_UNIT(.MILLI.,.METRE.)
);
#1830=(
LENGTH_UNIT()
NAMED_UNIT(*)
SI_UNIT($,.METRE.)
);
#1831=(
NAMED_UNIT(*)
PLANE_ANGLE_UNIT()
SI_UNIT($,.RADIAN.)
);
#1832=(
NAMED_UNIT(*)
SI_UNIT($,.STERADIAN.)
SOLID_ANGLE_UNIT()
);
#1833=SHAPE_DEFINITION_REPRESENTATION(#1834,#1835);
#1834=PRODUCT_DEFINITION_SHAPE('',$,#1837);
#1835=SHAPE_REPRESENTATION('',(#1139),#1827);
#1836=PRODUCT_DEFINITION_CONTEXT('part definition',#1841,'design');
#1837=PRODUCT_DEFINITION('# SW rocker','# SW rocker v3',#1838,#1836);
#1838=PRODUCT_DEFINITION_FORMATION('',$,#1843);
#1839=PRODUCT_RELATED_PRODUCT_CATEGORY('# SW rocker v3',
'# SW rocker v3',(#1843));
#1840=APPLICATION_PROTOCOL_DEFINITION('international standard',
'automotive_design',2009,#1841);
#1841=APPLICATION_CONTEXT(
'Core Data for Automotive Mechanical Design Process');
#1842=PRODUCT_CONTEXT('part definition',#1841,'mechanical');
#1843=PRODUCT('# SW rocker','# SW rocker v3',$,(#1842));
#1844=PRESENTATION_STYLE_ASSIGNMENT((#1848));
#1845=PRESENTATION_STYLE_ASSIGNMENT((#1849));
#1846=PRESENTATION_STYLE_ASSIGNMENT((#1850));
#1847=PRESENTATION_STYLE_ASSIGNMENT((#1851));
#1848=SURFACE_STYLE_USAGE(.BOTH.,#1852);
#1849=SURFACE_STYLE_USAGE(.BOTH.,#1853);
#1850=SURFACE_STYLE_USAGE(.BOTH.,#1854);
#1851=SURFACE_STYLE_USAGE(.BOTH.,#1855);
#1852=SURFACE_SIDE_STYLE('',(#1856));
#1853=SURFACE_SIDE_STYLE('',(#1857));
#1854=SURFACE_SIDE_STYLE('',(#1858));
#1855=SURFACE_SIDE_STYLE('',(#1859));
#1856=SURFACE_STYLE_FILL_AREA(#1860);
#1857=SURFACE_STYLE_FILL_AREA(#1861);
#1858=SURFACE_STYLE_FILL_AREA(#1862);
#1859=SURFACE_STYLE_FILL_AREA(#1863);
#1860=FILL_AREA_STYLE('\X2\92FC\X0\ - \X2\30B530C630F3\X0\',(#1864));
#1861=FILL_AREA_STYLE('\X2\30D730E930B930C130C330AF\X0\ - \X2\30DE30C330C8\X0\(
\X2\9ED2\X0\)',(#1865));
#1862=FILL_AREA_STYLE('\X2\30A230EB30DF30CB30A630E0\X0\ - \X2\30B530C630F3\X0\',
(#1866));
#1863=FILL_AREA_STYLE('\X2\30D730E930B930C130C330AF\X0\ - \X2\51496CA2\X0\(
\X2\767D\X0\)',(#1867));
#1864=FILL_AREA_STYLE_COLOUR('\X2\92FC\X0\ - \X2\30B530C630F3\X0\',#1868);
#1865=FILL_AREA_STYLE_COLOUR('\X2\30D730E930B930C130C330AF\X0\ - \X2\30DE30C330C8\X0\(
\X2\9ED2\X0\)',#1869);
#1866=FILL_AREA_STYLE_COLOUR('\X2\30A230EB30DF30CB30A630E0\X0\ - \X2\30B530C630F3\X0\',
#1870);
#1867=FILL_AREA_STYLE_COLOUR('\X2\30D730E930B930C130C330AF\X0\ - \X2\51496CA2\X0\(
\X2\767D\X0\)',#1871);
#1868=COLOUR_RGB('\X2\92FC\X0\ - \X2\30B530C630F3\X0\',0.627450980392157,
0.627450980392157,0.627450980392157);
#1869=COLOUR_RGB('\X2\30D730E930B930C130C330AF\X0\ - \X2\30DE30C330C8\X0\(
\X2\9ED2\X0\)',0.0980392156862745,0.0980392156862745,0.0980392156862745);
#1870=COLOUR_RGB('\X2\30A230EB30DF30CB30A630E0\X0\ - \X2\30B530C630F3\X0\',
0.96078431372549,0.96078431372549,0.964705882352941);
#1871=COLOUR_RGB('\X2\30D730E930B930C130C330AF\X0\ - \X2\51496CA2\X0\(
\X2\767D\X0\)',0.964705882352941,0.964705882352941,0.952941176470588);
ENDSEC;
END-ISO-10303-21;
