ISO-10303-21;
HEADER;
/* Generated by software containing ST-Developer
 * from STEP Tools, Inc. (www.steptools.com) 
 */

FILE_DESCRIPTION(
/* description */ (''),
/* implementation_level */ '2;1');

FILE_NAME(
/* name */ '113_motor-mount-mount.step',
/* time_stamp */ '2026-08-31T15:16:18+09:00',
/* author */ (''),
/* organization */ (''),
/* preprocessor_version */ 'ST-DEVELOPER v20.1',
/* originating_system */ 'Autodesk Translation Framework v15.8.0.0',
/* authorisation */ '');

FILE_SCHEMA (('AUTOMOTIVE_DESIGN { 1 0 10303 214 3 1 1 }'));
ENDSEC;

DATA;
#10=MECHANICAL_DESIGN_GEOMETRIC_PRESENTATION_REPRESENTATION('',(#13),#399);
#11=SHAPE_REPRESENTATION_RELATIONSHIP('SRR','None',#406,#12);
#12=ADVANCED_BREP_SHAPE_REPRESENTATION('',(#14),#398);
#13=STYLED_ITEM('',(#418),#14);
#14=MANIFOLD_SOLID_BREP('113_motor-mount-mount',#231);
#15=FACE_BOUND('',#49,.T.);
#16=FACE_BOUND('',#50,.T.);
#17=FACE_BOUND('',#52,.T.);
#18=FACE_BOUND('',#53,.T.);
#19=PLANE('',#254);
#20=PLANE('',#255);
#21=PLANE('',#259);
#22=PLANE('',#263);
#23=PLANE('',#264);
#24=PLANE('',#265);
#25=PLANE('',#266);
#26=FACE_OUTER_BOUND('',#38,.T.);
#27=FACE_OUTER_BOUND('',#39,.T.);
#28=FACE_OUTER_BOUND('',#40,.T.);
#29=FACE_OUTER_BOUND('',#41,.T.);
#30=FACE_OUTER_BOUND('',#42,.T.);
#31=FACE_OUTER_BOUND('',#43,.T.);
#32=FACE_OUTER_BOUND('',#44,.T.);
#33=FACE_OUTER_BOUND('',#45,.T.);
#34=FACE_OUTER_BOUND('',#46,.T.);
#35=FACE_OUTER_BOUND('',#47,.T.);
#36=FACE_OUTER_BOUND('',#48,.T.);
#37=FACE_OUTER_BOUND('',#51,.T.);
#38=EDGE_LOOP('',(#154,#155,#156,#157));
#39=EDGE_LOOP('',(#158,#159,#160,#161));
#40=EDGE_LOOP('',(#162,#163,#164,#165));
#41=EDGE_LOOP('',(#166,#167,#168,#169));
#42=EDGE_LOOP('',(#170,#171,#172,#173));
#43=EDGE_LOOP('',(#174,#175,#176,#177));
#44=EDGE_LOOP('',(#178,#179,#180,#181));
#45=EDGE_LOOP('',(#182,#183,#184,#185));
#46=EDGE_LOOP('',(#186,#187,#188,#189));
#47=EDGE_LOOP('',(#190,#191,#192,#193));
#48=EDGE_LOOP('',(#194,#195,#196,#197,#198,#199,#200,#201));
#49=EDGE_LOOP('',(#202));
#50=EDGE_LOOP('',(#203));
#51=EDGE_LOOP('',(#204,#205,#206,#207,#208,#209,#210,#211));
#52=EDGE_LOOP('',(#212));
#53=EDGE_LOOP('',(#213));
#54=LINE('',#338,#74);
#55=LINE('',#344,#75);
#56=LINE('',#351,#76);
#57=LINE('',#354,#77);
#58=LINE('',#357,#78);
#59=LINE('',#359,#79);
#60=LINE('',#360,#80);
#61=LINE('',#363,#81);
#62=LINE('',#365,#82);
#63=LINE('',#366,#83);
#64=LINE('',#372,#84);
#65=LINE('',#375,#85);
#66=LINE('',#377,#86);
#67=LINE('',#378,#87);
#68=LINE('',#384,#88);
#69=LINE('',#387,#89);
#70=LINE('',#389,#90);
#71=LINE('',#390,#91);
#72=LINE('',#392,#92);
#73=LINE('',#393,#93);
#74=VECTOR('',#273,2.);
#75=VECTOR('',#280,2.);
#76=VECTOR('',#287,10.);
#77=VECTOR('',#290,10.);
#78=VECTOR('',#293,10.);
#79=VECTOR('',#294,10.);
#80=VECTOR('',#295,10.);
#81=VECTOR('',#298,10.);
#82=VECTOR('',#299,10.);
#83=VECTOR('',#300,10.);
#84=VECTOR('',#307,10.);
#85=VECTOR('',#310,10.);
#86=VECTOR('',#311,10.);
#87=VECTOR('',#312,10.);
#88=VECTOR('',#319,10.);
#89=VECTOR('',#322,10.);
#90=VECTOR('',#323,10.);
#91=VECTOR('',#324,10.);
#92=VECTOR('',#327,10.);
#93=VECTOR('',#328,10.);
#94=CIRCLE('',#246,2.);
#95=CIRCLE('',#247,2.);
#96=CIRCLE('',#249,2.);
#97=CIRCLE('',#250,2.);
#98=CIRCLE('',#252,67.8293267306184);
#99=CIRCLE('',#253,67.8293267306184);
#100=CIRCLE('',#257,3.00000000000001);
#101=CIRCLE('',#258,3.00000000000001);
#102=CIRCLE('',#261,3.);
#103=CIRCLE('',#262,3.);
#104=VERTEX_POINT('',#335);
#105=VERTEX_POINT('',#337);
#106=VERTEX_POINT('',#341);
#107=VERTEX_POINT('',#343);
#108=VERTEX_POINT('',#347);
#109=VERTEX_POINT('',#348);
#110=VERTEX_POINT('',#350);
#111=VERTEX_POINT('',#352);
#112=VERTEX_POINT('',#356);
#113=VERTEX_POINT('',#358);
#114=VERTEX_POINT('',#362);
#115=VERTEX_POINT('',#364);
#116=VERTEX_POINT('',#368);
#117=VERTEX_POINT('',#370);
#118=VERTEX_POINT('',#374);
#119=VERTEX_POINT('',#376);
#120=VERTEX_POINT('',#380);
#121=VERTEX_POINT('',#382);
#122=VERTEX_POINT('',#386);
#123=VERTEX_POINT('',#388);
#124=EDGE_CURVE('',#104,#104,#94,.T.);
#125=EDGE_CURVE('',#104,#105,#54,.T.);
#126=EDGE_CURVE('',#105,#105,#95,.T.);
#127=EDGE_CURVE('',#106,#106,#96,.T.);
#128=EDGE_CURVE('',#106,#107,#55,.T.);
#129=EDGE_CURVE('',#107,#107,#97,.T.);
#130=EDGE_CURVE('',#108,#109,#98,.T.);
#131=EDGE_CURVE('',#108,#110,#56,.T.);
#132=EDGE_CURVE('',#111,#110,#99,.T.);
#133=EDGE_CURVE('',#109,#111,#57,.T.);
#134=EDGE_CURVE('',#112,#109,#58,.T.);
#135=EDGE_CURVE('',#113,#111,#59,.T.);
#136=EDGE_CURVE('',#112,#113,#60,.T.);
#137=EDGE_CURVE('',#114,#112,#61,.T.);
#138=EDGE_CURVE('',#115,#113,#62,.T.);
#139=EDGE_CURVE('',#114,#115,#63,.T.);
#140=EDGE_CURVE('',#116,#114,#100,.T.);
#141=EDGE_CURVE('',#117,#115,#101,.T.);
#142=EDGE_CURVE('',#116,#117,#64,.T.);
#143=EDGE_CURVE('',#118,#116,#65,.T.);
#144=EDGE_CURVE('',#119,#117,#66,.T.);
#145=EDGE_CURVE('',#118,#119,#67,.T.);
#146=EDGE_CURVE('',#120,#118,#102,.T.);
#147=EDGE_CURVE('',#121,#119,#103,.T.);
#148=EDGE_CURVE('',#120,#121,#68,.T.);
#149=EDGE_CURVE('',#122,#120,#69,.T.);
#150=EDGE_CURVE('',#123,#121,#70,.T.);
#151=EDGE_CURVE('',#122,#123,#71,.T.);
#152=EDGE_CURVE('',#108,#122,#72,.T.);
#153=EDGE_CURVE('',#110,#123,#73,.T.);
#154=ORIENTED_EDGE('',*,*,#124,.F.);
#155=ORIENTED_EDGE('',*,*,#125,.T.);
#156=ORIENTED_EDGE('',*,*,#126,.T.);
#157=ORIENTED_EDGE('',*,*,#125,.F.);
#158=ORIENTED_EDGE('',*,*,#127,.F.);
#159=ORIENTED_EDGE('',*,*,#128,.T.);
#160=ORIENTED_EDGE('',*,*,#129,.T.);
#161=ORIENTED_EDGE('',*,*,#128,.F.);
#162=ORIENTED_EDGE('',*,*,#130,.F.);
#163=ORIENTED_EDGE('',*,*,#131,.T.);
#164=ORIENTED_EDGE('',*,*,#132,.F.);
#165=ORIENTED_EDGE('',*,*,#133,.F.);
#166=ORIENTED_EDGE('',*,*,#134,.T.);
#167=ORIENTED_EDGE('',*,*,#133,.T.);
#168=ORIENTED_EDGE('',*,*,#135,.F.);
#169=ORIENTED_EDGE('',*,*,#136,.F.);
#170=ORIENTED_EDGE('',*,*,#137,.T.);
#171=ORIENTED_EDGE('',*,*,#136,.T.);
#172=ORIENTED_EDGE('',*,*,#138,.F.);
#173=ORIENTED_EDGE('',*,*,#139,.F.);
#174=ORIENTED_EDGE('',*,*,#140,.T.);
#175=ORIENTED_EDGE('',*,*,#139,.T.);
#176=ORIENTED_EDGE('',*,*,#141,.F.);
#177=ORIENTED_EDGE('',*,*,#142,.F.);
#178=ORIENTED_EDGE('',*,*,#143,.T.);
#179=ORIENTED_EDGE('',*,*,#142,.T.);
#180=ORIENTED_EDGE('',*,*,#144,.F.);
#181=ORIENTED_EDGE('',*,*,#145,.F.);
#182=ORIENTED_EDGE('',*,*,#146,.T.);
#183=ORIENTED_EDGE('',*,*,#145,.T.);
#184=ORIENTED_EDGE('',*,*,#147,.F.);
#185=ORIENTED_EDGE('',*,*,#148,.F.);
#186=ORIENTED_EDGE('',*,*,#149,.T.);
#187=ORIENTED_EDGE('',*,*,#148,.T.);
#188=ORIENTED_EDGE('',*,*,#150,.F.);
#189=ORIENTED_EDGE('',*,*,#151,.F.);
#190=ORIENTED_EDGE('',*,*,#152,.T.);
#191=ORIENTED_EDGE('',*,*,#151,.T.);
#192=ORIENTED_EDGE('',*,*,#153,.F.);
#193=ORIENTED_EDGE('',*,*,#131,.F.);
#194=ORIENTED_EDGE('',*,*,#153,.T.);
#195=ORIENTED_EDGE('',*,*,#150,.T.);
#196=ORIENTED_EDGE('',*,*,#147,.T.);
#197=ORIENTED_EDGE('',*,*,#144,.T.);
#198=ORIENTED_EDGE('',*,*,#141,.T.);
#199=ORIENTED_EDGE('',*,*,#138,.T.);
#200=ORIENTED_EDGE('',*,*,#135,.T.);
#201=ORIENTED_EDGE('',*,*,#132,.T.);
#202=ORIENTED_EDGE('',*,*,#127,.T.);
#203=ORIENTED_EDGE('',*,*,#124,.T.);
#204=ORIENTED_EDGE('',*,*,#152,.F.);
#205=ORIENTED_EDGE('',*,*,#130,.T.);
#206=ORIENTED_EDGE('',*,*,#134,.F.);
#207=ORIENTED_EDGE('',*,*,#137,.F.);
#208=ORIENTED_EDGE('',*,*,#140,.F.);
#209=ORIENTED_EDGE('',*,*,#143,.F.);
#210=ORIENTED_EDGE('',*,*,#146,.F.);
#211=ORIENTED_EDGE('',*,*,#149,.F.);
#212=ORIENTED_EDGE('',*,*,#129,.F.);
#213=ORIENTED_EDGE('',*,*,#126,.F.);
#214=CYLINDRICAL_SURFACE('',#245,2.);
#215=CYLINDRICAL_SURFACE('',#248,2.);
#216=CYLINDRICAL_SURFACE('',#251,67.8293267306184);
#217=CYLINDRICAL_SURFACE('',#256,3.00000000000001);
#218=CYLINDRICAL_SURFACE('',#260,3.);
#219=ADVANCED_FACE('',(#26),#214,.F.);
#220=ADVANCED_FACE('',(#27),#215,.F.);
#221=ADVANCED_FACE('',(#28),#216,.F.);
#222=ADVANCED_FACE('',(#29),#19,.T.);
#223=ADVANCED_FACE('',(#30),#20,.T.);
#224=ADVANCED_FACE('',(#31),#217,.T.);
#225=ADVANCED_FACE('',(#32),#21,.T.);
#226=ADVANCED_FACE('',(#33),#218,.T.);
#227=ADVANCED_FACE('',(#34),#22,.T.);
#228=ADVANCED_FACE('',(#35),#23,.T.);
#229=ADVANCED_FACE('',(#36,#15,#16),#24,.T.);
#230=ADVANCED_FACE('',(#37,#17,#18),#25,.F.);
#231=CLOSED_SHELL('',(#219,#220,#221,#222,#223,#224,#225,#226,#227,#228,
#229,#230));
#232=DERIVED_UNIT_ELEMENT(#234,1.);
#233=DERIVED_UNIT_ELEMENT(#401,-3.);
#234=(
MASS_UNIT()
NAMED_UNIT(*)
SI_UNIT(.KILO.,.GRAM.)
);
#235=DERIVED_UNIT((#232,#233));
#236=MEASURE_REPRESENTATION_ITEM('density measure',
POSITIVE_RATIO_MEASURE(7850.),#235);
#237=PROPERTY_DEFINITION_REPRESENTATION(#242,#239);
#238=PROPERTY_DEFINITION_REPRESENTATION(#243,#240);
#239=REPRESENTATION('material name',(#241),#398);
#240=REPRESENTATION('density',(#236),#398);
#241=DESCRIPTIVE_REPRESENTATION_ITEM('\X2\92FC\X0\','\X2\92FC\X0\');
#242=PROPERTY_DEFINITION('material property','material name',#408);
#243=PROPERTY_DEFINITION('material property','density of part',#408);
#244=AXIS2_PLACEMENT_3D('',#333,#267,#268);
#245=AXIS2_PLACEMENT_3D('',#334,#269,#270);
#246=AXIS2_PLACEMENT_3D('',#336,#271,#272);
#247=AXIS2_PLACEMENT_3D('',#339,#274,#275);
#248=AXIS2_PLACEMENT_3D('',#340,#276,#277);
#249=AXIS2_PLACEMENT_3D('',#342,#278,#279);
#250=AXIS2_PLACEMENT_3D('',#345,#281,#282);
#251=AXIS2_PLACEMENT_3D('',#346,#283,#284);
#252=AXIS2_PLACEMENT_3D('',#349,#285,#286);
#253=AXIS2_PLACEMENT_3D('',#353,#288,#289);
#254=AXIS2_PLACEMENT_3D('',#355,#291,#292);
#255=AXIS2_PLACEMENT_3D('',#361,#296,#297);
#256=AXIS2_PLACEMENT_3D('',#367,#301,#302);
#257=AXIS2_PLACEMENT_3D('',#369,#303,#304);
#258=AXIS2_PLACEMENT_3D('',#371,#305,#306);
#259=AXIS2_PLACEMENT_3D('',#373,#308,#309);
#260=AXIS2_PLACEMENT_3D('',#379,#313,#314);
#261=AXIS2_PLACEMENT_3D('',#381,#315,#316);
#262=AXIS2_PLACEMENT_3D('',#383,#317,#318);
#263=AXIS2_PLACEMENT_3D('',#385,#320,#321);
#264=AXIS2_PLACEMENT_3D('',#391,#325,#326);
#265=AXIS2_PLACEMENT_3D('',#394,#329,#330);
#266=AXIS2_PLACEMENT_3D('',#395,#331,#332);
#267=DIRECTION('axis',(0.,0.,1.));
#268=DIRECTION('refdir',(1.,0.,0.));
#269=DIRECTION('center_axis',(0.,0.,1.));
#270=DIRECTION('ref_axis',(-1.,0.,0.));
#271=DIRECTION('center_axis',(-2.04777181879836E-16,-2.04777181879836E-16,
-1.));
#272=DIRECTION('ref_axis',(-1.,0.,2.04777181879836E-16));
#273=DIRECTION('',(0.,0.,-1.));
#274=DIRECTION('center_axis',(-2.04777181879836E-16,-2.04777181879836E-16,
-1.));
#275=DIRECTION('ref_axis',(-1.,0.,2.04777181879836E-16));
#276=DIRECTION('center_axis',(0.,0.,1.));
#277=DIRECTION('ref_axis',(-1.,0.,0.));
#278=DIRECTION('center_axis',(-2.04777181879836E-16,-2.04777181879836E-16,
-1.));
#279=DIRECTION('ref_axis',(-1.,0.,2.04777181879836E-16));
#280=DIRECTION('',(0.,0.,-1.));
#281=DIRECTION('center_axis',(-2.04777181879836E-16,-2.04777181879836E-16,
-1.));
#282=DIRECTION('ref_axis',(-1.,0.,2.04777181879836E-16));
#283=DIRECTION('center_axis',(0.,0.,1.));
#284=DIRECTION('ref_axis',(-0.940581657840349,-0.339567585223179,0.));
#285=DIRECTION('center_axis',(2.04777181879836E-16,2.04777181879836E-16,
1.));
#286=DIRECTION('ref_axis',(-0.940581657840349,-0.339567585223179,2.62145354380155E-16));
#287=DIRECTION('',(0.,0.,1.));
#288=DIRECTION('center_axis',(-2.04777181879836E-16,-2.04777181879836E-16,
-1.));
#289=DIRECTION('ref_axis',(-0.940581657840349,-0.339567585223179,2.62145354380155E-16));
#290=DIRECTION('',(0.,0.,1.));
#291=DIRECTION('center_axis',(0.707106781186547,0.707106781186548,0.));
#292=DIRECTION('ref_axis',(-0.707106781186548,0.707106781186547,-2.74377998051351E-16));
#293=DIRECTION('',(-0.707106781186548,0.707106781186547,-2.74377998051351E-16));
#294=DIRECTION('',(-0.707106781186548,0.707106781186547,-2.74377998051351E-16));
#295=DIRECTION('',(0.,0.,1.));
#296=DIRECTION('center_axis',(0.380749805254297,0.924678098474715,0.));
#297=DIRECTION('ref_axis',(-0.924678098474715,0.380749805254296,9.4068491465986E-16));
#298=DIRECTION('',(-0.924678098474715,0.380749805254296,9.4068491465986E-16));
#299=DIRECTION('',(-0.924678098474715,0.380749805254296,9.4068491465986E-16));
#300=DIRECTION('',(0.,0.,1.));
#301=DIRECTION('center_axis',(0.,0.,1.));
#302=DIRECTION('ref_axis',(0.53309911848381,-0.846052793785225,0.));
#303=DIRECTION('center_axis',(2.04777181879836E-16,2.04777181879836E-16,
1.));
#304=DIRECTION('ref_axis',(-0.998450797485761,0.0556417559037005,1.93065778586004E-16));
#305=DIRECTION('center_axis',(2.04777181879836E-16,2.04777181879836E-16,
1.));
#306=DIRECTION('ref_axis',(-0.998450797485761,0.0556417559037005,1.93065778586004E-16));
#307=DIRECTION('',(0.,0.,1.));
#308=DIRECTION('center_axis',(-0.707106781186548,-0.707106781186547,0.));
#309=DIRECTION('ref_axis',(0.707106781186547,-0.707106781186548,1.4791141972894E-31));
#310=DIRECTION('',(0.707106781186547,-0.707106781186548,1.4791141972894E-31));
#311=DIRECTION('',(0.707106781186547,-0.707106781186548,1.4791141972894E-31));
#312=DIRECTION('',(0.,0.,1.));
#313=DIRECTION('center_axis',(0.,0.,1.));
#314=DIRECTION('ref_axis',(-0.846052793785234,0.533099118483796,0.));
#315=DIRECTION('center_axis',(9.17138840528744E-16,6.26400557756966E-16,
1.));
#316=DIRECTION('ref_axis',(0.924678098474692,0.380749805254352,-1.08656008947459E-15));
#317=DIRECTION('center_axis',(9.17138840528744E-16,6.26400557756966E-16,
1.));
#318=DIRECTION('ref_axis',(0.924678098474692,0.380749805254352,-1.08656008947459E-15));
#319=DIRECTION('',(0.,0.,1.));
#320=DIRECTION('center_axis',(0.924678098474714,0.380749805254299,0.));
#321=DIRECTION('ref_axis',(-0.380749805254299,0.924678098474714,-1.85063624074994E-15));
#322=DIRECTION('',(-0.380749805254299,0.924678098474714,-1.85063624074994E-15));
#323=DIRECTION('',(-0.380749805254299,0.924678098474714,-1.85063624074994E-15));
#324=DIRECTION('',(0.,0.,1.));
#325=DIRECTION('center_axis',(0.707106781186547,0.707106781186548,0.));
#326=DIRECTION('ref_axis',(-0.707106781186548,0.707106781186547,-2.74377998051351E-16));
#327=DIRECTION('',(-0.707106781186548,0.707106781186547,-2.74377998051351E-16));
#328=DIRECTION('',(-0.707106781186548,0.707106781186547,-2.74377998051351E-16));
#329=DIRECTION('center_axis',(2.04777181879836E-16,2.04777181879836E-16,
1.));
#330=DIRECTION('ref_axis',(-1.,-4.74820238472256E-48,2.04777181879836E-16));
#331=DIRECTION('center_axis',(2.04777181879836E-16,2.04777181879836E-16,
1.));
#332=DIRECTION('ref_axis',(-1.,-4.74820238472256E-48,2.04777181879836E-16));
#333=CARTESIAN_POINT('',(0.,0.,0.));
#334=CARTESIAN_POINT('Origin',(-58.2655987697737,-40.4879292401058,1.5));
#335=CARTESIAN_POINT('',(-56.2655987697737,-40.4879292401058,4.8));
#336=CARTESIAN_POINT('Origin',(-58.2655987697737,-40.4879292401058,4.8));
#337=CARTESIAN_POINT('',(-56.2655987697737,-40.4879292401058,1.5));
#338=CARTESIAN_POINT('',(-56.2655987697737,-40.4879292401058,1.5));
#339=CARTESIAN_POINT('Origin',(-58.2655987697737,-40.4879292401058,1.5));
#340=CARTESIAN_POINT('Origin',(-40.5879292401101,-58.1655987697694,1.50000000000001));
#341=CARTESIAN_POINT('',(-38.5879292401101,-58.1655987697694,4.80000000000001));
#342=CARTESIAN_POINT('Origin',(-40.5879292401101,-58.1655987697694,4.80000000000001));
#343=CARTESIAN_POINT('',(-38.5879292401101,-58.1655987697694,1.50000000000001));
#344=CARTESIAN_POINT('',(-38.5879292401101,-58.1655987697694,1.50000000000001));
#345=CARTESIAN_POINT('Origin',(-40.5879292401101,-58.1655987697694,1.50000000000001));
#346=CARTESIAN_POINT('Origin',(-8.5746184241815E-15,-2.6338186818184E-14,
1.49999999999999));
#347=CARTESIAN_POINT('',(-48.0129231409395,-47.9121777441938,1.50000000000001));
#348=CARTESIAN_POINT('',(-47.91217774419,-48.0129231409433,1.50000000000001));
#349=CARTESIAN_POINT('Origin',(-8.5746184241815E-15,-2.6338186818184E-14,
1.49999999999999));
#350=CARTESIAN_POINT('',(-48.0129231409395,-47.9121777441938,4.80000000000001));
#351=CARTESIAN_POINT('',(-48.0129231409395,-47.9121777441938,1.50000000000001));
#352=CARTESIAN_POINT('',(-47.91217774419,-48.0129231409433,4.80000000000001));
#353=CARTESIAN_POINT('Origin',(-8.5746184241815E-15,-2.6338186818184E-14,
4.79999999999999));
#354=CARTESIAN_POINT('',(-47.91217774419,-48.0129231409433,1.50000000000001));
#355=CARTESIAN_POINT('Origin',(-41.2950360212966,-54.6300648638367,1.50000000000001));
#356=CARTESIAN_POINT('',(-41.2950360212966,-54.6300648638367,1.50000000000001));
#357=CARTESIAN_POINT('',(-41.2950360212966,-54.6300648638367,1.50000000000001));
#358=CARTESIAN_POINT('',(-41.2950360212966,-54.6300648638367,4.80000000000001));
#359=CARTESIAN_POINT('',(-41.2950360212966,-54.6300648638367,4.80000000000001));
#360=CARTESIAN_POINT('',(-41.2950360212966,-54.6300648638367,1.50000000000001));
#361=CARTESIAN_POINT('Origin',(-39.445679824347,-55.3915644743453,1.50000000000001));
#362=CARTESIAN_POINT('',(-39.445679824347,-55.3915644743453,1.50000000000001));
#363=CARTESIAN_POINT('',(-39.445679824347,-55.3915644743453,1.50000000000001));
#364=CARTESIAN_POINT('',(-39.445679824347,-55.3915644743453,4.80000000000001));
#365=CARTESIAN_POINT('',(-39.445679824347,-55.3915644743453,4.80000000000001));
#366=CARTESIAN_POINT('',(-39.445679824347,-55.3915644743453,1.50000000000001));
#367=CARTESIAN_POINT('Origin',(-40.58792924011,-58.1655987697694,1.50000000000001));
#368=CARTESIAN_POINT('',(-43.5832816325673,-57.9986735020583,1.50000000000001));
#369=CARTESIAN_POINT('Origin',(-40.58792924011,-58.1655987697694,1.50000000000001));
#370=CARTESIAN_POINT('',(-43.5832816325673,-57.9986735020583,4.80000000000001));
#371=CARTESIAN_POINT('Origin',(-40.58792924011,-58.1655987697694,4.80000000000001));
#372=CARTESIAN_POINT('',(-43.5832816325673,-57.9986735020583,1.50000000000001));
#373=CARTESIAN_POINT('Origin',(-58.0986735020626,-43.483281632563,1.50000000000001));
#374=CARTESIAN_POINT('',(-58.0986735020626,-43.483281632563,1.50000000000001));
#375=CARTESIAN_POINT('',(-58.0986735020626,-43.483281632563,1.50000000000001));
#376=CARTESIAN_POINT('',(-58.0986735020626,-43.483281632563,4.80000000000001));
#377=CARTESIAN_POINT('',(-58.0986735020626,-43.483281632563,4.80000000000001));
#378=CARTESIAN_POINT('',(-58.0986735020626,-43.483281632563,1.50000000000001));
#379=CARTESIAN_POINT('Origin',(-58.2655987697737,-40.4879292401058,1.5));
#380=CARTESIAN_POINT('',(-55.4915644743497,-39.3456798243427,1.5));
#381=CARTESIAN_POINT('Origin',(-58.2655987697737,-40.4879292401058,1.5));
#382=CARTESIAN_POINT('',(-55.4915644743497,-39.3456798243427,4.8));
#383=CARTESIAN_POINT('Origin',(-58.2655987697737,-40.4879292401058,4.8));
#384=CARTESIAN_POINT('',(-55.4915644743497,-39.3456798243427,1.5));
#385=CARTESIAN_POINT('Origin',(-54.730064863841,-41.1950360212923,1.5));
#386=CARTESIAN_POINT('',(-54.730064863841,-41.1950360212923,1.5));
#387=CARTESIAN_POINT('',(-54.730064863841,-41.1950360212923,1.5));
#388=CARTESIAN_POINT('',(-54.730064863841,-41.1950360212923,4.8));
#389=CARTESIAN_POINT('',(-54.730064863841,-41.1950360212923,4.8));
#390=CARTESIAN_POINT('',(-54.730064863841,-41.1950360212923,1.5));
#391=CARTESIAN_POINT('Origin',(-48.0129231409395,-47.9121777441938,1.50000000000001));
#392=CARTESIAN_POINT('',(-41.2950360212966,-54.6300648638367,1.50000000000001));
#393=CARTESIAN_POINT('',(-41.2950360212966,-54.6300648638367,4.80000000000001));
#394=CARTESIAN_POINT('Origin',(-49.4267640049419,-49.3267640049376,4.80000000000001));
#395=CARTESIAN_POINT('Origin',(-49.4267640049419,-49.3267640049376,1.50000000000001));
#396=UNCERTAINTY_MEASURE_WITH_UNIT(LENGTH_MEASURE(0.01),#400,
'DISTANCE_ACCURACY_VALUE',
'Maximum model space distance between geometric entities at asserted c
onnectivities');
#397=UNCERTAINTY_MEASURE_WITH_UNIT(LENGTH_MEASURE(0.01),#400,
'DISTANCE_ACCURACY_VALUE',
'Maximum model space distance between geometric entities at asserted c
onnectivities');
#398=(
GEOMETRIC_REPRESENTATION_CONTEXT(3)
GLOBAL_UNCERTAINTY_ASSIGNED_CONTEXT((#396))
GLOBAL_UNIT_ASSIGNED_CONTEXT((#400,#402,#403))
REPRESENTATION_CONTEXT('','3D')
);
#399=(
GEOMETRIC_REPRESENTATION_CONTEXT(3)
GLOBAL_UNCERTAINTY_ASSIGNED_CONTEXT((#397))
GLOBAL_UNIT_ASSIGNED_CONTEXT((#400,#402,#403))
REPRESENTATION_CONTEXT('','3D')
);
#400=(
LENGTH_UNIT()
NAMED_UNIT(*)
SI_UNIT(.MILLI.,.METRE.)
);
#401=(
LENGTH_UNIT()
NAMED_UNIT(*)
SI_UNIT($,.METRE.)
);
#402=(
NAMED_UNIT(*)
PLANE_ANGLE_UNIT()
SI_UNIT($,.RADIAN.)
);
#403=(
NAMED_UNIT(*)
SI_UNIT($,.STERADIAN.)
SOLID_ANGLE_UNIT()
);
#404=SHAPE_DEFINITION_REPRESENTATION(#405,#406);
#405=PRODUCT_DEFINITION_SHAPE('',$,#408);
#406=SHAPE_REPRESENTATION('',(#244),#398);
#407=PRODUCT_DEFINITION_CONTEXT('part definition',#412,'design');
#408=PRODUCT_DEFINITION('## open-robot-raw','## open-robot-raw v148',#409,
#407);
#409=PRODUCT_DEFINITION_FORMATION('',$,#414);
#410=PRODUCT_RELATED_PRODUCT_CATEGORY('## open-robot-raw v148',
'## open-robot-raw v148',(#414));
#411=APPLICATION_PROTOCOL_DEFINITION('international standard',
'automotive_design',2009,#412);
#412=APPLICATION_CONTEXT(
'Core Data for Automotive Mechanical Design Process');
#413=PRODUCT_CONTEXT('part definition',#412,'mechanical');
#414=PRODUCT('## open-robot-raw','## open-robot-raw v148',$,(#413));
#415=PRESENTATION_STYLE_ASSIGNMENT((#424));
#416=PRESENTATION_STYLE_ASSIGNMENT((#425));
#417=PRESENTATION_STYLE_ASSIGNMENT((#426));
#418=PRESENTATION_STYLE_ASSIGNMENT((#427));
#419=PRESENTATION_STYLE_ASSIGNMENT((#428));
#420=PRESENTATION_STYLE_ASSIGNMENT((#429));
#421=PRESENTATION_STYLE_ASSIGNMENT((#430));
#422=PRESENTATION_STYLE_ASSIGNMENT((#431));
#423=PRESENTATION_STYLE_ASSIGNMENT((#432));
#424=SURFACE_STYLE_USAGE(.BOTH.,#433);
#425=SURFACE_STYLE_USAGE(.BOTH.,#434);
#426=SURFACE_STYLE_USAGE(.BOTH.,#435);
#427=SURFACE_STYLE_USAGE(.BOTH.,#436);
#428=SURFACE_STYLE_USAGE(.BOTH.,#437);
#429=SURFACE_STYLE_USAGE(.BOTH.,#438);
#430=SURFACE_STYLE_USAGE(.BOTH.,#439);
#431=SURFACE_STYLE_USAGE(.BOTH.,#440);
#432=SURFACE_STYLE_USAGE(.BOTH.,#441);
#433=SURFACE_SIDE_STYLE('',(#442));
#434=SURFACE_SIDE_STYLE('',(#443));
#435=SURFACE_SIDE_STYLE('',(#444));
#436=SURFACE_SIDE_STYLE('',(#445));
#437=SURFACE_SIDE_STYLE('',(#446));
#438=SURFACE_SIDE_STYLE('',(#447));
#439=SURFACE_SIDE_STYLE('',(#448));
#440=SURFACE_SIDE_STYLE('',(#449));
#441=SURFACE_SIDE_STYLE('',(#450));
#442=SURFACE_STYLE_FILL_AREA(#451);
#443=SURFACE_STYLE_FILL_AREA(#452);
#444=SURFACE_STYLE_FILL_AREA(#453);
#445=SURFACE_STYLE_FILL_AREA(#454);
#446=SURFACE_STYLE_FILL_AREA(#455);
#447=SURFACE_STYLE_FILL_AREA(#456);
#448=SURFACE_STYLE_FILL_AREA(#457);
#449=SURFACE_STYLE_FILL_AREA(#458);
#450=SURFACE_STYLE_FILL_AREA(#459);
#451=FILL_AREA_STYLE('\X2\92FC\X0\ - \X2\30B530C630F3\X0\',(#460));
#452=FILL_AREA_STYLE('ABS(kuro)',(#461));
#453=FILL_AREA_STYLE(
'PA 12 - Nylon - PA 603-CF (EOS P 3D \X2\30D730EA30F330BF4F7F7528\X0\)',
(#462));
#454=FILL_AREA_STYLE('\X2\30A230EB30DF30CB30A630E0\X0\ - \X2\3064308451FA3057\X0\',
(#463));
#455=FILL_AREA_STYLE('PEEK',(#464));
#456=FILL_AREA_STYLE('ABS(\X2\767D\X0\)',(#465));
#457=FILL_AREA_STYLE('\X2\30DD30EA30AB30FC30DC30CD30FC30C8\X0\(\X2\30AF30EA30A2\X0\)',
(#466));
#458=FILL_AREA_STYLE('\X2\30A230AF30EA30EB\X0\(\X2\30AF30EA30A2\X0\)',(#467));
#459=FILL_AREA_STYLE(
'PA 12 - Nylon - PA 603-CF (EOS P 3D \X2\30D730EA30F330BF4F7F7528\X0\)',
(#468));
#460=FILL_AREA_STYLE_COLOUR('\X2\92FC\X0\ - \X2\30B530C630F3\X0\',#469);
#461=FILL_AREA_STYLE_COLOUR('ABS(kuro)',#470);
#462=FILL_AREA_STYLE_COLOUR(
'PA 12 - Nylon - PA 603-CF (EOS P 3D \X2\30D730EA30F330BF4F7F7528\X0\)',
#471);
#463=FILL_AREA_STYLE_COLOUR('\X2\30A230EB30DF30CB30A630E0\X0\ - \X2\3064308451FA3057\X0\',
#472);
#464=FILL_AREA_STYLE_COLOUR('PEEK',#473);
#465=FILL_AREA_STYLE_COLOUR('ABS(\X2\767D\X0\)',#474);
#466=FILL_AREA_STYLE_COLOUR('\X2\30DD30EA30AB30FC30DC30CD30FC30C8\X0\(
\X2\30AF30EA30A2\X0\)',#475);
#467=FILL_AREA_STYLE_COLOUR('\X2\30A230AF30EA30EB\X0\(\X2\30AF30EA30A2\X0\)',
#476);
#468=FILL_AREA_STYLE_COLOUR(
'PA 12 - Nylon - PA 603-CF (EOS P 3D \X2\30D730EA30F330BF4F7F7528\X0\)',
#477);
#469=COLOUR_RGB('\X2\92FC\X0\ - \X2\30B530C630F3\X0\',0.627450980392157,
0.627450980392157,0.627450980392157);
#470=COLOUR_RGB('ABS(kuro)',0.,0.,0.);
#471=COLOUR_RGB(
'PA 12 - Nylon - PA 603-CF (EOS P 3D \X2\30D730EA30F330BF4F7F7528\X0\)',
0.,0.,0.);
#472=COLOUR_RGB('\X2\30A230EB30DF30CB30A630E0\X0\ - \X2\3064308451FA3057\X0\',
0.96078431372549,0.96078431372549,0.964705882352941);
#473=COLOUR_RGB('PEEK',0.6,0.509803921568627,0.368627450980392);
#474=COLOUR_RGB('ABS(\X2\767D\X0\)',0.964705882352941,0.964705882352941,
0.952941176470588);
#475=COLOUR_RGB('\X2\30DD30EA30AB30FC30DC30CD30FC30C8\X0\(\X2\30AF30EA30A2\X0\)',
0.964705882352941,0.964705882352941,0.952941176470588);
#476=COLOUR_RGB('\X2\30A230AF30EA30EB\X0\(\X2\30AF30EA30A2\X0\)',0.964705882352941,
0.964705882352941,0.952941176470588);
#477=COLOUR_RGB(
'PA 12 - Nylon - PA 603-CF (EOS P 3D \X2\30D730EA30F330BF4F7F7528\X0\)',
0.247058823529412,0.247058823529412,0.247058823529412);
ENDSEC;
END-ISO-10303-21;
