0
SECTION
2
HEADER
9
$INSUNITS
70
4
9
$ACADVER
1
AC1014
9
$HANDSEED
5
FFFF
0
ENDSEC
0
SECTION
2
TABLES
0
TABLE
2
VPORT
5
8
100
AcDbSymbolTable
0
ENDTAB
0
TABLE
2
LTYPE
5
5
100
AcDbSymbolTable
0
LTYPE
5
14
100
AcDbSymbolTableRecord
100
AcDbLinetypeTableRecord
2
BYBLOCK
70
0
0
LTYPE
5
15
100
AcDbSymbolTableRecord
100
AcDbLinetypeTableRecord
2
BYLAYER
70
0
0
LTYPE
5
16
100
AcDbSymbolTableRecord
100
AcDbLinetypeTableRecord
2
DASHED
70
0
3
Dashed __ __ __ __ __ __ __ __ __ __ __ __ __ _
72
65
73
2
40
0.75
49
0.5
74
0
49
-0.25
74
0
0
ENDTAB
0
TABLE
2
LAYER
5
2
100
AcDbSymbolTable
70
2
0
LAYER
5
50
100
AcDbSymbolTableRecord
100
AcDbLayerTableRecord
2
0
70
0
62
7
6
CONTINUOUS
0
ENDTAB
0
TABLE
2
STYLE
5
3
100
AcDbSymbolTable
70
1
0
STYLE
5
11
100
AcDbSymbolTableRecord
100
AcDbTextStyleTableRecord
2
STANDARD
70
0
0
ENDTAB
0
TABLE
2
VIEW
5
6
100
AcDbSymbolTable
70
0
0
ENDTAB
0
TABLE
2
UCS
5
7
100
AcDbSymbolTable
70
0
0
ENDTAB
0
TABLE
2
APPID
5
9
100
AcDbSymbolTable
70
2
0
APPID
5
12
100
AcDbSymbolTableRecord
100
AcDbRegAppTableRecord
2
ACAD
70
0
0
ENDTAB
0
TABLE
2
DIMSTYLE
5
A
100
AcDbSymbolTable
70
1
0
ENDTAB
0
TABLE
2
BLOCK_RECORD
5
1
100
AcDbSymbolTable
70
1
0
BLOCK_RECORD
5
1F
100
AcDbSymbolTableRecord
100
AcDbBlockTableRecord
2
*MODEL_SPACE
0
BLOCK_RECORD
5
1B
100
AcDbSymbolTableRecord
100
AcDbBlockTableRecord
2
*PAPER_SPACE
0
ENDTAB
0
ENDSEC
0
SECTION
2
BLOCKS
0
BLOCK
5
20
100
AcDbEntity
100
AcDbBlockBegin
2
*MODEL_SPACE
0
ENDBLK
5
21
100
AcDbEntity
100
AcDbBlockEnd
0
BLOCK
5
1C
100
AcDbEntity
100
AcDbBlockBegin
2
*PAPER_SPACE
0
ENDBLK
5
1D
100
AcDbEntity
100
AcDbBlockEnd
0
ENDSEC
0
SECTION
2
ENTITIES
0
LWPOLYLINE
5
100
100
AcDbEntity
8
0
100
AcDbPolyline
90
14
70
1
43
0.0
10
6.5581169079632229
20
-22.114466094067264
10
34.80624535111042
20
-50.36259453721442
42
-0.48281058023438045
10
34.270819278239891
20
-55.030469290598347
42
-0.11957325366459162
10
5.2425029029820402
20
-64.617008346545177
42
-0.43812836783134546
10
1.9999042288619679
20
-61.626833454784546
10
1.9999042288622122
20
-52.849999947846065
10
-2.0000957711377882
20
-52.849999947845959
10
-2.0000957711380303
20
-61.626817914289646
42
-0.43812929401132933
10
-5.242703739016652
20
-64.616992052014965
42
-0.11957246553019532
10
-34.270819278239827
20
-55.030469290598354
42
-0.48281058023438028
10
-34.806245351110377
20
-50.362594537214434
10
-6.5581169079632184
20
-22.114466094067275
42
-0.19891236737965604
10
-3.0225830020304842
20
-20.650000000000013
10
3.022583002030474
20
-20.650000000000006
42
-0.1989123673796587
0
LINE
5
101
100
AcDbEntity
8
0
100
AcDbLine
10
-13.000095726434477
20
-28.556444912538534
30
0
11
-13.000095726434582
21
-49.850000000000406
31
-1.7219433775554702e-15
0
LINE
5
102
100
AcDbEntity
8
0
100
AcDbLine
10
-11.000095726434589
20
-51.850000000000414
30
4.4408920985006262e-15
11
-7.9844554377699257
21
-51.850000000000435
31
4.4408920985006254e-15
0
LINE
5
103
100
AcDbEntity
8
0
100
AcDbLine
10
7.9999042735657167
20
-51.850000000000506
30
4.440892098500623e-15
11
10.999904273565457
21
-51.85000000000052
31
4.4408920985006246e-15
0
ARC
5
104
100
AcDbEntity
8
0
100
AcDbCircle
10
-11.00009572643458
20
-49.850000000000414
30
4.4408920985006262e-15
40
2.0000000000000018
210
-3.0814177380280452e-15
220
1.3517843337793348e-29
230
1
100
AcDbArc
50
180
51
269.99999999999972
0
LINE
5
105
100
AcDbEntity
8
0
100
AcDbLine
10
12.99990427356547
20
-49.850000000000527
30
4.4408920985006262e-15
11
12.999904273565575
21
-28.556253459669605
31
0
0
ARC
5
106
100
AcDbEntity
8
0
100
AcDbCircle
10
10.999904273565468
20
-49.85000000000052
30
-1.7219433775554702e-15
40
2.0000000000000018
210
1.7101427841474612e-29
220
3.0814177380280449e-15
230
1
100
AcDbArc
50
269.99999999999972
51
360
0
LINE
5
107
100
AcDbEntity
8
0
100
AcDbLine
10
-7.9844554377699257
20
-51.850000000000435
30
4.4408920985006254e-15
11
-7.9844554377702615
21
-64.335760473530769
31
0
0
LINE
5
108
100
AcDbEntity
8
0
100
AcDbLine
10
7.9999042735657167
20
-51.850000000000506
30
4.440892098500623e-15
11
7.9999042735653747
21
-64.333841296467398
31
0
0
LWPOLYLINE
5
109
100
AcDbEntity
8
0
100
AcDbPolyline
90
4
70
1
43
0.0
10
5.2400000000000322
20
-25.080000000000013
10
5.2400000000000322
20
-24.760000000000012
10
4.920000000000031
20
-24.760000000000012
10
4.9200000000000319
20
-25.080000000000013
0
LWPOLYLINE
5
110
100
AcDbEntity
8
0
100
AcDbPolyline
90
4
70
1
43
0.0
10
2.7000000000000233
20
-25.080000000000013
10
2.7000000000000233
20
-24.760000000000012
10
2.3800000000000225
20
-24.760000000000012
10
2.3800000000000221
20
-25.080000000000013
0
LWPOLYLINE
5
111
100
AcDbEntity
8
0
100
AcDbPolyline
90
4
70
1
43
0.0
10
0.1600000000000168
20
-25.080000000000009
10
0.16000000000001691
20
-24.760000000000009
10
-0.15999999999998438
20
-24.760000000000009
10
-0.15999999999998415
20
-25.080000000000009
0
LWPOLYLINE
5
112
100
AcDbEntity
8
0
100
AcDbPolyline
90
4
70
1
43
0.0
10
-2.3799999999999906
20
-25.080000000000009
10
-2.3799999999999906
20
-24.760000000000009
10
-2.6999999999999917
20
-24.760000000000009
10
-2.6999999999999913
20
-25.080000000000009
0
LWPOLYLINE
5
113
100
AcDbEntity
8
0
100
AcDbPolyline
90
4
70
1
43
0.0
10
-4.9199999999999982
20
-25.080000000000009
10
-4.9199999999999982
20
-24.760000000000009
10
-5.2399999999999993
20
-24.760000000000009
10
-5.2399999999999993
20
-25.080000000000009
0
LWPOLYLINE
5
114
100
AcDbEntity
8
0
100
AcDbPolyline
90
32
70
1
43
0.0
10
-6.3500000000000068
20
-23.904000000000003
10
-6.0960000000000054
20
-23.650000000000006
10
-4.0640000000000001
20
-23.650000000000006
10
-3.8099999999999996
20
-23.904000000000003
10
-3.5559999999999992
20
-23.650000000000006
10
-1.5239999999999922
20
-23.650000000000006
10
-1.2699999999999922
20
-23.904000000000003
10
-1.0159999999999905
20
-23.650000000000013
10
1.0160000000000149
20
-23.650000000000006
10
1.2700000000000151
20
-23.904000000000003
10
1.5240000000000173
20
-23.650000000000013
10
3.5560000000000205
20
-23.650000000000006
10
3.8100000000000218
20
-23.904000000000014
10
4.064000000000024
20
-23.650000000000006
10
6.0960000000000294
20
-23.650000000000013
10
6.3500000000000316
20
-23.904000000000011
10
6.350000000000029
20
-25.936000000000018
10
6.0960000000000303
20
-26.190000000000015
10
4.0640000000000249
20
-26.190000000000015
10
3.810000000000024
20
-25.936000000000018
10
3.5560000000000218
20
-26.190000000000015
10
1.5240000000000162
20
-26.190000000000015
10
1.2700000000000151
20
-25.936000000000014
10
1.0160000000000149
20
-26.190000000000012
10
-1.0159999999999905
20
-26.190000000000015
10
-1.2699999999999929
20
-25.936000000000014
10
-1.5239999999999934
20
-26.190000000000012
10
-3.5559999999999996
20
-26.190000000000012
10
-3.8100000000000001
20
-25.936000000000014
10
-4.0640000000000009
20
-26.190000000000012
10
-6.0960000000000072
20
-26.190000000000012
10
-6.3500000000000076
20
-25.936000000000014
0
ENDSEC
0
SECTION
2
OBJECTS
0
DICTIONARY
5
C
100
AcDbDictionary
3
ACAD_GROUP
350
D
3
ACAD_MLINESTYLE
350
17
0
DICTIONARY
5
D
100
AcDbDictionary
0
DICTIONARY
5
1A
330
C
100
AcDbDictionary
0
DICTIONARY
5
17
100
AcDbDictionary
0
ENDSEC
0
EOF
