0
SECTION
2
HEADER
9
$INSUNITS
70
4
9
$ACADVER
1
AC1014
9
$HANDSEED
5
FFFF
0
ENDSEC
0
SECTION
2
TABLES
0
TABLE
2
VPORT
5
8
100
AcDbSymbolTable
0
ENDTAB
0
TABLE
2
LTYPE
5
5
100
AcDbSymbolTable
0
LTYPE
5
14
100
AcDbSymbolTableRecord
100
AcDbLinetypeTableRecord
2
BYBLOCK
70
0
0
LTYPE
5
15
100
AcDbSymbolTableRecord
100
AcDbLinetypeTableRecord
2
BYLAYER
70
0
0
LTYPE
5
16
100
AcDbSymbolTableRecord
100
AcDbLinetypeTableRecord
2
DASHED
70
0
3
Dashed __ __ __ __ __ __ __ __ __ __ __ __ __ _
72
65
73
2
40
0.75
49
0.5
74
0
49
-0.25
74
0
0
ENDTAB
0
TABLE
2
LAYER
5
2
100
AcDbSymbolTable
70
2
0
LAYER
5
50
100
AcDbSymbolTableRecord
100
AcDbLayerTableRecord
2
0
70
0
62
7
6
CONTINUOUS
0
ENDTAB
0
TABLE
2
STYLE
5
3
100
AcDbSymbolTable
70
1
0
STYLE
5
11
100
AcDbSymbolTableRecord
100
AcDbTextStyleTableRecord
2
STANDARD
70
0
0
ENDTAB
0
TABLE
2
VIEW
5
6
100
AcDbSymbolTable
70
0
0
ENDTAB
0
TABLE
2
UCS
5
7
100
AcDbSymbolTable
70
0
0
ENDTAB
0
TABLE
2
APPID
5
9
100
AcDbSymbolTable
70
2
0
APPID
5
12
100
AcDbSymbolTableRecord
100
AcDbRegAppTableRecord
2
ACAD
70
0
0
ENDTAB
0
TABLE
2
DIMSTYLE
5
A
100
AcDbSymbolTable
70
1
0
ENDTAB
0
TABLE
2
BLOCK_RECORD
5
1
100
AcDbSymbolTable
70
1
0
BLOCK_RECORD
5
1F
100
AcDbSymbolTableRecord
100
AcDbBlockTableRecord
2
*MODEL_SPACE
0
BLOCK_RECORD
5
1B
100
AcDbSymbolTableRecord
100
AcDbBlockTableRecord
2
*PAPER_SPACE
0
ENDTAB
0
ENDSEC
0
SECTION
2
BLOCKS
0
BLOCK
5
20
100
AcDbEntity
100
AcDbBlockBegin
2
*MODEL_SPACE
0
ENDBLK
5
21
100
AcDbEntity
100
AcDbBlockEnd
0
BLOCK
5
1C
100
AcDbEntity
100
AcDbBlockBegin
2
*PAPER_SPACE
0
ENDBLK
5
1D
100
AcDbEntity
100
AcDbBlockEnd
0
ENDSEC
0
SECTION
2
ENTITIES
0
POINT
5
100
100
AcDbEntity
8
0
100
AcDbPoint
10
-52.990198591306012
20
21.817718287816259
30
4.4408920985006262e-15
0
POINT
5
101
100
AcDbEntity
8
0
100
AcDbPoint
10
-58.163923973369265
20
23.960745509060683
30
4.9960036108132044e-15
0
POINT
5
102
100
AcDbEntity
8
0
100
AcDbPoint
10
0
20
0
30
0
0
POINT
5
103
100
AcDbEntity
8
0
100
AcDbPoint
10
0.00033251803746914277
20
-62.829326729738462
30
0
0
POINT
5
104
100
AcDbEntity
8
0
100
AcDbPoint
10
0.00033251803746914277
20
-57.496077474482306
30
0
0
POINT
5
105
100
AcDbEntity
8
0
100
AcDbPoint
10
46.720178358595639
20
15.17803522503459
30
0
0
CIRCLE
5
106
100
AcDbEntity
8
0
100
AcDbCircle
10
67.054492575335729
20
19.718770172495454
30
0
40
1.6500000000000004
210
-0
220
0
230
1
0
CIRCLE
5
107
100
AcDbEntity
8
0
100
AcDbCircle
10
67.056207981042832
20
-19.717735511652151
30
0
40
1.6500000000000004
210
-0
220
0
230
1
0
CIRCLE
5
108
100
AcDbEntity
8
0
100
AcDbCircle
10
-67.056207981042832
20
19.717735511652158
30
0
40
1.6500000000000004
210
-0
220
0
230
1
0
CIRCLE
5
109
100
AcDbEntity
8
0
100
AcDbCircle
10
-67.054492575335729
20
-19.718770172495447
30
0
40
1.6500000000000004
210
-0
220
0
230
1
0
LWPOLYLINE
5
110
100
AcDbEntity
8
0
100
AcDbPolyline
90
32
70
1
43
0.0
10
72.629566247662098
20
18.010392711823133
10
73.25480786124561
20
18.165437655393553
42
-0.42199469181658161
10
75.689456735486118
20
16.654012702258051
42
-0.10871513651892324
10
75.689456735486118
20
-16.654012702258076
42
-0.42199469181657678
10
73.254807861245581
20
-18.165437655393561
10
72.630483545842452
20
-18.010620179799556
42
0.41435184243946233
10
70.207678011296807
20
-19.471370020942022
10
69.968357425777413
20
-20.438419639083946
42
-0.4142135623730947
10
66.335523853611036
20
-22.629884956386725
10
64.908385325268569
20
-22.276703876726668
42
0.38035879815381568
10
62.555822325990462
20
-23.514421200336947
42
-0.69241613361891696
10
-62.55557342695927
20
-23.515083340104262
42
0.38049087337869192
10
-64.909045463875515
20
-22.277612869397725
10
-66.332433718251821
20
-22.630579061640933
42
-0.41421356237309509
10
-69.966301464481219
20
-20.440829029579351
10
-70.206987750175855
20
-19.470226066530842
42
0.41421356237309603
10
-72.629566247662098
20
-18.010392711823123
10
-73.254807861245638
20
-18.165437655393543
42
-0.42199469181658228
10
-75.689456735486161
20
-16.654012702258065
42
-0.10870145863188359
10
-75.690357149704525
20
16.649919956269326
42
-0.42187158148321452
10
-73.256601525128687
20
18.161677565647707
10
-72.630474396105924
20
18.006726766426112
42
0.4142135624144459
10
-70.208585347720913
20
19.467703644560128
10
-69.968357425777413
20
20.438419639083953
42
-0.4142135623730947
10
-66.335523853611036
20
22.629884956386732
10
-64.90838532526854
20
22.276703876726671
42
0.38035879815380497
10
-62.555822325990448
20
23.514421200336926
42
-0.69241613361891707
10
62.555573426959235
20
23.515083340104272
42
0.38049087337869875
10
64.909045463875486
20
22.277612869397728
10
66.332433718251821
20
22.630579061640944
42
-0.41421356237309509
10
69.966301464481219
20
20.440829029579358
10
70.206987750175855
20
19.470226066530859
42
0.41421356237309304
0
CIRCLE
5
111
100
AcDbEntity
8
0
100
AcDbCircle
10
-6.5
20
-31.87867973094616
30
0
40
1.5999999999999996
210
0
220
0
230
1
0
CIRCLE
5
112
100
AcDbEntity
8
0
100
AcDbCircle
10
6.5
20
-31.87867973094616
30
0
40
1.6000000000000003
210
0
220
0
230
1
0
LWPOLYLINE
5
113
100
AcDbEntity
8
0
100
AcDbPolyline
90
14
70
1
43
0.0
10
45.079390260296123
20
2.1000000521540936
10
45.079390260296123
20
1.1000000521540931
10
45.079390260296123
20
-5.0999999478459053
10
45.079390260296123
20
-26.099999947845902
42
-0.41421356237309176
10
43.079390260296137
20
-28.099999947845905
10
39.079390260296123
20
-28.099999947845905
42
-0.4142135623730957
10
37.079390260296123
20
-26.099999947845905
10
37.079390260296123
20
-5.0999999478459053
10
37.079390260296123
20
1.1000000521540931
10
37.079390260296123
20
2.100000052154094
42
-0.41421356237309692
10
39.079390260296137
20
4.1000000521540949
10
40.47018435034132
20
4.100000052154094
10
41.688596170250946
20
4.100000052154094
10
43.079390260296123
20
4.100000052154094
42
-0.41421356237309226
0
ELLIPSE
5
114
100
AcDbEntity
8
0
100
AcDbEllipse
10
-48.068093768831488
20
14.894406375152393
30
6.6613381477509392e-15
11
-1.0000000000000013
21
5.4040115087123376e-11
31
0.0
40
0.99999995477714132
41
0
42
6.2831853071795862
0
ELLIPSE
5
115
100
AcDbEntity
8
0
100
AcDbEllipse
10
-48.068093768831517
20
19.894406149038115
30
6.6613381477509392e-15
11
-1.0000000000000013
21
-3.6551630739452174e-10
31
0.0
40
0.99999995477714132
41
0
42
6.2831853071795862
0
LINE
5
116
100
AcDbEntity
8
0
100
AcDbLine
10
-45.943093768831467
20
12.288808016494983
30
6.6613381477509392e-15
11
-50.193093768831474
21
12.288808016494958
31
7.2908951450474392e-15
0
ELLIPSE
5
117
100
AcDbEntity
8
0
100
AcDbEllipse
10
-50.193093768831474
20
12.76880799478799
30
6.6613381477509392e-15
11
-0.48000000000000054
21
-2.7150797950230221e-15
31
0.0
40
0.99999995477714143
41
0
42
1.5707963267948966
0
LINE
5
118
100
AcDbEntity
8
0
100
AcDbLine
10
-50.673093768831478
20
12.768807994787988
30
6.7324410556808974e-15
11
-50.673093768831521
21
21.060625039402829
31
7.4072692424209663e-15
0
LINE
5
119
100
AcDbEntity
8
0
100
AcDbLine
10
-49.259707439812345
20
22.498807554769613
30
6.6613381477509392e-15
11
-50.673093768831521
21
21.060625039402829
31
7.4072692424209663e-15
0
LINE
5
120
100
AcDbEntity
8
0
100
AcDbLine
10
-46.876480097850717
20
22.49880755476962
30
6.6613381477509392e-15
11
-49.259707439812345
21
22.498807554769613
31
6.6613381477509392e-15
0
LINE
5
121
100
AcDbEntity
8
0
100
AcDbLine
10
-45.46309376883152
20
21.060625039402861
30
4.4408920985006262e-15
11
-46.876480097850717
21
22.49880755476962
31
6.6613381477509392e-15
0
LINE
5
122
100
AcDbEntity
8
0
100
AcDbLine
10
-45.46309376883152
20
21.060625039402861
30
4.4408920985006262e-15
11
-45.463093768831477
21
12.768807994788016
31
3.6949610038305991e-15
0
ELLIPSE
5
123
100
AcDbEntity
8
0
100
AcDbEllipse
10
-45.943093768831474
20
12.768807994788014
30
6.6613381477509392e-15
11
0.48000000000000054
21
2.7738628387237579e-15
31
0.0
40
0.99999995477714276
41
4.7123889803847039
42
6.2831853071795862
0
LINE
5
124
100
AcDbEntity
8
0
100
AcDbLine
10
-2.4999999999999996
20
-2.4999999999999818
30
0
11
2.4999999999999996
21
2.4999999999999818
31
0
0
LINE
5
125
100
AcDbEntity
8
0
100
AcDbLine
10
2.4999999999999996
20
-2.4999999999999818
30
0
11
-2.4999999999999996
21
2.4999999999999818
31
0
0
LINE
5
126
100
AcDbEntity
8
0
100
AcDbLine
10
-1.9996674819625313
20
-64.829326729738469
30
0
11
2.0003325180374696
21
-60.829326729738462
31
0
0
LINE
5
127
100
AcDbEntity
8
0
100
AcDbLine
10
2.0003325180374696
20
-64.829326729738469
30
0
11
-1.9996674819625313
21
-60.829326729738462
31
0
0
LINE
5
128
100
AcDbEntity
8
0
100
AcDbLine
10
-1.9996674819625313
20
-59.496077474482306
30
0
11
2.0003325180374696
21
-55.496077474482306
31
0
0
LINE
5
129
100
AcDbEntity
8
0
100
AcDbLine
10
2.0003325180374696
20
-59.496077474482306
30
0
11
-1.9996674819625313
21
-55.496077474482306
31
0
0
LINE
5
130
100
AcDbEntity
8
0
100
AcDbLine
10
-75.990881262705713
20
5.7216521605171424
30
6.9225332687572036e-15
11
-75.772263456414549
21
5.3902818921277866
31
6.9020310300427212e-15
0
LINE
5
131
100
AcDbEntity
8
0
100
AcDbLine
10
-76.03003912037174
20
5.4242187021050006
30
6.9252378847343914e-15
11
-75.733105598748523
21
5.6877153505399285
31
6.9286974752853843e-15
0
LINE
5
132
100
AcDbEntity
8
0
100
AcDbLine
10
-71.905628497056682
20
4.8812297424695794
30
6.5927054966010656e-15
11
-71.569037180978526
21
5.1395053432157054
31
6.5911929208226683e-15
0
LINE
5
133
100
AcDbEntity
8
0
100
AcDbLine
10
-71.86647063939067
20
5.1786632008817213
30
6.5885989996316682e-15
11
-71.608195038644538
21
4.8420718848035635
31
6.5659283565722149e-15
0
LINE
5
134
100
AcDbEntity
8
0
100
AcDbLine
10
-70.777882196275428
20
13.447313344739282
30
6.3173181447897475e-15
11
-70.441290880197272
21
13.705588945485406
31
6.1791960952781766e-15
0
LINE
5
135
100
AcDbEntity
8
0
100
AcDbLine
10
-70.738724338609416
20
13.744746803151422
30
6.2059732353070274e-15
11
-70.48044873786327
21
13.408155487073266
31
6.3199120659807476e-15
0
LINE
5
136
100
AcDbEntity
8
0
100
AcDbLine
10
-74.863134961924459
20
14.287735762786845
30
6.6765169781657363e-15
11
-74.644517155633295
21
13.956365494397488
31
6.658183143796225e-15
0
LINE
5
137
100
AcDbEntity
8
0
100
AcDbLine
10
-74.902292819590485
20
13.990302304374701
30
6.6520189372680443e-15
11
-74.605359297967269
21
14.253798952809632
31
6.6533101234740661e-15
0
LWPOLYLINE
5
138
100
AcDbEntity
8
0
100
AcDbPolyline
90
4
70
1
43
0.0
10
42.051404548910568
20
10.676003337123984
10
51.388952168280717
20
10.676003337123984
10
51.388952168280717
20
19.680067112945196
10
42.051404548910568
20
19.680067112945196
0
ENDSEC
0
SECTION
2
OBJECTS
0
DICTIONARY
5
C
100
AcDbDictionary
3
ACAD_GROUP
350
D
3
ACAD_MLINESTYLE
350
17
0
DICTIONARY
5
D
100
AcDbDictionary
0
DICTIONARY
5
1A
330
C
100
AcDbDictionary
0
DICTIONARY
5
17
100
AcDbDictionary
0
ENDSEC
0
EOF
