0
SECTION
2
HEADER
9
$INSUNITS
70
4
9
$ACADVER
1
AC1014
9
$HANDSEED
5
FFFF
0
ENDSEC
0
SECTION
2
TABLES
0
TABLE
2
VPORT
5
8
100
AcDbSymbolTable
0
ENDTAB
0
TABLE
2
LTYPE
5
5
100
AcDbSymbolTable
0
LTYPE
5
14
100
AcDbSymbolTableRecord
100
AcDbLinetypeTableRecord
2
BYBLOCK
70
0
0
LTYPE
5
15
100
AcDbSymbolTableRecord
100
AcDbLinetypeTableRecord
2
BYLAYER
70
0
0
LTYPE
5
16
100
AcDbSymbolTableRecord
100
AcDbLinetypeTableRecord
2
DASHED
70
0
3
Dashed __ __ __ __ __ __ __ __ __ __ __ __ __ _
72
65
73
2
40
0.75
49
0.5
74
0
49
-0.25
74
0
0
ENDTAB
0
TABLE
2
LAYER
5
2
100
AcDbSymbolTable
70
2
0
LAYER
5
50
100
AcDbSymbolTableRecord
100
AcDbLayerTableRecord
2
0
70
0
62
7
6
CONTINUOUS
0
ENDTAB
0
TABLE
2
STYLE
5
3
100
AcDbSymbolTable
70
1
0
STYLE
5
11
100
AcDbSymbolTableRecord
100
AcDbTextStyleTableRecord
2
STANDARD
70
0
0
ENDTAB
0
TABLE
2
VIEW
5
6
100
AcDbSymbolTable
70
0
0
ENDTAB
0
TABLE
2
UCS
5
7
100
AcDbSymbolTable
70
0
0
ENDTAB
0
TABLE
2
APPID
5
9
100
AcDbSymbolTable
70
2
0
APPID
5
12
100
AcDbSymbolTableRecord
100
AcDbRegAppTableRecord
2
ACAD
70
0
0
ENDTAB
0
TABLE
2
DIMSTYLE
5
A
100
AcDbSymbolTable
70
1
0
ENDTAB
0
TABLE
2
BLOCK_RECORD
5
1
100
AcDbSymbolTable
70
1
0
BLOCK_RECORD
5
1F
100
AcDbSymbolTableRecord
100
AcDbBlockTableRecord
2
*MODEL_SPACE
0
BLOCK_RECORD
5
1B
100
AcDbSymbolTableRecord
100
AcDbBlockTableRecord
2
*PAPER_SPACE
0
ENDTAB
0
ENDSEC
0
SECTION
2
BLOCKS
0
BLOCK
5
20
100
AcDbEntity
100
AcDbBlockBegin
2
*MODEL_SPACE
0
ENDBLK
5
21
100
AcDbEntity
100
AcDbBlockEnd
0
BLOCK
5
1C
100
AcDbEntity
100
AcDbBlockBegin
2
*PAPER_SPACE
0
ENDBLK
5
1D
100
AcDbEntity
100
AcDbBlockEnd
0
ENDSEC
0
SECTION
2
ENTITIES
0
LWPOLYLINE
5
100
100
AcDbEntity
8
0
100
AcDbPolyline
90
28
70
1
43
0.0
10
-26.355220573718672
20
-10.762324343495088
10
-50.396834318595992
20
-34.756650221584096
42
-0.48281058023438217
10
-55.064179722646578
20
-34.216629229328603
42
-0.074685092992730406
10
-62.686656891473277
20
-16.529508526147179
42
0.40990187799075478
10
-66.309562944701227
20
-14.382608484266068
10
-70.682542595574091
20
-15.467002690400612
42
-0.43457670358869505
10
-74.35927461621624
20
-13.074719061996893
42
-0.0022892169189868052
10
-74.475878792401687
20
-12.393283588278665
42
0.36670111045012049
10
-77.435185234483853
20
-9.8857319427798274
10
-80.205985255268388
20
-9.8857319427798291
42
-0.41421356237309098
10
-83.205985255268402
20
-6.8857319427798274
10
-83.205985255268402
20
6.8942680572202004
42
-0.41421356237309109
10
-80.205985255268388
20
9.894268057220204
10
-77.433764284506751
20
9.8942680572202004
42
0.36666984574088268
10
-74.474512146245203
20
12.401493481785861
42
-0.0022616576223796541
10
-74.359274616216254
20
13.074719061996705
42
-0.43457670358869299
10
-70.682542595574091
20
15.467002690400593
10
-66.30956294470127
20
14.38260848426606
42
0.40990187799076139
10
-62.686656891473341
20
16.529508526147154
42
-0.075180069972447736
10
-54.996705528773376
20
34.324976115456465
42
-0.48281058023438028
10
-50.328305949672234
20
34.855806750063103
10
-26.294901108120804
20
10.775037025147522
42
0.19916822401944731
10
-24.171493508836058
20
9.8942680572201898
10
-23.245985255268309
20
9.8942680572201915
42
-0.41421356237309348
10
-20.245985255268305
20
6.8942680572201915
10
-20.245985255268316
20
-6.8857319427798362
42
-0.41421356237309653
10
-23.245985255268316
20
-9.8857319427798362
10
-24.235989541646003
20
-9.8857319427798362
42
0.1986565357888804
0
ENDSEC
0
SECTION
2
OBJECTS
0
DICTIONARY
5
C
100
AcDbDictionary
3
ACAD_GROUP
350
D
3
ACAD_MLINESTYLE
350
17
0
DICTIONARY
5
D
100
AcDbDictionary
0
DICTIONARY
5
1A
330
C
100
AcDbDictionary
0
DICTIONARY
5
17
100
AcDbDictionary
0
ENDSEC
0
EOF
