0
SECTION
2
HEADER
9
$INSUNITS
70
4
9
$ACADVER
1
AC1014
9
$HANDSEED
5
FFFF
0
ENDSEC
0
SECTION
2
TABLES
0
TABLE
2
VPORT
5
8
100
AcDbSymbolTable
0
ENDTAB
0
TABLE
2
LTYPE
5
5
100
AcDbSymbolTable
0
LTYPE
5
14
100
AcDbSymbolTableRecord
100
AcDbLinetypeTableRecord
2
BYBLOCK
70
0
0
LTYPE
5
15
100
AcDbSymbolTableRecord
100
AcDbLinetypeTableRecord
2
BYLAYER
70
0
0
LTYPE
5
16
100
AcDbSymbolTableRecord
100
AcDbLinetypeTableRecord
2
DASHED
70
0
3
Dashed __ __ __ __ __ __ __ __ __ __ __ __ __ _
72
65
73
2
40
0.75
49
0.5
74
0
49
-0.25
74
0
0
ENDTAB
0
TABLE
2
LAYER
5
2
100
AcDbSymbolTable
70
2
0
LAYER
5
50
100
AcDbSymbolTableRecord
100
AcDbLayerTableRecord
2
0
70
0
62
7
6
CONTINUOUS
0
ENDTAB
0
TABLE
2
STYLE
5
3
100
AcDbSymbolTable
70
1
0
STYLE
5
11
100
AcDbSymbolTableRecord
100
AcDbTextStyleTableRecord
2
STANDARD
70
0
0
ENDTAB
0
TABLE
2
VIEW
5
6
100
AcDbSymbolTable
70
0
0
ENDTAB
0
TABLE
2
UCS
5
7
100
AcDbSymbolTable
70
0
0
ENDTAB
0
TABLE
2
APPID
5
9
100
AcDbSymbolTable
70
2
0
APPID
5
12
100
AcDbSymbolTableRecord
100
AcDbRegAppTableRecord
2
ACAD
70
0
0
ENDTAB
0
TABLE
2
DIMSTYLE
5
A
100
AcDbSymbolTable
70
1
0
ENDTAB
0
TABLE
2
BLOCK_RECORD
5
1
100
AcDbSymbolTable
70
1
0
BLOCK_RECORD
5
1F
100
AcDbSymbolTableRecord
100
AcDbBlockTableRecord
2
*MODEL_SPACE
0
BLOCK_RECORD
5
1B
100
AcDbSymbolTableRecord
100
AcDbBlockTableRecord
2
*PAPER_SPACE
0
ENDTAB
0
ENDSEC
0
SECTION
2
BLOCKS
0
BLOCK
5
20
100
AcDbEntity
100
AcDbBlockBegin
2
*MODEL_SPACE
0
ENDBLK
5
21
100
AcDbEntity
100
AcDbBlockEnd
0
BLOCK
5
1C
100
AcDbEntity
100
AcDbBlockBegin
2
*PAPER_SPACE
0
ENDBLK
5
1D
100
AcDbEntity
100
AcDbBlockEnd
0
ENDSEC
0
SECTION
2
ENTITIES
0
LWPOLYLINE
5
100
100
AcDbEntity
8
0
100
AcDbPolyline
90
40
70
1
43
0.0
10
-26.355220573718672
20
-10.762324343495088
10
-32.29799277114963
20
-16.693407599284797
42
-0.19865653578887885
10
-34.417223803222299
20
-17.57000000000005
10
-71.475878792401687
20
-17.570000000000068
42
-0.41421356237309398
10
-74.475878792401687
20
-14.570000000000062
10
-74.475878792401687
20
-12.393283588278665
42
0.36670111045012049
10
-77.435185234483853
20
-9.8857319427798274
10
-80.205985255268388
20
-9.8857319427798291
42
-0.41421356237309098
10
-83.205985255268402
20
-6.8857319427798274
10
-83.205985255268402
20
6.8942680572202004
42
-0.41421356237309109
10
-80.205985255268388
20
9.894268057220204
10
-77.433764284506751
20
9.8942680572202004
42
0.36666984574088268
10
-74.474512146245345
20
12.401493481785046
10
-74.474512146245345
20
22.724918474267145
42
-0.41421356271585957
10
-71.47451214273454
20
25.724918474267145
10
-63.874999997659458
20
25.724918465373655
42
-0.41421356203033072
10
-61.874999999999993
20
23.724918465373648
10
-61.875
20
22.625000000000007
42
0.41421356237309692
10
-59.875000000000007
20
20.625
10
-59.624999999999517
20
20.625000000000004
42
-0.41421356237309348
10
-56.624999999999517
20
17.625000000000004
10
-56.62499999999951
20
14.265519591357414
42
0.19665347704421021
10
-55.764685665915252
20
12.162724962518274
10
-54.810825358859667
20
11.192130308003897
42
0.20117321207948127
10
-52.671139692943925
20
10.294924936843037
10
-51.32886030705513
20
10.294924936843039
42
0.20117321207948313
10
-49.189174641139388
20
11.192130308003902
10
-48.255314334083806
20
12.142374086245614
42
0.19665347704420871
10
-47.394999999999555
20
14.245168715084757
10
-47.394999999999563
20
17.624999999999996
42
-0.41421356237309453
10
-44.394999999999555
20
20.625
10
-37.369861051175356
20
20.624999999999996
42
-0.19916822401944309
10
-35.246453451890609
20
19.744231032072669
10
-26.294901108120804
20
10.775037025147522
42
0.19916822401944731
10
-24.171493508836058
20
9.8942680572201898
10
-23.245985255268309
20
9.8942680572201915
42
-0.41421356237309348
10
-20.245985255268305
20
6.8942680572201915
10
-20.245985255268316
20
-6.8857319427798362
42
-0.41421356237309653
10
-23.245985255268316
20
-9.8857319427798362
10
-24.235989541646003
20
-9.8857319427798362
42
0.1986565357888804
0
LWPOLYLINE
5
101
100
AcDbEntity
8
0
100
AcDbPolyline
90
4
70
1
43
0.0
10
-34.13999999999993
20
-13.460000000000054
10
-34.13999999999993
20
-13.140000000000054
10
-34.459999999999923
20
-13.140000000000054
10
-34.459999999999923
20
-13.460000000000054
0
LWPOLYLINE
5
102
100
AcDbEntity
8
0
100
AcDbPolyline
90
4
70
1
43
0.0
10
-36.679999999999929
20
-13.460000000000052
10
-36.679999999999929
20
-13.140000000000052
10
-36.999999999999929
20
-13.140000000000052
10
-36.999999999999929
20
-13.460000000000052
0
LWPOLYLINE
5
103
100
AcDbEntity
8
0
100
AcDbPolyline
90
4
70
1
43
0.0
10
-39.219999999999928
20
-13.460000000000051
10
-39.219999999999928
20
-13.14000000000005
10
-39.539999999999928
20
-13.14000000000005
10
-39.539999999999928
20
-13.460000000000051
0
LWPOLYLINE
5
104
100
AcDbEntity
8
0
100
AcDbPolyline
90
4
70
1
43
0.0
10
-41.75999999999992
20
-13.460000000000047
10
-41.75999999999992
20
-13.140000000000047
10
-42.07999999999992
20
-13.140000000000047
10
-42.07999999999992
20
-13.460000000000047
0
LWPOLYLINE
5
105
100
AcDbEntity
8
0
100
AcDbPolyline
90
4
70
1
43
0.0
10
-44.299999999999919
20
-13.460000000000045
10
-44.299999999999919
20
-13.140000000000045
10
-44.619999999999919
20
-13.140000000000045
10
-44.619999999999919
20
-13.460000000000045
0
LWPOLYLINE
5
106
100
AcDbEntity
8
0
100
AcDbPolyline
90
68
70
1
43
0.0
10
-33.283999999999921
20
-14.570000000000054
10
-33.029999999999923
20
-14.316000000000056
10
-33.029999999999923
20
-12.284000000000056
10
-33.283999999999921
20
-12.030000000000054
10
-35.315999999999917
20
-12.030000000000054
10
-35.569999999999922
20
-12.284000000000052
10
-35.82399999999992
20
-12.030000000000051
10
-37.855999999999916
20
-12.030000000000051
10
-38.109999999999921
20
-12.28400000000005
10
-38.363999999999919
20
-12.030000000000049
10
-40.395999999999923
20
-12.030000000000049
10
-40.649999999999913
20
-12.284000000000049
10
-40.903999999999918
20
-12.030000000000047
10
-42.935999999999915
20
-12.030000000000047
10
-43.18999999999992
20
-12.284000000000045
10
-43.443999999999924
20
-12.030000000000047
10
-45.475999999999914
20
-12.030000000000046
10
-45.729999999999919
20
-12.284000000000043
10
-45.983999999999909
20
-12.030000000000046
10
-48.015999999999906
20
-12.030000000000044
10
-48.269999999999918
20
-12.284000000000042
10
-48.523999999999901
20
-12.030000000000044
10
-50.555999999999912
20
-12.03000000000004
10
-50.809999999999917
20
-12.28400000000004
10
-51.063999999999908
20
-12.03000000000004
10
-53.095999999999904
20
-12.030000000000038
10
-53.349999999999909
20
-12.284000000000038
10
-53.603999999999907
20
-12.030000000000038
10
-55.635999999999903
20
-12.030000000000037
10
-55.889999999999908
20
-12.284000000000038
10
-56.143999999999906
20
-12.030000000000037
10
-58.17599999999991
20
-12.030000000000037
10
-58.4299999999999
20
-12.284000000000034
10
-58.683999999999905
20
-12.030000000000033
10
-60.715999999999902
20
-12.030000000000033
10
-60.969999999999906
20
-12.284000000000033
10
-60.969999999999906
20
-14.316000000000033
10
-60.715999999999909
20
-14.570000000000034
10
-58.683999999999912
20
-14.570000000000036
10
-58.429999999999907
20
-14.316000000000034
10
-58.175999999999917
20
-14.570000000000036
10
-56.143999999999906
20
-14.570000000000036
10
-55.889999999999915
20
-14.316000000000038
10
-55.63599999999991
20
-14.570000000000039
10
-53.603999999999907
20
-14.570000000000039
10
-53.349999999999909
20
-14.31600000000004
10
-53.095999999999904
20
-14.570000000000041
10
-51.063999999999908
20
-14.570000000000041
10
-50.809999999999917
20
-14.316000000000042
10
-50.555999999999912
20
-14.570000000000043
10
-48.523999999999916
20
-14.570000000000043
10
-48.269999999999918
20
-14.316000000000045
10
-48.015999999999906
20
-14.570000000000043
10
-45.983999999999916
20
-14.570000000000045
10
-45.729999999999919
20
-14.316000000000047
10
-45.475999999999921
20
-14.570000000000045
10
-43.443999999999924
20
-14.570000000000046
10
-43.189999999999912
20
-14.316000000000049
10
-42.935999999999915
20
-14.570000000000046
10
-40.903999999999918
20
-14.57000000000005
10
-40.649999999999913
20
-14.31600000000005
10
-40.395999999999916
20
-14.57000000000005
10
-38.363999999999919
20
-14.570000000000052
10
-38.109999999999921
20
-14.316000000000052
10
-37.855999999999923
20
-14.570000000000052
10
-35.82399999999992
20
-14.570000000000054
10
-35.569999999999922
20
-14.316000000000052
10
-35.315999999999917
20
-14.570000000000054
0
LWPOLYLINE
5
107
100
AcDbEntity
8
0
100
AcDbPolyline
90
4
70
1
43
0.0
10
-52.399999999999913
20
-12.98000000000004
10
-51.759999999999913
20
-12.98000000000004
10
-51.759999999999913
20
-13.62000000000004
10
-52.399999999999913
20
-13.62000000000004
0
LWPOLYLINE
5
108
100
AcDbEntity
8
0
100
AcDbPolyline
90
4
70
1
43
0.0
10
-49.859999999999907
20
-12.980000000000043
10
-49.219999999999906
20
-12.980000000000043
10
-49.219999999999914
20
-13.620000000000044
10
-49.859999999999914
20
-13.620000000000044
0
LWPOLYLINE
5
109
100
AcDbEntity
8
0
100
AcDbPolyline
90
4
70
1
43
0.0
10
-47.319999999999915
20
-12.980000000000045
10
-46.679999999999914
20
-12.980000000000045
10
-46.679999999999914
20
-13.620000000000045
10
-47.319999999999915
20
-13.620000000000045
0
LWPOLYLINE
5
110
100
AcDbEntity
8
0
100
AcDbPolyline
90
4
70
1
43
0.0
10
-37.159999999999926
20
-12.980000000000052
10
-36.519999999999925
20
-12.980000000000052
10
-36.519999999999925
20
-13.620000000000053
10
-37.159999999999926
20
-13.620000000000053
0
LWPOLYLINE
5
111
100
AcDbEntity
8
0
100
AcDbPolyline
90
4
70
1
43
0.0
10
-39.699999999999918
20
-12.98000000000005
10
-39.059999999999917
20
-12.98000000000005
10
-39.059999999999917
20
-13.620000000000051
10
-39.699999999999918
20
-13.620000000000051
0
LWPOLYLINE
5
112
100
AcDbEntity
8
0
100
AcDbPolyline
90
4
70
1
43
0.0
10
-44.779999999999916
20
-13.620000000000045
10
-44.779999999999916
20
-12.980000000000045
10
-44.139999999999915
20
-12.980000000000045
10
-44.139999999999915
20
-13.620000000000047
0
LWPOLYLINE
5
113
100
AcDbEntity
8
0
100
AcDbPolyline
90
4
70
1
43
0.0
10
-42.23999999999991
20
-13.620000000000047
10
-42.23999999999991
20
-12.980000000000047
10
-41.599999999999909
20
-12.980000000000047
10
-41.599999999999909
20
-13.620000000000051
0
LWPOLYLINE
5
114
100
AcDbEntity
8
0
100
AcDbPolyline
90
4
70
1
43
0.0
10
-54.939999999999912
20
-13.620000000000038
10
-54.939999999999912
20
-12.980000000000038
10
-54.299999999999912
20
-12.980000000000038
10
-54.299999999999912
20
-13.620000000000038
0
LWPOLYLINE
5
115
100
AcDbEntity
8
0
100
AcDbPolyline
90
4
70
1
43
0.0
10
-57.479999999999905
20
-13.620000000000037
10
-57.479999999999905
20
-12.980000000000036
10
-56.839999999999904
20
-12.980000000000036
10
-56.839999999999904
20
-13.620000000000037
0
LWPOLYLINE
5
116
100
AcDbEntity
8
0
100
AcDbPolyline
90
4
70
1
43
0.0
10
-34.619999999999919
20
-13.620000000000054
10
-34.619999999999919
20
-12.980000000000054
10
-33.979999999999919
20
-12.980000000000054
10
-33.979999999999919
20
-13.620000000000054
0
LWPOLYLINE
5
117
100
AcDbEntity
8
0
100
AcDbPolyline
90
4
70
1
43
0.0
10
-60.019999999999897
20
-12.980000000000034
10
-59.379999999999896
20
-12.980000000000034
10
-59.379999999999896
20
-13.620000000000035
10
-60.019999999999897
20
-13.620000000000035
0
LWPOLYLINE
5
118
100
AcDbEntity
8
0
100
AcDbPolyline
90
4
70
1
43
0.0
10
-46.839999999999918
20
-13.460000000000043
10
-46.839999999999918
20
-13.140000000000043
10
-47.159999999999926
20
-13.140000000000045
10
-47.159999999999926
20
-13.460000000000043
0
LWPOLYLINE
5
119
100
AcDbEntity
8
0
100
AcDbPolyline
90
4
70
1
43
0.0
10
-49.379999999999917
20
-13.46000000000004
10
-49.379999999999917
20
-13.14000000000004
10
-49.699999999999918
20
-13.140000000000043
10
-49.699999999999918
20
-13.460000000000043
0
LWPOLYLINE
5
120
100
AcDbEntity
8
0
100
AcDbPolyline
90
4
70
1
43
0.0
10
-51.919999999999916
20
-13.46000000000004
10
-51.919999999999916
20
-13.14000000000004
10
-52.23999999999991
20
-13.14000000000004
10
-52.23999999999991
20
-13.46000000000004
0
LWPOLYLINE
5
121
100
AcDbEntity
8
0
100
AcDbPolyline
90
4
70
1
43
0.0
10
-54.459999999999916
20
-13.460000000000038
10
-54.459999999999916
20
-13.140000000000038
10
-54.779999999999916
20
-13.140000000000038
10
-54.779999999999916
20
-13.460000000000038
0
LWPOLYLINE
5
122
100
AcDbEntity
8
0
100
AcDbPolyline
90
4
70
1
43
0.0
10
-56.999999999999922
20
-13.460000000000036
10
-56.999999999999922
20
-13.140000000000036
10
-57.319999999999922
20
-13.140000000000036
10
-57.319999999999922
20
-13.460000000000036
0
LWPOLYLINE
5
123
100
AcDbEntity
8
0
100
AcDbPolyline
90
4
70
1
43
0.0
10
-59.539999999999921
20
-13.460000000000035
10
-59.539999999999921
20
-13.140000000000034
10
-59.859999999999914
20
-13.140000000000034
10
-59.859999999999914
20
-13.460000000000035
0
LINE
5
124
100
AcDbEntity
8
0
100
AcDbLine
10
-69.624999999999972
20
22.627850688778683
30
-4.4408920985006262e-15
11
-68.499999999999972
21
22.627850688778679
31
-4.4096670773451283e-15
0
LINE
5
125
100
AcDbEntity
8
0
100
AcDbLine
10
-68.499999999999972
20
22.704780109941339
30
-8.8817841970012523e-15
11
-68.499999999999972
21
22.627850688778679
31
-4.4096670773451283e-15
0
LINE
5
126
100
AcDbEntity
8
0
100
AcDbLine
10
-68.499999999999972
20
22.704780109941339
30
-8.8817841970012523e-15
11
-68.499999999999972
21
22.704918451234285
31
-7.3367797726641167e-15
0
ARC
5
127
100
AcDbEntity
8
0
100
AcDbCircle
10
-68.479999999999976
20
22.704918451234285
30
-4.4408920985006262e-15
40
0.019999999999997797
210
-5.5428469573070333e-17
220
1.0988389018142035e-16
230
1
100
AcDbArc
50
90
51
180
0
LINE
5
128
100
AcDbEntity
8
0
100
AcDbLine
10
-68.479999999999976
20
22.724918451234281
30
-4.4430897763042547e-15
11
-67.732995226689937
21
22.724918450329817
31
-8.8610506504680404e-15
0
ARC
5
129
100
AcDbEntity
8
0
100
AcDbCircle
10
-67.72999999999999
20
22.705144007690169
30
-8.8817841970012523e-15
40
0.019999999999997797
210
-5.5428469573070339e-17
220
1.0988389018142035e-16
230
1
100
AcDbArc
50
90
51
98.613096185366061
0
LINE
5
130
100
AcDbEntity
8
0
100
AcDbLine
10
-67.72999999999999
20
22.725144007690169
30
-8.8839818748048809e-15
11
-67.269999999999982
21
22.725144006785712
31
-8.8690166327954498e-15
0
ARC
5
131
100
AcDbEntity
8
0
100
AcDbCircle
10
-67.269999999999953
20
22.705144007690453
30
-8.8817841970015931e-15
40
0.019999999999713733
210
-5.5428469574231327e-17
220
1.0988389016584923e-16
230
1
100
AcDbArc
50
81.386903814589161
51
90.000000000081428
0
LINE
5
132
100
AcDbEntity
8
0
100
AcDbLine
10
-67.267004773177618
20
22.724918451204022
30
-8.8837910689419385e-15
11
-66.519999999999996
21
22.724918450329817
31
-8.8610506504680404e-15
0
ARC
5
133
100
AcDbEntity
8
0
100
AcDbCircle
10
-66.519999999999996
20
22.704918451234274
30
-4.4408920985006262e-15
40
0.019999999999997797
210
-5.5428469573073673e-17
220
1.0988389018140599e-16
230
1
100
AcDbArc
50
0
51
90
0
LINE
5
134
100
AcDbEntity
8
0
100
AcDbLine
10
-66.5
20
22.704918451234274
30
-4.4397835291091645e-15
11
-66.499999999999986
21
22.704780109941328
31
-5.9858965228377618e-15
0
LINE
5
135
100
AcDbEntity
8
0
100
AcDbLine
10
-66.499999999999986
20
22.627850688778675
30
-4.4408920985006262e-15
11
-66.499999999999986
21
22.704780109941328
31
-5.9858965228377618e-15
0
LINE
5
136
100
AcDbEntity
8
0
100
AcDbLine
10
-66.499999999999986
20
22.627850688778675
30
-4.4408920985006262e-15
11
-65.374999999999986
21
22.627850688778672
31
-4.4096670773451283e-15
0
SPLINE
5
137
100
AcDbEntity
8
0
100
AcDbSpline
70
4
71
3
72
16
73
12
74
0
42
0.000000001
43
0.0000000001
44
0.0000000001
40
4.7123889803846897
40
4.7123889803846897
40
4.7123889803846897
40
4.7123889803846897
40
5.026548245743669
40
5.026548245743669
40
5.3407075111026483
40
5.3407075111026483
40
5.6548667764616276
40
5.6548667764616276
40
5.9690260418206069
40
5.9690260418206069
40
6.2831853071795862
40
6.2831853071795862
40
6.2831853071795862
40
6.2831853071795862
41
1
41
1
41
1
41
1
41
1
41
1
41
1
41
1
41
1
41
1
41
1
41
1
10
-65.374999999999986
20
22.627850688778672
30
0
10
-65.322640122534878
20
22.627850689683129
30
0
10
-65.270288705746736
20
22.619559040212046
30
0
10
-65.170694300383914
20
22.587198857738471
30
0
10
-65.123467404973795
20
22.563135553720812
30
0
10
-65.03874734342962
20
22.501582828817327
30
0
10
-65.001267866960461
20
22.464103354052732
30
0
10
-64.939715139170175
20
22.379383296197769
30
0
10
-64.915651833974096
20
22.332156402770625
30
0
10
-64.883291649895028
20
22.232562001474481
30
0
10
-64.875
20
22.180210586771494
30
0
10
-64.875
20
22.127850711390096
30
0
0
LINE
5
138
100
AcDbEntity
8
0
100
AcDbLine
10
-64.875
20
22.127850711390096
30
-4.4408920985006254e-15
11
-64.875
21
22.124103466802914
31
-8.0601799729169141e-15
0
LINE
5
139
100
AcDbEntity
8
0
100
AcDbLine
10
-64.875
20
22.124103466802914
30
-8.0601799729169141e-15
11
-64.875000000000028
21
13.832286422188087
31
-7.6880776050947119e-15
0
ARC
5
140
100
AcDbEntity
8
0
100
AcDbCircle
10
-64.895000000000024
20
13.832286422188087
30
-8.8817841970012523e-15
40
0.020000000000002755
210
-5.5428130579647412e-17
220
1.099193147509838e-16
230
1
100
AcDbArc
50
-44.501787092012528
51
0
0
LINE
5
141
100
AcDbEntity
8
0
100
AcDbLine
10
-64.880735428260039
20
13.818267791974147
30
-8.8794526202293217e-15
11
-66.294121757596173
21
12.380085276918891
31
-6.5871380615714625e-15
0
ARC
5
142
100
AcDbEntity
8
0
100
AcDbCircle
10
-66.308386329019214
20
12.394103906821329
30
-8.8817841970012523e-15
40
0.020000000000000018
210
-5.5428469573070339e-17
220
1.0988389018140814e-16
230
1
100
AcDbArc
50
270
51
315.49821290803203
0
LINE
5
143
100
AcDbEntity
8
0
100
AcDbLine
10
-66.308386329019214
20
12.374103906821327
30
-8.8795865191976238e-15
11
-66.500000000000028
21
12.374103907725782
31
-4.4462104459940113e-15
0
LINE
5
144
100
AcDbEntity
8
0
100
AcDbLine
10
-66.500000000000028
20
12.374103907725782
30
-4.4462104459940113e-15
11
-66.500000000000028
21
12.294780580711285
31
-8.8186717721013344e-15
0
ARC
5
145
100
AcDbEntity
8
0
100
AcDbCircle
10
-66.520000000000024
20
12.294780580711285
30
-4.4408920985006262e-15
40
0.020000000000000018
210
-5.5428469573070339e-17
220
1.0988389018140814e-16
230
1
100
AcDbArc
50
-90
51
0
0
LINE
5
146
100
AcDbEntity
8
0
100
AcDbLine
10
-68.480000000000018
20
12.274780581615749
30
-8.8817841970012523e-15
11
-66.520000000000024
21
12.274780580711283
31
-4.4386944206969976e-15
0
ARC
5
147
100
AcDbEntity
8
0
100
AcDbCircle
10
-68.479999915916252
20
12.294780783707438
30
0
40
0.020000202996326325
210
-1.5867304245613731e-13
220
-2.3639437901916752e-13
230
1
100
AcDbArc
50
179.80242384946263
51
269.99975912018891
0
LINE
5
148
100
AcDbEntity
8
0
100
AcDbLine
10
-68.500000000000014
20
12.374103907725791
30
-4.4408920985006262e-15
11
-68.500000000000014
21
12.294849751357763
31
-3.1571706260774722e-15
0
LINE
5
149
100
AcDbEntity
8
0
100
AcDbLine
10
-68.500000000000014
20
12.374103907725791
30
-4.4408920985006262e-15
11
-68.691613670980828
21
12.374103907725791
31
-4.4462104459940113e-15
0
ARC
5
150
100
AcDbEntity
8
0
100
AcDbCircle
10
-68.691613670980828
20
12.394103906821336
30
-8.8817841970012523e-15
40
0.020000000000002974
210
-5.5452124076733725e-17
220
1.0994431566195997e-16
230
1
100
AcDbArc
50
224.50178709197266
51
270
0
LINE
5
151
100
AcDbEntity
8
0
100
AcDbLine
10
-68.705878242720814
20
12.380085276607415
30
-8.8810339290978925e-15
11
-70.119264571423045
21
13.81826779228563
31
-2.3727764544845265e-15
0
ARC
5
152
100
AcDbEntity
8
0
100
AcDbCircle
10
-70.105000000000004
20
13.832286422188103
30
-8.8817841970012523e-15
40
0.019999999999997797
210
-5.5428469573049021e-17
220
1.0988389018140602e-16
230
1
100
AcDbArc
50
180
51
224.50178709204056
0
LINE
5
153
100
AcDbEntity
8
0
100
AcDbLine
10
-70.125
20
13.832286422188103
30
-8.8828927663927132e-15
11
-70.124999999999972
21
22.124103466802929
31
-1.0075490788907793e-14
0
LINE
5
154
100
AcDbEntity
8
0
100
AcDbLine
10
-70.124999999999972
20
22.124103466802929
30
-1.0075490788907793e-14
11
-70.124999999999972
21
22.127850711390117
31
-9.7033884210855905e-15
0
SPLINE
5
155
100
AcDbEntity
8
0
100
AcDbSpline
70
4
71
3
72
16
73
12
74
0
42
0.000000001
43
0.0000000001
44
0.0000000001
40
1.5707963267948966
40
1.5707963267948966
40
1.5707963267948966
40
1.5707963267948966
40
1.8849555921538759
40
1.8849555921538759
40
2.1991148575128552
40
2.1991148575128552
40
2.5132741228718345
40
2.5132741228718345
40
2.8274333882308138
40
2.8274333882308138
40
3.1415926535897931
40
3.1415926535897931
40
3.1415926535897931
40
3.1415926535897931
41
1
41
1
41
1
41
1
41
1
41
1
41
1
41
1
41
1
41
1
41
1
41
1
10
-69.624999999999972
20
22.627850688778683
30
0
10
-69.677359877465094
20
22.627850689683143
30
0
10
-69.729711294253235
20
22.61955904021206
30
0
10
-69.829305699616071
20
22.587198857738493
30
0
10
-69.876532595026163
20
22.563135553720826
30
0
10
-69.961252656570338
20
22.501582828817341
30
0
10
-69.998732133039496
20
22.464103354052753
30
0
10
-70.060284860829796
20
22.379383296197783
30
0
10
-70.08434816602589
20
22.332156402770643
30
0
10
-70.116708350104943
20
22.232562001474498
30
0
10
-70.124999999999972
20
22.180210586771508
30
0
10
-70.124999999999972
20
22.127850711390117
30
0
0
LWPOLYLINE
5
156
100
AcDbEntity
8
0
100
AcDbPolyline
90
8
70
1
43
0.0
10
-65.475000000000009
20
19.171220588653451
10
-65.475000000000023
20
15.829350594921545
42
-0.81089595953944527
10
-65.762195122965309
20
15.768708215066034
42
0.6513177597945683
10
-69.237804877034705
20
15.768708215066049
42
-0.81089595953945715
10
-69.524999999999991
20
15.829350594921559
10
-69.524999999999991
20
19.171220588653462
42
-0.81089595953943161
10
-69.237804877034705
20
19.231862968508974
42
0.65131775979456907
10
-65.762195122965295
20
19.23186296850897
42
-0.81089595953944626
0
ENDSEC
0
SECTION
2
OBJECTS
0
DICTIONARY
5
C
100
AcDbDictionary
3
ACAD_GROUP
350
D
3
ACAD_MLINESTYLE
350
17
0
DICTIONARY
5
D
100
AcDbDictionary
0
DICTIONARY
5
1A
330
C
100
AcDbDictionary
0
DICTIONARY
5
17
100
AcDbDictionary
0
ENDSEC
0
EOF
