0
SECTION
2
HEADER
9
$INSUNITS
70
4
9
$ACADVER
1
AC1014
9
$HANDSEED
5
FFFF
0
ENDSEC
0
SECTION
2
TABLES
0
TABLE
2
VPORT
5
8
100
AcDbSymbolTable
0
ENDTAB
0
TABLE
2
LTYPE
5
5
100
AcDbSymbolTable
0
LTYPE
5
14
100
AcDbSymbolTableRecord
100
AcDbLinetypeTableRecord
2
BYBLOCK
70
0
0
LTYPE
5
15
100
AcDbSymbolTableRecord
100
AcDbLinetypeTableRecord
2
BYLAYER
70
0
0
LTYPE
5
16
100
AcDbSymbolTableRecord
100
AcDbLinetypeTableRecord
2
DASHED
70
0
3
Dashed __ __ __ __ __ __ __ __ __ __ __ __ __ _
72
65
73
2
40
0.75
49
0.5
74
0
49
-0.25
74
0
0
ENDTAB
0
TABLE
2
LAYER
5
2
100
AcDbSymbolTable
70
2
0
LAYER
5
50
100
AcDbSymbolTableRecord
100
AcDbLayerTableRecord
2
0
70
0
62
7
6
CONTINUOUS
0
ENDTAB
0
TABLE
2
STYLE
5
3
100
AcDbSymbolTable
70
1
0
STYLE
5
11
100
AcDbSymbolTableRecord
100
AcDbTextStyleTableRecord
2
STANDARD
70
0
0
ENDTAB
0
TABLE
2
VIEW
5
6
100
AcDbSymbolTable
70
0
0
ENDTAB
0
TABLE
2
UCS
5
7
100
AcDbSymbolTable
70
0
0
ENDTAB
0
TABLE
2
APPID
5
9
100
AcDbSymbolTable
70
2
0
APPID
5
12
100
AcDbSymbolTableRecord
100
AcDbRegAppTableRecord
2
ACAD
70
0
0
ENDTAB
0
TABLE
2
DIMSTYLE
5
A
100
AcDbSymbolTable
70
1
0
ENDTAB
0
TABLE
2
BLOCK_RECORD
5
1
100
AcDbSymbolTable
70
1
0
BLOCK_RECORD
5
1F
100
AcDbSymbolTableRecord
100
AcDbBlockTableRecord
2
*MODEL_SPACE
0
BLOCK_RECORD
5
1B
100
AcDbSymbolTableRecord
100
AcDbBlockTableRecord
2
*PAPER_SPACE
0
ENDTAB
0
ENDSEC
0
SECTION
2
BLOCKS
0
BLOCK
5
20
100
AcDbEntity
100
AcDbBlockBegin
2
*MODEL_SPACE
0
ENDBLK
5
21
100
AcDbEntity
100
AcDbBlockEnd
0
BLOCK
5
1C
100
AcDbEntity
100
AcDbBlockBegin
2
*PAPER_SPACE
0
ENDBLK
5
1D
100
AcDbEntity
100
AcDbBlockEnd
0
ENDSEC
0
SECTION
2
ENTITIES
0
LWPOLYLINE
5
100
100
AcDbEntity
8
0
100
AcDbPolyline
90
32
70
1
43
0.0
10
-26.355220573718672
20
-10.762324343495088
10
-32.29799277114963
20
-16.693407599284797
42
-0.19865653578887885
10
-34.417223803222299
20
-17.57000000000005
10
-71.020877916286025
20
-17.570000000000068
42
-0.35611630695821034
10
-73.959672864546121
20
-15.172896551724264
42
-0.0093622090418389939
10
-74.475878792401687
20
-12.393283588278665
42
0.36670111045012049
10
-77.435185234483853
20
-9.8857319427798274
10
-80.205985255268388
20
-9.8857319427798291
42
-0.41421356237309098
10
-83.205985255268402
20
-6.8857319427798274
10
-83.205985255268402
20
6.8942680572202004
42
-0.41421356237309109
10
-80.205985255268388
20
9.894268057220204
10
-77.433764284506751
20
9.8942680572202004
42
0.36666984574088268
10
-74.474512146245274
20
12.401493481785128
42
-0.020142239121761364
10
-73.235027765173612
20
18.354310344827574
42
-0.34398707230844616
10
-70.325026661921683
20
20.624999999999996
10
-59.624999999999474
20
20.624999999999993
42
0.41421356237309176
10
-57.624999999999474
20
22.624999999999996
10
-57.624999999999474
20
23.724918455718903
42
-0.41421356271585608
10
-55.624999997658939
20
25.724918455718907
10
-48.374999997658968
20
25.724918447234444
42
-0.41421356203032944
10
-46.374999999999524
20
23.724918447234455
10
-46.374999999999524
20
22.625
42
0.41421356237309243
10
-44.374999999999517
20
20.625
10
-37.369861051175356
20
20.624999999999996
42
-0.19916822401944309
10
-35.246453451890609
20
19.744231032072669
10
-26.294901108120804
20
10.775037025147522
42
0.19916822401944731
10
-24.171493508836058
20
9.8942680572201898
10
-23.245985255268309
20
9.8942680572201915
42
-0.41421356237309348
10
-20.245985255268305
20
6.8942680572201915
10
-20.245985255268316
20
-6.8857319427798362
42
-0.41421356237309653
10
-23.245985255268316
20
-9.8857319427798362
10
-24.235989541646003
20
-9.8857319427798362
42
0.1986565357888804
0
LWPOLYLINE
5
101
100
AcDbEntity
8
0
100
AcDbPolyline
90
4
70
1
43
0.0
10
-34.13999999999993
20
-13.460000000000054
10
-34.13999999999993
20
-13.140000000000054
10
-34.459999999999923
20
-13.140000000000054
10
-34.459999999999923
20
-13.460000000000054
0
LWPOLYLINE
5
102
100
AcDbEntity
8
0
100
AcDbPolyline
90
4
70
1
43
0.0
10
-36.679999999999929
20
-13.460000000000052
10
-36.679999999999929
20
-13.140000000000052
10
-36.999999999999929
20
-13.140000000000052
10
-36.999999999999929
20
-13.460000000000052
0
LWPOLYLINE
5
103
100
AcDbEntity
8
0
100
AcDbPolyline
90
4
70
1
43
0.0
10
-39.219999999999928
20
-13.460000000000051
10
-39.219999999999928
20
-13.14000000000005
10
-39.539999999999928
20
-13.14000000000005
10
-39.539999999999928
20
-13.460000000000051
0
LWPOLYLINE
5
104
100
AcDbEntity
8
0
100
AcDbPolyline
90
4
70
1
43
0.0
10
-41.75999999999992
20
-13.460000000000047
10
-41.75999999999992
20
-13.140000000000047
10
-42.07999999999992
20
-13.140000000000047
10
-42.07999999999992
20
-13.460000000000047
0
LWPOLYLINE
5
105
100
AcDbEntity
8
0
100
AcDbPolyline
90
4
70
1
43
0.0
10
-44.299999999999919
20
-13.460000000000045
10
-44.299999999999919
20
-13.140000000000045
10
-44.619999999999919
20
-13.140000000000045
10
-44.619999999999919
20
-13.460000000000045
0
LWPOLYLINE
5
106
100
AcDbEntity
8
0
100
AcDbPolyline
90
68
70
1
43
0.0
10
-33.283999999999921
20
-14.570000000000054
10
-33.029999999999923
20
-14.316000000000056
10
-33.029999999999923
20
-12.284000000000056
10
-33.283999999999921
20
-12.030000000000054
10
-35.315999999999917
20
-12.030000000000054
10
-35.569999999999922
20
-12.284000000000052
10
-35.82399999999992
20
-12.030000000000051
10
-37.855999999999916
20
-12.030000000000051
10
-38.109999999999921
20
-12.28400000000005
10
-38.363999999999919
20
-12.030000000000049
10
-40.395999999999923
20
-12.030000000000049
10
-40.649999999999913
20
-12.284000000000049
10
-40.903999999999918
20
-12.030000000000047
10
-42.935999999999915
20
-12.030000000000047
10
-43.18999999999992
20
-12.284000000000045
10
-43.443999999999924
20
-12.030000000000047
10
-45.475999999999914
20
-12.030000000000046
10
-45.729999999999919
20
-12.284000000000043
10
-45.983999999999909
20
-12.030000000000046
10
-48.015999999999906
20
-12.030000000000044
10
-48.269999999999918
20
-12.284000000000042
10
-48.523999999999901
20
-12.030000000000044
10
-50.555999999999912
20
-12.03000000000004
10
-50.809999999999917
20
-12.28400000000004
10
-51.063999999999908
20
-12.03000000000004
10
-53.095999999999904
20
-12.030000000000038
10
-53.349999999999909
20
-12.284000000000038
10
-53.603999999999907
20
-12.030000000000038
10
-55.635999999999903
20
-12.030000000000037
10
-55.889999999999908
20
-12.284000000000038
10
-56.143999999999906
20
-12.030000000000037
10
-58.17599999999991
20
-12.030000000000037
10
-58.4299999999999
20
-12.284000000000034
10
-58.683999999999905
20
-12.030000000000033
10
-60.715999999999902
20
-12.030000000000033
10
-60.969999999999906
20
-12.284000000000033
10
-60.969999999999906
20
-14.316000000000033
10
-60.715999999999909
20
-14.570000000000034
10
-58.683999999999912
20
-14.570000000000036
10
-58.429999999999907
20
-14.316000000000034
10
-58.175999999999917
20
-14.570000000000036
10
-56.143999999999906
20
-14.570000000000036
10
-55.889999999999915
20
-14.316000000000038
10
-55.63599999999991
20
-14.570000000000039
10
-53.603999999999907
20
-14.570000000000039
10
-53.349999999999909
20
-14.31600000000004
10
-53.095999999999904
20
-14.570000000000041
10
-51.063999999999908
20
-14.570000000000041
10
-50.809999999999917
20
-14.316000000000042
10
-50.555999999999912
20
-14.570000000000043
10
-48.523999999999916
20
-14.570000000000043
10
-48.269999999999918
20
-14.316000000000045
10
-48.015999999999906
20
-14.570000000000043
10
-45.983999999999916
20
-14.570000000000045
10
-45.729999999999919
20
-14.316000000000047
10
-45.475999999999921
20
-14.570000000000045
10
-43.443999999999924
20
-14.570000000000046
10
-43.189999999999912
20
-14.316000000000049
10
-42.935999999999915
20
-14.570000000000046
10
-40.903999999999918
20
-14.57000000000005
10
-40.649999999999913
20
-14.31600000000005
10
-40.395999999999916
20
-14.57000000000005
10
-38.363999999999919
20
-14.570000000000052
10
-38.109999999999921
20
-14.316000000000052
10
-37.855999999999923
20
-14.570000000000052
10
-35.82399999999992
20
-14.570000000000054
10
-35.569999999999922
20
-14.316000000000052
10
-35.315999999999917
20
-14.570000000000054
0
LWPOLYLINE
5
107
100
AcDbEntity
8
0
100
AcDbPolyline
90
4
70
1
43
0.0
10
-52.399999999999913
20
-12.98000000000004
10
-51.759999999999913
20
-12.98000000000004
10
-51.759999999999913
20
-13.62000000000004
10
-52.399999999999913
20
-13.62000000000004
0
LWPOLYLINE
5
108
100
AcDbEntity
8
0
100
AcDbPolyline
90
4
70
1
43
0.0
10
-49.859999999999907
20
-12.980000000000043
10
-49.219999999999906
20
-12.980000000000043
10
-49.219999999999914
20
-13.620000000000044
10
-49.859999999999914
20
-13.620000000000044
0
LWPOLYLINE
5
109
100
AcDbEntity
8
0
100
AcDbPolyline
90
4
70
1
43
0.0
10
-47.319999999999915
20
-12.980000000000045
10
-46.679999999999914
20
-12.980000000000045
10
-46.679999999999914
20
-13.620000000000045
10
-47.319999999999915
20
-13.620000000000045
0
LWPOLYLINE
5
110
100
AcDbEntity
8
0
100
AcDbPolyline
90
4
70
1
43
0.0
10
-37.159999999999926
20
-12.980000000000052
10
-36.519999999999925
20
-12.980000000000052
10
-36.519999999999925
20
-13.620000000000053
10
-37.159999999999926
20
-13.620000000000053
0
LWPOLYLINE
5
111
100
AcDbEntity
8
0
100
AcDbPolyline
90
4
70
1
43
0.0
10
-39.699999999999918
20
-12.98000000000005
10
-39.059999999999917
20
-12.98000000000005
10
-39.059999999999917
20
-13.620000000000051
10
-39.699999999999918
20
-13.620000000000051
0
LWPOLYLINE
5
112
100
AcDbEntity
8
0
100
AcDbPolyline
90
4
70
1
43
0.0
10
-44.779999999999916
20
-13.620000000000045
10
-44.779999999999916
20
-12.980000000000045
10
-44.139999999999915
20
-12.980000000000045
10
-44.139999999999915
20
-13.620000000000047
0
LWPOLYLINE
5
113
100
AcDbEntity
8
0
100
AcDbPolyline
90
4
70
1
43
0.0
10
-42.23999999999991
20
-13.620000000000047
10
-42.23999999999991
20
-12.980000000000047
10
-41.599999999999909
20
-12.980000000000047
10
-41.599999999999909
20
-13.620000000000051
0
LWPOLYLINE
5
114
100
AcDbEntity
8
0
100
AcDbPolyline
90
4
70
1
43
0.0
10
-54.939999999999912
20
-13.620000000000038
10
-54.939999999999912
20
-12.980000000000038
10
-54.299999999999912
20
-12.980000000000038
10
-54.299999999999912
20
-13.620000000000038
0
LWPOLYLINE
5
115
100
AcDbEntity
8
0
100
AcDbPolyline
90
4
70
1
43
0.0
10
-57.479999999999905
20
-13.620000000000037
10
-57.479999999999905
20
-12.980000000000036
10
-56.839999999999904
20
-12.980000000000036
10
-56.839999999999904
20
-13.620000000000037
0
LWPOLYLINE
5
116
100
AcDbEntity
8
0
100
AcDbPolyline
90
4
70
1
43
0.0
10
-34.619999999999919
20
-13.620000000000054
10
-34.619999999999919
20
-12.980000000000054
10
-33.979999999999919
20
-12.980000000000054
10
-33.979999999999919
20
-13.620000000000054
0
LWPOLYLINE
5
117
100
AcDbEntity
8
0
100
AcDbPolyline
90
4
70
1
43
0.0
10
-60.019999999999897
20
-12.980000000000034
10
-59.379999999999896
20
-12.980000000000034
10
-59.379999999999896
20
-13.620000000000035
10
-60.019999999999897
20
-13.620000000000035
0
LWPOLYLINE
5
118
100
AcDbEntity
8
0
100
AcDbPolyline
90
4
70
1
43
0.0
10
-46.839999999999918
20
-13.460000000000043
10
-46.839999999999918
20
-13.140000000000043
10
-47.159999999999926
20
-13.140000000000045
10
-47.159999999999926
20
-13.460000000000043
0
LWPOLYLINE
5
119
100
AcDbEntity
8
0
100
AcDbPolyline
90
4
70
1
43
0.0
10
-49.379999999999917
20
-13.46000000000004
10
-49.379999999999917
20
-13.14000000000004
10
-49.699999999999918
20
-13.140000000000043
10
-49.699999999999918
20
-13.460000000000043
0
LWPOLYLINE
5
120
100
AcDbEntity
8
0
100
AcDbPolyline
90
4
70
1
43
0.0
10
-51.919999999999916
20
-13.46000000000004
10
-51.919999999999916
20
-13.14000000000004
10
-52.23999999999991
20
-13.14000000000004
10
-52.23999999999991
20
-13.46000000000004
0
LWPOLYLINE
5
121
100
AcDbEntity
8
0
100
AcDbPolyline
90
4
70
1
43
0.0
10
-54.459999999999916
20
-13.460000000000038
10
-54.459999999999916
20
-13.140000000000038
10
-54.779999999999916
20
-13.140000000000038
10
-54.779999999999916
20
-13.460000000000038
0
LWPOLYLINE
5
122
100
AcDbEntity
8
0
100
AcDbPolyline
90
4
70
1
43
0.0
10
-56.999999999999922
20
-13.460000000000036
10
-56.999999999999922
20
-13.140000000000036
10
-57.319999999999922
20
-13.140000000000036
10
-57.319999999999922
20
-13.460000000000036
0
LWPOLYLINE
5
123
100
AcDbEntity
8
0
100
AcDbPolyline
90
4
70
1
43
0.0
10
-59.539999999999921
20
-13.460000000000035
10
-59.539999999999921
20
-13.140000000000034
10
-59.859999999999914
20
-13.140000000000034
10
-59.859999999999914
20
-13.460000000000035
0
LINE
5
124
100
AcDbEntity
8
0
100
AcDbLine
10
-54.124999999999517
20
22.627850688778679
30
-1.1102230246251565e-14
11
-52.999999999999503
21
22.627850688778679
31
-1.0481199468914042e-14
0
LINE
5
125
100
AcDbEntity
8
0
100
AcDbLine
10
-52.999999999999503
20
22.704780109941332
30
-8.8817841970012523e-15
11
-52.999999999999503
21
22.627850688778679
31
-1.0481199468914042e-14
0
LINE
5
126
100
AcDbEntity
8
0
100
AcDbLine
10
-52.999999999999503
20
22.704780109941332
30
-8.8817841970012523e-15
11
-52.999999999999503
21
22.704918451234278
31
-7.3368235966929698e-15
0
ARC
5
127
100
AcDbEntity
8
0
100
AcDbCircle
10
-52.979999999999507
20
22.704918451234278
30
-6.6613381477509392e-15
40
0.020000000000002238
210
-5.5432742477307899e-17
220
1.0901652844342816e-16
230
1
100
AcDbArc
50
90
51
180
0
LINE
5
128
100
AcDbEntity
8
0
100
AcDbLine
10
-52.979999999999507
20
22.724918451234281
30
-6.6635184783198077e-15
11
-52.232995226689468
21
22.724918450329824
31
-9.2154773269276007e-15
0
ARC
5
129
100
AcDbEntity
8
0
100
AcDbCircle
10
-52.229999999999507
20
22.705144007690169
30
-6.6613381477509392e-15
40
0.020000000000002238
210
-5.5432742477307899e-17
220
1.0901652844342816e-16
230
1
100
AcDbArc
50
90
51
98.613096185403265
0
LINE
5
130
100
AcDbEntity
8
0
100
AcDbLine
10
-52.229999999999507
20
22.725144007690172
30
-6.6635184783198077e-15
11
-51.769999999999513
21
22.725144006785712
31
-7.7199358023084213e-15
0
ARC
5
131
100
AcDbEntity
8
0
100
AcDbCircle
10
-51.769999999999513
20
22.705144007690379
30
-6.6613381477509803e-15
40
0.019999999999792368
210
-5.5432742477406932e-17
220
1.0901652844249497e-16
230
1
100
AcDbArc
50
81.386903814540659
51
90
0
LINE
5
132
100
AcDbEntity
8
0
100
AcDbLine
10
-51.767004773177149
20
22.724918451204022
30
-6.6633278552976141e-15
11
-51.019999999999527
21
22.724918450329824
31
-6.9950312776772742e-15
0
ARC
5
133
100
AcDbEntity
8
0
100
AcDbCircle
10
-51.019999999999527
20
22.704918451234278
30
-6.6613381477509392e-15
40
0.019999999999997797
210
-5.5432742477289373e-17
220
1.0896231833479285e-16
230
1
100
AcDbArc
50
0
51
90
0
LINE
5
134
100
AcDbEntity
8
0
100
AcDbLine
10
-50.999999999999524
20
22.704918451234278
30
-6.660229492901394e-15
11
-50.999999999999517
21
22.704780109941332
31
-8.2062987480592218e-15
0
LINE
5
135
100
AcDbEntity
8
0
100
AcDbLine
10
-50.999999999999517
20
22.627850688778683
30
-1.1102230246251565e-14
11
-50.999999999999517
21
22.704780109941332
31
-8.2062987480592218e-15
0
LINE
5
136
100
AcDbEntity
8
0
100
AcDbLine
10
-50.999999999999517
20
22.627850688778683
30
-1.1102230246251565e-14
11
-49.874999999999552
21
22.627850688778683
31
-1.0481199468914179e-14
0
SPLINE
5
137
100
AcDbEntity
8
0
100
AcDbSpline
70
4
71
3
72
16
73
12
74
0
42
0.000000001
43
0.0000000001
44
0.0000000001
40
4.7123889803846897
40
4.7123889803846897
40
4.7123889803846897
40
4.7123889803846897
40
5.026548245743669
40
5.026548245743669
40
5.3407075111026483
40
5.3407075111026483
40
5.6548667764616276
40
5.6548667764616276
40
5.9690260418206069
40
5.9690260418206069
40
6.2831853071795862
40
6.2831853071795862
40
6.2831853071795862
40
6.2831853071795862
41
1
41
1
41
1
41
1
41
1
41
1
41
1
41
1
41
1
41
1
41
1
41
1
10
-49.874999999999552
20
22.627850689683136
30
0
10
-49.822640122534445
20
22.627850689683143
30
0
10
-49.77028870574631
20
22.61955904021206
30
0
10
-49.670694300383467
20
22.587198857738485
30
0
10
-49.623467404973368
20
22.563135553720819
30
0
10
-49.538747343429186
20
22.501582828817341
30
0
10
-49.501267866960035
20
22.464103354052746
30
0
10
-49.439715139169742
20
22.379383296197783
30
0
10
-49.415651833973655
20
22.332156402770636
30
0
10
-49.383291649894588
20
22.232562001474495
30
0
10
-49.374999999999559
20
22.180210586771508
30
0
10
-49.374999999999559
20
22.127850711390114
30
0
0
LINE
5
138
100
AcDbEntity
8
0
100
AcDbLine
10
-49.374999999999559
20
22.12785071139011
30
-8.8817841970012523e-15
11
-49.374999999999517
21
22.124103466802929
31
-5.8384861382561771e-15
0
LINE
5
139
100
AcDbEntity
8
0
100
AcDbLine
10
-49.374999999999517
20
22.124103466802929
30
-5.8384861382561771e-15
11
-49.374999999999517
21
13.832286422188083
31
-4.0923211000465365e-15
0
ARC
5
140
100
AcDbEntity
8
0
100
AcDbCircle
10
-49.39499999999952
20
13.83228642218808
30
-4.4408920985006262e-15
40
0.020000000000002755
210
-5.5438796543298745e-17
220
1.0894171049504694e-16
230
1
100
AcDbArc
50
-44.501787092023214
51
0
0
LINE
5
141
100
AcDbEntity
8
0
100
AcDbLine
10
-49.380735428259541
20
13.818267791974142
30
-4.4385740742558524e-15
11
-50.794121757595647
21
12.380085276918877
31
-5.438900198273533e-15
0
ARC
5
142
100
AcDbEntity
8
0
100
AcDbCircle
10
-50.808386329018695
20
12.394103906821314
30
-6.6613381477509392e-15
40
0.020000000000000018
210
-5.5432742477308084e-17
220
1.0901652844344025e-16
230
1
100
AcDbArc
50
270
51
315.4982129080463
0
LINE
5
143
100
AcDbEntity
8
0
100
AcDbLine
10
-50.808386329018695
20
12.374103906821315
30
-6.6591578171820708e-15
11
-50.99999999999951
21
12.374103907725772
31
-4.9248617420446713e-15
0
LINE
5
144
100
AcDbEntity
8
0
100
AcDbLine
10
-50.99999999999951
20
12.374103907725772
30
-4.9248617420446713e-15
11
-50.99999999999951
21
12.29478058071127
31
-8.8055088801010026e-15
0
ARC
5
145
100
AcDbEntity
8
0
100
AcDbCircle
10
-51.019999999999506
20
12.29478058071127
30
-4.4408920985006262e-15
40
0.020000000000000018
210
-5.5432742477308035e-17
220
1.090165284434156e-16
230
1
100
AcDbArc
50
-90
51
0
0
LINE
5
146
100
AcDbEntity
8
0
100
AcDbLine
10
-52.979999999999492
20
12.274780581615728
30
-6.6613381477509392e-15
11
-51.019999999999506
21
12.274780580711271
31
-4.4387117679317577e-15
0
ARC
5
147
100
AcDbEntity
8
0
100
AcDbCircle
10
-52.979999915915734
20
12.294780783707415
30
-8.8817841970012523e-15
40
0.020000202996326332
210
1.7305068345730493e-13
220
1.0875334042636447e-13
230
1
100
AcDbArc
50
179.80242384945339
51
269.99975912020932
0
LINE
5
148
100
AcDbEntity
8
0
100
AcDbLine
10
-52.999999999999488
20
12.374103907725768
30
-6.6613381477509392e-15
11
-52.999999999999488
21
12.294849751357743
31
-5.4282564394576047e-15
0
LINE
5
149
100
AcDbEntity
8
0
100
AcDbLine
10
-52.999999999999488
20
12.374103907725768
30
-6.6613381477509392e-15
11
-53.191613670980296
21
12.374103907725768
31
-7.1453077912949504e-15
0
ARC
5
150
100
AcDbEntity
8
0
100
AcDbCircle
10
-53.191613670980296
20
12.394103906821313
30
-8.8817841970012523e-15
40
0.019999999999996639
210
-5.544112480017995e-17
220
1.0900504229226764e-16
230
1
100
AcDbArc
50
224.50178709197624
51
270
0
LINE
5
151
100
AcDbEntity
8
0
100
AcDbLine
10
-53.205878242720281
20
12.380085276607391
30
-8.8810469395239619e-15
11
-54.619264571422512
21
13.818267792285601
31
-8.3618414926586726e-15
0
ARC
5
152
100
AcDbEntity
8
0
100
AcDbCircle
10
-54.604999999999471
20
13.832286422188073
30
-4.4408920985006262e-15
40
0.019999999999997797
210
-5.5432742477338677e-17
220
1.0896231833479429e-16
230
1
100
AcDbArc
50
180
51
224.50178709203692
0
LINE
5
153
100
AcDbEntity
8
0
100
AcDbLine
10
-54.624999999999474
20
13.832286422188073
30
-4.442000753350173e-15
11
-54.624999999999481
21
22.124103466802918
31
-7.0099091462050289e-15
0
LINE
5
154
100
AcDbEntity
8
0
100
AcDbLine
10
-54.624999999999481
20
22.124103466802918
30
-7.0099091462050289e-15
11
-54.624999999999503
21
22.127850711390103
31
-1.1925082388095226e-14
0
SPLINE
5
155
100
AcDbEntity
8
0
100
AcDbSpline
70
4
71
3
72
16
73
12
74
0
42
0.000000001
43
0.0000000001
44
0.0000000001
40
1.5707963267948966
40
1.5707963267948966
40
1.5707963267948966
40
1.5707963267948966
40
1.8849555921538759
40
1.8849555921538759
40
2.1991148575128552
40
2.1991148575128552
40
2.5132741228718345
40
2.5132741228718345
40
2.8274333882308138
40
2.8274333882308138
40
3.1415926535897931
40
3.1415926535897931
40
3.1415926535897931
40
3.1415926535897931
41
1
41
1
41
1
41
1
41
1
41
1
41
1
41
1
41
1
41
1
41
1
41
1
10
-54.124999999999517
20
22.627850689683132
30
0
10
-54.177359877464639
20
22.627850689683132
30
0
10
-54.229711294252773
20
22.619559040212053
30
0
10
-54.329305699615603
20
22.587198857738482
30
0
10
-54.376532595025715
20
22.563135553720816
30
0
10
-54.461252656569883
20
22.50158282881733
30
0
10
-54.498732133039034
20
22.464103354052742
30
0
10
-54.560284860829341
20
22.379383296197773
30
0
10
-54.584348166025414
20
22.332156402770632
30
0
10
-54.616708350104481
20
22.232562001474484
30
0
10
-54.624999999999517
20
22.180210586771501
30
0
10
-54.624999999999517
20
22.127850711390103
30
0
0
LWPOLYLINE
5
156
100
AcDbEntity
8
0
100
AcDbPolyline
90
8
70
1
43
0.0
10
-49.974999999999518
20
19.171220588653451
10
-49.974999999999525
20
15.829350594921543
42
-0.81089595953942584
10
-50.262195122964819
20
15.768708215066029
42
0.65131775979456208
10
-53.737804877034215
20
15.768708215066024
42
-0.81089595953941096
10
-54.024999999999494
20
15.829350594921539
10
-54.024999999999494
20
19.171220588653448
42
-0.81089595953943161
10
-53.737804877034208
20
19.23186296850896
42
0.65131775979456552
10
-50.262195122964819
20
19.231862968508967
42
-0.81089595953946736
0
ENDSEC
0
SECTION
2
OBJECTS
0
DICTIONARY
5
C
100
AcDbDictionary
3
ACAD_GROUP
350
D
3
ACAD_MLINESTYLE
350
17
0
DICTIONARY
5
D
100
AcDbDictionary
0
DICTIONARY
5
1A
330
C
100
AcDbDictionary
0
DICTIONARY
5
17
100
AcDbDictionary
0
ENDSEC
0
EOF
