0
SECTION
2
HEADER
9
$INSUNITS
70
4
9
$ACADVER
1
AC1014
9
$HANDSEED
5
FFFF
0
ENDSEC
0
SECTION
2
TABLES
0
TABLE
2
VPORT
5
8
100
AcDbSymbolTable
0
ENDTAB
0
TABLE
2
LTYPE
5
5
100
AcDbSymbolTable
0
LTYPE
5
14
100
AcDbSymbolTableRecord
100
AcDbLinetypeTableRecord
2
BYBLOCK
70
0
0
LTYPE
5
15
100
AcDbSymbolTableRecord
100
AcDbLinetypeTableRecord
2
BYLAYER
70
0
0
LTYPE
5
16
100
AcDbSymbolTableRecord
100
AcDbLinetypeTableRecord
2
DASHED
70
0
3
Dashed __ __ __ __ __ __ __ __ __ __ __ __ __ _
72
65
73
2
40
0.75
49
0.5
74
0
49
-0.25
74
0
0
ENDTAB
0
TABLE
2
LAYER
5
2
100
AcDbSymbolTable
70
2
0
LAYER
5
50
100
AcDbSymbolTableRecord
100
AcDbLayerTableRecord
2
0
70
0
62
7
6
CONTINUOUS
0
ENDTAB
0
TABLE
2
STYLE
5
3
100
AcDbSymbolTable
70
1
0
STYLE
5
11
100
AcDbSymbolTableRecord
100
AcDbTextStyleTableRecord
2
STANDARD
70
0
0
ENDTAB
0
TABLE
2
VIEW
5
6
100
AcDbSymbolTable
70
0
0
ENDTAB
0
TABLE
2
UCS
5
7
100
AcDbSymbolTable
70
0
0
ENDTAB
0
TABLE
2
APPID
5
9
100
AcDbSymbolTable
70
2
0
APPID
5
12
100
AcDbSymbolTableRecord
100
AcDbRegAppTableRecord
2
ACAD
70
0
0
ENDTAB
0
TABLE
2
DIMSTYLE
5
A
100
AcDbSymbolTable
70
1
0
ENDTAB
0
TABLE
2
BLOCK_RECORD
5
1
100
AcDbSymbolTable
70
1
0
BLOCK_RECORD
5
1F
100
AcDbSymbolTableRecord
100
AcDbBlockTableRecord
2
*MODEL_SPACE
0
BLOCK_RECORD
5
1B
100
AcDbSymbolTableRecord
100
AcDbBlockTableRecord
2
*PAPER_SPACE
0
ENDTAB
0
ENDSEC
0
SECTION
2
BLOCKS
0
BLOCK
5
20
100
AcDbEntity
100
AcDbBlockBegin
2
*MODEL_SPACE
0
ENDBLK
5
21
100
AcDbEntity
100
AcDbBlockEnd
0
BLOCK
5
1C
100
AcDbEntity
100
AcDbBlockBegin
2
*PAPER_SPACE
0
ENDBLK
5
1D
100
AcDbEntity
100
AcDbBlockEnd
0
ENDSEC
0
SECTION
2
ENTITIES
0
LWPOLYLINE
5
100
100
AcDbEntity
8
0
100
AcDbPolyline
90
8
70
1
43
0.0
10
34.27081929495364
20
55.030469280189685
42
0.28592422501718934
10
-34.270819278239841
20
55.030469290598361
42
0.48281058023437745
10
-34.806245351110391
20
50.362594537214449
10
-32.878679656440355
20
48.435028842544412
42
0.19891236737965881
10
-30.757359312880709
20
47.55634918610405
10
30.757359406889652
20
47.55634918610405
42
0.19891237197338399
10
32.878679787944819
20
48.435028880039923
10
34.806245377635257
20
50.362594537871949
42
0.48281057860257892
0
CIRCLE
5
101
100
AcDbEntity
8
0
100
AcDbCircle
10
-81.499999951708176
20
-0.0027535105386108628
30
0
40
1.6000000000000014
210
-2.4651903288156619e-32
220
-0
230
1
0
LWPOLYLINE
5
102
100
AcDbEntity
8
0
100
AcDbPolyline
90
59
70
1
43
0.0
10
12.00727792699443
20
56.465810504102443
42
0.41421356237309509
10
11.007277926994439
20
55.46581050410245
10
11.007277926994439
20
53.465810504102443
10
11.007277926994439
20
52.865810504102441
10
10.817277926994439
20
52.865810504102441
42
0.41421356237309509
10
10.71727792699444
20
52.76581050410244
10
10.71727792699444
20
51.865810504102441
10
7.9572779269944585
20
51.865810504102441
42
0.41421356237309176
10
7.8572779269944606
20
51.765810504102447
10
7.8572779269944606
20
49.815810504102444
42
0.41421356237309509
10
7.9572779269944593
20
49.715810504102443
10
9.4572779269944487
20
49.715810504102443
42
-0.41421356237313728
10
9.5572779269944466
20
49.615810504102448
10
9.5572779269944483
20
47.665810504102446
42
0.41421356237309509
10
9.657277926994448
20
47.565810504102444
10
10.157277926994443
20
47.565810504102444
10
10.157277926994443
20
41.665810504102438
42
0.41421356237308854
10
10.257277926994441
20
41.565810504102444
10
10.357277926994442
20
41.565810504102444
10
12.00727792699443
20
41.565810504102444
10
13.643584744189777
20
41.56581050410243
10
14.189020349921558
20
41.565810504102444
10
14.61316537729898
20
41.565810504102444
10
15.037429446010911
20
41.565810504102444
10
16.232404192841482
20
41.565810504102444
10
16.303114870960137
20
41.565810504102444
10
17.711440983028652
20
41.565810504102444
10
17.782151661147306
20
41.565810504102444
10
18.777988605113038
20
41.565810504102444
10
18.807277926994381
20
41.565810504102444
42
0.41421356237309509
10
18.907277926994379
20
41.665810504102438
10
18.907277926994382
20
47.565810504102444
10
19.357277926994378
20
47.565810504102444
42
0.41421356237309509
10
19.457277926994376
20
47.665810504102446
10
19.457277926994379
20
49.615810504102448
42
-0.41421356237309509
10
19.557277926994377
20
49.715810504102443
10
21.057277926994367
20
49.715810504102443
42
0.41421356237310802
10
21.157277926994361
20
49.81581050410243
10
21.157277926994364
20
51.765810504102447
42
0.41421356237313406
10
21.057277926994367
20
51.865810504102456
10
18.297277926994383
20
51.865810504102441
10
18.297277926994383
20
52.76581050410244
42
0.41421356237309509
10
18.197277926994385
20
52.865810504102441
10
18.007277926994384
20
52.865810504102441
10
18.007277926994387
20
53.465810504102443
10
18.007277926994387
20
55.46581050410245
42
0.41421356237309437
10
17.007277926994398
20
56.465810504102443
42
0.4142135623730957
10
16.007277926994405
20
55.46581050410245
10
16.007277926994405
20
53.465810504102443
10
16.007277926994401
20
52.865810504102441
10
15.817277926994402
20
52.865810504102441
42
0.41421356237309509
10
15.717277926994402
20
52.76581050410244
10
15.717277926994404
20
51.865810504102441
10
13.297277926994422
20
51.865810504102441
10
13.297277926994422
20
52.76581050410244
42
0.41421356237309509
10
13.197277926994422
20
52.865810504102441
10
13.007277926994423
20
52.865810504102441
10
13.007277926994425
20
53.465810504102436
10
13.007277926994425
20
55.46581050410245
42
0.41421356237309509
0
LWPOLYLINE
5
103
100
AcDbEntity
8
0
100
AcDbPolyline
90
200
70
1
43
0.0
10
6.6903086107929539
20
50.099691389206797
10
6.6903086107929708
20
47.559691389206805
10
6.4363086107929721
20
47.559691389206805
10
5.7403086107929804
20
47.559691389206797
10
5.7403086107930177
20
41.71969138920683
10
5.5803086107930202
20
41.559691389206826
10
5.2603086107930235
20
41.559691389206826
10
5.1003086107930242
20
41.719691389206815
10
5.100308610792986
20
47.55969138920679
10
4.4043086107929934
20
47.55969138920679
10
4.1503086107929956
20
47.55969138920679
10
3.8963086107929978
20
47.55969138920679
10
3.2003086107930043
20
47.559691389206776
10
3.2003086107930425
20
41.719691389206808
10
3.0403086107930455
20
41.559691389206812
10
2.7203086107930483
20
41.559691389206812
10
2.5603086107930491
20
41.719691389206801
10
2.5603086107930109
20
47.559691389206769
10
1.8643086107930169
20
47.559691389206769
10
1.61030861079302
20
47.559691389206769
10
1.356308610793022
20
47.559691389206769
10
0.6603086107930296
20
47.559691389206762
10
0.6603086107930678
20
41.719691389206794
10
0.50030861079307032
20
41.55969138920679
10
0.18030861079307325
20
41.55969138920679
10
0.020308610793073889
20
41.719691389206787
10
0.020308610793035798
20
47.559691389206755
10
-0.67569138920695704
20
47.559691389206755
10
-0.92969138920695449
20
47.559691389206762
10
-1.1836913892069532
20
47.559691389206755
10
-1.8796913892069456
20
47.559691389206748
10
-1.8796913892069078
20
41.719691389206773
10
-2.0396913892069053
20
41.559691389206776
10
-2.359691389206902
20
41.559691389206776
10
-2.5196913892069017
20
41.719691389206773
10
-2.5196913892069399
20
47.559691389206748
10
-3.2156913892069316
20
47.559691389206733
10
-3.4696913892069317
20
47.559691389206748
10
-3.723691389206929
20
47.559691389206748
10
-4.4196913892069212
20
47.559691389206726
10
-4.4196913892068821
20
41.719691389206758
10
-4.5796913892068796
20
41.559691389206755
10
-4.8996913892068772
20
41.559691389206762
10
-5.0596913892068773
20
41.719691389206758
10
-5.0596913892069146
20
47.559691389206726
10
-5.755691389206909
20
47.559691389206719
10
-6.0096913892069059
20
47.559691389206726
10
-6.2636913892069028
20
47.559691389206726
10
-6.959691389206899
20
47.559691389206719
10
-6.9596913892068617
20
41.719691389206737
10
-7.1196913892068565
20
41.559691389206741
10
-7.4396913892068541
20
41.559691389206748
10
-7.5996913892068534
20
41.719691389206737
10
-7.5996913892068907
20
47.559691389206705
10
-8.2956913892068833
20
47.559691389206698
10
-8.5496913892068847
20
47.559691389206705
10
-8.8036913892068807
20
47.559691389206705
10
-9.4996913892068697
20
47.559691389206698
10
-9.4996913892068324
20
41.71969138920673
10
-9.6596913892068308
20
41.559691389206733
10
-9.9796913892068293
20
41.559691389206733
10
-10.139691389206828
20
41.719691389206723
10
-10.139691389206867
20
47.559691389206691
10
-10.835691389206861
20
47.559691389206691
10
-11.089691389206857
20
47.559691389206691
10
-11.343691389206853
20
47.559691389206691
10
-12.039691389206848
20
47.559691389206684
10
-12.03969138920681
20
41.719691389206716
10
-12.199691389206809
20
41.559691389206712
10
-12.519691389206805
20
41.559691389206712
10
-12.679691389206804
20
41.719691389206702
10
-12.679691389206841
20
47.559691389206677
10
-13.375691389206832
20
47.559691389206677
10
-13.629691389206833
20
47.559691389206677
10
-13.883691389206827
20
47.559691389206677
10
-14.579691389206822
20
47.559691389206662
10
-14.579691389206783
20
41.719691389206695
10
-14.739691389206781
20
41.559691389206691
10
-15.05969138920678
20
41.559691389206691
10
-15.219691389206778
20
41.719691389206687
10
-15.219691389206815
20
47.559691389206655
10
-15.91569138920681
20
47.559691389206655
10
-16.169691389206807
20
47.559691389206655
10
-16.423691389206809
20
47.559691389206655
10
-17.119691389206796
20
47.559691389206648
10
-17.119691389206753
20
41.719691389206673
10
-17.279691389206754
20
41.559691389206677
10
-17.599691389206754
20
41.559691389206677
10
-17.759691389206751
20
41.719691389206673
10
-17.75969138920679
20
47.559691389206648
10
-18.455691389206788
20
47.559691389206634
10
-18.709691389206782
20
47.559691389206648
10
-18.96369138920678
20
47.559691389206634
10
-19.65969138920677
20
47.559691389206627
10
-19.659691389206731
20
41.719691389206659
10
-19.819691389206731
20
41.559691389206662
10
-20.139691389206725
20
41.559691389206662
10
-20.299691389206728
20
41.719691389206659
10
-20.299691389206767
20
47.559691389206627
10
-20.995691389206755
20
47.55969138920662
10
-21.24969138920676
20
47.559691389206627
10
-21.249691389206777
20
50.099691389206612
10
-20.995691389206783
20
50.099691389206612
10
-20.299691389206778
20
50.099691389206612
10
-20.299691389206789
20
51.279691389206612
10
-20.299691389206792
20
51.919691389206612
10
-19.659691389206799
20
51.919691389206619
10
-19.659691389206799
20
51.279691389206619
10
-19.659691389206792
20
50.099691389206626
10
-18.963691389206797
20
50.099691389206626
10
-18.709691389206803
20
50.099691389206633
10
-18.455691389206802
20
50.099691389206633
10
-17.759691389206807
20
50.099691389206633
10
-17.759691389206814
20
51.279691389206626
10
-17.759691389206822
20
51.919691389206626
10
-17.119691389206821
20
51.919691389206626
10
-17.119691389206821
20
51.279691389206633
10
-17.119691389206814
20
50.09969138920664
10
-16.423691389206823
20
50.09969138920664
10
-16.169691389206829
20
50.09969138920664
10
-15.915691389206826
20
50.099691389206654
10
-15.219691389206835
20
50.099691389206654
10
-15.219691389206842
20
51.279691389206647
10
-15.219691389206849
20
51.919691389206648
10
-14.57969138920685
20
51.919691389206648
10
-14.579691389206847
20
51.279691389206654
10
-14.57969138920684
20
50.099691389206662
10
-13.883691389206847
20
50.099691389206662
10
-13.629691389206847
20
50.099691389206662
10
-13.37569138920685
20
50.099691389206662
10
-12.679691389206859
20
50.099691389206669
10
-12.679691389206866
20
51.279691389206661
10
-12.679691389206871
20
51.919691389206662
10
-12.039691389206876
20
51.919691389206662
10
-12.039691389206872
20
51.279691389206661
10
-12.039691389206865
20
50.099691389206669
10
-11.343691389206871
20
50.099691389206676
10
-11.089691389206875
20
50.099691389206676
10
-10.835691389206875
20
50.099691389206676
10
-10.139691389206885
20
50.099691389206683
10
-10.139691389206892
20
51.279691389206683
10
-10.139691389206895
20
51.919691389206683
10
-9.4996913892068982
20
51.919691389206683
10
-9.4996913892068946
20
51.279691389206683
10
-9.4996913892068875
20
50.099691389206683
10
-8.8036913892068966
20
50.099691389206697
10
-8.5496913892068989
20
50.099691389206697
10
-8.2956913892069011
20
50.099691389206697
10
-7.5996913892069085
20
50.099691389206704
10
-7.5996913892069164
20
51.279691389206697
10
-7.5996913892069191
20
51.919691389206697
10
-6.9596913892069274
20
51.919691389206697
10
-6.9596913892069239
20
51.279691389206697
10
-6.9596913892069168
20
50.099691389206704
10
-6.2636913892069206
20
50.099691389206711
10
-6.0096913892069237
20
50.099691389206711
10
-5.7556913892069268
20
50.099691389206711
10
-5.0596913892069324
20
50.099691389206725
10
-5.0596913892069404
20
51.279691389206718
10
-5.0596913892069439
20
51.919691389206704
10
-4.4196913892069487
20
51.919691389206719
10
-4.4196913892069443
20
51.279691389206718
10
-4.4196913892069372
20
50.099691389206725
10
-3.7236913892069454
20
50.099691389206725
10
-3.4696913892069468
20
50.099691389206733
10
-3.2156913892069481
20
50.099691389206733
10
-2.5196913892069563
20
50.099691389206733
10
-2.5196913892069639
20
51.279691389206725
10
-2.5196913892069683
20
51.919691389206726
10
-1.8796913892069744
20
51.919691389206733
10
-1.87969138920697
20
51.279691389206732
10
-1.8796913892069622
20
50.09969138920674
10
-1.18369138920697
20
50.09969138920674
10
-0.92969138920697136
20
50.099691389206747
10
-0.6756913892069738
20
50.099691389206747
10
0.020308610793019488
20
50.099691389206747
10
0.020308610793011789
20
51.279691389206747
10
0.020308610793007553
20
51.919691389206747
10
0.66030861079300118
20
51.919691389206747
10
0.66030861079300562
20
51.279691389206754
10
0.6603086107930134
20
50.099691389206754
10
1.3563086107930062
20
50.099691389206754
10
1.6103086107930036
20
50.099691389206754
10
1.8643086107930014
20
50.099691389206768
10
2.5603086107929944
20
50.099691389206768
10
2.5603086107929869
20
51.279691389206761
10
2.5603086107929824
20
51.919691389206761
10
3.2003086107929759
20
51.919691389206761
10
3.2003086107929803
20
51.279691389206761
10
3.2003086107929879
20
50.099691389206775
10
3.896308610792981
20
50.099691389206775
10
4.1503086107929787
20
50.099691389206775
10
4.4043086107929765
20
50.099691389206775
10
5.10030861079297
20
50.099691389206782
10
5.100308610792962
20
51.279691389206775
10
5.1003086107929576
20
51.919691389206776
10
5.7403086107929511
20
51.919691389206776
10
5.7403086107929555
20
51.279691389206775
10
5.7403086107929635
20
50.099691389206782
10
6.436308610792957
20
50.099691389206797
0
CIRCLE
5
104
100
AcDbEntity
8
0
100
AcDbCircle
10
17.007277926994394
20
55.465810504102457
30
5.5511151231257827e-16
40
0.64999999999999492
210
-1.1339875512552134e-29
220
-4.0626336618882091e-29
230
1
0
CIRCLE
5
105
100
AcDbEntity
8
0
100
AcDbCircle
10
12.007277926994433
20
55.465810504102457
30
5.5511151231257827e-16
40
0.64999999999999492
210
-1.1339875512552134e-29
220
-4.0626336618882091e-29
230
1
0
LWPOLYLINE
5
106
100
AcDbEntity
8
0
100
AcDbPolyline
90
4
70
1
43
0.0
10
5.5803086107929554
20
51.439691389206779
10
5.2603086107929586
20
51.439691389206779
10
5.260308610792956
20
51.759691389206779
10
5.5803086107929545
20
51.759691389206779
0
LWPOLYLINE
5
107
100
AcDbEntity
8
0
100
AcDbPolyline
90
4
70
1
43
0.0
10
3.0403086107929811
20
51.439691389206757
10
2.7203086107929844
20
51.439691389206757
10
2.7203086107929817
20
51.759691389206765
10
3.0403086107929789
20
51.759691389206765
0
LWPOLYLINE
5
108
100
AcDbEntity
8
0
100
AcDbPolyline
90
4
70
1
43
0.0
10
0.50030861079300604
20
51.43969138920675
10
0.18030861079300886
20
51.43969138920675
10
0.18030861079300645
20
51.759691389206743
10
0.50030861079300348
20
51.759691389206743
0
LWPOLYLINE
5
109
100
AcDbEntity
8
0
100
AcDbPolyline
90
4
70
1
43
0.0
10
-2.0396913892069692
20
51.439691389206736
10
-2.3596913892069664
20
51.439691389206736
10
-2.3596913892069695
20
51.759691389206736
10
-2.0396913892069719
20
51.759691389206722
0
LWPOLYLINE
5
110
100
AcDbEntity
8
0
100
AcDbPolyline
90
4
70
1
43
0.0
10
-4.5796913892069444
20
51.439691389206715
10
-4.8996913892069411
20
51.439691389206715
10
-4.8996913892069465
20
51.759691389206715
10
-4.5796913892069471
20
51.759691389206708
0
LWPOLYLINE
5
111
100
AcDbEntity
8
0
100
AcDbPolyline
90
4
70
1
43
0.0
10
-7.1196913892069214
20
51.4396913892067
10
-7.4396913892069181
20
51.4396913892067
10
-7.439691389206919
20
51.759691389206701
10
-7.1196913892069205
20
51.759691389206701
0
LWPOLYLINE
5
112
100
AcDbEntity
8
0
100
AcDbPolyline
90
4
70
1
43
0.0
10
-9.6596913892068965
20
51.439691389206679
10
-9.9796913892068932
20
51.439691389206679
10
-9.979691389206895
20
51.759691389206679
10
-9.6596913892068965
20
51.759691389206679
0
LWPOLYLINE
5
113
100
AcDbEntity
8
0
100
AcDbPolyline
90
4
70
1
43
0.0
10
-12.199691389206873
20
51.439691389206665
10
-12.519691389206871
20
51.439691389206665
10
-12.519691389206873
20
51.759691389206665
10
-12.199691389206873
20
51.759691389206665
0
LWPOLYLINE
5
114
100
AcDbEntity
8
0
100
AcDbPolyline
90
4
70
1
43
0.0
10
-14.739691389206849
20
51.439691389206658
10
-15.059691389206847
20
51.439691389206658
10
-15.059691389206847
20
51.759691389206644
10
-14.739691389206847
20
51.759691389206644
0
LWPOLYLINE
5
115
100
AcDbEntity
8
0
100
AcDbPolyline
90
4
70
1
43
0.0
10
-17.279691389206821
20
51.439691389206637
10
-17.599691389206818
20
51.439691389206637
10
-17.599691389206818
20
51.75969138920663
10
-17.279691389206818
20
51.75969138920663
0
LWPOLYLINE
5
116
100
AcDbEntity
8
0
100
AcDbPolyline
90
4
70
1
43
0.0
10
-19.819691389206795
20
51.439691389206615
10
-20.139691389206792
20
51.439691389206615
10
-20.139691389206796
20
51.759691389206623
10
-19.819691389206799
20
51.759691389206608
0
ENDSEC
0
SECTION
2
OBJECTS
0
DICTIONARY
5
C
100
AcDbDictionary
3
ACAD_GROUP
350
D
3
ACAD_MLINESTYLE
350
17
0
DICTIONARY
5
D
100
AcDbDictionary
0
DICTIONARY
5
1A
330
C
100
AcDbDictionary
0
DICTIONARY
5
17
100
AcDbDictionary
0
ENDSEC
0
EOF
