0
SECTION
2
HEADER
9
$INSUNITS
70
4
9
$ACADVER
1
AC1014
9
$HANDSEED
5
FFFF
0
ENDSEC
0
SECTION
2
TABLES
0
TABLE
2
VPORT
5
8
100
AcDbSymbolTable
0
ENDTAB
0
TABLE
2
LTYPE
5
5
100
AcDbSymbolTable
0
LTYPE
5
14
100
AcDbSymbolTableRecord
100
AcDbLinetypeTableRecord
2
BYBLOCK
70
0
0
LTYPE
5
15
100
AcDbSymbolTableRecord
100
AcDbLinetypeTableRecord
2
BYLAYER
70
0
0
LTYPE
5
16
100
AcDbSymbolTableRecord
100
AcDbLinetypeTableRecord
2
DASHED
70
0
3
Dashed __ __ __ __ __ __ __ __ __ __ __ __ __ _
72
65
73
2
40
0.75
49
0.5
74
0
49
-0.25
74
0
0
ENDTAB
0
TABLE
2
LAYER
5
2
100
AcDbSymbolTable
70
2
0
LAYER
5
50
100
AcDbSymbolTableRecord
100
AcDbLayerTableRecord
2
0
70
0
62
7
6
CONTINUOUS
0
ENDTAB
0
TABLE
2
STYLE
5
3
100
AcDbSymbolTable
70
1
0
STYLE
5
11
100
AcDbSymbolTableRecord
100
AcDbTextStyleTableRecord
2
STANDARD
70
0
0
ENDTAB
0
TABLE
2
VIEW
5
6
100
AcDbSymbolTable
70
0
0
ENDTAB
0
TABLE
2
UCS
5
7
100
AcDbSymbolTable
70
0
0
ENDTAB
0
TABLE
2
APPID
5
9
100
AcDbSymbolTable
70
2
0
APPID
5
12
100
AcDbSymbolTableRecord
100
AcDbRegAppTableRecord
2
ACAD
70
0
0
ENDTAB
0
TABLE
2
DIMSTYLE
5
A
100
AcDbSymbolTable
70
1
0
ENDTAB
0
TABLE
2
BLOCK_RECORD
5
1
100
AcDbSymbolTable
70
1
0
BLOCK_RECORD
5
1F
100
AcDbSymbolTableRecord
100
AcDbBlockTableRecord
2
*MODEL_SPACE
0
BLOCK_RECORD
5
1B
100
AcDbSymbolTableRecord
100
AcDbBlockTableRecord
2
*PAPER_SPACE
0
ENDTAB
0
ENDSEC
0
SECTION
2
BLOCKS
0
BLOCK
5
20
100
AcDbEntity
100
AcDbBlockBegin
2
*MODEL_SPACE
0
ENDBLK
5
21
100
AcDbEntity
100
AcDbBlockEnd
0
BLOCK
5
1C
100
AcDbEntity
100
AcDbBlockBegin
2
*PAPER_SPACE
0
ENDBLK
5
1D
100
AcDbEntity
100
AcDbBlockEnd
0
ENDSEC
0
SECTION
2
ENTITIES
0
POINT
5
100
100
AcDbEntity
8
0
100
AcDbPoint
10
0
20
0
30
0
0
CIRCLE
5
101
100
AcDbEntity
8
0
100
AcDbCircle
10
0
20
0
30
0
40
25
210
0
220
0
230
1
0
CIRCLE
5
102
100
AcDbEntity
8
0
100
AcDbCircle
10
0
20
0
30
0
40
27
210
0
220
0
230
1
0
CIRCLE
5
103
100
AcDbEntity
8
0
100
AcDbCircle
10
-26.16295090390226
20
-26.162950903902264
30
0
40
1.5999999999999996
210
0
220
0
230
1
0
LWPOLYLINE
5
104
100
AcDbEntity
8
0
100
AcDbPolyline
90
24
70
1
43
0.0
10
-27.937981630410821
20
-23.695340943291541
10
-28.284271247461902
20
-24.041630560342622
42
0.99999999999999989
10
-24.041630560342618
20
-28.284271247461909
10
-23.695340943291534
20
-27.937981630410832
42
-0.36727250104047504
10
-19.824775686240123
20
-27.622061273378268
42
0.3217155557047997
10
19.824775686240098
20
-27.622061273378272
42
-0.3672725010404792
10
23.695340943291537
20
-27.937981630410825
10
24.041630560342618
20
-28.284271247461909
42
0.99999999999999989
10
28.284271247461902
20
-24.041630560342622
10
27.937981630410821
20
-23.695340943291541
42
-0.36727250104047493
10
27.622061273378264
20
-19.824775686240127
42
0.3217155557047997
10
27.622061273378279
20
19.824775686240102
42
-0.36727250104047904
10
27.937981630410825
20
23.695340943291537
10
28.284271247461909
20
24.041630560342618
42
0.99999999999999989
10
24.041630560342622
20
28.284271247461902
10
23.695340943291537
20
27.937981630410825
42
-0.36727250104047504
10
19.824775686240127
20
27.622061273378264
42
0.3217155557047997
10
-19.824775686240098
20
27.622061273378272
42
-0.3672725010404792
10
-23.695340943291537
20
27.937981630410825
10
-24.041630560342618
20
28.284271247461909
42
0.99999999999999989
10
-28.284271247461902
20
24.041630560342622
10
-27.937981630410821
20
23.695340943291541
42
-0.36727250104047493
10
-27.622061273378264
20
19.824775686240127
42
0.32171555570479982
10
-27.622061273378272
20
-19.824775686240105
42
-0.36727250104047904
0
CIRCLE
5
105
100
AcDbEntity
8
0
100
AcDbCircle
10
26.16295090390226
20
-26.162950903902264
30
0
40
1.5999999999999996
210
0
220
0
230
1
0
CIRCLE
5
106
100
AcDbEntity
8
0
100
AcDbCircle
10
26.162950903902264
20
26.16295090390226
30
0
40
1.5999999999999996
210
0
220
0
230
1
0
CIRCLE
5
107
100
AcDbEntity
8
0
100
AcDbCircle
10
-26.16295090390226
20
26.162950903902264
30
0
40
1.5999999999999996
210
0
220
0
230
1
0
ENDSEC
0
SECTION
2
OBJECTS
0
DICTIONARY
5
C
100
AcDbDictionary
3
ACAD_GROUP
350
D
3
ACAD_MLINESTYLE
350
17
0
DICTIONARY
5
D
100
AcDbDictionary
0
DICTIONARY
5
1A
330
C
100
AcDbDictionary
0
DICTIONARY
5
17
100
AcDbDictionary
0
ENDSEC
0
EOF
