0
SECTION
2
HEADER
9
$INSUNITS
70
4
9
$ACADVER
1
AC1014
9
$HANDSEED
5
FFFF
0
ENDSEC
0
SECTION
2
TABLES
0
TABLE
2
VPORT
5
8
100
AcDbSymbolTable
0
ENDTAB
0
TABLE
2
LTYPE
5
5
100
AcDbSymbolTable
0
LTYPE
5
14
100
AcDbSymbolTableRecord
100
AcDbLinetypeTableRecord
2
BYBLOCK
70
0
0
LTYPE
5
15
100
AcDbSymbolTableRecord
100
AcDbLinetypeTableRecord
2
BYLAYER
70
0
0
LTYPE
5
16
100
AcDbSymbolTableRecord
100
AcDbLinetypeTableRecord
2
DASHED
70
0
3
Dashed __ __ __ __ __ __ __ __ __ __ __ __ __ _
72
65
73
2
40
0.75
49
0.5
74
0
49
-0.25
74
0
0
ENDTAB
0
TABLE
2
LAYER
5
2
100
AcDbSymbolTable
70
2
0
LAYER
5
50
100
AcDbSymbolTableRecord
100
AcDbLayerTableRecord
2
0
70
0
62
7
6
CONTINUOUS
0
ENDTAB
0
TABLE
2
STYLE
5
3
100
AcDbSymbolTable
70
1
0
STYLE
5
11
100
AcDbSymbolTableRecord
100
AcDbTextStyleTableRecord
2
STANDARD
70
0
0
ENDTAB
0
TABLE
2
VIEW
5
6
100
AcDbSymbolTable
70
0
0
ENDTAB
0
TABLE
2
UCS
5
7
100
AcDbSymbolTable
70
0
0
ENDTAB
0
TABLE
2
APPID
5
9
100
AcDbSymbolTable
70
2
0
APPID
5
12
100
AcDbSymbolTableRecord
100
AcDbRegAppTableRecord
2
ACAD
70
0
0
ENDTAB
0
TABLE
2
DIMSTYLE
5
A
100
AcDbSymbolTable
70
1
0
ENDTAB
0
TABLE
2
BLOCK_RECORD
5
1
100
AcDbSymbolTable
70
1
0
BLOCK_RECORD
5
1F
100
AcDbSymbolTableRecord
100
AcDbBlockTableRecord
2
*MODEL_SPACE
0
BLOCK_RECORD
5
1B
100
AcDbSymbolTableRecord
100
AcDbBlockTableRecord
2
*PAPER_SPACE
0
ENDTAB
0
ENDSEC
0
SECTION
2
BLOCKS
0
BLOCK
5
20
100
AcDbEntity
100
AcDbBlockBegin
2
*MODEL_SPACE
0
ENDBLK
5
21
100
AcDbEntity
100
AcDbBlockEnd
0
BLOCK
5
1C
100
AcDbEntity
100
AcDbBlockBegin
2
*PAPER_SPACE
0
ENDBLK
5
1D
100
AcDbEntity
100
AcDbBlockEnd
0
ENDSEC
0
SECTION
2
ENTITIES
0
POINT
5
100
100
AcDbEntity
8
0
100
AcDbPoint
10
0
20
0
30
0
0
LWPOLYLINE
5
101
100
AcDbEntity
8
0
100
AcDbPolyline
90
12
70
1
43
0.0
10
-26.378679942691946
20
41.935028636902302
10
-14.860288421974989
20
30.416637282064961
42
-0.48789283059085653
10
-15.437826127065822
20
25.723015462236994
42
0.015508364572162044
10
-17.002673609590897
20
24.716575210285932
42
-0.36162144470573493
10
-20.824261418421806
20
25.066912492067075
10
-37.248790403522527
20
41.491443092462497
42
-0.44601695388113266
10
-37.009291231694206
20
45.949159848791304
42
-0.14365222689394072
10
-6.3214159347776713
20
58.66036103375427
42
-0.44601471753687449
10
-3.0000047610796305
20
55.677628591705066
10
-3.0000041213907487
20
50.056349475155464
42
-0.41421359348941322
10
-6.0000040987107672
20
47.056349133762225
10
-24.257359637087138
20
47.056348995736819
42
0.66817863778935305
0
LWPOLYLINE
5
102
100
AcDbEntity
8
0
100
AcDbPolyline
90
12
70
1
43
0.0
10
14.860288489825429
20
30.416637230057006
10
26.378679767667194
20
41.935029070780345
42
0.66817863181738046
10
24.257359349595188
20
47.056349362507568
10
6.000003101095098
20
47.056349224482126
42
-0.4142135307856849
10
3.0000030784151477
20
50.056348878263663
10
3.0000024296650358
20
55.677800609091825
42
-0.44601859854831633
10
6.321451540826093
20
58.660529650470778
42
-0.14365151838001616
10
37.009167846239549
20
45.948986950563835
42
-0.44601394421514018
10
37.248643998831234
20
41.491289113732435
10
20.824267935970031
20
25.066908187078347
42
-0.36162153916759737
10
17.002679335879353
20
24.716571095514141
42
0.015508421168879493
10
15.437826274168586
20
25.723015205833782
42
-0.48789281803720858
0
CIRCLE
5
103
100
AcDbEntity
8
0
100
AcDbCircle
10
-81.499999951544623
20
-0.0027593484231024376
30
0
40
1.6000000000000003
210
0
220
0
230
1
0
CIRCLE
5
104
100
AcDbEntity
8
0
100
AcDbCircle
10
81.500000061458366
20
7.1161497815405277e-06
30
0
40
1.6000000000000016
210
0
220
0
230
1
0
ARC
5
105
100
AcDbEntity
8
0
100
AcDbCircle
10
-81.499999951544623
20
-0.0027593484231024376
30
0
40
3.0000082805283701
210
0
220
0
230
1
100
AcDbArc
50
90.000967866245972
51
270.0009705962176
0
ARC
5
106
100
AcDbEntity
8
0
100
AcDbCircle
10
81.500000061458337
20
7.1161497815405785e-06
30
0
40
3.0000000033364271
210
0
220
0
230
1
100
AcDbArc
50
-89.999033311057659
51
90.010814495734039
0
CIRCLE
5
107
100
AcDbEntity
8
0
100
AcDbCircle
10
0
20
0
30
0
40
20
210
0
220
0
230
1
0
LINE
5
108
100
AcDbEntity
8
0
100
AcDbLine
10
-67.735343919352914
20
2.9974870257667319
30
0
11
-81.500050629042633
21
2.9972489316772339
31
0
0
LINE
5
109
100
AcDbEntity
8
0
100
AcDbLine
10
81.50005067717305
20
-2.9999928867596539
30
0
11
67.734298103648527
21
-3.0002261333790115
31
0
0
CIRCLE
5
110
100
AcDbEntity
8
0
100
AcDbCircle
10
-81.499999951708176
20
-0.0027535105386108628
30
0
40
1.6000000000000014
210
-2.4651903288156619e-32
220
-0
230
1
0
CIRCLE
5
111
100
AcDbEntity
8
0
100
AcDbCircle
10
81.5
20
-4.1337263256808754e-15
30
0
40
1.6000000000000014
210
-2.4651903288156619e-32
220
-0
230
1
0
LWPOLYLINE
5
112
100
AcDbEntity
8
0
100
AcDbPolyline
90
4
70
1
43
0.0
10
5.5829854691147744
20
37.617014530884994
10
5.5829854691147727
20
37.417014530884991
10
5.2829854691147737
20
37.417014530884991
10
5.2829854691147746
20
37.617014530884994
0
CIRCLE
5
113
100
AcDbEntity
8
0
100
AcDbCircle
10
11.999999999999991
20
34.549999999999976
30
0
40
0.8499999999999952
210
-1.0615725853462458e-29
220
-4.3880387852919041e-30
230
1
0
CIRCLE
5
114
100
AcDbEntity
8
0
100
AcDbCircle
10
16.999999999999964
20
34.549999999999976
30
0
40
0.8499999999999952
210
-1.0615725853462458e-29
220
-4.3880387852919041e-30
230
1
0
LWPOLYLINE
5
115
100
AcDbEntity
8
0
100
AcDbPolyline
90
4
70
1
43
0.0
10
3.0429854691147802
20
37.617014530885008
10
3.0429854691147789
20
37.417014530885012
10
2.7429854691147799
20
37.417014530885012
10
2.7429854691147808
20
37.617014530885008
0
LWPOLYLINE
5
116
100
AcDbEntity
8
0
100
AcDbPolyline
90
4
70
1
43
0.0
10
0.50298546911478725
20
37.617014530885022
10
0.50298546911478614
20
37.417014530885019
10
0.20298546911478668
20
37.417014530885019
10
0.20298546911478921
20
37.617014530885022
0
LWPOLYLINE
5
117
100
AcDbEntity
8
0
100
AcDbPolyline
90
4
70
1
43
0.0
10
-2.0370145308852061
20
37.617014530885037
10
-2.037014530885207
20
37.417014530885034
10
-2.3370145308852055
20
37.417014530885034
10
-2.3370145308852042
20
37.617014530885037
0
LWPOLYLINE
5
118
100
AcDbEntity
8
0
100
AcDbPolyline
90
4
70
1
43
0.0
10
-4.5770145308852017
20
37.617014530885051
10
-4.5770145308852026
20
37.417014530885048
10
-4.8770145308852015
20
37.417014530885048
10
-4.8770145308852006
20
37.617014530885051
0
LWPOLYLINE
5
119
100
AcDbEntity
8
0
100
AcDbPolyline
90
4
70
1
43
0.0
10
-7.1170145308851946
20
37.617014530885065
10
-7.1170145308851964
20
37.417014530885062
10
-7.4170145308851945
20
37.417014530885062
10
-7.4170145308851945
20
37.617014530885065
0
LWPOLYLINE
5
120
100
AcDbEntity
8
0
100
AcDbPolyline
90
4
70
1
43
0.0
10
-9.6570145308851885
20
37.617014530885072
10
-9.6570145308851902
20
37.417014530885076
10
-9.9570145308851874
20
37.417014530885076
10
-9.9570145308851874
20
37.617014530885079
0
LWPOLYLINE
5
121
100
AcDbEntity
8
0
100
AcDbPolyline
90
4
70
1
43
0.0
10
-12.197014530885181
20
37.617014530885093
10
-12.197014530885181
20
37.417014530885091
10
-12.497014530885181
20
37.417014530885091
10
-12.497014530885179
20
37.617014530885093
0
LWPOLYLINE
5
122
100
AcDbEntity
8
0
100
AcDbPolyline
90
4
70
1
43
0.0
10
-14.737014530885178
20
37.617014530885108
10
-14.737014530885178
20
37.417014530885105
10
-15.037014530885175
20
37.417014530885105
10
-15.037014530885175
20
37.617014530885108
0
LWPOLYLINE
5
123
100
AcDbEntity
8
0
100
AcDbPolyline
90
4
70
1
43
0.0
10
-17.277014530885168
20
37.617014530885122
10
-17.277014530885168
20
37.417014530885119
10
-17.577014530885165
20
37.417014530885119
10
-17.577014530885165
20
37.617014530885122
0
LWPOLYLINE
5
124
100
AcDbEntity
8
0
100
AcDbPolyline
90
4
70
1
43
0.0
10
-19.817014530885164
20
37.617014530885136
10
-19.817014530885164
20
37.417014530885133
10
-20.117014530885161
20
37.417014530885133
10
-20.117014530885164
20
37.617014530885136
0
CIRCLE
5
125
100
AcDbEntity
8
0
100
AcDbCircle
10
20.007277926994377
20
50.46581050410245
30
5.5511151231257827e-16
40
0.34999999999999742
210
-1.1339875512552134e-29
220
-4.1020767071492597e-29
230
1
0
CIRCLE
5
126
100
AcDbEntity
8
0
100
AcDbCircle
10
9.007277926994453
20
50.46581050410245
30
5.5511151231257827e-16
40
0.34999999999999742
210
-1.1339875512552134e-29
220
-4.1020767071492597e-29
230
1
0
LWPOLYLINE
5
127
100
AcDbEntity
8
0
100
AcDbPolyline
90
36
70
1
43
0.0
10
9.5500000000000043
20
43.449999999999925
10
9.5500000000000043
20
39.74999999999995
10
9.5499999999999954
20
38.549999999999955
10
10.54999999999999
20
38.549999999999955
10
10.749999999999996
20
38.549999999999955
10
10.749999999999996
20
36.549999999999962
10
11.049999999999995
20
36.549999999999962
10
11.049999999999997
20
34.549999999999976
42
0.99999999999999989
10
12.949999999999985
20
34.549999999999976
10
12.949999999999985
20
36.549999999999962
10
13.249999999999984
20
36.549999999999962
10
13.249999999999984
20
38.549999999999955
10
15.749999999999972
20
38.549999999999955
10
15.749999999999972
20
36.549999999999962
10
16.049999999999969
20
36.549999999999962
10
16.049999999999969
20
34.549999999999976
42
0.99999999999999989
10
17.94999999999996
20
34.549999999999976
10
17.94999999999996
20
36.549999999999962
10
18.249999999999957
20
36.549999999999962
10
18.249999999999957
20
38.549999999999955
10
18.449999999999957
20
38.549999999999955
10
19.44999999999995
20
38.549999999999955
10
19.44999999999995
20
39.749999999999943
10
19.44999999999995
20
43.449999999999925
10
20.899999999999945
20
43.449999999999925
42
0.41421356237312101
10
21.149999999999945
20
43.699999999999918
10
21.149999999999942
20
45.199999999999918
42
0.41421356237307944
10
20.899999999999945
20
45.44999999999991
10
19.44999999999995
20
45.44999999999991
10
19.44999999999995
20
47.549999999999898
10
9.5500000000000043
20
47.549999999999898
10
9.5500000000000043
20
45.44999999999991
10
8.1000000000000121
20
45.44999999999991
42
0.41421356237309509
10
7.8500000000000121
20
45.199999999999918
10
7.8500000000000139
20
43.699999999999918
42
0.41421356237309509
10
8.1000000000000121
20
43.449999999999925
0
LWPOLYLINE
5
128
100
AcDbEntity
8
0
100
AcDbPolyline
90
114
70
1
43
0.0
10
-21.237014530885148
20
39.037014530885145
10
-21.237014530885098
20
47.54701453088515
10
6.7029854691148261
20
47.547014530884994
10
6.7029854691147772
20
39.037014530884989
10
5.7329854691147801
20
39.037014530884989
10
5.732985469114773
20
37.717014530884995
10
5.732985469114773
20
37.617014530884994
10
5.7329854691147721
20
37.417014530884991
10
5.5829854691147727
20
37.417014530884991
10
5.2829854691147737
20
37.417014530884991
10
5.1329854691147734
20
37.417014530884998
10
5.1329854691147734
20
37.617014530884994
10
5.1329854691147734
20
37.717014530884995
10
5.1329854691147823
20
39.037014530884996
10
3.1929854691147881
20
39.037014530885003
10
3.1929854691147797
20
37.71701453088501
10
3.1929854691147797
20
37.617014530885001
10
3.1929854691147783
20
37.417014530885005
10
3.0429854691147789
20
37.417014530885005
10
2.742985469114779
20
37.417014530885012
10
2.5929854691147809
20
37.417014530885012
10
2.5929854691147813
20
37.617014530885008
10
2.5929854691147818
20
37.71701453088501
10
2.5929854691147898
20
39.03701453088501
10
0.65298546911479427
20
39.037014530885024
10
0.65298546911478628
20
37.717014530885024
10
0.65298546911478628
20
37.617014530885022
10
0.65298546911478517
20
37.417014530885019
10
0.50298546911478603
20
37.417014530885019
10
0.20298546911478724
20
37.417014530885019
10
0.052985469114788367
20
37.417014530885019
10
0.052985469114786854
20
37.617014530885022
10
0.052985469114787409
20
37.717014530885024
10
0.052985469114795736
20
39.037014530885024
10
-1.8870145308851984
20
39.037014530885031
10
-1.8870145308852071
20
37.717014530885031
10
-1.8870145308852071
20
37.617014530885037
10
-1.8870145308852082
20
37.417014530885034
10
-2.0370145308852057
20
37.417014530885034
10
-2.3370145308852055
20
37.417014530885034
10
-2.487014530885205
20
37.417014530885034
10
-2.4870145308852063
20
37.617014530885037
10
-2.4870145308852059
20
37.717014530885031
10
-2.4870145308851974
20
39.037014530885038
10
-4.4270145308851916
20
39.037014530885045
10
-4.4270145308851996
20
37.717014530885045
10
-4.4270145308851996
20
37.617014530885051
10
-4.4270145308852005
20
37.417014530885048
10
-4.5770145308851999
20
37.417014530885048
10
-4.8770145308852015
20
37.417014530885048
10
-5.027014530885201
20
37.417014530885055
10
-5.0270145308851983
20
37.617014530885051
10
-5.0270145308851983
20
37.717014530885052
10
-5.0270145308851921
20
39.037014530885052
10
-6.9670145308851863
20
39.03701453088506
10
-6.9670145308851961
20
37.717014530885059
10
-6.9670145308851961
20
37.617014530885065
10
-6.967014530885197
20
37.417014530885062
10
-7.1170145308851946
20
37.417014530885062
10
-7.4170145308851945
20
37.417014530885062
10
-7.5670145308851939
20
37.417014530885069
10
-7.5670145308851922
20
37.617014530885065
10
-7.5670145308851922
20
37.717014530885066
10
-7.5670145308851833
20
39.037014530885074
10
-9.5070145308851757
20
39.037014530885081
10
-9.5070145308851863
20
37.717014530885081
10
-9.5070145308851863
20
37.617014530885072
10
-9.5070145308851881
20
37.417014530885076
10
-9.6570145308851885
20
37.417014530885076
10
-9.9570145308851874
20
37.417014530885076
10
-10.107014530885188
20
37.417014530885083
10
-10.107014530885186
20
37.617014530885079
10
-10.107014530885186
20
37.717014530885081
10
-10.107014530885177
20
39.037014530885081
10
-12.047014530885171
20
39.037014530885095
10
-12.047014530885182
20
37.717014530885095
10
-12.047014530885182
20
37.617014530885086
10
-12.047014530885182
20
37.417014530885091
10
-12.197014530885181
20
37.417014530885091
10
-12.497014530885181
20
37.417014530885091
10
-12.647014530885176
20
37.417014530885091
10
-12.647014530885176
20
37.617014530885093
10
-12.647014530885176
20
37.717014530885095
10
-12.647014530885167
20
39.037014530885095
10
-14.587014530885172
20
39.037014530885102
10
-14.587014530885176
20
37.717014530885102
10
-14.587014530885176
20
37.617014530885108
10
-14.587014530885176
20
37.417014530885105
10
-14.737014530885178
20
37.417014530885105
10
-15.037014530885175
20
37.417014530885105
10
-15.187014530885177
20
37.417014530885105
10
-15.187014530885177
20
37.617014530885108
10
-15.187014530885177
20
37.717014530885102
10
-15.187014530885177
20
39.037014530885109
10
-17.127014530885162
20
39.037014530885116
10
-17.127014530885162
20
37.717014530885116
10
-17.127014530885162
20
37.617014530885122
10
-17.127014530885162
20
37.417014530885119
10
-17.277014530885168
20
37.417014530885119
10
-17.577014530885165
20
37.417014530885119
10
-17.727014530885167
20
37.417014530885119
10
-17.727014530885167
20
37.617014530885122
10
-17.727014530885167
20
37.717014530885116
10
-17.727014530885164
20
39.037014530885131
10
-19.667014530885158
20
39.037014530885138
10
-19.667014530885162
20
37.71701453088513
10
-19.667014530885162
20
37.617014530885136
10
-19.667014530885162
20
37.417014530885133
10
-19.817014530885164
20
37.417014530885133
10
-20.117014530885161
20
37.417014530885133
10
-20.267014530885167
20
37.41701453088514
10
-20.267014530885163
20
37.617014530885136
10
-20.267014530885163
20
37.717014530885137
10
-20.267014530885152
20
39.037014530885145
0
LWPOLYLINE
5
129
100
AcDbEntity
8
0
100
AcDbPolyline
90
4
70
1
43
0.0
10
-4.9300000000000335
20
-24.820000000000014
10
-4.9300000000000335
20
-25.020000000000017
10
-5.2300000000000333
20
-25.020000000000017
10
-5.2300000000000333
20
-24.820000000000014
0
LWPOLYLINE
5
130
100
AcDbEntity
8
0
100
AcDbPolyline
90
4
70
1
43
0.0
10
-2.3900000000000308
20
-24.820000000000014
10
-2.3900000000000308
20
-25.020000000000017
10
-2.6900000000000315
20
-25.020000000000017
10
-2.6900000000000324
20
-24.820000000000014
0
LWPOLYLINE
5
131
100
AcDbEntity
8
0
100
AcDbPolyline
90
4
70
1
43
0.0
10
0.14999999999997071
20
-24.820000000000014
10
0.14999999999997066
20
-25.020000000000017
10
-0.15000000000002978
20
-25.020000000000017
10
-0.15000000000003005
20
-24.820000000000014
0
LWPOLYLINE
5
132
100
AcDbEntity
8
0
100
AcDbPolyline
90
4
70
1
43
0.0
10
2.6899999999999724
20
-24.820000000000014
10
2.6899999999999724
20
-25.020000000000017
10
2.3899999999999721
20
-25.020000000000017
10
2.3899999999999721
20
-24.820000000000014
0
LWPOLYLINE
5
133
100
AcDbEntity
8
0
100
AcDbPolyline
90
4
70
1
43
0.0
10
5.2299999999999747
20
-24.820000000000022
10
5.2299999999999747
20
-25.020000000000021
10
4.9299999999999748
20
-25.020000000000021
10
4.929999999999974
20
-24.820000000000014
0
LWPOLYLINE
5
134
100
AcDbEntity
8
0
100
AcDbPolyline
90
8
70
1
43
0.0
10
-6.3500000000000343
20
-26.190000000000015
10
6.3499999999999748
20
-26.190000000000019
10
6.349999999999973
20
-25.766666666667017
10
6.3499999999999748
20
-24.073333333333018
10
6.349999999999973
20
-23.65000000000002
10
-6.3500000000000352
20
-23.650000000000013
10
-6.3500000000000343
20
-24.073333333333018
10
-6.3500000000000343
20
-25.766666666667014
0
LWPOLYLINE
5
135
100
AcDbEntity
8
0
100
AcDbPolyline
90
10
70
1
43
0.0
10
6.3122024685109608
20
-29.190000002856834
42
0.063899460105774908
10
7.5746429679394334
20
-29.028000001461617
42
0.087046916607739194
10
17.002679196149153
20
-24.716571358421781
42
-0.36162149504092417
10
20.824267462295531
20
-25.066908149604782
10
37.248719026108368
20
-41.491359713977488
42
-0.44601649992836639
10
37.009223611934317
20
-45.94907363201159
42
-0.14365113759140927
10
6.3214285700988606
20
-58.660374537086923
42
-0.44601649992905634
10
2.9999999987377608
20
-55.677643628368543
10
2.9999999991464366
20
-32.190000002777495
42
-0.41421356239345392
10
5.9999999994071711
20
-29.190000002829702
0
LWPOLYLINE
5
136
100
AcDbEntity
8
0
100
AcDbPolyline
90
10
70
1
43
0.0
10
-7.5746429593634614
20
-29.028000002627223
42
0.06389945961220414
10
-6.3122024694759515
20
-29.190000001759596
10
-6.0000000004876171
20
-29.190000001786732
42
-0.41421356234953288
10
-3.0000000007483569
20
-32.190000001806119
10
-3.0000000009001808
20
-55.677643628247317
42
-0.44601649993350961
10
-6.3214285723768349
20
-58.660374536882294
42
-0.14365113758322751
10
-37.009223612267363
20
-45.9490736317955
42
-0.4460164999339517
10
-37.248719026373045
20
-41.491359713721266
10
-20.824267471864633
20
-25.066908159483429
42
-0.36162149472391852
10
-17.00267920848103
20
-24.716571366490385
42
0.087046916783141984
0
LWPOLYLINE
5
137
100
AcDbEntity
8
0
100
AcDbPolyline
90
4
70
1
43
0.0
10
-34.149999999999977
20
-13.20000000000006
10
-34.149999999999977
20
-13.400000000000061
10
-34.449999999999974
20
-13.400000000000061
10
-34.449999999999974
20
-13.20000000000006
0
LWPOLYLINE
5
138
100
AcDbEntity
8
0
100
AcDbPolyline
90
4
70
1
43
0.0
10
-36.689999999999976
20
-13.200000000000067
10
-36.689999999999976
20
-13.400000000000068
10
-36.989999999999974
20
-13.400000000000068
10
-36.989999999999974
20
-13.200000000000067
0
LWPOLYLINE
5
139
100
AcDbEntity
8
0
100
AcDbPolyline
90
4
70
1
43
0.0
10
-39.229999999999961
20
-13.200000000000074
10
-39.229999999999961
20
-13.400000000000073
10
-39.529999999999966
20
-13.400000000000073
10
-39.529999999999966
20
-13.200000000000076
0
LWPOLYLINE
5
140
100
AcDbEntity
8
0
100
AcDbPolyline
90
4
70
1
43
0.0
10
-41.76999999999996
20
-13.200000000000083
10
-41.76999999999996
20
-13.400000000000084
10
-42.069999999999965
20
-13.400000000000084
10
-42.069999999999965
20
-13.200000000000083
0
LWPOLYLINE
5
141
100
AcDbEntity
8
0
100
AcDbPolyline
90
4
70
1
43
0.0
10
-44.30999999999996
20
-13.20000000000009
10
-44.30999999999996
20
-13.400000000000089
10
-44.609999999999957
20
-13.400000000000089
10
-44.609999999999957
20
-13.20000000000009
0
LWPOLYLINE
5
142
100
AcDbEntity
8
0
100
AcDbPolyline
90
4
70
1
43
0.0
10
-46.849999999999952
20
-13.200000000000095
10
-46.849999999999952
20
-13.400000000000096
10
-47.149999999999956
20
-13.400000000000096
10
-47.149999999999949
20
-13.200000000000099
0
LWPOLYLINE
5
143
100
AcDbEntity
8
0
100
AcDbPolyline
90
4
70
1
43
0.0
10
-49.389999999999944
20
-13.200000000000106
10
-49.389999999999944
20
-13.400000000000105
10
-49.689999999999948
20
-13.400000000000105
10
-49.689999999999941
20
-13.200000000000106
0
LWPOLYLINE
5
144
100
AcDbEntity
8
0
100
AcDbPolyline
90
4
70
1
43
0.0
10
-51.929999999999936
20
-13.200000000000111
10
-51.929999999999936
20
-13.400000000000112
10
-52.229999999999933
20
-13.400000000000112
10
-52.229999999999933
20
-13.200000000000111
0
LWPOLYLINE
5
145
100
AcDbEntity
8
0
100
AcDbPolyline
90
4
70
1
43
0.0
10
-54.469999999999942
20
-13.200000000000118
10
-54.469999999999942
20
-13.400000000000119
10
-54.769999999999932
20
-13.400000000000119
10
-54.769999999999932
20
-13.20000000000012
0
LWPOLYLINE
5
146
100
AcDbEntity
8
0
100
AcDbPolyline
90
4
70
1
43
0.0
10
-57.009999999999934
20
-13.200000000000125
10
-57.009999999999934
20
-13.400000000000125
10
-57.309999999999931
20
-13.400000000000125
10
-57.309999999999931
20
-13.200000000000127
0
LWPOLYLINE
5
147
100
AcDbEntity
8
0
100
AcDbPolyline
90
4
70
1
43
0.0
10
-59.549999999999926
20
-13.200000000000134
10
-59.549999999999926
20
-13.400000000000134
10
-59.849999999999923
20
-13.400000000000134
10
-59.849999999999923
20
-13.200000000000134
0
LWPOLYLINE
5
148
100
AcDbEntity
8
0
100
AcDbPolyline
90
8
70
1
43
0.0
10
-60.970000000205403
20
-14.57000000000013
10
-33.030000000201099
20
-14.570000000000052
10
-33.030000000197283
20
-14.146666666667048
10
-33.030000000187087
20
-12.453333333333047
10
-33.030000000183776
20
-12.022332207106718
10
-60.970000000187703
20
-12.021154773575002
10
-60.970000000191085
20
-12.453333333333127
10
-60.970000000201509
20
-14.14666666666713
0
LWPOLYLINE
5
149
100
AcDbEntity
8
0
100
AcDbPolyline
90
6
70
1
43
0.0
10
-52.085267590749631
20
-17.570000000000125
10
-29.05528137423871
20
-17.570000000000125
42
-0.66817863791929766
10
-26.933961030679061
20
-22.691320343559774
10
-41.491359713618706
20
-37.248719026499415
42
-0.44601649993062276
10
-45.949073631670032
20
-37.009223612382975
42
-0.075624113062700629
10
-54.875549783111225
20
-21.67196428571442
42
-0.5291963400694436
0
LWPOLYLINE
5
150
100
AcDbEntity
8
0
100
AcDbPolyline
90
18
70
1
43
0.0
10
-32.443701117902243
20
-9.0223569119576759
10
-55.373879362461345
20
-9.0213905998333654
42
-0.38328966828096178
10
-58.356698057970213
20
-6.3408251200463397
42
-0.066893045594367512
10
-57.935363154039472
20
9.3145217214879477
42
-0.6147558459025797
10
-55.384378126796719
20
10.125783627596617
10
-54.953442044872212
20
9.6869371508024056
42
0.20381772127851033
10
-53.868536474917626
20
9.2379789701022972
10
-50.998747442897383
20
9.2659957478019201
42
0.19977874309016114
10
-48.879116826498276
20
10.172493089725016
10
-47.27916997250523
20
11.814902329556622
42
0.19510417135893554
10
-46.428090865593184
20
13.903557323268817
10
-46.393787055006406
20
35.777657875342776
42
-0.17081444479526542
10
-45.951077234575656
20
37.029453653599916
42
-0.0048196529952500228
10
-45.228717808204514
20
37.908376907379349
42
-0.44017554241561102
10
-42.281705457307972
20
38.037879045127518
10
-25.067712099682396
20
20.824077628277159
42
-0.3616178018253568
10
-24.717331789909863
20
17.00252360645964
42
0.19910780387814325
10
-29.496282209544397
20
-5.4773748836116942
42
-0.46908484858040211
0
LINE
5
151
100
AcDbEntity
8
0
100
AcDbLine
10
-67.734932554978855
20
-3.0025344477676965
30
0
11
-81.49994913110524
21
-3.0027676285210232
31
0
0
LWPOLYLINE
5
152
100
AcDbEntity
8
0
100
AcDbPolyline
90
12
70
1
43
0.0
10
54.699137025261578
20
8.9996718933944599
10
40.07939057095907
20
8.9996710267846591
42
-0.41421358598993752
10
37.07939039312906
20
11.999671090853496
10
37.079390385127489
20
11.624999902196969
42
0.41421356799943249
10
34.079390391567756
20
14.624999966265769
10
27.899092822795318
20
14.624999979533344
42
-0.25730394437514792
10
25.362811668951707
20
16.022727257432301
42
0.009783051242102209
10
24.716571326733753
20
17.002679387733348
42
-0.36162145412787389
10
25.066907791988704
20
20.824267348603001
10
41.491422787456301
20
37.24878726023627
42
-0.44601901394373789
10
45.949152525096018
20
37.009272916670767
42
-0.1160399047746771
10
57.629457913091443
20
12.642492593240114
42
-0.47897438865258024
0
LINE
5
153
100
AcDbEntity
8
0
100
AcDbLine
10
81.500464644882769
20
3.000007083513252
30
0
11
67.73450680286615
21
2.9997738371550673
31
0
0
LWPOLYLINE
5
154
100
AcDbEntity
8
0
100
AcDbPolyline
90
12
70
1
43
0.0
10
55.999969772009408
20
2.9995750105961534
10
40.079339305724623
20
2.9993052560960205
42
0.4142085934297941
10
37.07939013684603
20
-0.00069467940454259747
10
37.079389888594243
20
-11.625000096566968
42
-0.41421355724599979
10
34.079389877040427
20
-14.625000032498169
10
27.899092523192522
20
-14.625000008696166
42
0.25730394467908996
10
25.362811359138227
20
-16.022727274274629
42
-0.009783088043610234
10
24.716568515412931
20
-17.002683030553438
42
0.36162152735973602
10
25.066904949127213
20
-20.824271594222431
10
41.491288788188783
20
-37.248656834539474
42
0.44601646719511928
10
45.949002510931663
20
-37.009161865749945
42
0.17115145416094146
10
59.000020602870393
20
-0.00046451879714997176
42
0.41422238443665832
0
ARC
5
155
100
AcDbEntity
8
0
100
AcDbCircle
10
67.734348935584833
20
-6.0002261329483346
30
0
40
2.9999999999999707
210
0
220
0
230
1
100
AcDbArc
50
90.000970818471643
51
174.93745021307615
0
ARC
5
156
100
AcDbEntity
8
0
100
AcDbCircle
10
67.734455971744737
20
5.9997738367244278
30
0
40
3.0000000000000067
210
0
220
0
230
1
100
AcDbArc
50
185.06163697407541
51
270.00097080290834
0
ARC
5
157
100
AcDbEntity
8
0
100
AcDbCircle
10
-0.00036866479760192759
20
0.00031290620270595142
30
0
40
64.999999999999986
210
0
220
-0
230
1
100
AcDbArc
50
5.0616369740753573
51
174.94029739937218
0
ARC
5
158
100
AcDbEntity
8
0
100
AcDbCircle
10
-0.00036866479760198028
20
0.0003129062027059512
30
0
40
64.999988508557394
210
0
220
0
230
1
100
AcDbArc
50
185.06450235831832
51
354.93745021307524
0
ARC
5
159
100
AcDbEntity
8
0
100
AcDbCircle
10
-67.734881734679732
20
-6.0025344473372737
30
0
40
2.9999999999999845
210
0
220
-0
230
1
100
AcDbArc
50
5.064502358318836
51
90.000970596217812
0
ARC
5
160
100
AcDbEntity
8
0
100
AcDbCircle
10
-67.735395811651358
20
5.9974870253179349
30
0
40
3.0000000000000044
210
0
220
0
230
1
100
AcDbArc
50
270.00099106989677
51
354.94029739937224
0
LINE
5
161
100
AcDbEntity
8
0
100
AcDbLine
10
35.627850674843778
20
11.124999999999991
30
-6.6613381477509392e-15
11
35.62785067569714
21
9.9999999998583302
31
-6.6301131265954414e-15
0
LINE
5
162
100
AcDbEntity
8
0
100
AcDbLine
10
35.704780109940828
20
9.9999999998580478
30
-6.6613381477509392e-15
11
35.62785067569714
21
9.9999999998583302
31
-6.6301131265954414e-15
0
LINE
5
163
100
AcDbEntity
8
0
100
AcDbLine
10
35.704780109940828
20
9.9999999998580478
30
-6.6613381477509392e-15
11
35.704918451233773
21
9.999999999858046
31
-7.3368237207700617e-15
0
ARC
5
164
100
AcDbEntity
8
0
100
AcDbCircle
10
35.704918450589027
20
9.9800000005299818
30
-4.4408920985006262e-15
40
0.019999999328064184
210
1.1075125711127897e-16
220
5.5511148720884818e-17
230
1
100
AcDbArc
50
-1.2074182490616497e-06
51
89.999998152937323
0
LINE
5
165
100
AcDbEntity
8
0
100
AcDbLine
10
35.724918449917091
20
9.9799999999999915
30
-4.4431071235390133e-15
11
35.724918449519713
21
9.2329952268258353
31
-6.6406046012177273e-15
0
ARC
5
166
100
AcDbEntity
8
0
100
AcDbCircle
10
35.705144007126201
20
9.2299999999922679
30
-6.6613381477509392e-15
40
0.019999998893971416
210
1.1075125802263801e-16
220
5.5511148720884948e-17
230
1
100
AcDbArc
50
0
51
8.6130966977682544
0
LINE
5
167
100
AcDbEntity
8
0
100
AcDbLine
10
35.725144006020173
20
9.2299999999999933
30
-6.6635531727893264e-15
11
35.725144005648644
21
8.7699999999999925
31
-6.648570583545136e-15
0
ARC
5
168
100
AcDbEntity
8
0
100
AcDbCircle
10
35.705144007005515
20
8.7699999997320006
30
-6.6613381477509558e-15
40
0.019999998643132427
210
1.107512579394777e-16
220
5.551114780912408e-17
230
1
100
AcDbArc
50
-8.6130955637884021
51
0
0
LINE
5
169
100
AcDbEntity
8
0
100
AcDbLine
10
35.7249184492103
20
8.7670047733273684
30
-6.6633619236445176e-15
11
35.72491844891622
21
8.0199999999999925
31
-6.6406046012177273e-15
0
ARC
5
170
100
AcDbEntity
8
0
100
AcDbCircle
10
35.70491845009802
20
8.0199999991117252
30
-4.4408920985006262e-15
40
0.019999998818195395
210
1.1075125191939364e-16
220
5.5511158290324343e-17
230
1
100
AcDbArc
50
-89.99999674630763
51
2.561320938754782e-06
0
LINE
5
171
100
AcDbEntity
8
0
100
AcDbLine
10
35.704918451233773
20
8.0000000002935288
30
-4.4397818755262083e-15
11
35.704780109940828
21
8.0000000002935288
31
-5.9858525747318168e-15
0
LINE
5
172
100
AcDbEntity
8
0
100
AcDbLine
10
35.627850694200916
20
8.000000000292939
30
-6.6613381477509392e-15
11
35.704780109940828
21
8.0000000002935288
31
-5.9858525747318168e-15
0
LINE
5
173
100
AcDbEntity
8
0
100
AcDbLine
10
35.627850694200916
20
8.000000000292939
30
-6.6613381477509392e-15
11
35.627850693974608
21
6.874999999999992
31
-6.6301131265954414e-15
0
SPLINE
5
174
100
AcDbEntity
8
0
100
AcDbSpline
70
4
71
3
72
16
73
12
74
0
42
0.000000001
43
0.0000000001
44
0.0000000001
40
4.7123889803846897
40
4.7123889803846897
40
4.7123889803846897
40
4.7123889803846897
40
5.026548245743669
40
5.026548245743669
40
5.3407075111026483
40
5.3407075111026483
40
5.6548667764616276
40
5.6548667764616276
40
5.9690260418206069
40
5.9690260418206069
40
6.2831853071795862
40
6.2831853071795862
40
6.2831853071795862
40
6.2831853071795862
41
1
41
1
41
1
41
1
41
1
41
1
41
1
41
1
41
1
41
1
41
1
41
1
10
35.627850693974608
20
6.874999999999992
30
0
10
35.627850694251116
20
6.8226401263747416
30
0
10
35.619559044558201
20
6.7702887082542027
30
0
10
35.587198861725213
20
6.6706943018378144
30
0
10
35.563135557271409
20
6.6234674055847638
30
0
10
35.501582831882949
20
6.538747343388625
30
0
10
35.46410335661362
20
6.501267866419794
30
0
10
35.37938329825068
20
6.4397151382677169
30
0
10
35.332156404324607
20
6.4156518328202115
30
0
10
35.23256200254599
20
6.3832916485890028
30
0
10
35.180210587379534
20
6.3749999986226058
30
0
10
35.127850711389598
20
6.3749999986245109
30
0
0
LINE
5
175
100
AcDbEntity
8
0
100
AcDbLine
10
35.127850711389598
20
6.3749999986245109
30
-6.6613381477509392e-15
11
35.124103466802417
21
6.3749999986246486
31
-8.0589257024104877e-15
0
LINE
5
176
100
AcDbEntity
8
0
100
AcDbLine
10
35.124103466802417
20
6.3749999986246486
30
-8.0589257024104877e-15
11
26.832286422187586
21
6.3749999989580193
31
-4.0782264718042249e-15
0
ARC
5
177
100
AcDbEntity
8
0
100
AcDbCircle
10
26.83228642180508
20
6.3949999997059574
30
-4.4408920985006262e-15
40
0.0200000007479351
210
1.1081925431517096e-16
220
5.5531787616149992e-17
230
1
100
AcDbArc
50
225.49821309909015
51
270.00000109580026
0
LINE
5
178
100
AcDbEntity
8
0
100
AcDbLine
10
26.818267791114472
20
6.3807354273857717
30
-4.4385464271004536e-15
11
25.380085276100001
21
7.7941217567633938
31
-6.3467162298228019e-15
0
ARC
5
179
100
AcDbEntity
8
0
100
AcDbCircle
10
25.394103904528752
20
7.8083863328011303
30
-4.4408920985006262e-15
40
0.020000001813995992
210
1.1075123137728335e-16
220
5.5511148720881065e-17
230
1
100
AcDbArc
50
180.00001083317309
51
225.49822518554529
0
LINE
5
180
100
AcDbEntity
8
0
100
AcDbLine
10
25.374103902714754
20
7.8083863290191857
30
-4.4386770734622382e-15
11
25.374103903020242
21
7.9999999999465778
31
-4.4462104459940113e-15
0
LINE
5
181
100
AcDbEntity
8
0
100
AcDbLine
10
25.374103903020242
20
7.9999999999465778
30
-4.4462104459940113e-15
11
25.294780580710782
21
7.9999999999467208
31
-6.5849315407438651e-15
0
ARC
5
182
100
AcDbEntity
8
0
100
AcDbCircle
10
25.294780580538323
20
8.0200000001308069
30
-2.2204460492503131e-15
40
0.020000000184086097
210
1.1075125053692082e-16
220
5.5511148720884941e-17
230
1
100
AcDbArc
50
180
51
270.00000049405975
0
LINE
5
183
100
AcDbEntity
8
0
100
AcDbLine
10
25.27478058069601
20
9.9799999999999933
30
-4.4408920985006262e-15
11
25.274780580354236
21
8.0199999999999942
31
-2.2182310242119252e-15
0
ARC
5
184
100
AcDbEntity
8
0
100
AcDbCircle
10
25.294780783706933
20
9.9799999159162347
30
0
40
0.020000202996325205
210
-1.5791347670884179e-13
220
4.7347769433106529e-14
230
1
100
AcDbArc
50
89.802423849472547
51
179.99975912081172
0
LINE
5
185
100
AcDbEntity
8
0
100
AcDbLine
10
25.374103910338221
20
10.000000000002576
30
-4.4408920985006262e-15
11
25.294849751357255
21
9.9999999999999929
31
-9.3606844839744793e-16
0
LINE
5
186
100
AcDbEntity
8
0
100
AcDbLine
10
25.374103910338221
20
10.000000000002576
30
-4.4408920985006262e-15
11
25.374103910363964
21
10.191613670980804
31
-4.4462104459940113e-15
0
ARC
5
187
100
AcDbEntity
8
0
100
AcDbCircle
10
25.394103907678694
20
10.191613665475503
30
-4.4408920985006262e-15
40
0.01999999731472666
210
1.108076108898324e-16
220
5.5540434448454704e-17
230
1
100
AcDbArc
50
134.50177779004829
51
179.99998425719184
0
LINE
5
188
100
AcDbEntity
8
0
100
AcDbLine
10
25.380085281662804
20
10.205878237576192
30
-4.4401309885755409e-15
11
26.818267797778901
21
11.619264565832863
31
-4.8336443354835001e-15
0
ARC
5
189
100
AcDbEntity
8
0
100
AcDbCircle
10
26.83228641241433
20
11.60499998938559
30
-4.4408920985006262e-15
40
0.019999992437911455
210
1.1075125191937665e-16
220
5.5511115589853052e-17
230
1
100
AcDbArc
50
89.999972001673413
51
134.50174580888344
0
LINE
5
190
100
AcDbEntity
8
0
100
AcDbLine
10
26.832286422187586
20
11.624999981823498
30
-4.442002321475044e-15
11
35.124103466802417
21
11.624999964023031
31
-4.8035577251970274e-15
0
LINE
5
191
100
AcDbEntity
8
0
100
AcDbLine
10
35.124103466802417
20
11.624999964023031
30
-4.8035577251970274e-15
11
35.127850711389598
21
11.624999964019484
31
-7.4841965099928058e-15
0
SPLINE
5
192
100
AcDbEntity
8
0
100
AcDbSpline
70
4
71
3
72
16
73
12
74
0
42
0.000000001
43
0.0000000001
44
0.0000000001
40
1.5707963267948966
40
1.5707963267948966
40
1.5707963267948966
40
1.5707963267948966
40
1.8849555921538759
40
1.8849555921538759
40
2.1991148575128552
40
2.1991148575128552
40
2.5132741228718345
40
2.5132741228718345
40
2.8274333882308138
40
2.8274333882308138
40
3.1415926535897931
40
3.1415926535897931
40
3.1415926535897931
40
3.1415926535897931
41
1
41
1
41
1
41
1
41
1
41
1
41
1
41
1
41
1
41
1
41
1
41
1
10
35.627850674843778
20
11.124999999999991
30
0
10
35.627850675308167
20
11.177359877811391
30
0
10
35.61955902664215
20
11.229711289313988
30
0
10
35.58719884593399
20
11.32930568924181
30
0
10
35.56313554454195
20
11.376532579573508
30
0
10
35.501582823124778
20
11.461252636454196
30
0
10
35.464103352757057
20
11.498732108584521
30
0
10
35.379383300483546
20
11.560284832415046
30
0
10
35.332156413906674
20
11.584348134165927
30
0
10
35.232562020991701
20
11.616708315606816
30
0
10
35.18021061624161
20
11.624999963970788
30
0
10
35.127850711389598
20
11.624999964019484
30
0
0
LWPOLYLINE
5
193
100
AcDbEntity
8
0
100
AcDbPolyline
90
8
70
1
43
0.0
10
32.171220588652943
20
6.9749999999999934
10
28.829350594921046
20
6.974999999999997
42
-0.8108959595394396
10
28.768708215065534
20
7.2621951229652808
42
0.65131775979456608
10
28.76870821506553
20
10.737804877034709
42
-0.81089595953943516
10
28.829350594921046
20
11.024999999999995
10
32.171220588652943
20
11.02499999999999
42
-0.8108959595394768
10
32.231862968508466
20
10.737804877034707
42
0.65131775979456641
10
32.231862968508459
20
7.2621951229652808
42
-0.81089595953946214
0
LINE
5
194
100
AcDbEntity
8
0
100
AcDbLine
10
35.627850688778175
20
2.124999999999992
30
-6.6613381477509392e-15
11
35.627850688778175
21
0.99999999999999178
31
-6.6301131265954414e-15
0
LINE
5
195
100
AcDbEntity
8
0
100
AcDbLine
10
35.704780109940828
20
0.99999999999999223
30
-6.6613381477509392e-15
11
35.627850688778175
21
0.99999999999999178
31
-6.6301131265954414e-15
0
LINE
5
196
100
AcDbEntity
8
0
100
AcDbLine
10
35.704780109940828
20
0.99999999999999223
30
-6.6613381477509392e-15
11
35.704918451233773
21
0.99999999999999223
31
-5.1163777707814221e-15
0
ARC
5
197
100
AcDbEntity
8
0
100
AcDbCircle
10
35.704918451233773
20
0.97999999999999221
30
-4.4408920985006262e-15
40
0.019999999999997797
210
1.1075125191938834e-16
220
5.5511148720884948e-17
230
1
100
AcDbArc
50
0
51
90
0
LINE
5
198
100
AcDbEntity
8
0
100
AcDbLine
10
35.724918451233769
20
0.97999999999999221
30
-4.4431071235390133e-15
11
35.724918450329312
21
0.23299522668994779
31
-6.6406046012177273e-15
0
ARC
5
199
100
AcDbEntity
8
0
100
AcDbCircle
10
35.705144007689661
20
0.22999999999999243
30
-6.6613381477509392e-15
40
0.019999999999997797
210
1.1075125191938824e-16
220
5.5511148720884948e-17
230
1
100
AcDbArc
50
0
51
8.613096185387878
0
LINE
5
200
100
AcDbEntity
8
0
100
AcDbLine
10
35.725144007689657
20
0.22999999999999246
30
-6.6635531727893264e-15
11
35.725144006785207
21
-0.23000000000000737
31
-6.648570583545136e-15
0
ARC
5
201
100
AcDbEntity
8
0
100
AcDbCircle
10
35.70514400768991
20
-0.23000000000003146
30
-6.6613381477509582e-15
40
0.019999999999753576
210
1.1075125191973759e-16
220
5.5511148720908299e-17
230
1
100
AcDbArc
50
-8.6130961854268477
51
0
0
LINE
5
202
100
AcDbEntity
8
0
100
AcDbLine
10
35.724918451203514
20
-0.23299522682237794
30
-6.6633619236445176e-15
11
35.724918450329312
21
-0.98000000000000742
31
-6.6406046012177273e-15
0
ARC
5
203
100
AcDbEntity
8
0
100
AcDbCircle
10
35.704918451233773
20
-0.98000000000000753
30
-4.4408920985006262e-15
40
0.020000000000000018
210
1.1075125191939419e-16
220
5.5511148720874397e-17
230
1
100
AcDbArc
50
-90
51
0
0
LINE
5
204
100
AcDbEntity
8
0
100
AcDbLine
10
35.704918451233773
20
-1.0000000000000075
30
-4.4397818755262083e-15
11
35.704780109940828
21
-1.0000000000000075
31
-5.9858524754701433e-15
0
LINE
5
205
100
AcDbEntity
8
0
100
AcDbLine
10
35.627850688778175
20
-1.0000000000000087
30
-6.6613381477509392e-15
11
35.704780109940828
21
-1.0000000000000075
31
-5.9858524754701433e-15
0
LINE
5
206
100
AcDbEntity
8
0
100
AcDbLine
10
35.627850688778175
20
-1.0000000000000087
30
-6.6613381477509392e-15
11
35.627850688778175
21
-2.1250000000000075
31
-6.6301131265954414e-15
0
SPLINE
5
207
100
AcDbEntity
8
0
100
AcDbSpline
70
0
71
3
72
16
73
12
74
0
42
0.000000001
43
0.0000000001
44
0.0000000001
40
4.7123889803846897
40
4.7123889803846897
40
4.7123889803846897
40
4.7123889803846897
40
5.026548245743669
40
5.026548245743669
40
5.3407075111026483
40
5.3407075111026483
40
5.6548667764616276
40
5.6548667764616276
40
5.9690260418206069
40
5.9690260418206069
40
6.2831853071795862
40
6.2831853071795862
40
6.2831853071795862
40
6.2831853071795862
10
35.627850689682631
20
-2.1250000000000075
30
-4.4408920985006262e-15
10
35.627850689682631
20
-2.1773598774651228
30
-4.4408920985006262e-15
10
35.619559040211549
20
-2.2297112942532582
30
-6.6613381477509392e-15
10
35.587198857737981
20
-2.3293056996160963
30
-6.6613381477509392e-15
10
35.563135553720315
20
-2.3765325950262017
30
-8.8817841970012523e-15
10
35.501582828816829
20
-2.4612526565703785
30
-6.6613381477509392e-15
10
35.464103354052241
20
-2.4987321330395296
30
-6.6613381477509392e-15
10
35.379383296197268
20
-2.5602848608298268
30
-6.6613381477509392e-15
10
35.332156402770131
20
-2.5843481660259124
30
-6.6613381477509392e-15
10
35.23256200147398
20
-2.6167083501049735
30
-6.6613381477509392e-15
10
35.180210586770997
20
-2.6250000000000071
30
-4.4408920985006262e-15
10
35.127850711389598
20
-2.6250000000000071
30
-6.6613381477509392e-15
0
LINE
5
208
100
AcDbEntity
8
0
100
AcDbLine
10
35.127850711389598
20
-2.6250000000000067
30
-6.6613381477509392e-15
11
35.124103466802417
21
-2.6250000000000071
31
-8.0589257024104877e-15
0
LINE
5
209
100
AcDbEntity
8
0
100
AcDbLine
10
35.124103466802417
20
-2.6250000000000071
30
-8.0589257024104877e-15
11
26.832286422187586
21
-2.6250000000000062
31
-4.0782264718042249e-15
0
ARC
5
210
100
AcDbEntity
8
0
100
AcDbCircle
10
26.832286422187586
20
-2.6050000000000062
30
-4.4408920985006262e-15
40
0.019999999999999983
210
1.1081925729567739e-16
220
5.5531790648946179e-17
230
1
100
AcDbArc
50
225.49821290796882
51
270
0
LINE
5
211
100
AcDbEntity
8
0
100
AcDbLine
10
26.81826779197365
20
-2.6192645717399792
30
-4.4385464271004536e-15
11
25.380085276918386
21
-1.2058782424038628
31
-6.3467162298228019e-15
0
ARC
5
212
100
AcDbEntity
8
0
100
AcDbCircle
10
25.394103906820824
20
-1.1916136709808152
30
-4.4408920985006262e-15
40
0.019999999999997797
210
1.1075125191941261e-16
220
5.5511148720884948e-17
230
1
100
AcDbArc
50
180
51
225.49821290804493
0
LINE
5
213
100
AcDbEntity
8
0
100
AcDbLine
10
25.374103906820828
20
-1.1916136709808152
30
-4.4386770734622382e-15
11
25.374103907725281
21
-1.0000000000000058
31
-4.4462104459940113e-15
0
LINE
5
214
100
AcDbEntity
8
0
100
AcDbLine
10
25.374103907725281
20
-1.0000000000000058
30
-4.4462104459940113e-15
11
25.294780580710782
21
-1.0000000000000058
31
-6.5849315407438651e-15
0
ARC
5
215
100
AcDbEntity
8
0
100
AcDbCircle
10
25.294780580710778
20
-0.98000000000000587
30
-2.2204460492503131e-15
40
0.019999999999997797
210
1.1075125191940028e-16
220
5.5511148720884948e-17
230
1
100
AcDbArc
50
180
51
270.00000000001017
0
LINE
5
216
100
AcDbEntity
8
0
100
AcDbLine
10
25.274780581615239
20
0.97999999999999365
30
-4.4408920985006262e-15
11
25.274780580710782
21
-0.98000000000000598
31
-2.2182310242119252e-15
0
ARC
5
217
100
AcDbEntity
8
0
100
AcDbCircle
10
25.294780783706933
20
0.97999991591623448
30
0
40
0.020000202996325621
210
-1.5791347670884179e-13
220
4.7347769433105538e-14
230
1
100
AcDbArc
50
89.802423849472561
51
179.99975912081172
0
LINE
5
218
100
AcDbEntity
8
0
100
AcDbLine
10
25.374103907725281
20
0.999999999999994
30
-4.4408920985006262e-15
11
25.294849751357255
21
0.99999999999999378
31
-9.3606844839744793e-16
0
LINE
5
219
100
AcDbEntity
8
0
100
AcDbLine
10
25.374103907725281
20
0.999999999999994
30
-4.4408920985006262e-15
11
25.374103907725281
21
1.1916136709808041
31
-4.4462104459940113e-15
0
ARC
5
220
100
AcDbEntity
8
0
100
AcDbCircle
10
25.394103906820824
20
1.1916136709808041
30
-4.4408920985006262e-15
40
0.019999999999999907
210
1.1080759388497972e-16
220
5.5540451751644542e-17
230
1
100
AcDbArc
50
134.50178709196737
51
180
0
LINE
5
221
100
AcDbEntity
8
0
100
AcDbLine
10
25.380085276606902
20
1.2058782427207944
30
-4.4401309885755409e-15
11
26.818267792285116
21
2.6192645714230318
31
-4.8336443354835001e-15
0
ARC
5
222
100
AcDbEntity
8
0
100
AcDbCircle
10
26.832286422187586
20
2.6049999999999933
30
-4.4408920985006262e-15
40
0.020000000000000018
210
1.1075125191939282e-16
220
5.5511148720874397e-17
230
1
100
AcDbArc
50
90
51
134.50178709203865
0
LINE
5
223
100
AcDbEntity
8
0
100
AcDbLine
10
26.832286422187586
20
2.6249999999999933
30
-4.442002321475044e-15
11
35.124103466802417
21
2.6249999999999925
31
-4.8035577251970274e-15
0
LINE
5
224
100
AcDbEntity
8
0
100
AcDbLine
10
35.124103466802417
20
2.6249999999999925
30
-4.8035577251970274e-15
11
35.127850711389598
21
2.624999999999992
31
-7.4841965099928058e-15
0
SPLINE
5
225
100
AcDbEntity
8
0
100
AcDbSpline
70
0
71
3
72
16
73
12
74
0
42
0.000000001
43
0.0000000001
44
0.0000000001
40
1.5707963267948966
40
1.5707963267948966
40
1.5707963267948966
40
1.5707963267948966
40
1.8849555921538759
40
1.8849555921538759
40
2.1991148575128552
40
2.1991148575128552
40
2.5132741228718345
40
2.5132741228718345
40
2.8274333882308138
40
2.8274333882308138
40
3.1415926535897931
40
3.1415926535897931
40
3.1415926535897931
40
3.1415926535897931
10
35.627850689682631
20
2.124999999999992
30
-6.6613381477509392e-15
10
35.627850689682631
20
2.1773598774651068
30
-6.6613381477509392e-15
10
35.619559040211549
20
2.2297112942532431
30
-6.6613381477509392e-15
10
35.587198857737981
20
2.3293056996160812
30
-6.6613381477509392e-15
10
35.563135553720315
20
2.3765325950261857
30
-8.8817841970012523e-15
10
35.501582828816829
20
2.461252656570363
30
-6.6613381477509392e-15
10
35.464103354052241
20
2.4987321330395131
30
-6.6613381477509392e-15
10
35.379383296197268
20
2.5602848608298108
30
-6.6613381477509392e-15
10
35.332156402770131
20
2.5843481660258965
30
-6.6613381477509392e-15
10
35.232562001473987
20
2.6167083501049588
30
-8.8817841970012523e-15
10
35.180210586770997
20
2.624999999999992
30
-6.6613381477509392e-15
10
35.127850711389605
20
2.624999999999992
30
-6.6613381477509392e-15
0
LWPOLYLINE
5
226
100
AcDbEntity
8
0
100
AcDbPolyline
90
8
70
1
43
0.0
10
32.171220588652943
20
-2.0250000000000066
10
28.829350594921046
20
-2.0250000000000044
42
-0.81089595953944005
10
28.768708215065534
20
-1.7378048770347205
42
0.65131775979456585
10
28.768708215065534
20
1.7378048770347085
42
-0.81089595953943761
10
28.829350594921046
20
2.0249999999999941
10
32.171220588652943
20
2.0249999999999946
42
-0.81089595953945448
10
32.231862968508466
20
1.7378048770347072
42
0.65131775979456641
10
32.231862968508459
20
-1.7378048770347196
42
-0.81089595953946303
0
LINE
5
227
100
AcDbEntity
8
0
100
AcDbLine
10
35.627850693930078
20
-6.8750000000000089
30
-4.4408920985006262e-15
11
35.627850694154453
21
-7.9999999997328732
31
-4.4096670773451283e-15
0
LINE
5
228
100
AcDbEntity
8
0
100
AcDbLine
10
35.704780109940828
20
-7.9999999997323368
30
-6.6613381477509392e-15
11
35.627850694154453
21
-7.9999999997328732
31
-4.4096670773451283e-15
0
LINE
5
229
100
AcDbEntity
8
0
100
AcDbLine
10
35.704780109940828
20
-7.9999999997323368
30
-6.6613381477509392e-15
11
35.704918451233773
21
-7.9999999997323359
31
-5.1163777707814221e-15
0
ARC
5
230
100
AcDbEntity
8
0
100
AcDbCircle
10
35.704918452050173
20
-8.0200000006089258
30
-4.4408920985006262e-15
40
0.020000000876589936
210
1.1075124537511971e-16
220
5.551114872088475e-17
230
1
100
AcDbArc
50
1.7075472925031877e-06
51
90.000002338811868
0
LINE
5
231
100
AcDbEntity
8
0
100
AcDbLine
10
35.724918452926758
20
-8.0200000000000085
30
-4.4431071235390133e-15
11
35.724918452635194
21
-8.7670047729280007
31
-6.6406046012177273e-15
0
ARC
5
232
100
AcDbEntity
8
0
100
AcDbCircle
10
35.705144008188874
20
-8.7700000002445808
30
-6.6613381477509392e-15
40
0.020000000995956672
210
1.1075124572537694e-16
220
5.5511148720884867e-17
230
1
100
AcDbArc
50
0
51
8.6130971851666516
0
LINE
5
233
100
AcDbEntity
8
0
100
AcDbLine
10
35.725144009184831
20
-8.7700000000000085
30
-6.6635531727893264e-15
11
35.725144008822951
21
-9.2300000000000075
31
-6.648570583545136e-15
0
ARC
5
234
100
AcDbEntity
8
0
100
AcDbCircle
10
35.705144008074427
20
-9.2299999999861182
30
-6.6613381477509558e-15
40
0.020000000748522387
210
1.1075124696600012e-16
220
5.5511149471272059e-17
230
1
100
AcDbArc
50
351.38690479419756
51
360
0
LINE
5
235
100
AcDbEntity
8
0
100
AcDbLine
10
35.724918452379569
20
-9.2329952265825046
30
-6.6633619236445176e-15
11
35.724918452013988
21
-9.9800000000000075
31
-6.6406046012177273e-15
0
ARC
5
236
100
AcDbEntity
8
0
100
AcDbCircle
10
35.704918451618461
20
-9.9799999996798672
30
-4.4408920985006262e-15
40
0.020000000395521415
210
1.1075125191939413e-16
220
5.5511145492824536e-17
230
1
100
AcDbArc
50
269.99999889795049
51
359.99999914622634
0
LINE
5
237
100
AcDbEntity
8
0
100
AcDbLine
10
35.704918451233773
20
-10.000000000075389
30
-4.4397818755262083e-15
11
35.704780109940828
21
-10.00000000007539
31
-5.9858524754701433e-15
0
LINE
5
238
100
AcDbEntity
8
0
100
AcDbLine
10
35.627850694157914
20
-10.000000000075239
30
-4.4408920985006262e-15
11
35.704780109940828
21
-10.00000000007539
31
-5.9858524754701433e-15
0
LINE
5
239
100
AcDbEntity
8
0
100
AcDbLine
10
35.627850694157914
20
-10.000000000075239
30
-4.4408920985006262e-15
11
35.627850694508879
21
-11.125000000000007
31
-4.4096670773451283e-15
0
SPLINE
5
240
100
AcDbEntity
8
0
100
AcDbSpline
70
4
71
3
72
16
73
12
74
0
42
0.000000001
43
0.0000000001
44
0.0000000001
40
4.7123889803846897
40
4.7123889803846897
40
4.7123889803846897
40
4.7123889803846897
40
5.026548245743669
40
5.026548245743669
40
5.3407075111026483
40
5.3407075111026483
40
5.6548667764616276
40
5.6548667764616276
40
5.9690260418206069
40
5.9690260418206069
40
6.2831853071795862
40
6.2831853071795862
40
6.2831853071795862
40
6.2831853071795862
41
1
41
1
41
1
41
1
41
1
41
1
41
1
41
1
41
1
41
1
41
1
41
1
10
35.627850694508879
20
-11.125000000000007
30
0
10
35.627850695025366
20
-11.177359886805769
30
0
10
35.619559045176615
20
-11.229711306091701
30
0
10
35.587198861688655
20
-11.329305714619691
30
0
10
35.563135555881864
20
-11.37653261349559
30
0
10
35.501582828294715
20
-11.461252678638694
30
0
10
35.464103349847527
20
-11.498732158742955
30
0
10
35.37938328699439
20
-11.560284890081519
30
0
10
35.332156387143563
20
-11.584348198508623
30
0
10
35.232561977699319
20
-11.616708385153382
30
0
10
35.180210553076336
20
-11.625000036574578
30
0
10
35.127850711389598
20
-11.625000036525241
30
0
0
LINE
5
241
100
AcDbEntity
8
0
100
AcDbLine
10
35.127850711389598
20
-11.625000036525241
30
-6.6613381477509392e-15
11
35.124103466802417
21
-11.625000036521644
31
-8.0589257024104877e-15
0
LINE
5
242
100
AcDbEntity
8
0
100
AcDbLine
10
35.124103466802417
20
-11.625000036521644
30
-8.0589257024104877e-15
11
26.832286422187586
21
-11.625000004587614
31
-4.0782264718042249e-15
0
ARC
5
243
100
AcDbEntity
8
0
100
AcDbCircle
10
26.832286426096843
20
-11.605000002975629
30
-4.4408920985006262e-15
40
0.020000001611983693
210
1.1081924381753663e-16
220
5.5531776934352896e-17
230
1
100
AcDbArc
50
225.49819894527309
51
269.99998880080477
0
LINE
5
244
100
AcDbEntity
8
0
100
AcDbLine
10
26.81826779127681
20
-11.619264572449046
30
-4.4385464271004536e-15
11
25.38008527630182
21
-10.205878243031252
31
-6.3467162298228019e-15
0
ARC
5
245
100
AcDbEntity
8
0
100
AcDbCircle
10
25.394103908539428
20
-10.191613675986584
30
-4.4408920985006262e-15
40
0.019999998069627007
210
1.1075127650276767e-16
220
5.5511148720878785e-17
230
1
100
AcDbArc
50
179.99998568814576
51
225.49819934483068
0
LINE
5
246
100
AcDbEntity
8
0
100
AcDbLine
10
25.374103910469799
20
-10.191613670980814
30
-4.4386770734622382e-15
11
25.374103910895087
21
-9.9999999998896119
31
-4.4462104459940113e-15
0
LINE
5
247
100
AcDbEntity
8
0
100
AcDbLine
10
25.374103910895087
20
-9.9999999998896119
30
-4.4462104459940113e-15
11
25.294780580710782
21
-9.9999999998899085
31
-6.5849315407438651e-15
0
ARC
5
248
100
AcDbEntity
8
0
100
AcDbCircle
10
25.294780580944249
20
-9.9800000001336802
30
-2.2204460492503131e-15
40
0.019999999756223907
210
1.1075125364033423e-16
220
5.5511148720884941e-17
230
1
100
AcDbArc
50
180
51
269.99999933116754
0
LINE
5
249
100
AcDbEntity
8
0
100
AcDbLine
10
25.274780581579044
20
-8.0200000000000031
30
-4.4408920985006262e-15
11
25.274780581188026
21
-9.9800000000000075
31
-2.2182310242119252e-15
0
ARC
5
250
100
AcDbEntity
8
0
100
AcDbCircle
10
25.294780784137284
20
-8.020000083743323
30
0
40
0.020000202558413789
210
-1.579134767170154e-13
220
4.7347767062796868e-14
230
1
100
AcDbArc
50
89.80242508004136
51
179.99976009568218
0
LINE
5
251
100
AcDbEntity
8
0
100
AcDbLine
10
25.374103907205921
20
-8.0000000000962483
30
-4.4408920985006262e-15
11
25.294849751356544
21
-8.0000000000959908
31
-9.3606844839744793e-16
0
LINE
5
252
100
AcDbEntity
8
0
100
AcDbLine
10
25.374103907205921
20
-8.0000000000962483
30
-4.4408920985006262e-15
11
25.374103907210589
21
-7.8083863290191955
31
-4.4462104459940113e-15
0
ARC
5
253
100
AcDbEntity
8
0
100
AcDbCircle
10
25.394103907158989
20
-7.8083863281728503
30
-4.4408920985006262e-15
40
0.019999999948398198
210
1.1080759050420252e-16
220
5.5540455191733509e-17
230
1
100
AcDbArc
50
134.50178948240239
51
180.0000024148365
0
LINE
5
254
100
AcDbEntity
8
0
100
AcDbLine
10
25.380085276386104
20
-7.7941217570545342
30
-4.4401309885755409e-15
11
26.818267792022084
21
-6.3807354283093245
31
-2.6131982862331871e-15
0
ARC
5
255
100
AcDbEntity
8
0
100
AcDbCircle
10
26.832286423069721
20
-6.3949999992699835
30
-4.4408920985006262e-15
40
0.020000000028537208
210
1.1075125191939261e-16
220
5.5511153526542086e-17
230
1
100
AcDbArc
50
90.000002527131343
51
134.50179036036911
0
LINE
5
256
100
AcDbEntity
8
0
100
AcDbLine
10
26.832286422187586
20
-6.3749999992414459
30
-4.442002321475044e-15
11
35.124103466802417
21
-6.3749999987792076
31
-4.8035577251970274e-15
0
LINE
5
257
100
AcDbEntity
8
0
100
AcDbLine
10
35.124103466802417
20
-6.3749999987792076
30
-4.8035577251970274e-15
11
35.127850711389598
21
-6.3749999987790869
31
-7.4841965099928058e-15
0
SPLINE
5
258
100
AcDbEntity
8
0
100
AcDbSpline
70
4
71
3
72
16
73
12
74
0
42
0.000000001
43
0.0000000001
44
0.0000000001
40
1.5707963267948966
40
1.5707963267948966
40
1.5707963267948966
40
1.5707963267948966
40
1.8849555921538759
40
1.8849555921538759
40
2.1991148575128552
40
2.1991148575128552
40
2.5132741228718345
40
2.5132741228718345
40
2.8274333882308138
40
2.8274333882308138
40
3.1415926535897931
40
3.1415926535897931
40
3.1415926535897931
40
3.1415926535897931
41
1
41
1
41
1
41
1
41
1
41
1
41
1
41
1
41
1
41
1
41
1
41
1
10
35.627850693930078
20
-6.8750000000000089
30
0
10
35.627850694206693
20
-6.8226401263975456
30
0
10
35.619559044516485
20
-6.7702887082933501
30
0
10
35.587198861689131
20
-6.6706943018935627
30
0
10
35.563135557244067
20
-6.6234674056574283
30
0
10
35.501582831868326
20
-6.5387473434784216
30
0
10
35.464103356616093
20
-6.5012678665265273
30
0
10
35.379383298275677
20
-6.4397151383905138
30
0
10
35.332156404377976
20
-6.4156518329573142
30
0
10
35.232562002634637
20
-6.3832916487372504
30
0
10
35.18021058751058
20
-6.3749999987773895
30
0
10
35.127850711389598
20
-6.3749999987790869
30
0
0
LWPOLYLINE
5
259
100
AcDbEntity
8
0
100
AcDbPolyline
90
8
70
1
43
0.0
10
32.171220588652943
20
-11.025000000000007
10
28.829350594921046
20
-11.025000000000006
42
-0.81089595953944105
10
28.768708215065534
20
-10.737804877034719
42
0.65131775979456719
10
28.768708215065534
20
-7.2621951229652923
42
-0.81089595953943761
10
28.829350594921046
20
-6.9750000000000068
10
32.171220588652943
20
-6.9750000000000059
42
-0.81089595953945448
10
32.231862968508466
20
-7.2621951229652932
42
0.65131775979456652
10
32.231862968508466
20
-10.737804877034717
42
-0.81089595953948201
0
LINE
5
260
100
AcDbEntity
8
0
100
AcDbLine
10
-54.125000002634025
20
22.629817088518674
30
-1.1102230246251565e-14
11
-53.000000000634614
21
22.629776761244006
31
-1.0481199468914042e-14
0
LINE
5
261
100
AcDbEntity
8
0
100
AcDbLine
10
-53.000000000636348
20
22.704780109941332
30
-8.8817841970012523e-15
11
-53.000000000634614
21
22.629776761244006
31
-1.0481199468914042e-14
0
LINE
5
262
100
AcDbEntity
8
0
100
AcDbLine
10
-53.000000000636348
20
22.704780109941332
30
-8.8817841970012523e-15
11
-53.000000000636348
21
22.704918451234278
31
-7.3368235966929698e-15
0
ARC
5
263
100
AcDbEntity
8
0
100
AcDbCircle
10
-52.980000000339388
20
22.704918450939715
30
-6.6613381477509392e-15
40
0.020000000294566611
210
-5.5432742477307918e-17
220
1.0901652777985541e-16
230
1
100
AcDbArc
50
89.999999026312651
51
179.99999914622637
0
LINE
5
264
100
AcDbEntity
8
0
100
AcDbLine
10
-52.979999999999507
20
22.724918451234281
30
-6.6635184783198077e-15
11
-52.232995226999194
21
22.724918450363688
31
-9.2154773269276007e-15
0
ARC
5
265
100
AcDbEntity
8
0
100
AcDbCircle
10
-52.229999999896172
20
22.705144007354733
30
-6.6613381477509392e-15
40
0.01999999954283016
210
-5.5432742477307912e-17
220
1.0901653064897408e-16
230
1
100
AcDbArc
50
90.000000296030777
51
98.613097196944167
0
LINE
5
266
100
AcDbEntity
8
0
100
AcDbLine
10
-52.229999999999507
20
22.725144006897562
30
-6.6635184783198077e-15
11
-51.769999999999513
21
22.725144006032096
31
-7.7199358023084213e-15
0
ARC
5
267
100
AcDbEntity
8
0
100
AcDbCircle
10
-51.769999999984073
20
22.705144006924275
30
-6.6613381477509803e-15
40
0.019999999107817964
210
-5.543274177893032e-17
220
1.0901653305382727e-16
230
1
100
AcDbArc
50
81.386903631656239
51
90.000000044232607
0
LINE
5
268
100
AcDbEntity
8
0
100
AcDbLine
10
-51.767004773232173
20
22.724918449546443
30
-6.6633278552976141e-15
11
-51.019999999999527
21
22.724918448726584
31
-6.9950312776772742e-15
0
ARC
5
269
100
AcDbEntity
8
0
100
AcDbCircle
10
-51.020000004295348
20
22.704918453336461
30
-6.6613381477509392e-15
40
0.01999999539012098
210
-5.543274380127183e-17
220
1.0896231833479299e-16
230
1
100
AcDbArc
50
-6.0370913470859987e-06
51
89.999987693377705
0
LINE
5
270
100
AcDbEntity
8
0
100
AcDbLine
10
-51.000000008905232
20
22.704918451234278
30
-6.660229492901394e-15
11
-51.000000008905175
21
22.704780109941332
31
-8.2062987480592218e-15
0
LINE
5
271
100
AcDbEntity
8
0
100
AcDbLine
10
-51.000000008876043
20
22.614607410020685
30
-1.1102230246251565e-14
11
-51.000000008905175
21
22.704780109941332
31
-8.2062987480592218e-15
0
LINE
5
272
100
AcDbEntity
8
0
100
AcDbLine
10
-51.000000008876043
20
22.614607410020685
30
-1.1102230246251565e-14
11
-49.875000047985296
21
22.614882164942635
31
-1.0481199468914179e-14
0
SPLINE
5
273
100
AcDbEntity
8
0
100
AcDbSpline
70
4
71
3
72
16
73
12
74
0
42
0.000000001
43
0.0000000001
44
0.0000000001
40
4.7123889803846897
40
4.7123889803846897
40
4.7123889803846897
40
4.7123889803846897
40
5.026548245743669
40
5.026548245743669
40
5.3407075111026483
40
5.3407075111026483
40
5.6548667764616276
40
5.6548667764616276
40
5.9690260418206069
40
5.9690260418206069
40
6.2831853071795862
40
6.2831853071795862
40
6.2831853071795862
40
6.2831853071795862
41
1
41
1
41
1
41
1
41
1
41
1
41
1
41
1
41
1
41
1
41
1
41
1
10
-49.875000047985296
20
22.614882164942635
30
0
10
-49.827900475584279
20
22.61489390124612
30
0
10
-49.779848731776333
20
22.607295468087436
30
0
10
-49.684695988925682
20
22.576405493855315
30
0
10
-49.642014761129033
20
22.554673440727441
30
0
10
-49.561878990257583
20
22.496489980139785
30
0
10
-49.528908459029914
20
22.463544047513611
30
0
10
-49.471610800541256
20
22.384754874872627
30
0
10
-49.45132119432909
20
22.344990523340222
30
0
10
-49.421898098448708
20
22.254661967702269
30
0
10
-49.415333769267704
20
22.213489447607785
30
0
10
-49.415208494046084
20
22.12785174955939
30
0
0
LINE
5
274
100
AcDbEntity
8
0
100
AcDbLine
10
-49.415208494046084
20
22.12785174955939
30
-8.8817841970012523e-15
11
-49.415202819122079
21
22.124076105275417
31
-5.8384861382561771e-15
0
LINE
5
275
100
AcDbEntity
8
0
100
AcDbLine
10
-49.415202819122079
20
22.124076105275417
30
-5.8384861382561771e-15
11
-49.428170891314167
21
13.854880635611087
31
-4.0923211000465365e-15
0
ARC
5
276
100
AcDbEntity
8
0
100
AcDbCircle
10
-49.421785108842172
20
13.879056066999606
30
-4.4408920985006262e-15
40
0.025004593590009797
210
1.0359924899488743e-16
220
-1.9168339193351744e-17
230
1
100
AcDbArc
50
141.14748463148757
51
255.20363771901859
0
LINE
5
277
100
AcDbEntity
8
0
100
AcDbLine
10
-49.441257769007777
20
13.894741895210963
30
-4.4385740742558524e-15
11
-50.864138767382229
21
12.434097816266373
31
-5.438900198273533e-15
0
ARC
5
278
100
AcDbEntity
8
0
100
AcDbCircle
10
-50.851497538905164
20
12.413640334159501
30
-6.6613381477509392e-15
40
0.024048060869050824
210
-7.8330555960841131e-17
220
1.116702324109822e-16
230
1
100
AcDbArc
50
-6.610707510700971
51
121.71303429373144
0
LINE
5
279
100
AcDbEntity
8
0
100
AcDbLine
10
-50.827609367132368
20
12.410871854267027
30
-6.6591578171820708e-15
11
-50.999050816691309
21
12.410990787048764
31
-4.9248617420446713e-15
0
LINE
5
280
100
AcDbEntity
8
0
100
AcDbLine
10
-50.999050816691309
20
12.410990787048764
30
-4.9248617420446713e-15
11
-50.999056152907194
21
12.294761664220742
31
-8.8055088801010026e-15
0
ARC
5
281
100
AcDbEntity
8
0
100
AcDbCircle
10
-51.021774124176886
20
12.289246831360668
30
-4.4408920985006262e-15
40
0.023377758662539824
210
-5.4022371198315509e-17
220
8.958880693361558e-17
230
1
100
AcDbArc
50
-85.847850114492957
51
13.644730032277627
0
LINE
5
282
100
AcDbEntity
8
0
100
AcDbLine
10
-52.980054393371589
20
12.246795879977007
30
-6.6613381477509392e-15
11
-51.020081451192084
21
12.265930432448089
31
-4.4387117679317577e-15
0
ARC
5
283
100
AcDbEntity
8
0
100
AcDbCircle
10
-52.976567958570215
20
12.27766876710545
30
-8.8817841970012523e-15
40
0.031069122730944768
210
1.9011103756544216e-13
220
9.8356480720726597e-14
230
1
100
AcDbArc
50
148.64118477751262
51
263.55695909191672
0
LINE
5
284
100
AcDbEntity
8
0
100
AcDbLine
10
-53.00309999315111
20
12.302685010068661
30
-6.6613381477509392e-15
11
-53.003098661797196
21
12.293837012945746
31
-5.4282564394576047e-15
0
LINE
5
285
100
AcDbEntity
8
0
100
AcDbLine
10
-53.00309999315111
20
12.302685010068661
30
-6.6613381477509392e-15
11
-53.204646139744881
21
12.302421754327428
31
-7.1453077912949504e-15
0
ARC
5
286
100
AcDbEntity
8
0
100
AcDbCircle
10
-53.267512565900617
20
12.3750555553298
30
-8.8817841970012523e-15
40
0.096061733201330102
210
-8.1023411253360348e-17
220
3.6883036081395578e-17
230
1
100
AcDbArc
50
250.46997303850432
51
310.87703219770043
0
LINE
5
287
100
AcDbEntity
8
0
100
AcDbLine
10
-53.299626082356887
20
12.284520597184027
30
-8.8810469395239619e-15
11
-54.708752166340474
21
13.719513031684752
31
-8.3618414926586726e-15
0
ARC
5
288
100
AcDbEntity
8
0
100
AcDbCircle
10
-54.608319249876295
20
13.717937686782646
30
-4.4408920985006262e-15
40
0.10044527077498941
210
-1.1541842836018735e-17
220
7.0468270489113645e-18
230
1
100
AcDbArc
50
113.29959917902421
51
179.10135824014543
0
LINE
5
289
100
AcDbEntity
8
0
100
AcDbLine
10
-54.648049279610618
20
13.810191560188432
30
-4.442000753350173e-15
11
-54.631466077527236
21
22.124094286206422
31
-7.0099091462050289e-15
0
LINE
5
290
100
AcDbEntity
8
0
100
AcDbLine
10
-54.631466077527236
20
22.124094286206422
30
-7.0099091462050289e-15
11
-54.631466986533461
21
22.127850782743682
31
-1.1925082388095226e-14
0
SPLINE
5
291
100
AcDbEntity
8
0
100
AcDbSpline
70
4
71
3
72
16
73
12
74
0
42
0.000000001
43
0.0000000001
44
0.0000000001
40
1.5707963267948966
40
1.5707963267948966
40
1.5707963267948966
40
1.5707963267948966
40
1.8849555921538759
40
1.8849555921538759
40
2.1991148575128552
40
2.1991148575128552
40
2.5132741228718345
40
2.5132741228718345
40
2.8274333882308138
40
2.8274333882308138
40
3.1415926535897931
40
3.1415926535897931
40
3.1415926535897931
40
3.1415926535897931
41
1
41
1
41
1
41
1
41
1
41
1
41
1
41
1
41
1
41
1
41
1
41
1
10
-54.125000002634025
20
22.629817088518674
30
0
10
-54.178142378890392
20
22.629818961820291
30
0
10
-54.231146417001519
20
22.621426118759466
30
0
10
-54.331417287058017
20
22.588851473130362
30
0
10
-54.379341548211848
20
22.564436482098721
30
0
10
-54.464772382986546
20
22.502378054718161
30
0
10
-54.502964999877733
20
22.464194265634415
30
0
10
-54.565228858062376
20
22.378527624502151
30
0
10
-54.58999240784928
20
22.329947842794727
30
0
10
-54.622900865236048
20
22.228625553228206
30
0
10
-54.631477918120915
20
22.174384606146312
30
0
10
-54.631466986533461
20
22.127850782743682
30
0
0
LWPOLYLINE
5
292
100
AcDbEntity
8
0
100
AcDbPolyline
90
8
70
1
43
0.0
10
-49.974999999999518
20
19.171220588653451
10
-49.974999999999525
20
15.829350594921543
42
-0.81089595953942584
10
-50.262195122964819
20
15.768708215066029
42
0.65131775979456208
10
-53.737804877034215
20
15.768708215066024
42
-0.81089595953941096
10
-54.024999999999494
20
15.829350594921539
10
-54.024999999999494
20
19.171220588653448
42
-0.81089595953943161
10
-53.737804877034208
20
19.23186296850896
42
0.65131775979456552
10
-50.262195122964819
20
19.231862968508967
42
-0.81089595953946736
0
LINE
5
293
100
AcDbEntity
8
0
100
AcDbLine
10
-51.767004769666329
20
25.724918449546447
30
-6.6633278552976141e-15
11
-51.019999996488707
21
25.724918448726587
31
-6.9950312776772742e-15
0
ENDSEC
0
SECTION
2
OBJECTS
0
DICTIONARY
5
C
100
AcDbDictionary
3
ACAD_GROUP
350
D
3
ACAD_MLINESTYLE
350
17
0
DICTIONARY
5
D
100
AcDbDictionary
0
DICTIONARY
5
1A
330
C
100
AcDbDictionary
0
DICTIONARY
5
17
100
AcDbDictionary
0
ENDSEC
0
EOF
