0
SECTION
2
HEADER
9
$INSUNITS
70
4
9
$ACADVER
1
AC1014
9
$HANDSEED
5
FFFF
0
ENDSEC
0
SECTION
2
TABLES
0
TABLE
2
VPORT
5
8
100
AcDbSymbolTable
0
ENDTAB
0
TABLE
2
LTYPE
5
5
100
AcDbSymbolTable
0
LTYPE
5
14
100
AcDbSymbolTableRecord
100
AcDbLinetypeTableRecord
2
BYBLOCK
70
0
0
LTYPE
5
15
100
AcDbSymbolTableRecord
100
AcDbLinetypeTableRecord
2
BYLAYER
70
0
0
LTYPE
5
16
100
AcDbSymbolTableRecord
100
AcDbLinetypeTableRecord
2
DASHED
70
0
3
Dashed __ __ __ __ __ __ __ __ __ __ __ __ __ _
72
65
73
2
40
0.75
49
0.5
74
0
49
-0.25
74
0
0
ENDTAB
0
TABLE
2
LAYER
5
2
100
AcDbSymbolTable
70
2
0
LAYER
5
50
100
AcDbSymbolTableRecord
100
AcDbLayerTableRecord
2
0
70
0
62
7
6
CONTINUOUS
0
ENDTAB
0
TABLE
2
STYLE
5
3
100
AcDbSymbolTable
70
1
0
STYLE
5
11
100
AcDbSymbolTableRecord
100
AcDbTextStyleTableRecord
2
STANDARD
70
0
0
ENDTAB
0
TABLE
2
VIEW
5
6
100
AcDbSymbolTable
70
0
0
ENDTAB
0
TABLE
2
UCS
5
7
100
AcDbSymbolTable
70
0
0
ENDTAB
0
TABLE
2
APPID
5
9
100
AcDbSymbolTable
70
2
0
APPID
5
12
100
AcDbSymbolTableRecord
100
AcDbRegAppTableRecord
2
ACAD
70
0
0
ENDTAB
0
TABLE
2
DIMSTYLE
5
A
100
AcDbSymbolTable
70
1
0
ENDTAB
0
TABLE
2
BLOCK_RECORD
5
1
100
AcDbSymbolTable
70
1
0
BLOCK_RECORD
5
1F
100
AcDbSymbolTableRecord
100
AcDbBlockTableRecord
2
*MODEL_SPACE
0
BLOCK_RECORD
5
1B
100
AcDbSymbolTableRecord
100
AcDbBlockTableRecord
2
*PAPER_SPACE
0
ENDTAB
0
ENDSEC
0
SECTION
2
BLOCKS
0
BLOCK
5
20
100
AcDbEntity
100
AcDbBlockBegin
2
*MODEL_SPACE
0
ENDBLK
5
21
100
AcDbEntity
100
AcDbBlockEnd
0
BLOCK
5
1C
100
AcDbEntity
100
AcDbBlockBegin
2
*PAPER_SPACE
0
ENDBLK
5
1D
100
AcDbEntity
100
AcDbBlockEnd
0
ENDSEC
0
SECTION
2
ENTITIES
0
POINT
5
100
100
AcDbEntity
8
0
100
AcDbPoint
10
0
20
0
30
0
0
LINE
5
101
100
AcDbEntity
8
0
100
AcDbLine
10
-19.378679656440344
20
34.935028842544405
30
5.4341818393882704e-30
11
-14.860288252291507
21
30.416637438395561
31
2.1255401469116837e-30
0
LINE
5
102
100
AcDbEntity
8
0
100
AcDbLine
10
14.860288671613366
20
30.416637126738291
30
-6.0176904457743296e-47
11
19.37868026518484
21
34.935028880039923
31
4.3484236048537234e-32
0
CIRCLE
5
103
100
AcDbEntity
8
0
100
AcDbCircle
10
-81.499999951708162
20
-0.0027535105385867453
30
0
40
1.6000000000000003
210
0
220
0
230
1
0
CIRCLE
5
104
100
AcDbEntity
8
0
100
AcDbCircle
10
81.5
20
-1.7763568394002505e-14
30
0
40
1.6000000000000016
210
0
220
0
230
1
0
ARC
5
105
100
AcDbEntity
8
0
100
AcDbCircle
10
-81.499999951708162
20
-0.0027535105385867453
30
0
40
3.0000000000000036
210
0
220
0
230
1
100
AcDbArc
50
90.000967865007013
51
270.00096786500512
0
ARC
5
106
100
AcDbEntity
8
0
100
AcDbCircle
10
81.5
20
-1.7763568394002505e-14
30
0
40
2.9999999999999867
210
-1.5788933508208433e-62
220
-9.1157451101740686e-63
230
1
100
AcDbArc
50
-149.99999973057683
51
90.010811563855555
0
CIRCLE
5
107
100
AcDbEntity
8
0
100
AcDbCircle
10
0
20
0
30
0
40
20
210
0
220
0
230
1
0
LINE
5
108
100
AcDbEntity
8
0
100
AcDbLine
10
-43.556298508810855
20
2.9978874512505058
30
3.8946697084940653e-30
11
-81.500050629001421
21
2.9972464890333854
31
0
0
LINE
5
109
100
AcDbEntity
8
0
100
AcDbLine
10
81.500464737567583
20
2.9999999640031279
30
0
11
32.450165356537532
21
2.9991713852020045
31
6.4858002986618686e-47
0
LINE
5
110
100
AcDbEntity
8
0
100
AcDbLine
10
-43.556399864212132
20
-3.0021125410111518
30
4.9567385858327872e-30
11
-81.499949274415002
21
-3.0027535101105536
31
0
0
ARC
5
111
100
AcDbEntity
8
0
100
AcDbCircle
10
0
20
0
30
0
40
29.999999999999996
210
0
220
0
230
1
100
AcDbArc
50
120.97033459871118
51
149.02966447626974
0
LINE
5
112
100
AcDbEntity
8
0
100
AcDbLine
10
-35.435028842544412
20
-19.878679656440337
30
5.8003123266053088e-30
11
-30.416637438395568
21
-14.860288252291502
31
2.1255401469116854e-30
0
LINE
5
113
100
AcDbEntity
8
0
100
AcDbLine
10
-30.416637126738287
20
14.860288671613374
30
0
11
-35.43502888003993
21
19.878680247509287
31
0
0
LINE
5
114
100
AcDbEntity
8
0
100
AcDbLine
10
19.878679656440351
20
-35.435028842544412
30
5.8003123266053158e-30
11
14.860288252291504
21
-30.416637438395561
31
2.1255401469116847e-30
0
LINE
5
115
100
AcDbEntity
8
0
100
AcDbLine
10
17.757359312880709
20
-40.55634918610405
30
8.167045031851748e-30
11
-17.757359866454117
21
-40.55634918610405
31
1.3834102853364846e-30
0
LINE
5
116
100
AcDbEntity
8
0
100
AcDbLine
10
-14.860288671613368
20
-30.416637126738287
30
-2.0058968152581082e-47
11
-19.87868024750928
21
-35.435028880039923
31
-5.4738221262688167e-47
0
ARC
5
117
100
AcDbEntity
8
0
100
AcDbCircle
10
0
20
0
30
0
40
30.000000000000004
210
2.5031682066021043e-47
220
1.5022917959047546e-47
230
1
100
AcDbArc
50
210.9703345987111
51
239.02966447626972
0
LINE
5
118
100
AcDbEntity
8
0
100
AcDbLine
10
-40.556349186104057
20
-17.757359312880695
30
8.1670450318517466e-30
11
-40.55634918610405
21
-6.0021125405831004
31
5.9216858596237964e-30
0
LINE
5
119
100
AcDbEntity
8
0
100
AcDbLine
10
-40.55634918610405
20
5.9978874508224722
30
3.6295765939183088e-30
11
-40.556349186104043
21
17.757359866454131
31
1.3834102853364828e-30
0
ARC
5
120
100
AcDbEntity
8
0
100
AcDbCircle
10
16.981609052668517
20
28.295316820674167
30
-7.6359459933728697e-47
40
2.9999999999999942
210
2.331884701151396e-47
220
1.5690317891691385e-47
230
1
100
AcDbArc
50
135.00000101273469
51
239.02966447626997
0
ARC
5
121
100
AcDbEntity
8
0
100
AcDbCircle
10
16.981608595851142
20
-28.295317094835923
30
2.697132621092349e-30
40
2.9999999999999933
210
-8.2365725079332868e-31
220
5.5420597441443073e-31
230
1
100
AcDbArc
50
120.97033459871108
51
225
0
ARC
5
122
100
AcDbEntity
8
0
100
AcDbCircle
10
17.757359312880709
20
-37.55634918610405
30
6.5432894253862953e-30
40
2.9999999999999982
210
-1.9100910561225864e-31
220
5.4125186882181784e-31
230
1
100
AcDbArc
50
-90
51
44.999999999999957
0
ARC
5
123
100
AcDbEntity
8
0
100
AcDbCircle
10
-17.75735986645412
20
-37.55634918610405
30
8.1038298875686209e-31
40
3.0000000000000022
210
-1.9100910561225838e-31
220
1.9100909885987388e-31
230
1
100
AcDbArc
50
135.00000101273477
51
270.00000000000006
0
ARC
5
124
100
AcDbEntity
8
0
100
AcDbCircle
10
-16.981609052668521
20
-28.295316820674159
30
-2.5453153311242763e-47
40
2.9999999999999942
210
-7.7729490038379504e-48
220
-5.2301059638971479e-48
230
1
100
AcDbArc
50
-44.999998987265336
51
59.02966447627032
0
ARC
5
125
100
AcDbEntity
8
0
100
AcDbCircle
10
-28.29531709483593
20
-16.981608595851139
30
2.6971326210923507e-30
40
2.9999999999999916
210
5.5420597441443003e-31
220
8.2365725079332833e-31
230
1
100
AcDbArc
50
30.970334598711165
51
135.00000000000003
0
ARC
5
126
100
AcDbEntity
8
0
100
AcDbCircle
10
-37.556349186104057
20
-17.757359312880688
30
6.5432894253862897e-30
40
3.0000000000000027
210
5.4125186882181793e-31
220
1.9100910561225862e-31
230
1
100
AcDbArc
50
180
51
314.99999999999994
0
ARC
5
127
100
AcDbEntity
8
0
100
AcDbCircle
10
-37.55634918610405
20
17.757359866454145
30
8.1038298875685999e-31
40
2.9999999999999885
210
1.9100909885987428e-31
220
1.9100910561225877e-31
230
1
100
AcDbArc
50
45.0000010127346
51
180
0
ARC
5
128
100
AcDbEntity
8
0
100
AcDbCircle
10
-28.295316820674156
20
16.981609052668535
30
0
40
3.0000000000000053
210
0
220
0
230
1
100
AcDbArc
50
225.00000101273471
51
329.02966447626972
0
ARC
5
129
100
AcDbEntity
8
0
100
AcDbCircle
10
-16.981608595851149
20
28.295317094835923
30
2.6971326210923567e-30
40
2.9999999999999964
210
8.2365725079332973e-31
220
-5.5420597441443012e-31
230
1
100
AcDbArc
50
-59.029665401288867
51
44.999999999999957
0
ARC
5
130
100
AcDbEntity
8
0
100
AcDbCircle
10
-43.556349186104029
20
-6.0021125405830862
30
5.5297725230632571e-30
40
2.9999999999999805
210
-1.3063777885351333e-31
220
1.9100910561225185e-31
230
1
100
AcDbArc
50
0
51
90.000967880569377
0
ARC
5
131
100
AcDbEntity
8
0
100
AcDbCircle
10
-43.55634918610405
20
5.9978874508224749
30
3.3216371898938922e-30
40
3
210
-1.0264646800813897e-31
220
1.9100910561225866e-31
230
1
100
AcDbArc
50
270.0009678650058
51
360
0
LINE
5
132
100
AcDbEntity
8
0
100
AcDbLine
10
-17.257359312880695
20
40.05634918610405
30
7.8405114413782058e-30
11
17.257359884129684
21
40.05634918610405
31
1.4365843438328531e-30
0
ARC
5
133
100
AcDbEntity
8
0
100
AcDbCircle
10
17.257359884129688
20
37.056349186104057
30
8.5108712704348667e-31
40
2.9999999999999991
210
1.8554191505924382e-31
220
-1.9516573892978866e-31
230
1
100
AcDbArc
50
-44.999998987265442
51
90.000000000000057
0
ARC
5
134
100
AcDbEntity
8
0
100
AcDbCircle
10
-17.257359312880695
20
37.05634918610405
30
6.2003542632537069e-30
40
3.0000000000000027
210
1.8554191505924319e-31
220
-5.4671905937483268e-31
230
1
100
AcDbArc
50
90
51
224.99999999999997
0
CIRCLE
5
135
100
AcDbEntity
8
0
100
AcDbCircle
10
-81.499999951708176
20
-0.0027535105386108628
30
0
40
1.6000000000000014
210
-2.4651903288156619e-32
220
-0
230
1
0
CIRCLE
5
136
100
AcDbEntity
8
0
100
AcDbCircle
10
81.5
20
-4.1337263256808754e-15
30
0
40
1.6000000000000014
210
-2.4651903288156619e-32
220
-0
230
1
0
LINE
5
137
100
AcDbEntity
8
0
100
AcDbLine
10
76.303847577293396
20
-2.4433982059868242e-08
30
-1.0217177892285765e-47
11
32.8633534153252
21
-2.2870502658367542e-07
31
-2.1231574445472128e-46
0
ARC
5
138
100
AcDbEntity
8
0
100
AcDbCircle
10
0
20
0
30
0
40
29.999999999999996
210
7.5212307781111196e-48
220
-9.7629423136634451e-47
230
1
100
AcDbArc
50
300.97033459871119
51
354.78409103080895
0
ARC
5
139
100
AcDbEntity
8
0
100
AcDbCircle
10
0
20
0
30
0
40
29.999999999999993
210
7.5212307781111209e-48
220
-9.7629423136634432e-47
230
1
100
AcDbArc
50
10.474218642473794
51
59.029664476269765
0
ARC
5
140
100
AcDbEntity
8
0
100
AcDbCircle
10
76.303847591400327
20
-3.0000000244340126
30
-3.2175288041744375e-47
40
3.0000000000000275
210
-8.158433838456683e-48
220
-7.3193700881829719e-48
230
1
100
AcDbArc
50
30.000000269423367
51
90.000000269422529
0
ARC
5
141
100
AcDbEntity
8
0
100
AcDbCircle
10
32.863353429432159
20
-3.0000002287050433
30
-4.749774267030743e-46
40
3.0000000000000164
210
-1.3343786716859711e-47
220
-8.7553894145530605e-47
230
1
100
AcDbArc
50
90.000000269423083
51
174.78409103080881
0
ARC
5
142
100
AcDbEntity
8
0
100
AcDbCircle
10
32.450114679244351
20
5.9991713847739891
30
3.7564541287561084e-46
40
3.0000000000000182
210
-2.9060564534356425e-48
220
-1.0359585240146922e-46
230
1
100
AcDbArc
50
190.47421864247409
51
270.00096786500552
0
ENDSEC
0
SECTION
2
OBJECTS
0
DICTIONARY
5
C
100
AcDbDictionary
3
ACAD_GROUP
350
D
3
ACAD_MLINESTYLE
350
17
0
DICTIONARY
5
D
100
AcDbDictionary
0
DICTIONARY
5
1A
330
C
100
AcDbDictionary
0
DICTIONARY
5
17
100
AcDbDictionary
0
ENDSEC
0
EOF
