0
SECTION
2
HEADER
9
$INSUNITS
70
4
9
$ACADVER
1
AC1014
9
$HANDSEED
5
FFFF
0
ENDSEC
0
SECTION
2
TABLES
0
TABLE
2
VPORT
5
8
100
AcDbSymbolTable
0
ENDTAB
0
TABLE
2
LTYPE
5
5
100
AcDbSymbolTable
0
LTYPE
5
14
100
AcDbSymbolTableRecord
100
AcDbLinetypeTableRecord
2
BYBLOCK
70
0
0
LTYPE
5
15
100
AcDbSymbolTableRecord
100
AcDbLinetypeTableRecord
2
BYLAYER
70
0
0
LTYPE
5
16
100
AcDbSymbolTableRecord
100
AcDbLinetypeTableRecord
2
DASHED
70
0
3
Dashed __ __ __ __ __ __ __ __ __ __ __ __ __ _
72
65
73
2
40
0.75
49
0.5
74
0
49
-0.25
74
0
0
ENDTAB
0
TABLE
2
LAYER
5
2
100
AcDbSymbolTable
70
2
0
LAYER
5
50
100
AcDbSymbolTableRecord
100
AcDbLayerTableRecord
2
0
70
0
62
7
6
CONTINUOUS
0
ENDTAB
0
TABLE
2
STYLE
5
3
100
AcDbSymbolTable
70
1
0
STYLE
5
11
100
AcDbSymbolTableRecord
100
AcDbTextStyleTableRecord
2
STANDARD
70
0
0
ENDTAB
0
TABLE
2
VIEW
5
6
100
AcDbSymbolTable
70
0
0
ENDTAB
0
TABLE
2
UCS
5
7
100
AcDbSymbolTable
70
0
0
ENDTAB
0
TABLE
2
APPID
5
9
100
AcDbSymbolTable
70
2
0
APPID
5
12
100
AcDbSymbolTableRecord
100
AcDbRegAppTableRecord
2
ACAD
70
0
0
ENDTAB
0
TABLE
2
DIMSTYLE
5
A
100
AcDbSymbolTable
70
1
0
ENDTAB
0
TABLE
2
BLOCK_RECORD
5
1
100
AcDbSymbolTable
70
1
0
BLOCK_RECORD
5
1F
100
AcDbSymbolTableRecord
100
AcDbBlockTableRecord
2
*MODEL_SPACE
0
BLOCK_RECORD
5
1B
100
AcDbSymbolTableRecord
100
AcDbBlockTableRecord
2
*PAPER_SPACE
0
ENDTAB
0
ENDSEC
0
SECTION
2
BLOCKS
0
BLOCK
5
20
100
AcDbEntity
100
AcDbBlockBegin
2
*MODEL_SPACE
0
ENDBLK
5
21
100
AcDbEntity
100
AcDbBlockEnd
0
BLOCK
5
1C
100
AcDbEntity
100
AcDbBlockBegin
2
*PAPER_SPACE
0
ENDBLK
5
1D
100
AcDbEntity
100
AcDbBlockEnd
0
ENDSEC
0
SECTION
2
ENTITIES
0
POINT
5
100
100
AcDbEntity
8
0
100
AcDbPoint
10
50.913731363219974
20
29.812659961976902
30
6.2478944320208052e-46
0
ARC
5
101
100
AcDbEntity
8
0
100
AcDbCircle
10
-81.499999951544623
20
-0.0027593484231024376
30
0
40
3.0000082805283701
210
0
220
0
230
1
100
AcDbArc
50
90.000967866245972
51
270.0009705962176
0
ARC
5
102
100
AcDbEntity
8
0
100
AcDbCircle
10
81.500000061458337
20
7.1161497815405785e-06
30
0
40
3.0000000033364271
210
0
220
0
230
1
100
AcDbArc
50
-89.999033311057659
51
90.010814495734039
0
LINE
5
103
100
AcDbEntity
8
0
100
AcDbLine
10
-67.735343919352914
20
2.9974870257667319
30
0
11
-81.500050629042633
21
2.9972489316772339
31
0
0
LINE
5
104
100
AcDbEntity
8
0
100
AcDbLine
10
81.50005067717305
20
-2.9999928867596539
30
0
11
60.991846561733745
21
-3.0003403773347999
31
-9.3497118860282161e-30
0
ARC
5
105
100
AcDbEntity
8
0
100
AcDbCircle
10
6.3122024689455136
20
-24.190000002856863
30
-1.8963873734533941e-45
40
4.9999999999999734
210
7.0100435943164822e-47
220
-6.3449117026266273e-47
230
1
100
AcDbArc
50
269.9999999950204
51
284.62479409888795
0
ARC
5
106
100
AcDbEntity
8
0
100
AcDbCircle
10
-6.3122024690413951
20
-24.190000001759881
30
-1.0106566373169655e-45
40
4.9999999999997016
210
7.0100435957565541e-47
220
-6.0072128183823937e-47
230
1
100
AcDbArc
50
255.37520600381089
51
269.99999999502029
0
LWPOLYLINE
5
107
100
AcDbEntity
8
0
100
AcDbPolyline
90
10
70
1
43
0.0
10
54.699137025261578
20
8.9996718933944599
10
40.07939057095907
20
8.9996710267846591
42
-0.41421358598993752
10
37.07939039312906
20
11.999671090853496
10
37.079390524464991
20
18.149428931047542
42
-0.41421355611798544
10
39.079390524464984
20
20.149428888334988
10
40.422073164831851
20
20.149428888334988
42
0.19891236737965645
10
41.836286727204936
20
20.735215325961892
10
49.038779580820638
20
27.937708179577566
42
-0.5055155518625003
10
52.223280849934461
20
27.454129580744183
42
-0.067111783915612677
10
57.629457913091443
20
12.642492593240114
42
-0.47897438865258024
0
LINE
5
108
100
AcDbEntity
8
0
100
AcDbLine
10
81.500464644882769
20
3.000007083513252
30
0
11
80.08005083112144
21
2.9999830164375778
31
-3.1554436208840472e-28
0
LINE
5
109
100
AcDbEntity
8
0
100
AcDbLine
10
55.999969772009408
20
2.9995750105961534
30
5.0698346803126982e-31
11
40.079339305724623
21
2.9993052560960196
31
3.2676460376383219e-30
0
LINE
5
110
100
AcDbEntity
8
0
100
AcDbLine
10
37.079389751367977
20
-18.050571175733829
30
6.3756531521180371e-31
11
37.07939013684603
21
-0.00069467940454345301
31
3.3909486664502242e-30
0
LINE
5
111
100
AcDbEntity
8
0
100
AcDbLine
10
20.824267462295531
20
-25.066908149604782
30
-2.4696769518081888e-45
11
37.248719026108368
21
-41.491359713977481
31
-3.0281579126078104e-46
0
LINE
5
112
100
AcDbEntity
8
0
100
AcDbLine
10
30.414524263403511
20
-26.171891364733849
30
-1.7516230804060213e-45
11
35.062288419096305
21
-30.819655916953241
31
1.4791141972893971e-30
0
ARC
5
113
100
AcDbEntity
8
0
100
AcDbCircle
10
-2.3346718790208733e-08
20
-2.0093403948888467e-08
30
0
40
29.999999989395892
210
6.9970760037659939e-47
220
-5.9575176474568782e-47
230
1
100
AcDbArc
50
284.62479409888789
51
304.5243183542043
0
LINE
5
114
100
AcDbEntity
8
0
100
AcDbLine
10
-20.824267471864616
20
-25.066908159483447
30
-2.5098370194545684e-45
11
-37.248719026373045
21
-41.491359713721266
31
-3.077399586311409e-46
0
LWPOLYLINE
5
115
100
AcDbEntity
8
0
100
AcDbPolyline
90
10
70
1
43
0.0
10
-28.933961030679043
20
-24.691320343559767
10
-35.062292601936477
20
-30.819651914817193
42
-0.41422348796088393
10
-39.305005175051406
20
-30.819580026385445
10
-44.197095499629491
20
-25.92715812467247
42
0.41421356237309315
10
-47.025522622751609
20
-25.927062275054183
10
-49.03797295555048
20
-27.939376216812182
42
-0.50549235863438569
10
-52.222389069225358
20
-27.4558205104574
42
-0.017302169573063346
10
-53.995870800353941
20
-23.779107142857271
42
-0.54164623064697792
10
-51.25031804779357
20
-19.570000000000121
10
-31.055281374238682
20
-19.570000000000128
42
-0.66817863791929943
0
LWPOLYLINE
5
116
100
AcDbEntity
8
0
100
AcDbPolyline
90
18
70
1
43
0.0
10
-28.988326628758728
20
7.7271740672191891
42
0.065233106211869465
10
-30.000538273018954
20
-0.0017691330991736181
42
-0.41422587271268696
10
-33.00048744750363
20
-3.0019460428041507
10
-56.000317781865292
20
-3.0023356622233619
42
-0.41420467140105827
10
-59.000368598809061
20
-0.0024775502710872033
42
-0.12160646361407333
10
-52.223620474285759
20
27.454492377510732
42
-0.50551285889736863
10
-49.039127189557121
20
27.938055788314063
10
-47.024644066693952
20
25.923572665450898
42
0.41421356237309825
10
-44.196216941947775
20
25.923572665450912
10
-39.303088093872312
20
30.816701513526258
42
-0.41421192944483309
10
-35.060459233505505
20
30.816713340212761
10
-31.967186406446611
20
27.723475003999312
42
-0.66818065398967708
10
-34.088494923253776
20
22.60214283375316
10
-36.605000000000025
20
22.602142833753149
42
0.41421356237309653
10
-39.605000000000011
20
19.602142833753128
10
-39.604999999999976
20
14.499877521853641
42
0.41421356774695939
10
-36.604999944957413
20
11.499877521853659
10
-31.887107330456534
20
11.499877608415296
42
-0.49274297788298488
0
ARC
5
117
100
AcDbEntity
8
0
100
AcDbCircle
10
-2.3346737022415459e-08
20
-2.0093406114348813e-08
30
0
40
29.999999976568851
210
1.3314860628577394e-47
220
-1.2954739572020942e-46
230
1
100
AcDbArc
50
235.47568170859745
51
255.375206003811
0
ARC
5
118
100
AcDbEntity
8
0
100
AcDbCircle
10
-18.702947128322446
20
-27.188228503060575
30
-2.3016749189545627e-45
40
3.0000000000000342
210
1.0339689154754064e-46
220
2.0152544677900899e-46
230
1
100
AcDbArc
50
55.475681708597691
51
134.99999999952792
0
ARC
5
119
100
AcDbEntity
8
0
100
AcDbCircle
10
-35.127398682830886
20
-43.612680057298391
30
-4.6973094416183183e-46
40
2.9999999999999938
210
1.5365387712163832e-46
220
7.7290594213172933e-47
230
1
100
AcDbArc
50
134.9999999995278
51
231.15063982810574
0
ARC
5
120
100
AcDbEntity
8
0
100
AcDbCircle
10
18.70294711869974
20
-27.188228493128285
30
-1.9135965691221068e-45
40
3.0000000000000067
210
-2.4130507228975206e-47
220
2.8626931355568944e-46
230
1
100
AcDbArc
50
44.999999999023778
51
124.52431835420427
0
ARC
5
121
100
AcDbEntity
8
0
100
AcDbCircle
10
35.127398682512577
20
-43.612680057500967
30
-4.6221474835034866e-46
40
2.9999999999999849
210
-1.5119525130139592e-46
220
7.6053862320099199e-47
230
1
100
AcDbArc
50
-51.150639828486995
51
44.999999999023544
0
ARC
5
122
100
AcDbEntity
8
0
100
AcDbCircle
10
40.079390136846051
20
-0.00069474347335109991
30
2.7949715139165552e-30
40
3.0000000000000049
210
1.9865905084438288e-31
220
-1.5755480857575942e-31
230
1
100
AcDbArc
50
90.000970802908611
51
179.99999914622637
0
ARC
5
123
100
AcDbEntity
8
0
100
AcDbCircle
10
56.000020603130821
20
-0.00042498897321898018
30
8.7677533171519208e-31
40
3.0000000000000009
210
2.9226006819629516e-31
220
1.2326889154162489e-31
230
1
100
AcDbArc
50
-0.00075496379939288879
51
90.000970802908355
0
LINE
5
124
100
AcDbEntity
8
0
100
AcDbLine
10
-26.757359312880695
20
43.05634918610405
30
0
11
26.757359548294119
21
43.056349186104057
31
0
0
ARC
5
125
100
AcDbEntity
8
0
100
AcDbCircle
10
-67.734881734679732
20
-6.0025344473372737
30
0
40
2.9999999999999845
210
0
220
-0
230
1
100
AcDbArc
50
5.064502358318836
51
90.000970596217812
0
ARC
5
126
100
AcDbEntity
8
0
100
AcDbCircle
10
-67.735395811651358
20
5.9974870253179349
30
0
40
3.0000000000000044
210
0
220
0
230
1
100
AcDbArc
50
270.00099106989677
51
354.94029739937224
0
LINE
5
127
100
AcDbEntity
8
0
100
AcDbLine
10
-3.0000000007483569
20
-32.190000001806119
30
-1.5845141158828064e-45
11
-3.0000000008613963
21
-49.67764362824731
31
-3.9624144676340572e-46
0
LINE
5
128
100
AcDbEntity
8
0
100
AcDbLine
10
2.9999999991464383
20
-32.190000002777502
30
-1.5845141158828092e-45
11
2.9999999988421577
21
-49.677643628368536
31
-3.9624144677186762e-46
0
ARC
5
129
100
AcDbEntity
8
0
100
AcDbCircle
10
0
20
0
30
0
40
59.000000000025175
210
7.2364386478866588e-63
220
8.9844535985227413e-63
230
1
100
AcDbArc
50
231.15063982810494
51
258.87311166289516
0
ARC
5
130
100
AcDbEntity
8
0
100
AcDbCircle
10
0
20
0
30
0
40
58.999999999984574
210
5.7753369025695704e-63
220
1.7932064942469255e-62
230
1
100
AcDbArc
50
281.12688833489307
51
308.84936017151159
0
LINE
5
131
100
AcDbEntity
8
0
100
AcDbLine
10
-6.3122024694759515
20
-29.190000001759596
30
-1.3110172785120352e-45
11
-6.0000000004876171
21
-29.190000001786732
31
-1.3535567738900915e-45
0
LINE
5
132
100
AcDbEntity
8
0
100
AcDbLine
10
5.9999999994071711
20
-29.190000002829702
30
-2.1710934631761988e-45
11
6.3122024685109608
21
-29.190000002856834
31
-2.2136329585542615e-45
0
ARC
5
133
100
AcDbEntity
8
0
100
AcDbCircle
10
5.9999999991464392
20
-32.190000002829706
30
-1.9932824605258616e-45
40
3.0000000000000027
210
1.3625611488101767e-46
220
5.9270334204936828e-47
230
1
100
AcDbArc
50
89.999999995020389
51
180
0
ARC
5
134
100
AcDbEntity
8
0
100
AcDbCircle
10
-6.0000000007483498
20
-32.190000001786728
30
-1.1757457712397559e-45
40
2.9999999999999933
210
1.3625611488140029e-46
220
5.9270334216779722e-47
230
1
100
AcDbArc
50
0
51
89.99999999502036
0
CIRCLE
5
135
100
AcDbEntity
8
0
100
AcDbCircle
10
13.999999999999964
20
30.549999999999976
30
0
40
0.94999999999999307
210
0
220
0
230
1
0
CIRCLE
5
136
100
AcDbEntity
8
0
100
AcDbCircle
10
8.9999999999999893
20
30.549999999999976
30
0
40
0.94999999999999307
210
0
220
0
230
1
0
CIRCLE
5
137
100
AcDbEntity
8
0
100
AcDbCircle
10
-55.159999999999975
20
-12.340000000000053
30
1.2325951644078309e-31
40
0.16000000000000014
210
0
220
0
230
1
0
CIRCLE
5
138
100
AcDbEntity
8
0
100
AcDbCircle
10
-40.587929240110029
20
-58.165598769769396
30
-4.4408920985006262e-15
40
1.6500000000000001
210
-2.1465574826086729e-16
220
3.9910325973036336e-17
230
1
0
CIRCLE
5
139
100
AcDbEntity
8
0
100
AcDbCircle
10
-58.265598769773717
20
-40.487929240105714
30
-8.8817841970012523e-15
40
1.6500000000000001
210
-2.1465574826086729e-16
220
3.9910325973036336e-17
230
1
0
CIRCLE
5
140
100
AcDbEntity
8
0
100
AcDbCircle
10
58.165543011174492
20
-40.587247669109736
30
-4.4408920985006262e-15
40
1.6500000000000001
210
-3.9910325973036385e-17
220
-2.1465574826086729e-16
230
1
0
CIRCLE
5
141
100
AcDbEntity
8
0
100
AcDbCircle
10
40.48787348151081
20
-58.264917198773425
30
-8.8817841970012523e-15
40
1.6500000000000001
210
-3.9910325973036385e-17
220
-2.1465574826086729e-16
230
1
0
CIRCLE
5
142
100
AcDbEntity
8
0
100
AcDbCircle
10
40.587191910514839
20
58.166224582174799
30
-4.4408920985006262e-15
40
1.6500000000000001
210
2.1465574826086729e-16
220
-3.991032597303636e-17
230
1
0
CIRCLE
5
143
100
AcDbEntity
8
0
100
AcDbCircle
10
58.264861440178528
20
40.488555052511117
30
-8.8817841970012523e-15
40
1.6500000000000001
210
2.1465574826086729e-16
220
-3.991032597303636e-17
230
1
0
CIRCLE
5
144
100
AcDbEntity
8
0
100
AcDbCircle
10
-58.166280340769696
20
40.587873481515146
30
-4.4408920985006262e-15
40
1.6500000000000001
210
3.9910325973036385e-17
220
2.1465574826086729e-16
230
1
0
CIRCLE
5
145
100
AcDbEntity
8
0
100
AcDbCircle
10
-40.488610811106014
20
58.265543011178835
30
-8.8817841970012523e-15
40
1.6500000000000001
210
3.9910325973036385e-17
220
2.1465574826086729e-16
230
1
0
LINE
5
146
100
AcDbEntity
8
0
100
AcDbLine
10
-38.46660889655039
20
-60.286919113329034
30
-4.4408920985006262e-15
11
-35.373465804890778
21
-57.193776021669422
31
-1.5359194383216503e-15
0
LINE
5
147
100
AcDbEntity
8
0
100
AcDbLine
10
-42.709249583669681
20
-56.044278426209758
30
-4.4408920985006262e-15
11
-41.200333956976181
21
-54.535362799516264
31
-2.7231624937713312e-15
0
ARC
5
148
100
AcDbEntity
8
0
100
AcDbCircle
10
-40.587929240110029
20
-58.165598769769396
30
-4.4408920985006262e-15
40
3.0000000000000004
210
0
220
0
230
1
100
AcDbArc
50
135.0000000000002
51
315
0
LINE
5
149
100
AcDbEntity
8
0
100
AcDbLine
10
-56.144278426214072
20
-42.60924958366536
30
-8.8817841970012523e-15
11
-54.625825447475329
21
-41.090796604926602
31
-5.437565658219244e-15
0
LINE
5
150
100
AcDbEntity
8
0
100
AcDbLine
10
-60.38691911333337
20
-38.366608896546076
30
-8.8817841970012523e-15
11
-57.265696399104449
21
-35.245386182317148
31
-3.0491773130386434e-15
0
ARC
5
151
100
AcDbEntity
8
0
100
AcDbCircle
10
-0.00036866479760198028
20
0.0003129062027059512
30
0
40
64.999988508557394
210
0
220
0
230
1
100
AcDbArc
50
185.06450235831832
51
209.15167909641474
0
ARC
5
152
100
AcDbEntity
8
0
100
AcDbCircle
10
-58.265598769773717
20
-40.487929240105714
30
-8.8817841970012523e-15
40
3.0000000000000036
210
0
220
0
230
1
100
AcDbArc
50
135.0000000000002
51
315
0
ARC
5
153
100
AcDbEntity
8
0
100
AcDbCircle
10
-0.00036866479760198028
20
0.0003129062027059512
30
0
40
64.999988508557408
210
-3.7482782733957385e-31
220
-3.0849419293427467e-31
230
1
100
AcDbArc
50
219.45537291226495
51
230.42573527972877
0
LINE
5
154
100
AcDbEntity
8
0
100
AcDbLine
10
56.044222667614854
20
-42.708568012669382
30
-4.4408920985006262e-15
11
54.535307040921346
21
-41.199652385975881
31
-2.7231624937713265e-15
0
ARC
5
155
100
AcDbEntity
8
0
100
AcDbCircle
10
58.165543011174492
20
-40.587247669109736
30
-4.4408920985006262e-15
40
3.0000000000000004
210
0
220
0
230
1
100
AcDbArc
50
-134.99999999999991
51
45.000000000000092
0
LINE
5
156
100
AcDbEntity
8
0
100
AcDbLine
10
60.28686335473413
20
-38.465927325550091
30
-4.4408920985006262e-15
11
48.093926890688614
21
-26.272990861504582
31
-9.7441553927523572e-15
0
LINE
5
157
100
AcDbEntity
8
0
100
AcDbLine
10
38.366553137951165
20
-60.38623754233307
30
-8.8817841970012523e-15
11
35.245330423722237
21
-57.265014828104164
31
-3.0491773130386469e-15
0
ARC
5
158
100
AcDbEntity
8
0
100
AcDbCircle
10
40.48787348151081
20
-58.264917198773425
30
-8.8817841970012523e-15
40
3.0000000000000067
210
0
220
0
230
1
100
AcDbArc
50
-135
51
45.000000000000092
0
LINE
5
159
100
AcDbEntity
8
0
100
AcDbLine
10
42.609193825070449
20
-56.143596855213779
30
-8.8817841970012523e-15
11
41.090740846331698
21
-54.625143876475029
31
-5.4375656582192385e-15
0
LINE
5
160
100
AcDbEntity
8
0
100
AcDbLine
10
42.708512254074485
20
56.04490423861516
30
-4.4408920985006262e-15
11
42.477818222473296
21
55.814210207013971
31
-4.1782730622168855e-15
0
ARC
5
161
100
AcDbEntity
8
0
100
AcDbCircle
10
40.587191910514839
20
58.166224582174799
30
-4.4408920985006262e-15
40
3.0000000000000004
210
0
220
0
230
1
100
AcDbArc
50
-44.999999999999901
51
135.00000000000011
0
LINE
5
162
100
AcDbEntity
8
0
100
AcDbLine
10
60.386181783738174
20
38.367234708951479
30
-8.8817841970012523e-15
11
57.264967516264058
21
35.246020441477349
31
-3.0491930974297922e-15
0
ARC
5
163
100
AcDbEntity
8
0
100
AcDbCircle
10
58.264861440178528
20
40.488555052511117
30
-8.8817841970012523e-15
40
3.0000000000000004
210
0
220
0
230
1
100
AcDbArc
50
-44.999999999999901
51
135.00000000000011
0
LINE
5
164
100
AcDbEntity
8
0
100
AcDbLine
10
56.143541096618883
20
42.609875396070755
30
-8.8817841970012523e-15
11
54.625096281753883
21
41.091430581205756
31
-5.4375841758590383e-15
0
LINE
5
165
100
AcDbEntity
8
0
100
AcDbLine
10
-56.044959997210057
20
42.709193825074792
30
-4.4408920985006262e-15
11
-54.536052532763719
21
41.200286360628468
31
-2.7231717855656161e-15
0
ARC
5
166
100
AcDbEntity
8
0
100
AcDbCircle
10
-58.166280340769696
20
40.587873481515146
30
-4.4408920985006262e-15
40
3.0000000000000004
210
0
220
-0
230
1
100
AcDbArc
50
45.000000000000092
51
225
0
LINE
5
167
100
AcDbEntity
8
0
100
AcDbLine
10
-60.287600684329334
20
38.466553137955508
30
-4.4408920985006262e-15
11
-57.194466034299978
21
35.373418487926159
31
-1.5359273664078737e-15
0
LINE
5
168
100
AcDbEntity
8
0
100
AcDbLine
10
-38.367290467546368
20
60.38686335473848
30
-8.8817841970012523e-15
11
-37.063604663991107
21
59.083177551183226
31
-6.4455957258369251e-15
0
ARC
5
169
100
AcDbEntity
8
0
100
AcDbCircle
10
-40.488610811106014
20
58.265543011178835
30
-8.8817841970012523e-15
40
3.0000000000000036
210
0
220
-0
230
1
100
AcDbArc
50
45
51
225.00000000000011
0
LINE
5
170
100
AcDbEntity
8
0
100
AcDbLine
10
-42.609931154665652
20
56.144222667619189
30
-8.8817841970012523e-15
11
-42.477818226364192
21
56.012109739317722
31
-8.5821201288740855e-15
0
ARC
5
171
100
AcDbEntity
8
0
100
AcDbCircle
10
-0.00036866479760192759
20
0.00031290620270595142
30
0
40
65
210
-1.0080410073120491e-32
220
1.133694977989085e-32
230
1
100
AcDbArc
50
131.64235044771826
51
140.42573436007339
0
ARC
5
172
100
AcDbEntity
8
0
100
AcDbCircle
10
-0.00036866479760192759
20
0.00031290620270595142
30
0
40
65
210
-1.2268043391230571e-62
220
-2.1884061654459147e-62
230
1
100
AcDbArc
50
150.72533180230784
51
174.94029739937218
0
ARC
5
173
100
AcDbEntity
8
0
100
AcDbCircle
10
-0.00036866479760192759
20
0.00031290620270595142
30
0
40
64.999999999999986
210
-3.7053778208860281e-32
220
-8.0869883245444466e-33
230
1
100
AcDbArc
50
12.311746597498491
51
29.151681845112719
0
ARC
5
174
100
AcDbEntity
8
0
100
AcDbCircle
10
-0.00036866479760192759
20
0.00031290620270595142
30
0
40
65
210
2.4598071488314254e-31
220
2.0244928235710824e-31
230
1
100
AcDbArc
50
39.455373852197411
51
48.356818179373789
0
ARC
5
175
100
AcDbEntity
8
0
100
AcDbCircle
10
-0.00036866479760198028
20
0.0003129062027059512
30
0
40
64.999988508557408
210
-3.338225711645183e-32
220
-5.954816355777194e-32
230
1
100
AcDbArc
50
240.72533452856084
51
299.1516790964148
0
ARC
5
176
100
AcDbEntity
8
0
100
AcDbCircle
10
-0.00036866479760198028
20
0.0003129062027059512
30
0
40
64.999988508557408
210
-9.6404435291960833e-33
220
1.1713369604361683e-32
230
1
100
AcDbArc
50
309.45537291226498
51
320.42573527972883
0
ARC
5
177
100
AcDbEntity
8
0
100
AcDbCircle
10
26.757359548294104
20
46.5563491861041
30
0
40
3.5000000000000409
210
0
220
0
230
1
100
AcDbArc
50
270.00000000000023
51
315.00000101273429
0
LINE
5
178
100
AcDbEntity
8
0
100
AcDbLine
10
29.2322333261918
20
44.081475495695905
30
0
11
35.159798774477778
21
50.009041153527924
31
0
0
ARC
5
179
100
AcDbEntity
8
0
100
AcDbCircle
10
32.684925023491111
20
52.483914870847073
30
0
40
3.4999999999999929
210
0
220
0
230
1
100
AcDbArc
50
-44.999999610281797
51
0
0
ARC
5
180
100
AcDbEntity
8
0
100
AcDbCircle
10
-32.684925007550731
20
52.483914880774087
30
0
40
3.5000000000000142
210
0
220
0
230
1
100
AcDbArc
50
180
51
224.99999999999989
0
LINE
5
181
100
AcDbEntity
8
0
100
AcDbLine
10
-35.159798741703653
20
50.009041146621172
30
0
11
-29.23223304703361
21
44.081475451951135
31
0
0
ARC
5
182
100
AcDbEntity
8
0
100
AcDbCircle
10
-26.75735931288073
20
46.556349186103965
30
0
40
3.4999999999999147
210
0
220
0
230
1
100
AcDbArc
50
224.99999999999943
51
270.00000000000063
0
LINE
5
183
100
AcDbEntity
8
0
100
AcDbLine
10
36.184925023491104
20
52.483914897307038
30
0
11
36.184924991134025
21
56.763957640114015
31
-1.7814819463541069e-15
0
LINE
5
184
100
AcDbEntity
8
0
100
AcDbLine
10
42.184925036096431
20
50.816542900751934
30
-8.6476269617915722e-16
11
42.184925003659835
21
55.107103418267428
31
-3.5824773126617298e-15
0
LINE
5
185
100
AcDbEntity
8
0
100
AcDbLine
10
38.465871566955194
20
60.287544925734437
30
-4.4408920985006262e-15
11
37.06360464757438
21
58.885278006353623
31
-3.123931666227503e-15
0
LINE
5
186
100
AcDbEntity
8
0
100
AcDbLine
10
-36.184925007550746
20
52.483914880774087
30
0
11
-36.184925007550746
21
56.961857207623574
31
-3.7601592395056281e-15
0
LINE
5
187
100
AcDbEntity
8
0
100
AcDbLine
10
-42.184925007550746
20
50.817198565484965
30
-1.7248023713479877e-15
11
-42.184925007550746
21
55.305002958131183
31
-7.394470717409531e-15
0
LINE
5
188
100
AcDbEntity
8
0
100
AcDbLine
10
32.53584469745396
20
-21.050571111665018
30
1.105712145457783e-31
11
34.079389751367984
21
-21.050571111665018
31
1.3413605353013969e-31
0
ARC
5
189
100
AcDbEntity
8
0
100
AcDbCircle
10
34.079389751367984
20
-18.050571111665022
30
5.9176522554913509e-31
40
2.999999999999996
210
-1.5266699811973512e-32
220
-1.5254305733966535e-31
230
1
100
AcDbArc
50
270
51
359.99999914622634
0
ARC
5
190
100
AcDbEntity
8
0
100
AcDbCircle
10
32.535844697453967
20
-24.050571111665022
30
6.4771119017319893e-32
40
3.0000000000000027
210
-1.5266699811973184e-32
220
-1.5266698509486148e-32
230
1
100
AcDbArc
50
90.000000000000142
51
224.99999755588928
0
CIRCLE
5
191
100
AcDbEntity
8
0
100
AcDbCircle
10
-5.0789999999999722
20
-25.758000000000028
30
-2.7755575615628628e-16
40
0.29999999999999805
210
0
220
0
230
1
0
CIRCLE
5
192
100
AcDbEntity
8
0
100
AcDbCircle
10
-5.0789999999999722
20
-23.218000000000046
30
-1.3877787807814728e-16
40
0.29999999999999977
210
0
220
0
230
1
0
CIRCLE
5
193
100
AcDbEntity
8
0
100
AcDbCircle
10
5.0809999999999693
20
-25.758000000000038
30
-4.1633363423443099e-16
40
0.30000000000000016
210
0
220
0
230
1
0
CIRCLE
5
194
100
AcDbEntity
8
0
100
AcDbCircle
10
5.0809999999999693
20
-23.21800000000005
30
-1.387778780781473e-16
40
0.30000000000000088
210
0
220
0
230
1
0
CIRCLE
5
195
100
AcDbEntity
8
0
100
AcDbCircle
10
-18.205726574801261
20
33.524726574801242
30
5.5511151231257827e-16
40
0.79999999999999849
210
0
220
0
230
1
0
CIRCLE
5
196
100
AcDbEntity
8
0
100
AcDbCircle
10
-0.42572657480126813
20
30.984726574801236
30
0
40
0.8000000000000006
210
0
220
0
230
1
0
CIRCLE
5
197
100
AcDbEntity
8
0
100
AcDbCircle
10
-6.0000000009001733
20
-55.677643628227926
30
-2.9366755284389858e-46
40
1.6000000000000014
210
0
220
0
230
1
0
LINE
5
198
100
AcDbEntity
8
0
100
AcDbLine
10
-9.0000000009001759
20
-55.677643628227926
30
-2.803667954932197e-46
11
-9.0000000009001759
21
-55.928525816286864
31
-2.5364097205663368e-46
0
ARC
5
199
100
AcDbEntity
8
0
100
AcDbCircle
10
-6.0000000009001697
20
-55.677643628227933
30
-7.6589134285168818e-47
40
3.0000000000000071
210
-6.7925887069349807e-47
220
1.0652738499836261e-46
230
1
100
AcDbArc
50
89.999999999629765
51
180
0
CIRCLE
5
200
100
AcDbEntity
8
0
100
AcDbCircle
10
5.9999999987377359
20
-55.677643628420732
30
-2.9366755284390196e-46
40
1.6000000000000034
210
0
220
0
230
1
0
LINE
5
201
100
AcDbEntity
8
0
100
AcDbLine
10
8.9999999987377315
20
-55.677643628472921
30
-2.803667954961929e-46
11
8.9999999987333652
21
-55.928525816636849
31
-2.5364097204869474e-46
0
ARC
5
202
100
AcDbEntity
8
0
100
AcDbCircle
10
5.9999999987377421
20
-55.677643628420725
30
-7.6589134286595298e-47
40
2.9999999999999893
210
6.7925887071719619e-47
220
1.0652738499609547e-46
230
1
100
AcDbArc
50
0
51
89.999999999003364
0
ARC
5
203
100
AcDbEntity
8
0
100
AcDbCircle
10
5.9999999988421564
20
-49.677643628420739
30
-6.0001910798146592e-46
40
2.9999999999999982
210
6.7925887071048408e-47
220
6.7949272899831015e-47
230
1
100
AcDbArc
50
180
51
269.99999999900314
0
ARC
5
204
100
AcDbEntity
8
0
100
AcDbCircle
10
-6.0000000008613998
20
-49.677643628227926
30
-6.0001910797352006e-46
40
3.0000000000000071
210
-6.7925887069599078e-47
220
6.794927289863184e-47
230
1
100
AcDbArc
50
269.99999999962984
51
360
0
ARC
5
205
100
AcDbEntity
8
0
100
AcDbCircle
10
-11.000000000900174
20
-55.928525816286864
30
-3.5065962172872146e-46
40
1.9999999999999993
210
-4.8509324836044e-47
220
1.8822955976156699e-46
230
1
100
AcDbArc
50
-101.12688833710477
51
0
0
ARC
5
206
100
AcDbEntity
8
0
100
AcDbCircle
10
10.999999998733374
20
-55.928525816671637
30
-3.5065962172562295e-46
40
2.0000000000000084
210
4.8509324841738156e-47
220
1.882295597578058e-46
230
1
100
AcDbArc
50
180
51
281.12688833489267
0
ARC
5
207
100
AcDbEntity
8
0
100
AcDbCircle
10
-52.414732189204081
20
43.321606704188113
30
-4.1149672915053584e-15
40
3.0000000000000004
210
-6.7738133828336662e-16
220
1.3334800317999981e-15
230
1
100
AcDbArc
50
225.00000000000011
51
320.42573436007331
0
ARC
5
208
100
AcDbEntity
8
0
100
AcDbCircle
10
-59.315786377859602
20
33.252098144366514
30
-3.7441756430149215e-15
40
2.9999999999999822
210
-1.2907634849282721e-15
220
2.4978526430669143e-16
230
1
100
AcDbArc
50
-29.274668197692332
51
45.000000000000291
0
ARC
5
209
100
AcDbEntity
8
0
100
AcDbCircle
10
-59.387016742664109
20
-33.124065838757517
30
-7.4568795062996766e-15
40
2.9999999999999973
210
-2.5710314939399989e-15
220
-4.9322075373622276e-16
230
1
100
AcDbArc
50
-44.999999999999652
51
29.151679096415478
0
ARC
5
210
100
AcDbEntity
8
0
100
AcDbCircle
10
-52.50450510391569
20
-43.212116948486248
30
-8.1974241938932895e-15
40
3.0000000000000044
210
-1.3538769832157946e-15
220
-2.6548867736762474e-15
230
1
100
AcDbArc
50
39.455372912265361
51
134.99999999999991
0
ARC
5
211
100
AcDbEntity
8
0
100
AcDbCircle
10
-43.32165430053584
20
-52.414042455956618
30
-4.1149531679196836e-15
40
3.0000000000000067
210
-1.3334754476204044e-15
220
-6.7737903183208335e-16
230
1
100
AcDbArc
50
-44.999999999999794
51
50.425735279729039
0
ARC
5
212
100
AcDbEntity
8
0
100
AcDbCircle
10
-33.252145461331139
20
-59.315096365229024
30
-3.7441565743794239e-15
40
2.9999999999999698
210
-2.4978394577754052e-16
220
-1.2907569146938392e-15
230
1
100
AcDbArc
50
60.725334528560381
51
135.00000000000048
0
ARC
5
213
100
AcDbEntity
8
0
100
AcDbCircle
10
33.124010080162606
20
-59.386335171663802
30
-7.4568795062996987e-15
40
2.9999999999999876
210
4.9322075373620412e-16
220
-2.5710314939400112e-15
230
1
100
AcDbArc
50
45.000000000000092
51
119.1516790964147
0
ARC
5
214
100
AcDbEntity
8
0
100
AcDbCircle
10
43.212061189891287
20
-52.503823532915384
30
-8.1974241938930308e-15
40
2.9999999999999711
210
2.6548867736762045e-15
220
-1.3538769832157982e-15
230
1
100
AcDbArc
50
129.45537291226435
51
225.00000000000077
0
ARC
5
215
100
AcDbEntity
8
0
100
AcDbCircle
10
52.413986697361715
20
-43.320972729535534
30
-4.1149531679197097e-15
40
2.9999999999999938
210
6.7737903183208592e-16
220
-1.3334754476204245e-15
230
1
100
AcDbArc
50
45.000000000000291
51
140.4257352797288
0
ARC
5
216
100
AcDbEntity
8
0
100
AcDbCircle
10
59.386287859823724
20
33.124700097917703
30
-7.4569175887060221e-15
40
3.000000000000016
210
2.5710446173985466e-15
220
4.9322336580960848e-16
230
1
100
AcDbArc
50
135.00000000000031
51
209.15168184511259
0
ARC
5
217
100
AcDbEntity
8
0
100
AcDbCircle
10
52.503775938194238
20
43.212750924765373
30
-8.1974522782834831e-15
40
2.9999999999999853
210
1.3538815840140737e-15
220
2.6548958842839491e-15
230
1
100
AcDbArc
50
219.45537385219706
51
315.00000000000034
0
ARC
5
218
100
AcDbEntity
8
0
100
AcDbCircle
10
45.184925036096509
20
50.816542923431939
30
-4.8737283191653859e-15
40
3.0000000000000782
210
1.3363218668768875e-15
220
9.8569057924348036e-16
230
1
100
AcDbArc
50
180
51
228.35681817937297
0
ARC
5
219
100
AcDbEntity
8
0
100
AcDbCircle
10
43.184925003659977
20
55.107103425827347
30
-4.0874469453638845e-15
40
1.0000000000001426
210
5.0496962791349601e-16
220
6.3341715418472494e-16
230
1
100
AcDbArc
50
135.0000000000023
51
180
0
ARC
5
220
100
AcDbEntity
8
0
100
AcDbCircle
10
-43.18492500755076
20
55.305002958131183
30
-8.3993623827484486e-15
40
1.0000000000000142
210
-1.0048916653389033e-15
220
1.2633501485385424e-15
230
1
100
AcDbArc
50
0
51
44.999999999998849
0
ARC
5
221
100
AcDbEntity
8
0
100
AcDbCircle
10
-39.18492500755081
20
56.961857207623552
30
-6.8471172781217936e-15
40
3.0000000000000648
210
-1.028986012872038e-15
220
8.3970693792993457e-16
230
1
100
AcDbArc
50
0
51
44.999999999999609
0
ARC
5
222
100
AcDbEntity
8
0
100
AcDbCircle
10
39.184924991134039
20
56.763957662793977
30
-3.3502880158406845e-15
40
3.0000000000000124
210
5.2293535334883043e-16
220
4.1622994683142369e-16
230
1
100
AcDbArc
50
135.0000000000002
51
180
0
LINE
5
223
100
AcDbEntity
8
0
100
AcDbLine
10
74.080000000000027
20
11.500000000001656
30
-3.1991323672991277e-13
11
66.435759113557452
21
11.500000000001659
31
-1.2004678954670596e-15
0
ARC
5
224
100
AcDbEntity
8
0
100
AcDbCircle
10
-45.184925007550717
20
50.817198565484958
30
-9.7205086513169103e-15
40
2.9999999999999716
210
-2.6652354266563373e-15
220
1.9659616647355231e-15
230
1
100
AcDbArc
50
-48.357649552282091
51
0
0
ARC
5
225
100
AcDbEntity
8
0
100
AcDbCircle
10
66.435759113557438
20
14.500000000001647
30
-2.6837597681345302e-15
40
2.9999999999999938
210
8.0773519666782586e-16
220
4.9443062422249437e-16
230
1
100
AcDbArc
50
192.31174659749828
51
270.00000000000023
0
CIRCLE
5
226
100
AcDbEntity
8
0
100
AcDbCircle
10
-36.999999999999986
20
14.997741654135924
30
4.4408920985006262e-15
40
1.4999999999999991
210
0
220
0
230
1
0
CIRCLE
5
227
100
AcDbEntity
8
0
100
AcDbCircle
10
-37.000000000000014
20
19.997741428021644
30
4.4408920985006262e-15
40
1.5000000000000013
210
0
220
0
230
1
0
CIRCLE
5
228
100
AcDbEntity
8
0
100
AcDbCircle
10
28.400000000000013
20
-3.0010525967941253
30
0
40
1.5000000000000002
210
0
220
0
230
1
0
CIRCLE
5
229
100
AcDbEntity
8
0
100
AcDbCircle
10
28.400000000000031
20
1.9999997738857505
30
-2.2204460492503131e-15
40
1.5
210
0
220
0
230
1
0
CIRCLE
5
230
100
AcDbEntity
8
0
100
AcDbCircle
10
35.000000000000007
20
-15.998947177091569
30
-4.4408920985006262e-15
40
1.4999999999999993
210
0
220
0
230
1
0
CIRCLE
5
231
100
AcDbEntity
8
0
100
AcDbCircle
10
35.000000000000007
20
-10.998947403205857
30
-4.4408920985006262e-15
40
1.5000000000000002
210
0
220
0
230
1
0
CIRCLE
5
232
100
AcDbEntity
8
0
100
AcDbCircle
10
35.000000000000014
20
10.000000226114292
30
0
40
1.4999999999999991
210
0
220
0
230
1
0
CIRCLE
5
233
100
AcDbEntity
8
0
100
AcDbCircle
10
35.000000000000014
20
15.000000000000004
30
0
40
1.4999999999999991
210
0
220
0
230
1
0
CIRCLE
5
234
100
AcDbEntity
8
0
100
AcDbCircle
10
35.950573202688275
20
-51.735445164752988
30
6.7437638372729987e-61
40
1.5000000000000024
210
0
220
0
230
1
0
LINE
5
235
100
AcDbEntity
8
0
100
AcDbLine
10
-67.734932554978855
20
-3.0025344477676965
30
0
11
-81.49994913110524
21
-3.0027676285210232
31
0
0
LINE
5
236
100
AcDbEntity
8
0
100
AcDbLine
10
77.080000000000027
20
8.5000000000016644
30
-2.8793777024708155e-13
11
77.080000000000027
21
5.9999830160069383
31
-1.5705769020215725e-13
0
ARC
5
237
100
AcDbEntity
8
0
100
AcDbCircle
10
80.080000000000027
20
5.9999830160069418
30
-1.5705502910773951e-13
40
2.9999999999999982
210
-8.8703147264905516e-19
220
5.2351676361731632e-14
230
1
100
AcDbArc
50
180
51
270.00097080290834
0
ARC
5
238
100
AcDbEntity
8
0
100
AcDbCircle
10
74.080000000000013
20
8.5000000000016414
30
-1.6285820764471577e-13
40
3.000000000000016
210
4.1693187534121308e-14
220
5.2351676361731954e-14
230
1
100
AcDbArc
50
0
51
89.99999999999973
0
CIRCLE
5
239
100
AcDbEntity
8
0
100
AcDbCircle
10
46.193793598799772
20
29.229296867498007
30
-4.2560163350744692e-15
40
1.4999999999999991
210
0
220
0
230
1
0
LINE
5
240
100
AcDbEntity
8
0
100
AcDbLine
10
43.851214317573657
20
-26.273062749936354
30
-8.0922440243566468e-15
11
39.305001082702077
21
-30.81958411901228
31
-2.5746015611082602e-15
0
ARC
5
241
100
AcDbEntity
8
0
100
AcDbCircle
10
-0.000368664797601998
20
0.00031290620270595153
30
0
40
59.000389272789903
210
1.7012095616760929e-31
220
-8.9441068845759511e-32
230
1
100
AcDbArc
50
359.06007515297182
51
359.99924503620059
0
CIRCLE
5
242
100
AcDbEntity
8
0
100
AcDbCircle
10
-46.194784179575841
20
-29.232814631028525
30
-4.2560163350744692e-15
40
1.4999999999999991
210
0
220
0
230
1
0
CIRCLE
5
243
100
AcDbEntity
8
0
100
AcDbCircle
10
-46.193959164224438
20
29.229462432922677
30
-4.2560163350744692e-15
40
1.4999999999999991
210
0
220
0
230
1
0
CIRCLE
5
244
100
AcDbEntity
8
0
100
AcDbCircle
10
46.194784179575841
20
-29.232814631028528
30
-4.2560163350744692e-15
40
1.4999999999999991
210
0
220
0
230
1
0
CIRCLE
5
245
100
AcDbEntity
8
0
100
AcDbCircle
10
81.5
20
-4.1337263256808754e-15
30
0
40
1.6000000000000003
210
0
220
0
230
1
0
CIRCLE
5
246
100
AcDbEntity
8
0
100
AcDbCircle
10
-34.839637784930233
20
-14.880281898959211
30
1.942760096292289e-21
40
0.16000000000000014
210
0
220
0
230
1
0
CIRCLE
5
247
100
AcDbEntity
8
0
100
AcDbCircle
10
-81.499999951544623
20
-0.0027593484231024376
30
0
40
1.6000000000000003
210
0
220
0
230
1
0
ARC
5
248
100
AcDbEntity
8
0
100
AcDbCircle
10
37.183608853146765
20
-28.698335663884421
30
-2.5745142062571048e-15
40
2.9999999999999964
210
6.0681884372070938e-16
220
6.0681879194962534e-16
230
1
100
AcDbArc
50
224.99999755588914
51
315.00194163694363
0
ARC
5
249
100
AcDbEntity
8
0
100
AcDbCircle
10
45.972606547128969
20
-28.394311205064216
30
-7.169672453521748e-15
40
2.9999999999999973
210
3.893386797784615e-16
220
8.242842164742332e-16
230
1
100
AcDbArc
50
44.999999999999858
51
135.00194163694357
0
ARC
5
250
100
AcDbEntity
8
0
100
AcDbCircle
10
60.991812673776202
20
-1.0003403776219093
30
-8.3164868182527171e-30
40
1.9999999999999871
210
-9.115626291524221e-31
220
-5.166279794597509e-31
230
1
100
AcDbArc
50
179.06007515297105
51
270.00097081847179
0
ENDSEC
0
SECTION
2
OBJECTS
0
DICTIONARY
5
C
100
AcDbDictionary
3
ACAD_GROUP
350
D
3
ACAD_MLINESTYLE
350
17
0
DICTIONARY
5
D
100
AcDbDictionary
0
DICTIONARY
5
1A
330
C
100
AcDbDictionary
0
DICTIONARY
5
17
100
AcDbDictionary
0
ENDSEC
0
EOF
