0
SECTION
2
HEADER
9
$INSUNITS
70
4
9
$ACADVER
1
AC1014
9
$HANDSEED
5
FFFF
0
ENDSEC
0
SECTION
2
TABLES
0
TABLE
2
VPORT
5
8
100
AcDbSymbolTable
0
ENDTAB
0
TABLE
2
LTYPE
5
5
100
AcDbSymbolTable
0
LTYPE
5
14
100
AcDbSymbolTableRecord
100
AcDbLinetypeTableRecord
2
BYBLOCK
70
0
0
LTYPE
5
15
100
AcDbSymbolTableRecord
100
AcDbLinetypeTableRecord
2
BYLAYER
70
0
0
LTYPE
5
16
100
AcDbSymbolTableRecord
100
AcDbLinetypeTableRecord
2
DASHED
70
0
3
Dashed __ __ __ __ __ __ __ __ __ __ __ __ __ _
72
65
73
2
40
0.75
49
0.5
74
0
49
-0.25
74
0
0
ENDTAB
0
TABLE
2
LAYER
5
2
100
AcDbSymbolTable
70
2
0
LAYER
5
50
100
AcDbSymbolTableRecord
100
AcDbLayerTableRecord
2
0
70
0
62
7
6
CONTINUOUS
0
ENDTAB
0
TABLE
2
STYLE
5
3
100
AcDbSymbolTable
70
1
0
STYLE
5
11
100
AcDbSymbolTableRecord
100
AcDbTextStyleTableRecord
2
STANDARD
70
0
0
ENDTAB
0
TABLE
2
VIEW
5
6
100
AcDbSymbolTable
70
0
0
ENDTAB
0
TABLE
2
UCS
5
7
100
AcDbSymbolTable
70
0
0
ENDTAB
0
TABLE
2
APPID
5
9
100
AcDbSymbolTable
70
2
0
APPID
5
12
100
AcDbSymbolTableRecord
100
AcDbRegAppTableRecord
2
ACAD
70
0
0
ENDTAB
0
TABLE
2
DIMSTYLE
5
A
100
AcDbSymbolTable
70
1
0
ENDTAB
0
TABLE
2
BLOCK_RECORD
5
1
100
AcDbSymbolTable
70
1
0
BLOCK_RECORD
5
1F
100
AcDbSymbolTableRecord
100
AcDbBlockTableRecord
2
*MODEL_SPACE
0
BLOCK_RECORD
5
1B
100
AcDbSymbolTableRecord
100
AcDbBlockTableRecord
2
*PAPER_SPACE
0
ENDTAB
0
ENDSEC
0
SECTION
2
BLOCKS
0
BLOCK
5
20
100
AcDbEntity
100
AcDbBlockBegin
2
*MODEL_SPACE
0
ENDBLK
5
21
100
AcDbEntity
100
AcDbBlockEnd
0
BLOCK
5
1C
100
AcDbEntity
100
AcDbBlockBegin
2
*PAPER_SPACE
0
ENDBLK
5
1D
100
AcDbEntity
100
AcDbBlockEnd
0
ENDSEC
0
SECTION
2
ENTITIES
0
CIRCLE
5
100
100
AcDbEntity
8
0
100
AcDbCircle
10
37.094647102726043
20
-37.094647102725951
30
0
40
0.80000000000000071
210
0
220
-0
230
1
0
CIRCLE
5
101
100
AcDbEntity
8
0
100
AcDbCircle
10
32.362698372207831
20
-39.347979746446875
30
0
40
0.80000000000000071
210
0
220
-0
230
1
0
CIRCLE
5
102
100
AcDbEntity
8
0
100
AcDbCircle
10
29.86240888793056
20
-39.347979746446875
30
0
40
0.80000000000000016
210
0
220
-0
230
1
0
CIRCLE
5
103
100
AcDbEntity
8
0
100
AcDbCircle
10
39.347979746446896
20
-29.862408887930538
30
0
40
0.80000000000000016
210
0
220
-0
230
1
0
CIRCLE
5
104
100
AcDbEntity
8
0
100
AcDbCircle
10
39.347979746446896
20
-32.362698372207809
30
0
40
0.80000000000000071
210
0
220
-0
230
1
0
CIRCLE
5
105
100
AcDbEntity
8
0
100
AcDbCircle
10
19.848966561325881
20
-31.848760158871059
30
0
40
1.6000000000000014
210
0
220
-0
230
1
0
CIRCLE
5
106
100
AcDbEntity
8
0
100
AcDbCircle
10
29.629999999999995
20
23.080000000000016
30
0
40
1.0000000000000009
210
0
220
-0
230
1
0
CIRCLE
5
107
100
AcDbEntity
8
0
100
AcDbCircle
10
29.629999999999995
20
18.000000000000011
30
0
40
1.0000000000000004
210
0
220
-0
230
1
0
ELLIPSE
5
108
100
AcDbEntity
8
0
100
AcDbEllipse
10
28.400000000000016
20
-19.900000000000002
30
0
11
0.82500000000000018
21
9.1586513037381625e-17
31
0.0
40
0.99999995477714143
41
0
42
6.2831853071795862
0
ELLIPSE
5
109
100
AcDbEntity
8
0
100
AcDbEllipse
10
28.400000000000016
20
-24.899999773885728
30
0
11
-0.82500000000000018
21
-9.1586513037381625e-17
31
0.0
40
0.99999995477714143
41
0
42
6.2831853071795862
0
CIRCLE
5
110
100
AcDbEntity
8
0
100
AcDbCircle
10
19.84876015887108
20
31.848966561325859
30
0
40
1.6000000000000012
210
0
220
-0
230
1
0
CIRCLE
5
111
100
AcDbEntity
8
0
100
AcDbCircle
10
36.929882333189525
20
-3.8100370145873415
30
0
40
0.79999999999999982
210
0
220
-0
230
1
0
CIRCLE
5
112
100
AcDbEntity
8
0
100
AcDbCircle
10
36.929187440020058
20
3.809962953727855
30
0
40
0.80000000000000171
210
0
220
-0
230
1
0
CIRCLE
5
113
100
AcDbEntity
8
0
100
AcDbCircle
10
39.347979746446896
20
29.862408887930513
30
0
40
0.80000000000000016
210
0
220
0
230
1
0
CIRCLE
5
114
100
AcDbEntity
8
0
100
AcDbCircle
10
39.34797974644691
20
32.362698372207781
30
0
40
0.80000000000000071
210
0
220
0
230
1
0
CIRCLE
5
115
100
AcDbEntity
8
0
100
AcDbCircle
10
37.094647102725979
20
37.094647102725993
30
0
40
0.80000000000000071
210
0
220
0
230
1
0
CIRCLE
5
116
100
AcDbEntity
8
0
100
AcDbCircle
10
32.362698372207845
20
39.347979746446846
30
0
40
0.80000000000000071
210
0
220
0
230
1
0
CIRCLE
5
117
100
AcDbEntity
8
0
100
AcDbCircle
10
29.86240888793057
20
39.347979746446853
30
0
40
0.80000000000000016
210
0
220
0
230
1
0
CIRCLE
5
118
100
AcDbEntity
8
0
100
AcDbCircle
10
3.8100370145873717
20
36.929882333189489
30
0
40
0.79999999999999982
210
0
220
0
230
1
0
CIRCLE
5
119
100
AcDbEntity
8
0
100
AcDbCircle
10
-3.8099629537278243
20
36.929187440020016
30
0
40
0.80000000000000171
210
0
220
0
230
1
0
CIRCLE
5
120
100
AcDbEntity
8
0
100
AcDbCircle
10
-29.862408887930492
20
39.34797974644686
30
0
40
0.80000000000000016
210
0
220
0
230
1
0
CIRCLE
5
121
100
AcDbEntity
8
0
100
AcDbCircle
10
-32.36269837220776
20
39.347979746446867
30
0
40
0.80000000000000071
210
0
220
0
230
1
0
CIRCLE
5
122
100
AcDbEntity
8
0
100
AcDbCircle
10
-37.094647102725979
20
37.094647102725936
30
0
40
0.80000000000000071
210
0
220
0
230
1
0
CIRCLE
5
123
100
AcDbEntity
8
0
100
AcDbCircle
10
-39.347979746446825
20
32.362698372207802
30
0
40
0.80000000000000071
210
0
220
0
230
1
0
CIRCLE
5
124
100
AcDbEntity
8
0
100
AcDbCircle
10
-39.347979746446825
20
29.862408887930524
30
0
40
0.80000000000000016
210
0
220
0
230
1
0
CIRCLE
5
125
100
AcDbEntity
8
0
100
AcDbCircle
10
-36.929882333189468
20
3.8100370145873281
30
0
40
0.79999999999999982
210
0
220
0
230
1
0
CIRCLE
5
126
100
AcDbEntity
8
0
100
AcDbCircle
10
-36.929187440019994
20
-3.8099629537278683
30
0
40
0.80000000000000171
210
0
220
0
230
1
0
CIRCLE
5
127
100
AcDbEntity
8
0
100
AcDbCircle
10
-39.347979746446839
20
-29.862408887930528
30
0
40
0.80000000000000016
210
0
220
0
230
1
0
CIRCLE
5
128
100
AcDbEntity
8
0
100
AcDbCircle
10
-39.347979746446846
20
-32.362698372207802
30
0
40
0.80000000000000071
210
0
220
0
230
1
0
CIRCLE
5
129
100
AcDbEntity
8
0
100
AcDbCircle
10
-37.094647102725922
20
-37.094647102726015
30
0
40
0.80000000000000071
210
0
220
0
230
1
0
CIRCLE
5
130
100
AcDbEntity
8
0
100
AcDbCircle
10
-32.362698372207781
20
-39.347979746446867
30
0
40
0.80000000000000071
210
0
220
0
230
1
0
CIRCLE
5
131
100
AcDbEntity
8
0
100
AcDbCircle
10
-29.862408887930506
20
-39.347979746446867
30
0
40
0.80000000000000016
210
0
220
0
230
1
0
CIRCLE
5
132
100
AcDbEntity
8
0
100
AcDbCircle
10
-3.8100370145873095
20
-36.929882333189504
30
0
40
0.79999999999999982
210
0
220
0
230
1
0
CIRCLE
5
133
100
AcDbEntity
8
0
100
AcDbCircle
10
3.8099629537278865
20
-36.929187440020037
30
0
40
0.80000000000000171
210
0
220
0
230
1
0
LWPOLYLINE
5
134
100
AcDbEntity
8
0
100
AcDbPolyline
90
4
70
1
43
0.0
10
20.000000000000032
20
53.510520819739625
10
-20.000000298023217
20
53.510520819739625
42
0.69380682518089909
10
-19.999999999999986
20
-53.510520819739625
10
20.000000261493817
20
-53.510520722004181
42
0.69380682518089909
0
LWPOLYLINE
5
135
100
AcDbEntity
8
0
100
AcDbPolyline
90
16
70
1
43
0.0
10
9.7500000000000835
20
31.349999999999607
42
0.41421356237309509
10
12.250000000000083
20
28.849999999999607
10
16.750000000000082
20
28.849999999999611
42
-0.41421356237309509
10
23.500000000000085
20
22.099999999999611
10
23.500000000000082
20
17.599999999999611
42
0.41421356237309742
10
26.000000000000085
20
15.099999999999609
42
-0.99999999999999989
10
26.000000000000085
20
8.0999999999996071
10
25.500000000000078
20
8.0999999999996106
42
0.32046505340852255
10
23.135135135135219
20
6.410810810810414
42
-0.12168465440946646
10
21.381307602261113
20
3.6894511617087966
42
0.23217806175925373
10
20.76312158527049
20
2.0390073651843057
42
-2.1420572421952122
10
-5.648698932426031
20
20.083748887366841
42
0.31128159815901546
10
-3.4729687950340389
20
22.703482046954978
42
-0.29595718154483702
10
1.0608108108108927
20
28.48513513513474
42
0.32046505340852355
10
2.7500000000000795
20
30.849999999999611
10
2.7500000000000813
20
31.349999999999607
42
-0.99999999999999989
0
CIRCLE
5
136
100
AcDbEntity
8
0
100
AcDbCircle
10
12.750000000000083
20
31.849999999999604
30
0
40
1.6000000000000014
210
0
220
0
230
1
0
CIRCLE
5
137
100
AcDbEntity
8
0
100
AcDbCircle
10
26.500000000000085
20
3.9300000000000135
30
0
40
1.6000000000000003
210
0
220
0
230
1
0
ENDSEC
0
SECTION
2
OBJECTS
0
DICTIONARY
5
C
100
AcDbDictionary
3
ACAD_GROUP
350
D
3
ACAD_MLINESTYLE
350
17
0
DICTIONARY
5
D
100
AcDbDictionary
0
DICTIONARY
5
1A
330
C
100
AcDbDictionary
0
DICTIONARY
5
17
100
AcDbDictionary
0
ENDSEC
0
EOF
